<svg xmlns="http://www.w3.org/2000/svg" xmlns:xlink="http://www.w3.org/1999/xlink" width="1200" zoomAndPan="magnify" viewBox="0 0 900 899.99999" height="1200" preserveAspectRatio="xMidYMid meet" version="1.2"><g id="daf874cca9"><path style=" stroke:none;fill-rule:nonzero;fill:#ea8000;fill-opacity:1;" d="M 824.074219 567.484375 C 764.894531 772.617188 549.71875 891.210938 343.371094 831.679688 C 136.6875 772.070312 17.53125 557.015625 76.699219 351.679688 C 135.75 146.414062 351 28.292969 557.742188 87.691406 C 763.816406 147.363281 883.390625 362.015625 824.074219 567.484375 Z M 824.074219 567.484375 "/><path style=" stroke:none;fill-rule:nonzero;fill:#ffdf00;fill-opacity:1;" d="M 823.605469 550.402344 C 763.949219 756.753906 548.566406 876.097656 342.164062 816.554688 C 135.683594 757.09375 16.449219 541.027344 76.101562 334.609375 C 135.679688 128.394531 351 9.328125 557.742188 68.726562 C 763.816406 128.394531 883.320312 344.050781 823.605469 550.402344 Z M 823.605469 550.402344 "/><path style=" stroke:none;fill-rule:nonzero;fill:#ffea94;fill-opacity:1;" d="M 712.738281 158.097656 L 77.917969 330.28125 C 77.449219 331.835938 76.566406 333.183594 76.097656 334.742188 C 61.519531 385.164062 57.945312 436.058594 63.410156 485.203125 L 803.289062 284.523438 C 781.90625 236.871094 751.402344 193.9375 712.738281 158.097656 Z M 712.738281 158.097656 "/><path style=" stroke:none;fill-rule:nonzero;fill:#ffea94;fill-opacity:1;" d="M 821.105469 327.992188 L 72.730469 530.960938 C 75.214844 541.351562 76.367188 552.160156 79.605469 562.285156 L 827.988281 359.246094 C 825.691406 348.84375 824.273438 338.121094 821.105469 327.992188 Z M 821.105469 327.992188 "/><path style=" stroke:none;fill-rule:nonzero;fill:#ffbe00;fill-opacity:1;" d="M 731.492188 513.277344 C 686.691406 669.066406 524.074219 759.378906 368.742188 714.023438 C 213.003906 669.066406 123.058594 506.398438 167.925781 350.539062 C 213.003906 194.882812 375.554688 105.511719 531.089844 150.0625 C 686.691406 195.015625 776.441406 357.417969 731.492188 513.277344 Z M 731.492188 513.277344 "/><path style=" stroke:none;fill-rule:nonzero;fill:#faa400;fill-opacity:1;" d="M 368.742188 714.023438 C 524.074219 759.382812 686.691406 669.066406 731.492188 513.277344 C 747.019531 459.414062 756.398438 425.933594 742.628906 375.644531 L 181.222656 534.742188 C 208.21875 628.640625 267.9375 685 368.742188 714.023438 Z M 368.742188 714.023438 "/><path style=" stroke:none;fill-rule:nonzero;fill:#ffffff;fill-opacity:1;" d="M 789.75 371.554688 C 776.03125 236.621094 641.488281 148.878906 640.132812 148.011719 L 652.554688 128.632812 C 658.476562 132.425781 797.816406 223.355469 812.644531 369.226562 Z M 789.75 371.554688 "/><path style=" stroke:none;fill-rule:nonzero;fill:#ffffff;fill-opacity:1;" d="M 385.378906 793.421875 C 172.183594 758.613281 107.761719 570.148438 107.140625 568.25 L 128.996094 561.042969 L 118.066406 564.644531 L 128.992188 561.03125 C 129.582031 562.800781 190 738.1875 389.082031 770.703125 Z M 385.378906 793.421875 "/><path style=" stroke:none;fill-rule:nonzero;fill:#ffffff;fill-opacity:1;" d="M 599.308594 111.992188 C 597.625 117.597656 575.152344 115.300781 548.976562 107.199219 C 523.132812 99.304688 503.628906 88.363281 505.183594 82.902344 C 506.9375 77.429688 529.34375 79.664062 555.316406 87.625 C 581.019531 95.585938 600.929688 106.589844 599.308594 111.992188 Z M 599.308594 111.992188 "/><path style=" stroke:none;fill-rule:nonzero;fill:#f69000;fill-opacity:1;" d="M 450.332031 732.710938 C 422.175781 732.710938 394.066406 728.671875 366.792969 720.710938 C 207.617188 674.765625 115.402344 507.839844 161.238281 348.605469 C 198.234375 220.863281 316.949219 131.648438 449.933594 131.648438 C 477.910156 131.648438 505.867188 135.59375 533.011719 143.367188 C 692.023438 189.308594 784.0625 356.113281 738.1875 515.207031 C 701.355469 643.269531 582.988281 732.710938 450.332031 732.710938 Z M 449.933594 145.578125 C 323.109375 145.578125 209.898438 230.65625 174.617188 352.476562 C 130.902344 504.3125 218.851562 663.503906 370.675781 707.332031 C 396.699219 714.933594 423.496094 718.78125 450.332031 718.78125 C 576.8125 718.78125 689.675781 633.488281 724.804688 511.359375 C 768.550781 359.640625 680.785156 200.5625 529.15625 156.757812 C 503.28125 149.339844 476.621094 145.578125 449.933594 145.578125 Z M 449.933594 145.578125 "/><path style=" stroke:none;fill-rule:nonzero;fill:#faa400;fill-opacity:1;" d="M 451.195312 223.976562 C 455.046875 216.152344 461.527344 216.152344 465.367188 223.976562 L 523.0625 341.089844 C 526.90625 348.914062 537.164062 356.410156 545.800781 357.6875 L 675.019531 376.519531 C 683.660156 377.808594 685.617188 383.671875 679.339844 389.882812 L 585.882812 480.886719 C 579.601562 487.09375 575.757812 499.105469 577.109375 507.679688 L 599.308594 636.335938 C 600.726562 645.039062 595.597656 648.691406 587.976562 644.632812 L 472.320312 583.890625 C 464.628906 579.839844 452.011719 579.839844 444.25 583.890625 L 328.597656 644.632812 C 320.976562 648.691406 315.84375 645.039062 317.398438 636.335938 L 339.453125 507.679688 C 340.871094 499.105469 336.964844 487.09375 330.75 480.886719 L 237.230469 389.886719 C 231.015625 383.679688 232.910156 377.808594 241.542969 376.523438 L 370.769531 357.695312 C 379.535156 356.414062 389.660156 348.914062 393.574219 341.09375 Z M 451.195312 223.976562 "/><path style=" stroke:none;fill-rule:nonzero;fill:#ffffa4;fill-opacity:1;" d="M 443.847656 232.820312 C 447.285156 225.863281 452.75 225.863281 456.195312 232.820312 L 506.800781 335.546875 C 510.242188 342.4375 519.21875 348.914062 526.84375 350.136719 L 640.203125 366.601562 C 647.894531 367.753906 649.585938 372.949219 644.113281 378.414062 L 561.996094 458.335938 C 556.464844 463.742188 553.089844 474.332031 554.367188 481.828125 L 573.804688 594.753906 C 575.082031 602.316406 570.496094 605.621094 563.8125 602.117188 L 462.265625 548.652344 C 455.585938 545.136719 444.449219 545.136719 437.707031 548.652344 L 336.148438 602.117188 C 329.460938 605.621094 324.949219 602.320312 326.230469 594.753906 L 345.59375 481.828125 C 346.875 474.332031 343.503906 463.742188 337.964844 458.335938 L 255.921875 378.414062 C 250.390625 372.949219 252.144531 367.753906 259.769531 366.601562 L 373.191406 350.136719 C 380.820312 348.914062 389.726562 342.441406 393.164062 335.546875 Z M 443.847656 232.820312 "/></g></svg>