<svg xmlns="http://www.w3.org/2000/svg" xmlns:xlink="http://www.w3.org/1999/xlink" width="1200" zoomAndPan="magnify" viewBox="0 0 900 899.99999" height="1200" preserveAspectRatio="xMidYMid meet" version="1.2"><defs><clipPath id="c4f863853b"><path d="M 510 94.699219 L 711 94.699219 L 711 206 L 510 206 Z M 510 94.699219 "/></clipPath></defs><g id="0b4e80418b"><path style=" stroke:none;fill-rule:nonzero;fill:#eec254;fill-opacity:1;" d="M 563.40625 103.207031 C 537.160156 100.09375 511.496094 105.316406 486.015625 110.90625 L 489.628906 109.121094 C 442.929688 131.109375 398.625 155.117188 360.449219 190.347656 C 327.082031 221.136719 298.390625 256.417969 262.253906 284.203125 C 221.871094 315.246094 178.652344 340.328125 148.5625 382.734375 C 101.691406 448.757812 87.898438 536.835938 101.125 615.660156 C 115.949219 703.976562 172.230469 786.921875 267.800781 795.101562 C 383.484375 805.023438 494.554688 721.566406 570.460938 643.332031 C 680.28125 530.171875 817.78125 301.773438 675.402344 160.363281 C 645.601562 130.761719 605.550781 108.175781 563.40625 103.207031 "/><g clip-rule="nonzero" clip-path="url(#c4f863853b)"><path style=" stroke:none;fill-rule:nonzero;fill:#dfbe7b;fill-opacity:1;" d="M 710.003906 205.160156 C 701.0625 189.5 689.625 174.492188 675.402344 160.363281 C 652.410156 137.523438 623.304688 118.855469 591.847656 109.242188 C 574.476562 101.714844 555.660156 97.519531 534.796875 97.386719 C 534.570312 97.386719 534.335938 97.386719 534.105469 97.386719 C 526.53125 97.386719 518.667969 97.96875 510.71875 99.109375 C 521.113281 96.070312 531.359375 94.734375 541.554688 94.734375 C 565.300781 94.734375 588.710938 101.996094 612.691406 111.886719 C 659.292969 131.089844 692.042969 161.453125 710.003906 205.160156 "/></g><path style=" stroke:none;fill-rule:nonzero;fill:#d8a637;fill-opacity:1;" d="M 626.617188 571.105469 C 630.847656 564.695312 634.789062 558.140625 638.570312 551.492188 C 658.519531 522.167969 675.984375 490.683594 690.824219 458.539062 C 693.90625 453.175781 696.90625 447.773438 699.734375 442.269531 C 703.925781 434.164062 707.59375 425.796875 710.722656 417.230469 C 693.265625 472.632812 663.597656 524.914062 626.617188 571.105469 M 722.085938 371.785156 C 722.953125 365.671875 723.5625 359.53125 723.921875 353.367188 C 727.46875 327.242188 727.03125 300.714844 720.753906 274.515625 C 716.074219 255.074219 708.257812 236.421875 697.925781 219.234375 C 696.90625 216.132812 695.757812 213.046875 694.464844 210.003906 C 683.785156 184.945312 664.878906 164.257812 645.265625 145.769531 C 628.714844 130.132812 611.179688 117.617188 591.847656 109.242188 C 623.304688 118.855469 652.410156 137.523438 675.402344 160.363281 C 689.625 174.492188 701.0625 189.5 710.003906 205.160156 C 713.820312 214.445312 716.972656 224.332031 719.449219 234.839844 C 730.269531 280.953125 730.355469 327.082031 722.085938 371.785156 "/><path style=" stroke:none;fill-rule:nonzero;fill:#dfbe7b;fill-opacity:1;" d="M 122 695.382812 C 117.808594 690.25 113.867188 684.941406 110.242188 679.4375 C 95.351562 656.855469 89.15625 632.375 88.035156 607.234375 C 92.382812 624.738281 100.65625 640.136719 110.589844 654.863281 C 112.367188 666.148438 115.503906 677.011719 119.8125 687.292969 C 120.363281 690 121.101562 692.699219 122 695.382812 "/><path style=" stroke:none;fill-rule:nonzero;fill:#d8a637;fill-opacity:1;" d="M 275.9375 784.507812 C 267.648438 784.507812 259.25 783.808594 250.742188 782.300781 C 244.570312 781.191406 238.550781 779.644531 232.691406 777.710938 C 245.527344 780.167969 258.613281 781.300781 271.789062 781.300781 C 293.152344 781.300781 314.789062 778.332031 336.121094 773.257812 C 316.703125 780.148438 296.65625 784.507812 275.9375 784.507812 "/><path style=" stroke:none;fill-rule:nonzero;fill:#cf9b2b;fill-opacity:1;" d="M 638.570312 551.492188 C 646.535156 537.496094 653.789062 523.09375 661.464844 508.773438 C 670.621094 491.652344 681.160156 475.328125 690.824219 458.539062 C 675.984375 490.683594 658.519531 522.167969 638.570312 551.492188 M 723.921875 353.367188 C 725.023438 334.417969 723.71875 315.324219 719.929688 296.714844 C 718.660156 296.421875 716.859375 296.121094 715.242188 296.121094 C 714.425781 296.121094 713.65625 296.199219 713.027344 296.390625 L 714.820312 303.605469 C 713.171875 319.925781 708.59375 335.664062 702.003906 350.601562 C 703.117188 335.277344 703.726562 319.921875 704.453125 304.75 C 705.8125 276.242188 706.894531 246.617188 697.925781 219.234375 C 708.257812 236.421875 716.074219 255.074219 720.753906 274.515625 C 727.03125 300.714844 727.46875 327.242188 723.921875 353.367188 "/><path style=" stroke:none;fill-rule:nonzero;fill:#dfbe7b;fill-opacity:1;" d="M 171.242188 353.542969 C 173.222656 351.074219 175.246094 348.625 177.316406 346.191406 C 185.613281 336.5 194.371094 327.226562 203.171875 317.992188 L 196.902344 328.433594 C 191.542969 333.636719 186.296875 339.480469 184.746094 340.90625 C 180.21875 345.082031 175.703125 349.28125 171.242188 353.542969 "/><path style=" stroke:none;fill-rule:nonzero;fill:#e3b445;fill-opacity:1;" d="M 387.4375 757.042969 C 405.945312 749.828125 423.800781 741.457031 440.589844 732.539062 C 467.316406 718.371094 494.503906 702.859375 519.960938 685.117188 C 489.429688 713.789062 453.054688 734.726562 412.75 748.898438 C 404.503906 751.792969 396.050781 754.535156 387.4375 757.042969 "/><path style=" stroke:none;fill-rule:nonzero;fill:#efdfbd;fill-opacity:1;" d="M 191.78125 337.128906 C 191.972656 336.75 192.164062 336.375 192.351562 336.003906 L 196.902344 328.433594 C 201.710938 323.757812 206.617188 319.597656 209.03125 319.597656 C 209.171875 319.597656 209.304688 319.613281 209.429688 319.644531 C 210.332031 319.859375 210.816406 320.671875 211.015625 321.832031 C 207.839844 324.269531 204.6875 326.71875 201.566406 329.191406 C 198.261719 331.792969 195 334.433594 191.78125 337.128906 M 417.089844 147.691406 C 418.574219 145.714844 420.136719 143.796875 421.824219 141.964844 C 443.414062 118.339844 477.816406 103.855469 510.71875 99.109375 C 506.027344 100.484375 501.308594 102.203125 496.554688 104.304688 C 487.253906 108.382812 478.269531 113.125 469.234375 117.820312 C 469.019531 117.898438 468.832031 117.9375 468.667969 117.9375 C 468.058594 117.9375 467.835938 117.394531 468.003906 116.308594 L 466.632812 119.027344 C 457.785156 123.019531 449.457031 127.949219 441.449219 133.449219 C 433.191406 137.996094 425.0625 142.726562 417.089844 147.691406 "/><path style=" stroke:none;fill-rule:nonzero;fill:#e3b445;fill-opacity:1;" d="M 315.503906 592.039062 C 313.574219 592.039062 311.648438 592.019531 309.722656 591.984375 C 311.433594 587.652344 314.292969 583.871094 317.390625 582.449219 C 320.410156 581.027344 325.871094 582.632812 328.210938 579.71875 C 331.273438 575.847656 329.425781 571.609375 324.953125 570.261719 C 324.019531 569.980469 323.066406 569.847656 322.101562 569.847656 C 313.203125 569.847656 303.167969 581.183594 296.550781 591.453125 C 275.367188 590.175781 254.230469 586.898438 233.394531 582.59375 C 195.046875 554.496094 170.140625 510.804688 164.625 461.628906 C 161.910156 437.554688 164.195312 414.738281 169.992188 392.671875 C 173.507812 388.371094 177.195312 384.304688 181.441406 380.945312 C 184.820312 378.277344 187.835938 377.375 190.695312 377.375 C 193.742188 377.375 196.609375 378.394531 199.578125 379.421875 C 202.542969 380.445312 205.601562 381.464844 209.015625 381.464844 C 210.523438 381.464844 212.09375 381.269531 213.753906 380.785156 C 213.757812 380.785156 213.757812 380.785156 213.757812 380.785156 C 214.835938 383.722656 216.070312 386.613281 217.472656 389.445312 C 235.972656 426.839844 274.226562 443.640625 313.289062 443.636719 C 333.601562 443.628906 354.128906 439.09375 372.210938 430.546875 C 426.980469 404.675781 462.4375 348.027344 470.90625 288.660156 C 471.226562 288.445312 471.546875 288.238281 471.875 288.03125 C 481.515625 281.890625 492.835938 279.785156 503.570312 276.324219 C 522.820312 270.117188 538.078125 257.929688 555.085938 247.484375 C 562.890625 242.703125 571.511719 238.226562 579.363281 232.867188 C 587.992188 300.714844 567.726562 375.710938 539.773438 434.9375 C 507.1875 504.011719 452.847656 565.105469 376.691406 584.691406 C 356.519531 589.882812 336.03125 592.039062 315.503906 592.039062 M 191.777344 337.140625 C 191.777344 337.132812 191.777344 337.128906 191.78125 337.128906 C 195 334.433594 198.261719 331.792969 201.566406 329.191406 C 198.261719 331.808594 195 334.449219 191.777344 337.140625 M 405.984375 161.519531 C 405.632812 161.453125 405.277344 161.386719 404.925781 161.324219 L 410.34375 157.726562 C 412.46875 154.292969 414.667969 150.914062 417.089844 147.691406 C 425.0625 142.726562 433.191406 137.996094 441.449219 133.449219 C 429.128906 141.90625 417.554688 151.707031 405.984375 161.519531 M 437.691406 153.550781 C 448.449219 141.875 461.128906 133.265625 474.53125 124.6875 C 491.035156 126.714844 507.699219 129.472656 522.78125 136.429688 C 521.003906 136.363281 519.230469 136.335938 517.457031 136.335938 C 495.777344 136.335938 474.234375 141.320312 458.972656 150.507812 L 464.375 146.917969 C 455.152344 147.558594 446.175781 149.914062 437.691406 153.550781 "/><path style=" stroke:none;fill-rule:nonzero;fill:#d8b160;fill-opacity:1;" d="M 466.632812 119.027344 L 468.003906 116.308594 C 467.835938 117.394531 468.058594 117.9375 468.667969 117.9375 C 468.832031 117.9375 469.019531 117.898438 469.234375 117.820312 C 478.269531 113.125 487.253906 108.382812 496.554688 104.304688 C 501.308594 102.203125 506.027344 100.484375 510.71875 99.109375 C 518.667969 97.96875 526.53125 97.386719 534.105469 97.386719 C 534.335938 97.386719 534.570312 97.386719 534.796875 97.386719 C 555.660156 97.519531 574.476562 101.714844 591.847656 109.242188 C 582.535156 106.394531 573.027344 104.34375 563.40625 103.207031 C 557.957031 102.558594 552.542969 102.273438 547.148438 102.273438 C 526.523438 102.273438 506.210938 106.476562 486.015625 110.90625 L 489.628906 109.121094 C 486.007812 110.824219 482.402344 112.539062 478.808594 114.273438 C 474.636719 115.648438 470.578125 117.246094 466.632812 119.027344 "/><path style=" stroke:none;fill-rule:nonzero;fill:#d3a031;fill-opacity:1;" d="M 322.65625 611.296875 C 317.644531 610.417969 312.144531 609.742188 309.78125 606.246094 C 307.324219 602.597656 307.769531 596.933594 309.722656 591.984375 C 311.648438 592.019531 313.574219 592.039062 315.503906 592.039062 C 336.03125 592.039062 356.519531 589.882812 376.691406 584.691406 C 452.847656 565.105469 507.1875 504.011719 539.773438 434.9375 C 567.726562 375.710938 587.992188 300.714844 579.363281 232.867188 C 585.4375 228.726562 591.046875 224.050781 595.460938 218.296875 C 609.878906 199.488281 600.914062 174.589844 585.472656 159.242188 C 570.769531 144.59375 547.003906 137.355469 522.78125 136.429688 C 507.699219 129.472656 491.035156 126.714844 474.53125 124.6875 C 480.644531 120.777344 486.90625 116.878906 493.203125 112.695312 L 491.417969 110.90625 C 487.089844 111.796875 482.894531 112.933594 478.808594 114.273438 C 482.402344 112.539062 486.007812 110.824219 489.628906 109.121094 L 486.015625 110.90625 C 506.210938 106.476562 526.523438 102.273438 547.148438 102.273438 C 552.542969 102.273438 557.957031 102.558594 563.40625 103.207031 C 573.027344 104.34375 582.535156 106.394531 591.847656 109.242188 C 611.179688 117.617188 628.714844 130.132812 645.265625 145.769531 C 664.878906 164.257812 683.785156 184.945312 694.464844 210.003906 C 695.757812 213.046875 696.90625 216.132812 697.925781 219.234375 C 681.429688 191.800781 658.53125 168.09375 631.738281 150.855469 C 625.59375 146.871094 608.347656 137.378906 599.132812 137.378906 C 593.40625 137.378906 590.785156 141.042969 595.851562 151.976562 C 609.484375 181.347656 629.914062 206.523438 641.667969 237.105469 C 658.097656 279.964844 661.742188 326.71875 652.089844 371.621094 C 646.25 398.769531 635.949219 424.566406 622.253906 448.496094 C 610.042969 458.386719 596.394531 467.730469 588.21875 481.445312 C 582.683594 490.734375 580.289062 501.453125 575.214844 510.980469 C 566.914062 519.632812 558.179688 527.839844 549.070312 535.578125 C 547.226562 536.496094 545.324219 537.351562 543.375 538.144531 C 519.699219 547.765625 492.636719 547.445312 470.792969 561.691406 C 455.265625 571.785156 442.488281 584.878906 426.914062 594.589844 C 427.015625 590.0625 426.933594 585.578125 426.261719 581.210938 C 425.453125 581.027344 424.65625 580.9375 423.882812 580.9375 C 414.335938 580.9375 407.996094 594.171875 411.5625 602.414062 C 403.570312 605.609375 395.066406 607.820312 386.472656 607.820312 C 384.394531 607.820312 382.3125 607.695312 380.226562 607.417969 C 370.488281 606.132812 363.222656 600.3125 354.125 597.703125 C 352.277344 597.183594 350.542969 596.945312 348.898438 596.945312 C 343.152344 596.945312 338.410156 599.820312 333.15625 603.519531 C 329.582031 606.027344 326.109375 608.652344 322.65625 611.296875 M 288.539062 609.070312 C 286.503906 608.507812 284.46875 607.910156 282.441406 607.277344 C 264.378906 601.652344 247.925781 593.242188 233.394531 582.59375 C 254.230469 586.898438 275.367188 590.175781 296.550781 591.453125 C 293.449219 596.265625 291.09375 600.84375 289.957031 603.910156 C 289.253906 605.8125 288.792969 607.503906 288.539062 609.070312 "/><path style=" stroke:none;fill-rule:nonzero;fill:#efdfbd;fill-opacity:1;" d="M 102.074219 461.742188 C 109.945312 432.21875 123.054688 405.9375 143.726562 382.066406 C 152.382812 372.074219 161.6875 362.671875 171.242188 353.542969 C 168.917969 356.449219 166.660156 359.382812 164.464844 362.34375 C 155.421875 371.769531 146.925781 381.972656 139.144531 393.386719 C 123.941406 415.683594 111.335938 438.042969 102.074219 461.742188 "/><path style=" stroke:none;fill-rule:nonzero;fill:#d8b160;fill-opacity:1;" d="M 164.464844 362.34375 C 166.660156 359.382812 168.917969 356.449219 171.242188 353.542969 C 175.703125 349.28125 180.21875 345.082031 184.746094 340.90625 C 186.296875 339.480469 191.542969 333.636719 196.902344 328.433594 L 192.351562 336.003906 C 192.164062 336.375 191.972656 336.75 191.78125 337.128906 C 191.429688 337.417969 191.078125 337.714844 190.726562 338.011719 C 181.59375 345.667969 172.792969 353.675781 164.464844 362.34375 "/><path style=" stroke:none;fill-rule:nonzero;fill:#d3a031;fill-opacity:1;" d="M 104.050781 621.9375 C 100.695312 610.773438 98.652344 603.683594 102.519531 593.976562 C 102.507812 603.25 102.96875 612.632812 104.050781 621.9375 M 233.394531 582.59375 C 224.152344 580.6875 214.972656 578.578125 205.871094 576.351562 C 187.46875 571.832031 168.269531 564.964844 149.027344 560.371094 C 152.511719 551.054688 154.355469 541.96875 146.226562 539.21875 C 144.09375 538.496094 141.980469 538.164062 139.886719 538.164062 C 129.449219 538.164062 119.746094 546.460938 113.394531 556.050781 C 112.230469 556.277344 111.195312 556.609375 110.28125 557.042969 C 112.726562 546.925781 119.148438 539.523438 118.945312 528.359375 C 118.765625 516.421875 113.285156 506.4375 115.265625 494.320312 C 117.277344 481.832031 119.707031 468.085938 123.070312 455.925781 C 127.699219 439.273438 140.421875 424.972656 152.65625 413.316406 C 159.066406 407.210938 164.296875 399.640625 169.992188 392.671875 C 164.195312 414.738281 161.910156 437.554688 164.625 461.628906 C 170.140625 510.804688 195.046875 554.496094 233.394531 582.59375 M 190.726562 338.011719 C 191.078125 337.714844 191.429688 337.417969 191.78125 337.128906 C 191.777344 337.128906 191.777344 337.132812 191.777344 337.140625 C 191.425781 337.429688 191.078125 337.71875 190.726562 338.011719 "/><path style=" stroke:none;fill-rule:nonzero;fill:#cd9929;fill-opacity:1;" d="M 238.601562 645.980469 C 231.847656 641.554688 227.773438 633.597656 225.007812 624.597656 C 223.773438 620.589844 221.164062 614.289062 222.46875 610.050781 C 223.683594 606.089844 228.378906 605.472656 229.386719 602.3125 C 230.894531 597.730469 224.917969 591.632812 220.410156 591.632812 C 220.382812 591.632812 220.363281 591.632812 220.332031 591.632812 C 212.0625 591.75 214.167969 601.507812 211.898438 606.546875 C 209.925781 610.921875 207.878906 612.652344 205.886719 612.652344 C 199.457031 612.660156 193.46875 594.703125 191.457031 589.160156 C 189.742188 584.464844 186.421875 579.148438 181.628906 576.902344 C 180.570312 576.398438 179.359375 576.351562 178.191406 576.195312 C 177.78125 576.488281 177.390625 576.765625 176.953125 577.085938 C 169.503906 582.347656 156.457031 591.046875 148.460938 591.046875 C 143.984375 591.046875 141.089844 588.320312 141.664062 580.730469 C 141.992188 576.1875 146.09375 568.195312 149.027344 560.371094 C 168.269531 564.964844 187.46875 571.832031 205.871094 576.351562 C 214.972656 578.578125 224.152344 580.6875 233.394531 582.59375 C 247.925781 593.242188 264.378906 601.652344 282.441406 607.277344 C 284.46875 607.910156 286.503906 608.507812 288.539062 609.070312 C 287.605469 614.789062 289.363281 618.816406 291.65625 625.054688 C 292.597656 627.632812 292.984375 629.851562 292.894531 631.8125 C 275.617188 640.949219 257.402344 644.757812 238.601562 645.980469 M 176.382812 575.800781 C 176.363281 575.800781 176.335938 575.800781 176.3125 575.800781 C 176.363281 576.421875 176.765625 576.625 176.953125 577.085938 C 177.390625 576.765625 177.78125 576.488281 178.191406 576.195312 C 177.570312 576.105469 177.035156 575.800781 176.382812 575.800781 M 181.261719 573.992188 C 180.535156 574.523438 179.425781 575.296875 178.191406 576.195312 C 179.359375 576.351562 180.570312 576.398438 181.628906 576.902344 C 181.675781 575.988281 181.628906 575.070312 181.261719 573.992188 M 107.4375 633.222656 C 106.339844 629.597656 105.265625 625.96875 104.171875 622.328125 C 104.132812 622.199219 104.089844 622.066406 104.050781 621.9375 C 102.96875 612.632812 102.507812 603.25 102.519531 593.976562 C 102.984375 592.816406 103.53125 591.617188 104.171875 590.375 C 104.347656 590.039062 104.511719 589.699219 104.671875 589.371094 C 104.199219 603.632812 105.558594 618.796875 107.4375 633.222656 M 179.835938 579.15625 C 179.835938 579.15625 179.839844 579.15625 179.839844 579.15625 C 179.839844 579.15625 179.835938 579.15625 179.835938 579.15625 M 179.828125 579.15625 C 178.449219 579.15625 177.519531 578.371094 176.972656 577.136719 C 177.519531 578.371094 178.449219 579.148438 179.828125 579.15625 M 176.96875 577.125 C 176.964844 577.121094 176.964844 577.109375 176.957031 577.105469 C 176.964844 577.109375 176.964844 577.121094 176.96875 577.125 M 109.160156 563.679688 C 109.371094 561.828125 109.648438 559.949219 110.0625 558.027344 C 110.128906 557.695312 110.207031 557.371094 110.28125 557.042969 C 111.195312 556.609375 112.230469 556.277344 113.394531 556.050781 C 111.742188 558.546875 110.3125 561.132812 109.160156 563.679688 M 549.070312 535.578125 C 558.179688 527.839844 566.914062 519.632812 575.214844 510.980469 C 574.996094 511.390625 574.769531 511.800781 574.539062 512.214844 C 568.507812 522.824219 559.6875 530.296875 549.070312 535.578125 M 622.253906 448.496094 C 635.949219 424.566406 646.25 398.769531 652.089844 371.621094 C 661.742188 326.71875 658.097656 279.964844 641.667969 237.105469 C 629.914062 206.523438 609.484375 181.347656 595.851562 151.976562 C 590.785156 141.042969 593.40625 137.378906 599.132812 137.378906 C 608.347656 137.378906 625.59375 146.871094 631.738281 150.855469 C 658.53125 168.09375 681.429688 191.800781 697.925781 219.234375 C 706.894531 246.617188 705.8125 276.242188 704.453125 304.75 C 703.726562 319.921875 703.117188 335.277344 702.003906 350.601562 C 694.28125 368.125 683.796875 384.539062 672.03125 399.503906 C 657.503906 417.917969 640.425781 433.773438 622.273438 448.484375 C 622.269531 448.488281 622.257812 448.492188 622.253906 448.496094 "/><path style=" stroke:none;fill-rule:nonzero;fill:#fef9ec;fill-opacity:1;" d="M 88.035156 607.234375 C 87.597656 605.472656 87.199219 603.683594 86.839844 601.875 C 81.988281 577.25 83.339844 551.378906 86.066406 526.597656 C 88.617188 503.449219 94.113281 482.105469 102.074219 461.742188 C 100.507812 467.601562 99.152344 473.597656 97.984375 479.722656 C 92.375 509.230469 87.957031 540.269531 89.542969 570.632812 C 88.136719 582.890625 87.5 595.140625 88.035156 607.234375 M 211.03125 321.902344 C 211.027344 321.882812 211.019531 321.859375 211.015625 321.832031 C 223.164062 312.53125 235.703125 303.410156 248.367188 293.824219 C 271.878906 276.035156 293.234375 255.65625 314.960938 235.777344 C 298.277344 252.832031 281.304688 269.558594 262.253906 284.203125 C 245.28125 297.25 227.8125 309.238281 211.03125 321.902344 "/><path style=" stroke:none;fill-rule:nonzero;fill:#f0c863;fill-opacity:1;" d="M 213.757812 380.785156 C 208.609375 366.738281 207.101562 351.621094 208.804688 336.683594 C 209.125 333.886719 211.675781 325.894531 211.03125 321.902344 C 227.8125 309.238281 245.28125 297.25 262.253906 284.203125 C 281.304688 269.558594 298.277344 252.832031 314.960938 235.777344 C 333.132812 219.160156 351.570312 202.894531 371.746094 188.789062 C 383.609375 180.5 394.789062 171.003906 405.984375 161.519531 C 410.277344 162.332031 414.503906 163.242188 418.609375 164.398438 C 411.679688 169.359375 405.335938 175.117188 399.75 181.347656 C 385.867188 196.859375 369.070312 225.835938 379.261719 247.097656 C 382.835938 254.628906 390.511719 257.109375 394.867188 263.472656 C 396.382812 265.679688 397.050781 268.019531 397.257812 270.433594 C 395.058594 273.109375 392.199219 275.574219 388.453125 277.882812 C 374.777344 286.289062 381.046875 294.351562 386.164062 307.683594 C 394.574219 329.675781 390.195312 347.960938 366.429688 356.617188 C 359.417969 359.183594 352.804688 360.457031 346.597656 360.457031 C 332.164062 360.457031 319.941406 353.566406 310.078125 340.082031 C 306.484375 335.15625 303.417969 333.246094 300.59375 333.246094 C 294.382812 333.246094 289.359375 342.5 282.550781 349.238281 C 276.21875 355.507812 269.207031 359.140625 260.207031 359.140625 C 260.097656 359.140625 259.976562 359.140625 259.867188 359.140625 C 254.746094 359.097656 248.617188 356.234375 243.367188 356.234375 C 242.59375 356.234375 241.847656 356.292969 241.117188 356.4375 C 229.277344 358.699219 226.613281 377.050781 213.757812 380.785156 "/><path style=" stroke:none;fill-rule:nonzero;fill:#e4c582;fill-opacity:1;" d="M 110.589844 654.863281 C 100.65625 640.136719 92.382812 624.738281 88.035156 607.234375 C 87.5 595.140625 88.136719 582.890625 89.542969 570.632812 C 89.992188 579.214844 90.921875 587.742188 92.433594 596.167969 C 95.105469 611.128906 99.796875 625.421875 106.042969 639 C 107.402344 644.300781 108.910156 649.5625 110.574219 654.765625 C 110.578125 654.792969 110.582031 654.832031 110.589844 654.863281 "/><path style=" stroke:none;fill-rule:nonzero;fill:#dfb24c;fill-opacity:1;" d="M 110.574219 654.765625 C 108.910156 649.5625 107.402344 644.300781 106.042969 639 C 106.492188 639.96875 106.949219 640.933594 107.40625 641.894531 C 108.246094 645.636719 109.207031 649.34375 110.296875 653 C 110.378906 653.523438 110.460938 654.042969 110.542969 654.5625 C 110.550781 654.628906 110.5625 654.695312 110.574219 654.765625 "/><path style=" stroke:none;fill-rule:nonzero;fill:#d8a942;fill-opacity:1;" d="M 110.296875 653 C 109.207031 649.34375 108.246094 645.636719 107.40625 641.894531 C 107.976562 643.078125 108.558594 644.261719 109.148438 645.433594 C 109.527344 647.996094 109.914062 650.527344 110.296875 653 "/><path style=" stroke:none;fill-rule:nonzero;fill:#f1dfb6;fill-opacity:1;" d="M 201.566406 329.191406 C 204.6875 326.71875 207.839844 324.269531 211.015625 321.832031 C 211.019531 321.859375 211.027344 321.882812 211.03125 321.902344 C 207.851562 324.304688 204.691406 326.730469 201.566406 329.191406 M 441.449219 133.449219 C 449.457031 127.949219 457.785156 123.019531 466.632812 119.027344 L 465.800781 120.671875 C 457.578125 124.800781 449.453125 129.039062 441.449219 133.449219 "/><path style=" stroke:none;fill-rule:nonzero;fill:#e8bd57;fill-opacity:1;" d="M 169.992188 392.671875 C 174.96875 373.722656 182.542969 355.320312 191.777344 337.140625 C 195 334.449219 198.261719 331.808594 201.566406 329.191406 C 204.691406 326.730469 207.851562 324.304688 211.03125 321.902344 C 211.675781 325.894531 209.125 333.886719 208.804688 336.683594 C 207.101562 351.621094 208.609375 366.738281 213.757812 380.785156 C 213.757812 380.785156 213.757812 380.785156 213.753906 380.785156 C 212.09375 381.269531 210.523438 381.464844 209.015625 381.464844 C 205.601562 381.464844 202.542969 380.445312 199.578125 379.421875 C 196.609375 378.394531 193.742188 377.375 190.695312 377.375 C 187.835938 377.375 184.820312 378.277344 181.441406 380.945312 C 177.195312 384.304688 173.507812 388.371094 169.992188 392.671875 M 418.609375 164.398438 C 414.503906 163.242188 410.277344 162.332031 405.984375 161.519531 C 417.554688 151.707031 429.128906 141.90625 441.449219 133.449219 C 449.453125 129.039062 457.578125 124.800781 465.800781 120.671875 L 464.375 123.503906 C 467.742188 123.886719 471.136719 124.273438 474.53125 124.6875 C 461.128906 133.265625 448.449219 141.875 437.691406 153.550781 C 430.980469 156.433594 424.578125 160.117188 418.609375 164.398438 "/><path style=" stroke:none;fill-rule:nonzero;fill:#dfbb6d;fill-opacity:1;" d="M 465.800781 120.671875 L 466.632812 119.027344 C 470.578125 117.246094 474.636719 115.648438 478.808594 114.273438 C 474.449219 116.378906 470.113281 118.507812 465.800781 120.671875 "/><path style=" stroke:none;fill-rule:nonzero;fill:#dbad47;fill-opacity:1;" d="M 474.53125 124.6875 C 471.136719 124.273438 467.742188 123.886719 464.375 123.503906 L 465.800781 120.671875 C 470.113281 118.507812 474.449219 116.378906 478.808594 114.273438 C 482.894531 112.933594 487.089844 111.796875 491.417969 110.90625 L 493.203125 112.695312 C 486.90625 116.878906 480.644531 120.777344 474.53125 124.6875 "/><path style=" stroke:none;fill-rule:nonzero;fill:#f1dfb6;fill-opacity:1;" d="M 89.542969 570.632812 C 87.957031 540.269531 92.375 509.230469 97.984375 479.722656 C 99.152344 473.597656 100.507812 467.601562 102.074219 461.742188 C 111.335938 438.042969 123.941406 415.683594 139.144531 393.386719 C 146.925781 381.972656 155.421875 371.769531 164.464844 362.34375 C 163.539062 363.59375 162.628906 364.84375 161.726562 366.101562 C 157.117188 371.355469 152.710938 376.882812 148.5625 382.734375 C 119.691406 423.398438 103.371094 472.445312 98.183594 522.535156 C 94.582031 538.378906 91.398438 554.511719 89.542969 570.632812 "/><path style=" stroke:none;fill-rule:nonzero;fill:#e8bd57;fill-opacity:1;" d="M 98.183594 522.535156 C 103.371094 472.445312 119.691406 423.398438 148.5625 382.734375 C 152.710938 376.882812 157.117188 371.355469 161.726562 366.101562 C 132.515625 406.855469 115.042969 452.78125 103.027344 502.128906 C 101.382812 508.859375 99.742188 515.667969 98.183594 522.535156 "/><path style=" stroke:none;fill-rule:nonzero;fill:#dfbb6d;fill-opacity:1;" d="M 106.042969 639 C 99.796875 625.421875 95.105469 611.128906 92.433594 596.167969 C 90.921875 587.742188 89.992188 579.214844 89.542969 570.632812 C 91.398438 554.511719 94.582031 538.378906 98.183594 522.535156 C 94.949219 553.761719 96.046875 585.394531 101.125 615.660156 C 102.441406 623.5 104.082031 631.292969 106.042969 639 M 161.726562 366.101562 C 162.628906 364.84375 163.539062 363.59375 164.464844 362.34375 C 172.792969 353.675781 181.59375 345.667969 190.726562 338.011719 C 180.476562 346.660156 170.707031 355.871094 161.726562 366.101562 "/><path style=" stroke:none;fill-rule:nonzero;fill:#dbad47;fill-opacity:1;" d="M 107.40625 641.894531 C 106.949219 640.933594 106.492188 639.96875 106.042969 639 C 104.082031 631.292969 102.441406 623.5 101.125 615.660156 C 96.046875 585.394531 94.949219 553.761719 98.183594 522.535156 C 99.742188 515.667969 101.382812 508.859375 103.027344 502.128906 C 115.042969 452.78125 132.515625 406.855469 161.726562 366.101562 C 170.707031 355.871094 180.476562 346.660156 190.726562 338.011719 C 191.078125 337.71875 191.425781 337.429688 191.777344 337.140625 C 182.542969 355.320312 174.96875 373.722656 169.992188 392.671875 C 164.296875 399.640625 159.066406 407.210938 152.65625 413.316406 C 140.421875 424.972656 127.699219 439.273438 123.070312 455.925781 C 119.707031 468.085938 117.277344 481.832031 115.265625 494.320312 C 113.285156 506.4375 118.765625 516.421875 118.945312 528.359375 C 119.148438 539.523438 112.726562 546.925781 110.28125 557.042969 C 105.636719 559.25 104.050781 564.160156 103.433594 571.867188 C 102.863281 579.097656 102.535156 586.5 102.519531 593.976562 C 98.652344 603.683594 100.695312 610.773438 104.050781 621.9375 C 104.832031 628.652344 105.933594 635.332031 107.40625 641.894531 "/><path style=" stroke:none;fill-rule:nonzero;fill:#d6a741;fill-opacity:1;" d="M 109.148438 645.433594 C 108.558594 644.261719 107.976562 643.078125 107.40625 641.894531 C 105.933594 635.332031 104.832031 628.652344 104.050781 621.9375 C 104.089844 622.066406 104.132812 622.199219 104.171875 622.328125 C 105.265625 625.96875 106.339844 629.597656 107.4375 633.222656 C 107.800781 636.019531 108.179688 638.789062 108.574219 641.515625 C 108.636719 641.988281 108.707031 642.460938 108.78125 642.945312 C 108.90625 643.777344 109.027344 644.609375 109.148438 645.433594 M 102.519531 593.976562 C 102.535156 586.5 102.863281 579.097656 103.433594 571.867188 C 104.050781 564.160156 105.636719 559.25 110.28125 557.042969 C 110.207031 557.371094 110.128906 557.695312 110.0625 558.027344 C 109.648438 559.949219 109.371094 561.828125 109.160156 563.679688 C 107.628906 567.054688 106.582031 570.367188 106.117188 573.328125 C 105.308594 578.476562 104.851562 583.855469 104.671875 589.371094 C 104.511719 589.699219 104.347656 590.039062 104.171875 590.375 C 103.53125 591.617188 102.984375 592.816406 102.519531 593.976562 "/><path style=" stroke:none;fill-rule:nonzero;fill:#f0c863;fill-opacity:1;" d="M 423.9375 317.699219 C 408.523438 317.699219 395.414062 306.875 395.855469 286.683594 C 395.96875 281.285156 397.710938 275.683594 397.257812 270.433594 C 403.335938 263.050781 404.390625 254.078125 405.300781 242.441406 C 407.363281 216.140625 411.488281 192.78125 425.402344 169.867188 C 425.945312 168.972656 426.5 168.085938 427.0625 167.21875 C 432.199219 169.246094 437.0625 171.828125 441.554688 175.25 C 439.929688 176.796875 438.515625 178.292969 437.382812 179.628906 C 429.246094 189.207031 425.46875 199.101562 426.84375 211.425781 C 440.65625 212.382812 436.414062 229.75 439.628906 238.960938 C 442.410156 246.953125 447.785156 249.660156 453.949219 249.660156 C 459.519531 249.660156 465.730469 247.453125 471.257812 244.941406 C 471.542969 244.808594 471.839844 244.675781 472.128906 244.542969 C 472.226562 245.664062 472.316406 246.785156 472.398438 247.890625 C 473.367188 261.398438 472.84375 275.101562 470.90625 288.660156 C 462.082031 294.570312 455.636719 303.308594 447.101562 309.609375 C 439.71875 315.0625 431.550781 317.699219 423.9375 317.699219 "/><path style=" stroke:none;fill-rule:nonzero;fill:#e8bd57;fill-opacity:1;" d="M 470.90625 288.660156 C 472.84375 275.101562 473.367188 261.398438 472.398438 247.890625 C 472.316406 246.785156 472.226562 245.664062 472.128906 244.542969 C 491.910156 235.53125 511.617188 225.664062 530.789062 215.457031 C 553.15625 203.546875 558.792969 178.484375 533.707031 165.425781 C 522.675781 159.695312 508.980469 155.738281 495.867188 155.738281 C 483.984375 155.738281 472.578125 158.980469 464.050781 167.074219 L 469.789062 161.324219 C 469.085938 161.203125 468.359375 161.148438 467.625 161.148438 C 459.125 161.148438 448.464844 168.664062 441.554688 175.25 C 437.0625 171.828125 432.199219 169.246094 427.0625 167.21875 C 430.332031 162.191406 433.890625 157.679688 437.691406 153.550781 C 446.175781 149.914062 455.152344 147.558594 464.375 146.917969 L 458.972656 150.507812 C 474.234375 141.320312 495.777344 136.335938 517.457031 136.335938 C 519.230469 136.335938 521.003906 136.363281 522.78125 136.429688 C 525.125 137.515625 527.429688 138.699219 529.6875 140 C 551.894531 152.730469 565.304688 174.957031 572.359375 199.007812 C 575.601562 210.015625 577.902344 221.335938 579.363281 232.867188 C 571.511719 238.226562 562.890625 242.703125 555.085938 247.484375 C 538.078125 257.929688 522.820312 270.117188 503.570312 276.324219 C 492.835938 279.785156 481.515625 281.890625 471.875 288.03125 C 471.546875 288.238281 471.226562 288.445312 470.90625 288.660156 "/><path style=" stroke:none;fill-rule:nonzero;fill:#dbad47;fill-opacity:1;" d="M 579.363281 232.867188 C 577.902344 221.335938 575.601562 210.015625 572.359375 199.007812 C 565.304688 174.957031 551.894531 152.730469 529.6875 140 C 527.429688 138.699219 525.125 137.515625 522.78125 136.429688 C 547.003906 137.355469 570.769531 144.59375 585.472656 159.242188 C 600.914062 174.589844 609.878906 199.488281 595.460938 218.296875 C 591.046875 224.050781 585.4375 228.726562 579.363281 232.867188 "/><path style=" stroke:none;fill-rule:nonzero;fill:#f2cd6f;fill-opacity:1;" d="M 397.257812 270.433594 C 397.050781 268.019531 396.382812 265.679688 394.867188 263.472656 C 390.511719 257.109375 382.835938 254.628906 379.261719 247.097656 C 369.070312 225.835938 385.867188 196.859375 399.75 181.347656 C 405.335938 175.117188 411.679688 169.359375 418.609375 164.398438 C 421.488281 165.203125 424.3125 166.132812 427.0625 167.21875 C 426.5 168.085938 425.945312 168.972656 425.402344 169.867188 C 411.488281 192.78125 407.363281 216.140625 405.300781 242.441406 C 404.390625 254.078125 403.335938 263.050781 397.257812 270.433594 "/><path style=" stroke:none;fill-rule:nonzero;fill:#ecc465;fill-opacity:1;" d="M 427.0625 167.21875 C 424.3125 166.132812 421.488281 165.203125 418.609375 164.398438 C 424.578125 160.117188 430.980469 156.433594 437.691406 153.550781 C 433.890625 157.679688 430.332031 162.191406 427.0625 167.21875 "/><path style=" stroke:none;fill-rule:nonzero;fill:#f5d581;fill-opacity:1;" d="M 453.949219 249.660156 C 447.785156 249.660156 442.410156 246.953125 439.628906 238.960938 C 436.414062 229.75 440.65625 212.382812 426.84375 211.425781 C 425.46875 199.101562 429.246094 189.207031 437.382812 179.628906 C 438.515625 178.292969 439.929688 176.796875 441.554688 175.25 C 443.554688 176.78125 445.484375 178.472656 447.332031 180.359375 C 463.597656 197.082031 470.089844 221.792969 472.128906 244.542969 C 471.839844 244.675781 471.542969 244.808594 471.257812 244.941406 C 465.730469 247.453125 459.519531 249.660156 453.949219 249.660156 "/><path style=" stroke:none;fill-rule:nonzero;fill:#f1cf7b;fill-opacity:1;" d="M 472.128906 244.542969 C 470.089844 221.792969 463.597656 197.082031 447.332031 180.359375 C 445.484375 178.472656 443.554688 176.78125 441.554688 175.25 C 448.464844 168.664062 459.125 161.148438 467.625 161.148438 C 468.359375 161.148438 469.085938 161.203125 469.789062 161.324219 L 464.050781 167.074219 C 472.578125 158.980469 483.984375 155.738281 495.867188 155.738281 C 508.980469 155.738281 522.675781 159.695312 533.707031 165.425781 C 558.792969 178.484375 553.15625 203.546875 530.789062 215.457031 C 511.617188 225.664062 491.910156 235.53125 472.128906 244.542969 "/><path style=" stroke:none;fill-rule:nonzero;fill:#e6c9a4;fill-opacity:1;" d="M 172.753906 754.40625 C 165.996094 750.1875 159.398438 745.414062 152.976562 740.054688 C 141.085938 730.105469 127.980469 713.222656 122 695.382812 C 123.273438 696.9375 124.570312 698.484375 125.890625 700.011719 C 134.894531 716.714844 147.097656 731.515625 161.539062 743.605469 C 165.128906 747.367188 168.867188 750.972656 172.753906 754.40625 M 562.347656 651.574219 C 565.097656 648.828125 567.800781 646.078125 570.460938 643.332031 C 578.027344 635.539062 585.71875 627.203125 593.449219 618.378906 C 589.023438 624.164062 584.261719 629.773438 579.101562 635.203125 C 573.742188 640.851562 568.140625 646.300781 562.347656 651.574219 "/><path style=" stroke:none;fill-rule:nonzero;fill:#dca43e;fill-opacity:1;" d="M 232.691406 777.710938 C 211.878906 773.726562 191.699219 766.242188 172.753906 754.40625 C 168.867188 750.972656 165.128906 747.367188 161.539062 743.605469 C 179.570312 758.699219 201.113281 769.578125 224.300781 774.652344 C 227.0625 775.753906 229.859375 776.777344 232.691406 777.710938 M 336.121094 773.257812 C 343.351562 770.6875 350.488281 767.765625 357.550781 764.589844 C 367.652344 762.449219 377.648438 759.898438 387.4375 757.042969 C 370.746094 763.546875 353.53125 769.109375 336.121094 773.257812 M 519.960938 685.117188 C 529.300781 676.34375 538.09375 666.847656 546.285156 656.601562 C 546.984375 655.726562 547.683594 654.847656 548.378906 653.964844 C 570.875 636.160156 591.550781 616.242188 609.625 594.070312 C 604.765625 602.464844 599.414062 610.578125 593.449219 618.378906 C 585.71875 627.203125 578.027344 635.539062 570.460938 643.332031 C 567.800781 646.078125 565.097656 648.828125 562.347656 651.574219 C 549.105469 663.636719 534.824219 674.757812 519.960938 685.117188 "/><path style=" stroke:none;fill-rule:nonzero;fill:#d2a155;fill-opacity:1;" d="M 125.890625 700.011719 C 124.570312 698.484375 123.273438 696.9375 122 695.382812 C 121.101562 692.699219 120.363281 690 119.8125 687.292969 C 121.632812 691.640625 123.664062 695.882812 125.890625 700.011719 "/><path style=" stroke:none;fill-rule:nonzero;fill:#ce932c;fill-opacity:1;" d="M 271.789062 781.300781 C 258.613281 781.300781 245.527344 780.167969 232.691406 777.710938 C 229.859375 776.777344 227.0625 775.753906 224.300781 774.652344 C 232.457031 776.4375 240.824219 777.507812 249.316406 777.789062 C 254.289062 778.855469 259.28125 779.617188 264.265625 780.050781 C 268.40625 780.414062 272.546875 780.582031 276.683594 780.582031 C 301.292969 780.582031 325.820312 774.5625 349.269531 766.25 C 352.039062 765.726562 354.796875 765.171875 357.550781 764.589844 C 350.488281 767.765625 343.351562 770.6875 336.121094 773.257812 C 314.789062 778.332031 293.152344 781.300781 271.789062 781.300781 "/><path style=" stroke:none;fill-rule:nonzero;fill:#c98d25;fill-opacity:1;" d="M 276.683594 780.582031 C 272.546875 780.582031 268.40625 780.414062 264.265625 780.050781 C 259.28125 779.617188 254.289062 778.855469 249.316406 777.789062 C 250.832031 777.839844 252.34375 777.863281 253.863281 777.863281 C 255.179688 777.863281 256.484375 777.84375 257.800781 777.808594 C 274.210938 777.339844 290.546875 775 306.683594 771.359375 C 320.898438 770.703125 335.171875 768.898438 349.269531 766.25 C 325.820312 774.5625 301.292969 780.582031 276.683594 780.582031 "/><path style=" stroke:none;fill-rule:nonzero;fill:#d59c35;fill-opacity:1;" d="M 357.550781 764.589844 C 363.363281 761.972656 369.121094 759.179688 374.820312 756.261719 C 377.25 755.238281 379.667969 754.199219 382.0625 753.160156 C 423.859375 734.996094 464.113281 712.4375 501.695312 686.488281 C 517.90625 676.539062 533.535156 665.710938 548.378906 653.964844 C 547.683594 654.847656 546.984375 655.726562 546.285156 656.601562 C 538.09375 666.847656 529.300781 676.34375 519.960938 685.117188 C 494.503906 702.859375 467.316406 718.371094 440.589844 732.539062 C 423.800781 741.457031 405.945312 749.828125 387.4375 757.042969 C 377.648438 759.898438 367.652344 762.449219 357.550781 764.589844 "/><path style=" stroke:none;fill-rule:nonzero;fill:#cb9029;fill-opacity:1;" d="M 374.820312 756.261719 C 391.460938 747.746094 407.609375 738.183594 423.308594 728.875 C 427.113281 726.617188 430.933594 724.355469 434.746094 722.085938 C 438.347656 720.292969 441.9375 718.46875 445.511719 716.605469 C 464.746094 707.628906 483.582031 697.605469 501.695312 686.488281 C 464.113281 712.4375 423.859375 734.996094 382.0625 753.160156 C 379.667969 754.199219 377.25 755.238281 374.820312 756.261719 "/><path style=" stroke:none;fill-rule:nonzero;fill:#cb9029;fill-opacity:1;" d="M 349.269531 766.25 C 357.953125 763.167969 366.484375 759.78125 374.820312 756.261719 C 369.121094 759.179688 363.363281 761.972656 357.550781 764.589844 C 354.796875 765.171875 352.039062 765.726562 349.269531 766.25 "/><path style=" stroke:none;fill-rule:nonzero;fill:#c88b24;fill-opacity:1;" d="M 306.683594 771.359375 C 338.777344 764.113281 370.074219 751.710938 399.574219 738.609375 C 411.347656 733.386719 423.101562 727.898438 434.746094 722.085938 C 430.933594 724.355469 427.113281 726.617188 423.308594 728.875 C 407.609375 738.183594 391.460938 747.746094 374.820312 756.261719 C 366.484375 759.78125 357.953125 763.167969 349.269531 766.25 C 335.171875 768.898438 320.898438 770.703125 306.683594 771.359375 "/><path style=" stroke:none;fill-rule:nonzero;fill:#be801e;fill-opacity:1;" d="M 176.953125 577.085938 C 176.765625 576.625 176.363281 576.421875 176.3125 575.800781 C 176.335938 575.800781 176.363281 575.800781 176.382812 575.800781 C 177.035156 575.800781 177.570312 576.105469 178.191406 576.195312 C 177.78125 576.488281 177.390625 576.765625 176.953125 577.085938 "/><path style=" stroke:none;fill-rule:nonzero;fill:#be801e;fill-opacity:1;" d="M 181.628906 576.902344 C 180.570312 576.398438 179.359375 576.351562 178.191406 576.195312 C 179.425781 575.296875 180.535156 574.523438 181.261719 573.992188 C 181.628906 575.070312 181.675781 575.988281 181.628906 576.902344 "/><path style=" stroke:none;fill-rule:nonzero;fill:#d29733;fill-opacity:1;" d="M 309.722656 591.984375 C 305.335938 591.898438 300.933594 591.71875 296.550781 591.453125 C 303.167969 581.183594 313.203125 569.847656 322.101562 569.847656 C 323.066406 569.847656 324.019531 569.980469 324.953125 570.261719 C 329.425781 571.609375 331.273438 575.847656 328.210938 579.71875 C 325.871094 582.632812 320.410156 581.027344 317.390625 582.449219 C 314.292969 583.871094 311.433594 587.652344 309.722656 591.984375 "/><path style=" stroke:none;fill-rule:nonzero;fill:#c38624;fill-opacity:1;" d="M 317.914062 614.941406 C 308.039062 613.695312 298.238281 611.761719 288.539062 609.070312 C 288.792969 607.503906 289.253906 605.8125 289.957031 603.910156 C 291.09375 600.84375 293.449219 596.265625 296.550781 591.453125 C 300.933594 591.71875 305.335938 591.898438 309.722656 591.984375 C 307.769531 596.933594 307.324219 602.597656 309.78125 606.246094 C 312.144531 609.742188 317.644531 610.417969 322.65625 611.296875 C 321.078125 612.511719 319.5 613.730469 317.914062 614.941406 "/><path style=" stroke:none;fill-rule:nonzero;fill:#c38624;fill-opacity:1;" d="M 149.027344 560.371094 C 139.230469 558.03125 129.425781 556.285156 119.707031 555.734375 C 119.023438 555.699219 118.371094 555.683594 117.738281 555.683594 C 116.117188 555.683594 114.671875 555.804688 113.394531 556.050781 C 119.746094 546.460938 129.449219 538.164062 139.886719 538.164062 C 141.980469 538.164062 144.09375 538.496094 146.226562 539.21875 C 154.355469 541.96875 152.511719 551.054688 149.027344 560.371094 "/><path style=" stroke:none;fill-rule:nonzero;fill:#be801e;fill-opacity:1;" d="M 222.867188 646.453125 C 219.175781 646.453125 215.46875 646.386719 211.742188 646.269531 C 188.9375 645.582031 167.738281 642.46875 150.507812 626.429688 C 141.480469 618.027344 132.632812 609.222656 123.875 600.503906 C 114.082031 611.253906 108.085938 622.175781 108.167969 635.617188 C 107.921875 634.820312 107.675781 634.019531 107.4375 633.222656 C 105.558594 618.796875 104.199219 603.632812 104.671875 589.371094 C 108.792969 580.71875 108.15625 572.554688 109.160156 563.679688 C 110.3125 561.132812 111.742188 558.546875 113.394531 556.050781 C 114.671875 555.804688 116.117188 555.683594 117.738281 555.683594 C 118.371094 555.683594 119.023438 555.699219 119.707031 555.734375 C 129.425781 556.285156 139.230469 558.03125 149.027344 560.371094 C 146.09375 568.195312 141.992188 576.1875 141.664062 580.730469 C 141.089844 588.320312 143.984375 591.046875 148.460938 591.046875 C 156.457031 591.046875 169.503906 582.347656 176.953125 577.085938 C 176.953125 577.089844 176.957031 577.101562 176.957031 577.105469 C 176.964844 577.109375 176.964844 577.121094 176.96875 577.125 C 176.96875 577.132812 176.972656 577.136719 176.972656 577.136719 C 177.519531 578.371094 178.449219 579.15625 179.828125 579.15625 C 179.828125 579.15625 179.835938 579.15625 179.835938 579.15625 C 179.835938 579.15625 179.839844 579.15625 179.839844 579.15625 C 180.269531 579.15625 180.742188 579.078125 181.261719 578.921875 C 181.488281 578.164062 181.582031 577.542969 181.628906 576.902344 C 186.421875 579.148438 189.742188 584.464844 191.457031 589.160156 C 193.46875 594.703125 199.457031 612.660156 205.886719 612.652344 C 207.878906 612.652344 209.925781 610.921875 211.898438 606.546875 C 214.167969 601.507812 212.0625 591.75 220.332031 591.632812 C 220.363281 591.632812 220.382812 591.632812 220.410156 591.632812 C 224.917969 591.632812 230.894531 597.730469 229.386719 602.3125 C 228.378906 605.472656 223.683594 606.089844 222.46875 610.050781 C 221.164062 614.289062 223.773438 620.589844 225.007812 624.597656 C 227.773438 633.597656 231.847656 641.554688 238.601562 645.980469 C 233.402344 646.316406 228.15625 646.453125 222.867188 646.453125 M 292.894531 631.8125 C 292.984375 629.851562 292.597656 627.632812 291.65625 625.054688 C 289.363281 618.816406 287.605469 614.789062 288.539062 609.070312 C 298.238281 611.761719 308.039062 613.695312 317.914062 614.941406 C 310.636719 620.535156 303.3125 626.027344 295.207031 630.554688 C 294.4375 630.984375 293.664062 631.40625 292.894531 631.8125 "/><path style=" stroke:none;fill-rule:nonzero;fill:#cea05a;fill-opacity:1;" d="M 119.8125 687.292969 C 115.503906 677.011719 112.367188 666.148438 110.589844 654.863281 C 110.597656 654.878906 110.609375 654.890625 110.617188 654.90625 C 112.996094 662.335938 115.6875 669.65625 118.695312 676.796875 C 118.707031 680.269531 119.097656 683.78125 119.8125 687.292969 "/><path style=" stroke:none;fill-rule:nonzero;fill:#c88b28;fill-opacity:1;" d="M 118.695312 676.796875 C 115.6875 669.65625 112.996094 662.335938 110.617188 654.90625 C 110.78125 655.148438 110.945312 655.390625 111.109375 655.632812 C 113.199219 662.207031 115.722656 668.609375 118.730469 674.757812 C 118.699219 675.4375 118.691406 676.121094 118.695312 676.796875 "/><path style=" stroke:none;fill-rule:nonzero;fill:#c08220;fill-opacity:1;" d="M 118.730469 674.757812 C 115.722656 668.609375 113.199219 662.207031 111.109375 655.632812 C 111.699219 656.5 112.292969 657.367188 112.894531 658.226562 C 114.582031 662.875 116.621094 667.4375 118.933594 671.894531 C 118.839844 672.847656 118.765625 673.800781 118.730469 674.757812 "/><path style=" stroke:none;fill-rule:nonzero;fill:#d3a65f;fill-opacity:1;" d="M 110.617188 654.90625 C 110.609375 654.890625 110.597656 654.878906 110.589844 654.863281 C 110.582031 654.832031 110.578125 654.792969 110.574219 654.765625 C 110.589844 654.8125 110.601562 654.859375 110.617188 654.90625 "/><path style=" stroke:none;fill-rule:nonzero;fill:#ce9537;fill-opacity:1;" d="M 111.109375 655.632812 C 110.945312 655.390625 110.78125 655.148438 110.617188 654.90625 C 110.601562 654.859375 110.589844 654.8125 110.574219 654.765625 C 110.5625 654.695312 110.550781 654.628906 110.542969 654.5625 C 110.460938 654.042969 110.378906 653.523438 110.296875 653 C 110.5625 653.878906 110.828125 654.757812 111.109375 655.632812 "/><path style=" stroke:none;fill-rule:nonzero;fill:#c88e30;fill-opacity:1;" d="M 112.894531 658.226562 C 112.292969 657.367188 111.699219 656.5 111.109375 655.632812 C 110.828125 654.757812 110.5625 653.878906 110.296875 653 C 109.914062 650.527344 109.527344 647.996094 109.148438 645.433594 C 109.199219 645.53125 109.246094 645.628906 109.296875 645.722656 C 109.296875 645.734375 109.296875 645.738281 109.296875 645.746094 C 110.191406 649.960938 111.402344 654.128906 112.894531 658.226562 "/><path style=" stroke:none;fill-rule:nonzero;fill:#c68c2f;fill-opacity:1;" d="M 109.296875 645.722656 C 109.246094 645.628906 109.199219 645.53125 109.148438 645.433594 C 109.027344 644.609375 108.90625 643.777344 108.78125 642.945312 C 108.925781 643.859375 109.097656 644.785156 109.296875 645.722656 M 108.574219 641.515625 C 108.179688 638.789062 107.800781 636.019531 107.4375 633.222656 C 107.675781 634.019531 107.921875 634.820312 108.167969 635.617188 C 108.175781 637.535156 108.3125 639.492188 108.574219 641.515625 M 104.671875 589.371094 C 104.851562 583.855469 105.308594 578.476562 106.117188 573.328125 C 106.582031 570.367188 107.628906 567.054688 109.160156 563.679688 C 108.15625 572.554688 108.792969 580.71875 104.671875 589.371094 "/><path style=" stroke:none;fill-rule:nonzero;fill:#c38624;fill-opacity:1;" d="M 411.5625 602.414062 C 407.996094 594.171875 414.335938 580.9375 423.882812 580.9375 C 424.65625 580.9375 425.453125 581.027344 426.261719 581.210938 C 426.933594 585.578125 427.015625 590.0625 426.914062 594.589844 C 423.109375 596.960938 419.140625 599.125 414.925781 601 C 413.816406 601.492188 412.695312 601.960938 411.5625 602.414062 "/><path style=" stroke:none;fill-rule:nonzero;fill:#d5a878;fill-opacity:1;" d="M 161.539062 743.605469 C 147.097656 731.515625 134.894531 716.714844 125.890625 700.011719 C 129.460938 704.144531 133.183594 708.15625 137.027344 712.058594 C 144.234375 723.425781 152.40625 734.027344 161.539062 743.605469 "/><path style=" stroke:none;fill-rule:nonzero;fill:#cc8a2d;fill-opacity:1;" d="M 224.300781 774.652344 C 201.113281 769.578125 179.570312 758.699219 161.539062 743.605469 C 152.40625 734.027344 144.234375 723.425781 137.027344 712.058594 C 148.285156 723.496094 160.574219 733.996094 172.960938 743.769531 C 188.769531 756.1875 205.753906 767.246094 224.300781 774.652344 "/><path style=" stroke:none;fill-rule:nonzero;fill:#c3883e;fill-opacity:1;" d="M 137.027344 712.058594 C 133.183594 708.15625 129.460938 704.144531 125.890625 700.011719 C 123.664062 695.882812 121.632812 691.640625 119.8125 687.292969 C 119.097656 683.78125 118.707031 680.269531 118.695312 676.796875 C 123.875 689.132812 129.984375 700.953125 137.027344 712.058594 "/><path style=" stroke:none;fill-rule:nonzero;fill:#bf7b20;fill-opacity:1;" d="M 249.316406 777.789062 C 240.824219 777.507812 232.457031 776.4375 224.300781 774.652344 C 205.753906 767.246094 188.769531 756.1875 172.960938 743.769531 C 160.574219 733.996094 148.285156 723.496094 137.027344 712.058594 C 129.984375 700.953125 123.875 689.132812 118.695312 676.796875 C 118.691406 676.121094 118.699219 675.4375 118.730469 674.757812 C 121.410156 680.226562 124.46875 685.492188 127.957031 690.503906 C 154.949219 729.257812 201.292969 767.507812 249.316406 777.789062 "/><path style=" stroke:none;fill-rule:nonzero;fill:#ba761b;fill-opacity:1;" d="M 253.863281 777.863281 C 252.34375 777.863281 250.832031 777.839844 249.316406 777.789062 C 201.292969 767.507812 154.949219 729.257812 127.957031 690.503906 C 124.46875 685.492188 121.410156 680.226562 118.730469 674.757812 C 118.765625 673.800781 118.839844 672.847656 118.933594 671.894531 C 127.609375 688.570312 140.179688 703.78125 152.753906 716.457031 C 173.851562 737.746094 197.542969 750.746094 222.667969 757.617188 C 234.023438 762.714844 245.992188 766.535156 258.605469 768.691406 C 270.503906 770.71875 282.660156 771.636719 294.898438 771.636719 C 298.8125 771.636719 302.746094 771.539062 306.683594 771.359375 C 290.546875 775 274.210938 777.339844 257.800781 777.808594 C 256.484375 777.84375 255.179688 777.863281 253.863281 777.863281 "/><path style=" stroke:none;fill-rule:nonzero;fill:#bc791e;fill-opacity:1;" d="M 434.746094 722.085938 C 436.0625 721.304688 437.367188 720.527344 438.6875 719.742188 C 440.972656 718.710938 443.238281 717.671875 445.511719 716.605469 C 441.9375 718.46875 438.347656 720.292969 434.746094 722.085938 "/><path style=" stroke:none;fill-rule:nonzero;fill:#b9751a;fill-opacity:1;" d="M 294.898438 771.636719 C 282.660156 771.636719 270.503906 770.71875 258.605469 768.691406 C 245.992188 766.535156 234.023438 762.714844 222.667969 757.617188 C 238.46875 761.941406 254.84375 763.835938 271.492188 763.835938 C 305.300781 763.835938 340.253906 756.035156 373.992188 744.886719 C 395.726562 737.707031 417.4375 729.347656 438.6875 719.742188 C 437.367188 720.527344 436.0625 721.304688 434.746094 722.085938 C 423.101562 727.898438 411.347656 733.386719 399.574219 738.609375 C 370.074219 751.710938 338.777344 764.113281 306.683594 771.359375 C 302.746094 771.539062 298.8125 771.636719 294.898438 771.636719 "/><path style=" stroke:none;fill-rule:nonzero;fill:#be801e;fill-opacity:1;" d="M 179.835938 579.15625 C 179.835938 579.15625 179.828125 579.15625 179.828125 579.15625 C 178.449219 579.148438 177.519531 578.371094 176.972656 577.136719 C 176.972656 577.136719 176.96875 577.132812 176.96875 577.125 C 176.964844 577.121094 176.964844 577.109375 176.957031 577.105469 C 176.957031 577.101562 176.953125 577.089844 176.953125 577.085938 C 177.390625 576.765625 177.78125 576.488281 178.191406 576.195312 C 179.359375 576.351562 180.570312 576.398438 181.628906 576.902344 C 181.582031 577.542969 181.488281 578.164062 181.261719 578.921875 C 180.742188 579.078125 180.269531 579.15625 179.839844 579.15625 C 179.839844 579.15625 179.835938 579.15625 179.835938 579.15625 "/><path style=" stroke:none;fill-rule:nonzero;fill:#b06b16;fill-opacity:1;" d="M 179.835938 579.15625 C 179.835938 579.15625 179.828125 579.15625 179.828125 579.15625 C 179.828125 579.15625 179.835938 579.15625 179.835938 579.15625 M 179.839844 579.15625 C 180.269531 579.15625 180.742188 579.078125 181.261719 578.921875 C 181.488281 578.164062 181.582031 577.542969 181.628906 576.902344 C 181.582031 577.542969 181.488281 578.164062 181.261719 578.921875 C 180.742188 579.078125 180.269531 579.15625 179.839844 579.15625 M 176.972656 577.136719 C 176.972656 577.136719 176.96875 577.132812 176.96875 577.125 C 176.96875 577.132812 176.972656 577.136719 176.972656 577.136719 M 176.957031 577.105469 C 176.957031 577.101562 176.953125 577.089844 176.953125 577.085938 C 176.953125 577.089844 176.957031 577.101562 176.957031 577.105469 "/><path style=" stroke:none;fill-rule:nonzero;fill:#dca33d;fill-opacity:1;" d="M 609.625 594.070312 C 611.082031 591.554688 612.492188 589.019531 613.867188 586.453125 C 618.207031 581.414062 622.453125 576.304688 626.617188 571.105469 C 623.511719 575.8125 620.253906 580.4375 616.804688 584.964844 C 614.457031 588.042969 612.066406 591.070312 609.625 594.070312 M 710.722656 417.230469 C 715.429688 402.296875 719.25 387.117188 722.085938 371.785156 C 719.898438 387.273438 716.09375 402.535156 710.722656 417.230469 "/><path style=" stroke:none;fill-rule:nonzero;fill:#c88b28;fill-opacity:1;" d="M 613.867188 586.453125 C 614.71875 584.867188 615.554688 583.261719 616.375 581.65625 C 619.46875 577.84375 622.492188 573.957031 625.4375 569.984375 C 629.929688 563.929688 634.308594 557.761719 638.570312 551.492188 C 634.789062 558.140625 630.847656 564.695312 626.617188 571.105469 C 622.453125 576.304688 618.207031 581.414062 613.867188 586.453125 M 690.824219 458.539062 C 692.5625 454.773438 694.265625 451 695.925781 447.21875 C 709.03125 417.414062 719.53125 385.691406 723.921875 353.367188 C 723.5625 359.53125 722.953125 365.671875 722.085938 371.785156 C 719.25 387.117188 715.429688 402.296875 710.722656 417.230469 C 707.59375 425.796875 703.925781 434.164062 699.734375 442.269531 C 696.90625 447.773438 693.90625 453.175781 690.824219 458.539062 "/><path style=" stroke:none;fill-rule:nonzero;fill:#c08220;fill-opacity:1;" d="M 616.375 581.65625 C 619.4375 575.65625 622.300781 569.527344 624.996094 563.28125 C 632.121094 552.625 637.667969 541.261719 640.976562 528.292969 C 637.671875 531.84375 634.191406 535.164062 631.125 537.710938 C 628.695312 539.722656 626.242188 541.683594 623.757812 543.597656 C 626.277344 539.820312 628.800781 536.0625 631.351562 532.328125 C 633.855469 528.660156 636.363281 524.992188 638.855469 521.3125 C 640.140625 521.378906 641.445312 521.570312 642.507812 521.785156 C 642.074219 524.007812 641.523438 526.140625 640.976562 528.292969 C 645.949219 522.886719 650.4375 516.746094 651.746094 510.699219 L 641.320312 517.667969 C 662.511719 486.21875 682.476562 453.789062 692.121094 416.730469 C 697.726562 395.207031 700.394531 372.9375 702.003906 350.601562 C 708.59375 335.664062 713.171875 319.925781 714.820312 303.605469 L 713.027344 296.390625 C 713.65625 296.199219 714.425781 296.121094 715.242188 296.121094 C 716.859375 296.121094 718.660156 296.421875 719.929688 296.714844 C 723.71875 315.324219 725.023438 334.417969 723.921875 353.367188 C 719.53125 385.691406 709.03125 417.414062 695.925781 447.21875 C 694.265625 451 692.5625 454.773438 690.824219 458.539062 C 681.160156 475.328125 670.621094 491.652344 661.464844 508.773438 C 653.789062 523.09375 646.535156 537.496094 638.570312 551.492188 C 634.308594 557.761719 629.929688 563.929688 625.4375 569.984375 C 622.492188 573.957031 619.46875 577.84375 616.375 581.65625 "/><path style=" stroke:none;fill-rule:nonzero;fill:#c38624;fill-opacity:1;" d="M 345.964844 616.679688 C 342.132812 616.679688 338.296875 616.582031 334.460938 616.394531 C 333.300781 615.183594 331.507812 614.105469 328.84375 612.914062 C 327.113281 612.144531 324.9375 611.699219 322.65625 611.296875 C 326.109375 608.652344 329.582031 606.027344 333.15625 603.519531 C 338.410156 599.820312 343.152344 596.945312 348.898438 596.945312 C 350.542969 596.945312 352.277344 597.183594 354.125 597.703125 C 363.222656 600.3125 370.488281 606.132812 380.226562 607.417969 C 382.3125 607.695312 384.394531 607.820312 386.472656 607.820312 C 395.066406 607.820312 403.570312 605.609375 411.5625 602.414062 C 411.738281 602.828125 411.945312 603.230469 412.171875 603.617188 C 412.980469 604.953125 414.085938 606.046875 415.308594 607.058594 C 392.566406 613.21875 369.222656 616.679688 345.964844 616.679688 M 426.582031 603.765625 C 426.691406 600.707031 426.84375 597.636719 426.914062 594.589844 C 442.488281 584.878906 455.265625 571.785156 470.792969 561.691406 C 492.636719 547.445312 519.699219 547.765625 543.375 538.144531 C 545.324219 537.351562 547.226562 536.496094 549.070312 535.578125 C 542.710938 540.988281 536.167969 546.160156 529.484375 551.085938 C 499.183594 573.414062 463.847656 592.117188 426.582031 603.765625 M 575.214844 510.980469 C 580.289062 501.453125 582.683594 490.734375 588.21875 481.445312 C 596.394531 467.730469 610.042969 458.386719 622.253906 448.496094 C 609.308594 471.125 593.328125 492.09375 575.214844 510.980469 "/><path style=" stroke:none;fill-rule:nonzero;fill:#be801e;fill-opacity:1;" d="M 391.230469 664.796875 C 389.273438 664.796875 387.472656 664.65625 386.03125 664.320312 C 385.46875 664.191406 384.953125 664.054688 384.484375 663.90625 C 379.890625 650.761719 373.710938 640.734375 363.230469 640.734375 C 358.367188 640.734375 352.574219 642.894531 345.574219 647.921875 C 344.664062 648.574219 343.738281 649.300781 342.789062 650.101562 C 342.769531 650.09375 342.753906 650.082031 342.738281 650.074219 C 334.375 645.554688 334.757812 635.964844 335.839844 627.894531 C 336.59375 622.003906 336.878906 618.90625 334.460938 616.394531 C 338.296875 616.582031 342.132812 616.679688 345.964844 616.679688 C 369.222656 616.679688 392.566406 613.21875 415.308594 607.058594 C 418.429688 609.621094 422.324219 611.578125 424.019531 615.300781 C 426.613281 621.023438 423.683594 625.054688 421.597656 630.417969 C 417.261719 641.550781 418.226562 658.960938 405.117188 662.902344 C 401.667969 663.941406 396.003906 664.796875 391.230469 664.796875 M 251.757812 649.664062 C 246.484375 649.664062 242.171875 648.3125 238.601562 645.980469 C 257.402344 644.757812 275.617188 640.949219 292.894531 631.8125 C 292.613281 637.527344 288.195312 641.082031 281.199219 645.050781 C 272.292969 650.117188 262.296875 649.449219 252.402344 649.660156 C 252.183594 649.664062 251.96875 649.664062 251.757812 649.664062 M 468.585938 635.035156 C 463.917969 635.035156 459.425781 634.164062 455.460938 631.289062 C 450.671875 627.808594 450.304688 621.4375 445.910156 618.367188 C 443.789062 616.894531 441.316406 616.511719 438.730469 616.511719 C 437.316406 616.511719 435.867188 616.625 434.425781 616.742188 C 432.976562 616.855469 431.535156 616.964844 430.132812 616.964844 C 428.96875 616.964844 427.839844 616.890625 426.746094 616.671875 C 426.363281 612.433594 426.429688 608.113281 426.582031 603.765625 C 463.847656 592.117188 499.183594 573.414062 529.484375 551.085938 C 536.167969 546.160156 542.710938 540.988281 549.070312 535.578125 C 559.6875 530.296875 568.507812 522.824219 574.539062 512.214844 C 574.769531 511.800781 574.996094 511.390625 575.214844 510.980469 C 593.328125 492.09375 609.308594 471.125 622.253906 448.496094 C 622.257812 448.492188 622.269531 448.488281 622.273438 448.484375 C 640.425781 433.773438 657.503906 417.917969 672.03125 399.503906 C 683.796875 384.539062 694.28125 368.125 702.003906 350.601562 C 700.394531 372.9375 697.726562 395.207031 692.121094 416.730469 C 682.476562 453.789062 662.511719 486.21875 641.320312 517.667969 L 635.574219 521.511719 C 636.257812 521.351562 637.058594 521.285156 637.894531 521.285156 C 638.210938 521.285156 638.535156 521.296875 638.855469 521.3125 C 636.363281 524.992188 633.855469 528.660156 631.351562 532.328125 C 628.800781 536.0625 626.277344 539.820312 623.757812 543.597656 C 609.792969 554.355469 595.015625 563.527344 579.421875 572.042969 C 569.351562 577.558594 559.003906 583.726562 550.972656 591.972656 C 546.636719 593.785156 541.066406 595.917969 537.714844 595.917969 C 537.097656 595.917969 536.558594 595.847656 536.109375 595.683594 C 533.035156 594.589844 530.933594 587.074219 528.726562 584.691406 C 525.222656 580.914062 520.519531 578.574219 515.0625 578.574219 C 514.960938 578.574219 514.855469 578.574219 514.75 578.574219 C 500.585938 578.847656 491.214844 592.617188 489.542969 605.035156 C 488.007812 616.304688 491.058594 622.582031 480.078125 630.507812 C 477.488281 632.375 474.386719 633.777344 471.097656 634.960938 C 470.257812 635.011719 469.421875 635.035156 468.585938 635.035156 "/><path style=" stroke:none;fill-rule:nonzero;fill:#c68c2f;fill-opacity:1;" d="M 108.78125 642.945312 C 108.707031 642.460938 108.636719 641.988281 108.574219 641.515625 C 108.644531 641.992188 108.710938 642.46875 108.78125 642.945312 "/><path style=" stroke:none;fill-rule:nonzero;fill:#cc8a2d;fill-opacity:1;" d="M 548.378906 653.964844 C 550.570312 651.183594 552.742188 648.378906 554.882812 645.550781 C 575.71875 627.523438 595.558594 607.703125 613.867188 586.453125 C 612.492188 589.019531 611.082031 591.554688 609.625 594.070312 C 591.550781 616.242188 570.875 636.160156 548.378906 653.964844 "/><path style=" stroke:none;fill-rule:nonzero;fill:#bf7b20;fill-opacity:1;" d="M 554.882812 645.550781 C 557.113281 642.621094 559.308594 639.664062 561.488281 636.6875 C 581.367188 620.054688 599.910156 601.929688 616.375 581.65625 C 615.554688 583.261719 614.71875 584.867188 613.867188 586.453125 C 595.558594 607.703125 575.71875 627.523438 554.882812 645.550781 "/><path style=" stroke:none;fill-rule:nonzero;fill:#ba761b;fill-opacity:1;" d="M 561.488281 636.6875 C 563.042969 634.5625 564.585938 632.421875 566.121094 630.273438 C 579.996094 616.160156 593.148438 601.234375 606.328125 586.707031 C 613.269531 579.046875 619.585938 571.367188 624.996094 563.28125 C 622.300781 569.527344 619.4375 575.65625 616.375 581.65625 C 599.910156 601.929688 581.367188 620.054688 561.488281 636.6875 "/><path style=" stroke:none;fill-rule:nonzero;fill:#c58327;fill-opacity:1;" d="M 501.695312 686.488281 C 508.582031 681.730469 515.386719 676.859375 522.082031 671.878906 C 533.234375 663.601562 544.191406 654.808594 554.882812 645.550781 C 552.742188 648.378906 550.570312 651.183594 548.378906 653.964844 C 533.535156 665.710938 517.90625 676.539062 501.695312 686.488281 "/><path style=" stroke:none;fill-rule:nonzero;fill:#bc791e;fill-opacity:1;" d="M 445.511719 716.605469 C 478.769531 699.328125 510.8125 679.304688 539.269531 655.335938 C 542.601562 652.542969 545.867188 649.675781 549.089844 646.738281 C 553.273438 643.449219 557.40625 640.097656 561.488281 636.6875 C 559.308594 639.664062 557.113281 642.621094 554.882812 645.550781 C 544.191406 654.808594 533.234375 663.601562 522.082031 671.878906 C 515.386719 676.859375 508.582031 681.730469 501.695312 686.488281 C 483.582031 697.605469 464.746094 707.628906 445.511719 716.605469 "/><path style=" stroke:none;fill-rule:nonzero;fill:#b9751a;fill-opacity:1;" d="M 384.484375 663.90625 C 378.71875 662.0625 379.363281 658.574219 374.953125 654.378906 C 371.890625 651.46875 368.472656 650.652344 364.882812 650.652344 C 362.613281 650.652344 360.285156 650.980469 357.929688 651.300781 C 355.578125 651.628906 353.203125 651.949219 350.855469 651.949219 C 348.101562 651.949219 345.390625 651.503906 342.789062 650.101562 C 343.738281 649.300781 344.664062 648.574219 345.574219 647.921875 C 352.574219 642.894531 358.367188 640.734375 363.230469 640.734375 C 373.710938 640.734375 379.890625 650.761719 384.484375 663.90625 M 549.089844 646.738281 C 554.914062 641.425781 560.578125 635.917969 566.121094 630.273438 C 564.585938 632.421875 563.042969 634.5625 561.488281 636.6875 C 557.40625 640.097656 553.273438 643.449219 549.089844 646.738281 M 471.097656 634.960938 C 474.386719 633.777344 477.488281 632.375 480.078125 630.507812 C 491.058594 622.582031 488.007812 616.304688 489.542969 605.035156 C 491.214844 592.617188 500.585938 578.847656 514.75 578.574219 C 514.855469 578.574219 514.960938 578.574219 515.0625 578.574219 C 520.519531 578.574219 525.222656 580.914062 528.726562 584.691406 C 530.933594 587.074219 533.035156 594.589844 536.109375 595.683594 C 536.558594 595.847656 537.097656 595.917969 537.714844 595.917969 C 541.066406 595.917969 546.636719 593.785156 550.972656 591.972656 C 549.1875 593.808594 547.515625 595.742188 545.992188 597.796875 C 540.734375 604.851562 537.046875 610.945312 529.164062 616.191406 C 514.984375 625.558594 495.316406 631.695312 478.585938 634.128906 C 476.097656 634.480469 473.582031 634.8125 471.097656 634.960938 "/><path style=" stroke:none;fill-rule:nonzero;fill:#b26d18;fill-opacity:1;" d="M 119.710938 667.179688 C 118.113281 663.742188 116.660156 660.265625 115.304688 656.753906 C 116.910156 659.507812 118.574219 662.222656 120.296875 664.90625 C 120.078125 665.660156 119.882812 666.414062 119.710938 667.179688 "/><path style=" stroke:none;fill-rule:nonzero;fill:#b5711a;fill-opacity:1;" d="M 334.460938 616.394531 C 328.933594 616.113281 323.417969 615.636719 317.914062 614.941406 C 319.5 613.730469 321.078125 612.511719 322.65625 611.296875 C 324.9375 611.699219 327.113281 612.144531 328.84375 612.914062 C 331.507812 614.105469 333.300781 615.183594 334.460938 616.394531 "/><path style=" stroke:none;fill-rule:nonzero;fill:#b06b16;fill-opacity:1;" d="M 189.980469 688.398438 C 182.394531 688.398438 174.949219 685.886719 167.699219 678.847656 C 160.683594 672.042969 146.582031 648.820312 134.34375 648.820312 C 130.667969 648.820312 127.160156 650.910156 124.058594 656.164062 C 122.402344 658.976562 121.164062 661.902344 120.296875 664.90625 C 118.574219 662.222656 116.910156 659.507812 115.304688 656.753906 C 112.621094 649.816406 110.34375 642.742188 108.167969 635.617188 C 108.085938 622.175781 114.082031 611.253906 123.875 600.503906 C 132.632812 609.222656 141.480469 618.027344 150.507812 626.429688 C 167.738281 642.46875 188.9375 645.582031 211.742188 646.269531 C 215.46875 646.386719 219.175781 646.453125 222.867188 646.453125 C 228.15625 646.453125 233.402344 646.316406 238.601562 645.980469 C 242.171875 648.3125 246.484375 649.664062 251.757812 649.664062 C 251.96875 649.664062 252.183594 649.664062 252.402344 649.660156 C 262.296875 649.449219 272.292969 650.117188 281.199219 645.050781 C 288.195312 641.082031 292.613281 637.527344 292.894531 631.8125 C 293.664062 631.40625 294.4375 630.984375 295.207031 630.554688 C 303.3125 626.027344 310.636719 620.535156 317.914062 614.941406 C 323.417969 615.636719 328.933594 616.113281 334.460938 616.394531 C 336.878906 618.90625 336.59375 622.003906 335.839844 627.894531 C 334.757812 635.964844 334.375 645.554688 342.738281 650.074219 C 342.753906 650.082031 342.769531 650.09375 342.789062 650.101562 C 328.945312 661.699219 310.734375 686.980469 292.035156 686.980469 C 290.632812 686.980469 289.230469 686.84375 287.824219 686.542969 C 279.488281 684.78125 272.792969 677.972656 264.882812 674.972656 C 260.171875 673.167969 255.425781 672.410156 250.675781 672.410156 C 244.621094 672.410156 238.5625 673.648438 232.542969 675.546875 C 218.058594 680.085938 203.78125 688.398438 189.980469 688.398438 "/><path style=" stroke:none;fill-rule:nonzero;fill:#b26d18;fill-opacity:1;" d="M 118.933594 671.894531 C 116.621094 667.4375 114.582031 662.875 112.894531 658.226562 C 115.074219 661.367188 117.328125 664.480469 119.625 667.585938 C 119.316406 669.007812 119.09375 670.445312 118.933594 671.894531 "/><path style=" stroke:none;fill-rule:nonzero;fill:#b97723;fill-opacity:1;" d="M 119.625 667.585938 C 117.328125 664.480469 115.074219 661.367188 112.894531 658.226562 C 111.402344 654.128906 110.191406 649.960938 109.296875 645.746094 C 109.296875 645.738281 109.296875 645.734375 109.296875 645.722656 C 111.191406 649.460938 113.195312 653.140625 115.304688 656.753906 C 116.660156 660.265625 118.113281 663.742188 119.710938 667.179688 C 119.679688 667.3125 119.648438 667.449219 119.625 667.585938 "/><path style=" stroke:none;fill-rule:nonzero;fill:#b77522;fill-opacity:1;" d="M 115.304688 656.753906 C 113.195312 653.140625 111.191406 649.460938 109.296875 645.722656 C 109.097656 644.785156 108.925781 643.859375 108.78125 642.945312 C 108.710938 642.46875 108.644531 641.992188 108.574219 641.515625 C 108.3125 639.492188 108.175781 637.535156 108.167969 635.617188 C 110.34375 642.742188 112.621094 649.816406 115.304688 656.753906 "/><path style=" stroke:none;fill-rule:nonzero;fill:#b5711a;fill-opacity:1;" d="M 415.308594 607.058594 C 414.085938 606.046875 412.980469 604.953125 412.171875 603.617188 C 411.945312 603.230469 411.738281 602.828125 411.5625 602.414062 C 412.695312 601.960938 413.816406 601.492188 414.925781 601 C 419.140625 599.125 423.109375 596.960938 426.914062 594.589844 C 426.84375 597.636719 426.691406 600.707031 426.582031 603.765625 C 422.847656 604.9375 419.082031 606.03125 415.308594 607.058594 "/><path style=" stroke:none;fill-rule:nonzero;fill:#b06b16;fill-opacity:1;" d="M 397.640625 673.296875 C 394.019531 673.296875 390.480469 673.050781 387.191406 672.519531 C 386.347656 669.554688 385.449219 666.660156 384.484375 663.90625 C 384.953125 664.054688 385.46875 664.191406 386.03125 664.320312 C 387.472656 664.65625 389.273438 664.796875 391.230469 664.796875 C 396.003906 664.796875 401.667969 663.941406 405.117188 662.902344 C 418.226562 658.960938 417.261719 641.550781 421.597656 630.417969 C 423.683594 625.054688 426.613281 621.023438 424.019531 615.300781 C 422.324219 611.578125 418.429688 609.621094 415.308594 607.058594 C 419.082031 606.03125 422.847656 604.9375 426.582031 603.765625 C 426.429688 608.113281 426.363281 612.433594 426.746094 616.671875 C 427.839844 616.890625 428.96875 616.964844 430.132812 616.964844 C 431.535156 616.964844 432.976562 616.855469 434.425781 616.742188 C 435.867188 616.625 437.316406 616.511719 438.730469 616.511719 C 441.316406 616.511719 443.789062 616.894531 445.910156 618.367188 C 450.304688 621.4375 450.671875 627.808594 455.460938 631.289062 C 459.425781 634.164062 463.917969 635.035156 468.585938 635.035156 C 469.421875 635.035156 470.257812 635.011719 471.097656 634.960938 C 465.417969 637.007812 459.175781 638.398438 454.066406 640.40625 C 449.574219 642.191406 436.050781 643.976562 433.558594 648.511719 C 431.742188 651.882812 433.625 657.675781 431.355469 661.894531 C 428.628906 666.933594 426.792969 668.488281 420.601562 670.230469 C 413.738281 672.144531 405.492188 673.296875 397.640625 673.296875 "/><path style=" stroke:none;fill-rule:nonzero;fill:#b26d18;fill-opacity:1;" d="M 624.996094 563.28125 C 628.097656 556.105469 630.988281 548.769531 633.738281 541.304688 L 637.351562 534.109375 C 631.082031 539.988281 624.847656 545.914062 618.441406 551.640625 C 620.210938 548.949219 621.980469 546.269531 623.757812 543.597656 C 626.242188 541.683594 628.695312 539.722656 631.125 537.710938 C 634.191406 535.164062 637.671875 531.84375 640.976562 528.292969 C 637.667969 541.261719 632.121094 552.625 624.996094 563.28125 "/><path style=" stroke:none;fill-rule:nonzero;fill:#b06b16;fill-opacity:1;" d="M 550.972656 591.972656 C 559.003906 583.726562 569.351562 577.558594 579.421875 572.042969 C 595.015625 563.527344 609.792969 554.355469 623.757812 543.597656 C 621.980469 546.269531 620.210938 548.949219 618.441406 551.640625 C 609.960938 559.203125 601.175781 566.40625 591.570312 572.640625 C 580.289062 579.96875 568.488281 584.964844 556.050781 589.847656 C 554.929688 590.28125 553.097656 591.085938 550.972656 591.972656 "/><path style=" stroke:none;fill-rule:nonzero;fill:#ac6314;fill-opacity:1;" d="M 222.667969 757.617188 C 197.542969 750.746094 173.851562 737.746094 152.753906 716.457031 C 140.179688 703.78125 127.609375 688.570312 118.933594 671.894531 C 119.09375 670.445312 119.316406 669.007812 119.625 667.585938 C 119.878906 667.933594 120.140625 668.28125 120.398438 668.625 C 120.164062 668.148438 119.941406 667.664062 119.710938 667.179688 C 119.882812 666.414062 120.078125 665.660156 120.296875 664.90625 C 130.550781 680.886719 142.816406 695.671875 156.144531 709.175781 C 175.582031 728.90625 197.636719 746.382812 222.667969 757.617188 M 566.121094 630.273438 C 584.398438 604.707031 601.164062 577.894531 618.441406 551.640625 C 624.847656 545.914062 631.082031 539.988281 637.351562 534.109375 L 633.738281 541.304688 C 630.988281 548.769531 628.097656 556.105469 624.996094 563.28125 C 619.585938 571.367188 613.269531 579.046875 606.328125 586.707031 C 593.148438 601.234375 579.996094 616.160156 566.121094 630.273438 "/><path style=" stroke:none;fill-rule:nonzero;fill:#ae6516;fill-opacity:1;" d="M 438.6875 719.742188 C 476.484375 697.238281 514.5 673.949219 549.089844 646.738281 C 545.867188 649.675781 542.601562 652.542969 539.269531 655.335938 C 510.8125 679.304688 478.769531 699.328125 445.511719 716.605469 C 443.238281 717.671875 440.972656 718.710938 438.6875 719.742188 "/><path style=" stroke:none;fill-rule:nonzero;fill:#ab6213;fill-opacity:1;" d="M 271.492188 763.835938 C 254.84375 763.835938 238.46875 761.941406 222.667969 757.617188 C 197.636719 746.382812 175.582031 728.90625 156.144531 709.175781 C 142.816406 695.671875 130.550781 680.886719 120.296875 664.90625 C 121.164062 661.902344 122.402344 658.976562 124.058594 656.164062 C 127.160156 650.910156 130.667969 648.820312 134.34375 648.820312 C 146.582031 648.820312 160.683594 672.042969 167.699219 678.847656 C 174.949219 685.886719 182.394531 688.398438 189.980469 688.398438 C 203.78125 688.398438 218.058594 680.085938 232.542969 675.546875 C 238.5625 673.648438 244.621094 672.410156 250.675781 672.410156 C 255.425781 672.410156 260.171875 673.167969 264.882812 674.972656 C 272.792969 677.972656 279.488281 684.78125 287.824219 686.542969 C 289.230469 686.84375 290.632812 686.980469 292.035156 686.980469 C 310.734375 686.980469 328.945312 661.699219 342.789062 650.101562 C 345.390625 651.503906 348.101562 651.949219 350.855469 651.949219 C 353.203125 651.949219 355.578125 651.628906 357.929688 651.300781 C 360.285156 650.980469 362.613281 650.652344 364.882812 650.652344 C 368.472656 650.652344 371.890625 651.46875 374.953125 654.378906 C 379.363281 658.574219 378.71875 662.0625 384.484375 663.90625 C 385.449219 666.660156 386.347656 669.554688 387.191406 672.519531 C 390.480469 673.050781 394.019531 673.296875 397.640625 673.296875 C 405.492188 673.296875 413.738281 672.144531 420.601562 670.230469 C 426.792969 668.488281 428.628906 666.933594 431.355469 661.894531 C 433.625 657.675781 431.742188 651.882812 433.558594 648.511719 C 436.050781 643.976562 449.574219 642.191406 454.066406 640.40625 C 459.175781 638.398438 465.417969 637.007812 471.097656 634.960938 C 473.582031 634.8125 476.097656 634.480469 478.585938 634.128906 C 495.316406 631.695312 514.984375 625.558594 529.164062 616.191406 C 537.046875 610.945312 540.734375 604.851562 545.992188 597.796875 C 547.515625 595.742188 549.1875 593.808594 550.972656 591.972656 C 553.097656 591.085938 554.929688 590.28125 556.050781 589.847656 C 568.488281 584.964844 580.289062 579.96875 591.570312 572.640625 C 601.175781 566.40625 609.960938 559.203125 618.441406 551.640625 C 601.164062 577.894531 584.398438 604.707031 566.121094 630.273438 C 560.578125 635.917969 554.914062 641.425781 549.089844 646.738281 C 514.5 673.949219 476.484375 697.238281 438.6875 719.742188 C 417.4375 729.347656 395.726562 737.707031 373.992188 744.886719 C 340.253906 756.035156 305.300781 763.835938 271.492188 763.835938 "/><path style=" stroke:none;fill-rule:nonzero;fill:#b1691b;fill-opacity:1;" d="M 120.398438 668.625 C 120.140625 668.28125 119.878906 667.933594 119.625 667.585938 C 119.648438 667.449219 119.679688 667.3125 119.710938 667.179688 C 119.941406 667.664062 120.164062 668.148438 120.398438 668.625 "/><path style=" stroke:none;fill-rule:nonzero;fill:#b26d18;fill-opacity:1;" d="M 640.976562 528.292969 C 641.523438 526.140625 642.074219 524.007812 642.507812 521.785156 C 641.445312 521.570312 640.140625 521.378906 638.855469 521.3125 C 639.679688 520.097656 640.503906 518.878906 641.320312 517.667969 L 651.746094 510.699219 C 650.4375 516.746094 645.949219 522.886719 640.976562 528.292969 "/><path style=" stroke:none;fill-rule:nonzero;fill:#b06b16;fill-opacity:1;" d="M 635.574219 521.511719 L 641.320312 517.667969 C 640.503906 518.878906 639.679688 520.097656 638.855469 521.3125 C 638.535156 521.296875 638.210938 521.285156 637.894531 521.285156 C 637.058594 521.285156 636.257812 521.351562 635.574219 521.511719 "/><path style=" stroke:none;fill-rule:nonzero;fill:#936e19;fill-opacity:1;" d="M 168.925781 480.089844 C 161.917969 483.503906 153.253906 512.988281 166.070312 510.652344 C 176.496094 508.773438 172.460938 488.179688 170.71875 481.878906 L 168.925781 480.089844 "/><path style=" stroke:none;fill-rule:nonzero;fill:#7c3e11;fill-opacity:1;" d="M 264.410156 544.921875 L 260.804688 546.710938 C 252.371094 547.445312 242.5 559.402344 244.878906 568.011719 C 255.058594 571.015625 262.476562 570.765625 267.890625 560.179688 C 269.992188 556.054688 272.695312 543.917969 264.410156 544.921875 "/><path style=" stroke:none;fill-rule:nonzero;fill:#7c3f1b;fill-opacity:1;" d="M 345.191406 499.242188 C 345.898438 504.058594 351.835938 510.378906 356.761719 506.023438 C 363.730469 499.863281 353.480469 486.621094 352.703125 480.089844 C 349.039062 484.496094 344.292969 493.332031 345.191406 499.242188 "/><path style=" stroke:none;fill-rule:nonzero;fill:#7c401c;fill-opacity:1;" d="M 383.597656 596.878906 C 403.511719 602.238281 394.664062 576.074219 403.144531 570.121094 C 399.132812 576.398438 380.003906 587.714844 383.597656 596.878906 "/><path style=" stroke:none;fill-rule:nonzero;fill:#7c401c;fill-opacity:1;" d="M 293.234375 350.433594 C 287.503906 353.960938 272.515625 361.472656 275.410156 369.949219 C 285.078125 371.1875 297.078125 366.257812 295.046875 354.027344 L 293.234375 350.433594 "/><path style=" stroke:none;fill-rule:nonzero;fill:#7c401c;fill-opacity:1;" d="M 224.777344 676.367188 L 221.183594 672.777344 C 221.183594 679.03125 220.765625 695.519531 231.863281 690.941406 C 240.707031 687.230469 232.757812 674.449219 224.777344 676.367188 "/><path style=" stroke:none;fill-rule:nonzero;fill:#7c401c;fill-opacity:1;" d="M 141.917969 552.121094 L 143.695312 548.519531 C 139.761719 552.25 127.136719 574.933594 140.148438 573.832031 C 148.71875 573.078125 150.824219 550.71875 141.917969 552.121094 "/><path style=" stroke:none;fill-rule:nonzero;fill:#7c401c;fill-opacity:1;" d="M 527.449219 528.703125 C 521.164062 529.710938 512.597656 546.867188 524.953125 545.058594 C 533.5625 543.800781 531.917969 530.628906 529.234375 525.109375 L 527.449219 528.703125 "/><path style=" stroke:none;fill-rule:nonzero;fill:#7c401c;fill-opacity:1;" d="M 469.789062 339.617188 L 468.003906 343.214844 C 467.632812 350.984375 473.953125 353.089844 480.324219 351.941406 C 481.75 344.839844 478.355469 337.464844 469.789062 339.617188 "/><path style=" stroke:none;fill-rule:nonzero;fill:#7c401c;fill-opacity:1;" d="M 478.820312 456.679688 C 474.464844 461.996094 474.464844 469.460938 475.46875 476.242188 C 486.382812 479.820312 485.550781 467.148438 480.597656 462.085938 L 478.820312 456.679688 "/><path style=" stroke:none;fill-rule:nonzero;fill:#7c3f1b;fill-opacity:1;" d="M 619.597656 405.960938 C 636.714844 409.535156 635.613281 386.308594 635.574219 374.507812 C 623.722656 378.703125 617.96875 394.601562 619.597656 405.960938 "/><path style=" stroke:none;fill-rule:nonzero;fill:#7c3f1b;fill-opacity:1;" d="M 635.574219 374.507812 C 636.160156 374.304688 636.714844 373.980469 637.351562 373.820312 L 635.574219 373.820312 C 635.574219 374.027344 635.574219 374.304688 635.574219 374.507812 "/><path style=" stroke:none;fill-rule:nonzero;fill:#7c3f1b;fill-opacity:1;" d="M 321.101562 278.132812 C 333.683594 285.140625 338.746094 259.691406 343.695312 254.976562 L 350.898438 251.378906 C 340.902344 251.445312 334.757812 253.484375 326.972656 260.472656 C 323.136719 263.90625 313.398438 273.828125 321.101562 278.132812 "/><path style=" stroke:none;fill-rule:nonzero;fill:#7c401c;fill-opacity:1;" d="M 486.015625 244.160156 L 482.390625 244.160156 C 492.429688 252.289062 487.019531 276.027344 507.34375 272.726562 C 510.027344 258.296875 495.960938 250.828125 486.015625 244.160156 "/><path style=" stroke:none;fill-rule:nonzero;fill:#7c401c;fill-opacity:1;" d="M 479.050781 152.042969 C 495.136719 154.265625 498.816406 142.609375 511.21875 137.910156 L 516.648438 136.101562 C 507.621094 131.890625 474.371094 138.695312 479.050781 152.042969 "/><path style=" stroke:none;fill-rule:nonzero;fill:#7c401c;fill-opacity:1;" d="M 622.871094 244.089844 C 623.5625 251.03125 626.976562 254.238281 630.851562 247.027344 C 634.332031 240.632812 632.058594 231.816406 630.023438 224.117188 C 626.265625 230.347656 622.109375 236.300781 622.871094 244.089844 "/><path style=" stroke:none;fill-rule:nonzero;fill:#7c401c;fill-opacity:1;" d="M 630.023438 224.117188 C 631.402344 221.871094 632.722656 219.582031 633.738281 217.15625 L 628.351562 217.15625 C 628.738281 219.261719 629.382812 221.640625 630.023438 224.117188 "/><path style=" stroke:none;fill-rule:nonzero;fill:#7c401c;fill-opacity:1;" d="M 693.203125 263.972656 C 687.957031 272.0625 686.972656 283.175781 688.042969 292.519531 C 701.296875 297.835938 698.292969 262.785156 693.203125 263.972656 "/></g></svg>