<svg xmlns="http://www.w3.org/2000/svg" xmlns:xlink="http://www.w3.org/1999/xlink" width="1200" zoomAndPan="magnify" viewBox="0 0 900 899.99999" height="1200" preserveAspectRatio="xMidYMid meet" version="1.2"><defs><clipPath id="be5f2baa98"><path d="M 425 64.632812 L 485 64.632812 L 485 217 L 425 217 Z M 425 64.632812 "/></clipPath></defs><g id="807779d994"><g clip-rule="nonzero" clip-path="url(#be5f2baa98)"><path style=" stroke:none;fill-rule:nonzero;fill:#58b835;fill-opacity:1;" d="M 452.253906 215.636719 C 452.253906 215.636719 473.773438 148.035156 425.351562 86.152344 L 479.492188 64.625 C 479.492188 64.625 495.292969 161.382812 468.398438 216.597656 L 452.253906 215.636719 "/></g><path style=" stroke:none;fill-rule:nonzero;fill:#e62138;fill-opacity:1;" d="M 443.628906 207.960938 C 443.628906 207.960938 248.195312 188.777344 186.023438 298.925781 C 123.859375 409.074219 182.214844 558.101562 255.742188 662.65625 C 329.277344 767.210938 392 816.628906 461.339844 826.140625 C 530.679688 835.648438 599.089844 772.074219 669.503906 632.988281 C 739.914062 493.902344 776.101562 373.09375 727.238281 292.59375 C 678.378906 212.097656 564.902344 200.910156 443.628906 207.960938 "/><path style=" stroke:none;fill-rule:nonzero;fill:#4fa036;fill-opacity:1;" d="M 427.484375 190.527344 C 427.484375 190.527344 362.925781 139.40625 284.914062 150.167969 L 260.703125 148.683594 C 260.703125 148.683594 352.164062 212.058594 427.484375 190.527344 "/><path style=" stroke:none;fill-rule:nonzero;fill:#4fa036;fill-opacity:1;" d="M 474.304688 205.519531 C 474.304688 205.519531 444.617188 142.035156 386.121094 134.066406 L 369.472656 127.011719 C 369.472656 127.011719 414.339844 208.375 474.304688 205.519531 "/><path style=" stroke:none;fill-rule:nonzero;fill:#4fa036;fill-opacity:1;" d="M 513.265625 187.84375 C 513.265625 187.84375 578.128906 153.140625 653.449219 171.835938 L 699.179688 187.84375 C 699.179688 187.84375 580.210938 217.4375 513.265625 187.84375 "/><path style=" stroke:none;fill-rule:nonzero;fill:#4fa036;fill-opacity:1;" d="M 462.148438 198.945312 C 462.148438 198.945312 499.75 147.738281 564.175781 143.46875 L 604.925781 145.242188 C 604.925781 145.242188 523.980469 207.3125 462.148438 198.945312 "/><path style=" stroke:none;fill-rule:nonzero;fill:#58b835;fill-opacity:1;" d="M 357.542969 241.65625 C 357.542969 241.65625 309.125 260.488281 292.984375 311.617188 C 276.847656 362.734375 292.984375 370.804688 292.984375 370.804688 C 292.984375 370.804688 370.992188 303.546875 397.898438 292.785156 C 424.792969 282.011719 454.730469 260.488281 454.730469 260.488281 C 454.730469 260.488281 494.734375 282.011719 527.015625 306.230469 C 559.292969 330.449219 607.71875 354.667969 613.09375 370.804688 C 618.476562 386.953125 631.929688 343.902344 613.09375 306.230469 C 594.265625 268.554688 561.984375 241.65625 561.984375 241.65625 C 561.984375 241.65625 656.140625 260.488281 685.726562 292.785156 C 715.316406 325.070312 740.714844 321.855469 740.714844 321.855469 C 740.714844 321.855469 720.699219 229.917969 669.582031 206.1875 C 618.476562 182.457031 569.171875 168.386719 513.265625 187.84375 C 513.265625 187.84375 462.457031 203.980469 427.484375 190.527344 C 392.511719 177.078125 346.78125 172.207031 303.742188 178.683594 C 260.703125 185.148438 225.730469 201.296875 190.761719 236.269531 C 190.761719 236.269531 298.367188 214.742188 357.542969 241.65625 "/><path style=" stroke:none;fill-rule:nonzero;fill:#dd2529;fill-opacity:1;" d="M 669.503906 632.988281 C 714.351562 544.402344 745.199219 463.28125 749.144531 395.210938 C 745.027344 398.761719 745.8125 407.226562 740.714844 419.402344 C 712.621094 486.511719 691.101562 522.832031 653.449219 587.40625 C 615.785156 651.992188 537.601562 674.976562 474.304688 674.859375 C 377.007812 674.6875 330.644531 656.027344 260.703125 583.375 C 205.15625 525.679688 162.53125 424.996094 160.40625 419.890625 C 164.980469 504.152344 206.894531 593.207031 255.742188 662.65625 C 329.277344 767.210938 392 816.628906 461.339844 826.140625 C 530.6875 835.648438 599.089844 772.074219 669.503906 632.988281 "/><path style=" stroke:none;fill-rule:nonzero;fill:#dd2529;fill-opacity:1;" d="M 556.601562 492.824219 C 556.601562 505.972656 551.441406 516.628906 545.078125 516.628906 C 538.703125 516.628906 533.542969 505.972656 533.542969 492.824219 C 533.542969 479.675781 538.703125 469.019531 545.078125 469.019531 C 551.441406 469.019531 556.601562 479.675781 556.601562 492.824219 "/><path style=" stroke:none;fill-rule:nonzero;fill:#f4d1b1;fill-opacity:1;" d="M 551.800781 486.925781 C 551.800781 495.335938 548.785156 502.144531 545.078125 502.144531 C 541.359375 502.144531 538.351562 495.335938 538.351562 486.925781 C 538.351562 478.519531 541.359375 471.710938 545.078125 471.710938 C 548.785156 471.710938 551.800781 478.519531 551.800781 486.925781 "/><path style=" stroke:none;fill-rule:nonzero;fill:#dd2529;fill-opacity:1;" d="M 628.949219 449.898438 C 631.867188 462.714844 629.199219 474.261719 622.988281 475.675781 C 616.785156 477.089844 609.382812 467.847656 606.457031 455.023438 C 603.539062 442.207031 606.203125 430.671875 612.417969 429.257812 C 618.621094 427.84375 626.023438 437.082031 628.949219 449.898438 "/><path style=" stroke:none;fill-rule:nonzero;fill:#f4d1b1;fill-opacity:1;" d="M 622.953125 445.214844 C 624.816406 453.410156 623.394531 460.726562 619.773438 461.554688 C 616.152344 462.371094 611.707031 456.402344 609.832031 448.207031 C 607.96875 440.019531 609.390625 432.707031 613.011719 431.878906 C 616.632812 431.058594 621.078125 437.027344 622.953125 445.214844 "/><path style=" stroke:none;fill-rule:nonzero;fill:#dd2529;fill-opacity:1;" d="M 453.847656 464.460938 C 452.839844 477.566406 446.871094 487.796875 440.523438 487.3125 C 434.164062 486.816406 429.835938 475.800781 430.84375 462.6875 C 431.859375 449.585938 437.820312 439.351562 444.179688 439.839844 C 450.527344 440.335938 454.855469 451.359375 453.847656 464.460938 "/><path style=" stroke:none;fill-rule:nonzero;fill:#f4d1b1;fill-opacity:1;" d="M 448.742188 457.328125 C 449.191406 465.722656 446.554688 472.683594 442.84375 472.882812 C 439.136719 473.082031 435.769531 466.445312 435.316406 458.050781 C 434.859375 449.65625 437.503906 442.695312 441.214844 442.496094 C 444.925781 442.296875 448.292969 448.933594 448.742188 457.328125 "/><path style=" stroke:none;fill-rule:nonzero;fill:#dd2529;fill-opacity:1;" d="M 371.390625 455.375 C 368.074219 468.09375 360.394531 477.105469 354.226562 475.496094 C 348.070312 473.890625 345.753906 462.273438 349.078125 449.558594 C 352.390625 436.832031 360.070312 427.824219 366.230469 429.429688 C 372.398438 431.039062 374.710938 442.648438 371.390625 455.375 "/><path style=" stroke:none;fill-rule:nonzero;fill:#f4d1b1;fill-opacity:1;" d="M 367.636719 447.449219 C 366.597656 455.789062 362.761719 462.175781 359.082031 461.714844 C 355.390625 461.246094 353.246094 454.113281 354.289062 445.773438 C 355.335938 437.445312 359.160156 431.058594 362.855469 431.515625 C 366.535156 431.976562 368.679688 439.109375 367.636719 447.449219 "/><path style=" stroke:none;fill-rule:nonzero;fill:#dd2529;fill-opacity:1;" d="M 296.683594 426.402344 C 293.371094 439.128906 285.6875 448.132812 279.53125 446.53125 C 273.363281 444.917969 271.050781 433.308594 274.363281 420.582031 C 277.683594 407.867188 285.367188 398.851562 291.53125 400.464844 C 297.691406 402.066406 300.003906 413.683594 296.683594 426.402344 "/><path style=" stroke:none;fill-rule:nonzero;fill:#f4d1b1;fill-opacity:1;" d="M 292.929688 418.476562 C 291.882812 426.816406 288.058594 433.203125 284.375 432.742188 C 280.683594 432.28125 278.539062 425.148438 279.585938 416.808594 C 280.628906 408.46875 284.457031 402.085938 288.148438 402.542969 C 291.832031 403.003906 293.972656 410.136719 292.929688 418.476562 "/><path style=" stroke:none;fill-rule:nonzero;fill:#dd2529;fill-opacity:1;" d="M 240.433594 350.621094 C 235.617188 362.851562 226.910156 370.867188 220.976562 368.535156 C 215.054688 366.195312 214.160156 354.386719 218.980469 342.15625 C 223.796875 329.925781 232.511719 321.910156 238.4375 324.242188 C 244.359375 326.585938 245.261719 338.390625 240.433594 350.621094 "/><path style=" stroke:none;fill-rule:nonzero;fill:#f4d1b1;fill-opacity:1;" d="M 237.660156 342.300781 C 235.628906 350.453125 231.054688 356.332031 227.453125 355.433594 C 223.851562 354.53125 222.582031 347.191406 224.617188 339.039062 C 226.648438 330.878906 231.222656 325.007812 234.824219 325.910156 C 238.425781 326.808594 239.695312 334.148438 237.660156 342.300781 "/><path style=" stroke:none;fill-rule:nonzero;fill:#dd2529;fill-opacity:1;" d="M 198.675781 445.503906 C 196.875 458.527344 190.300781 468.371094 183.988281 467.496094 C 177.675781 466.625 174.03125 455.355469 175.832031 442.332031 C 177.632812 429.320312 184.207031 419.46875 190.515625 420.339844 C 196.828125 421.214844 200.484375 432.480469 198.675781 445.503906 "/><path style=" stroke:none;fill-rule:nonzero;fill:#f4d1b1;fill-opacity:1;" d="M 194.019531 438.074219 C 193.964844 446.476562 190.90625 453.269531 187.1875 453.242188 C 183.476562 453.214844 180.515625 446.378906 180.566406 437.976562 C 180.628906 429.570312 183.683594 422.78125 187.402344 422.808594 C 191.113281 422.835938 194.082031 429.660156 194.019531 438.074219 "/><path style=" stroke:none;fill-rule:nonzero;fill:#dd2529;fill-opacity:1;" d="M 249.890625 496.929688 C 248.089844 509.945312 241.515625 519.796875 235.203125 518.921875 C 228.890625 518.050781 225.246094 506.785156 227.046875 493.761719 C 228.847656 480.738281 235.421875 470.894531 241.730469 471.765625 C 248.042969 472.640625 251.699219 483.90625 249.890625 496.929688 "/><path style=" stroke:none;fill-rule:nonzero;fill:#f4d1b1;fill-opacity:1;" d="M 245.234375 489.492188 C 245.179688 497.894531 242.117188 504.683594 238.402344 504.667969 C 234.691406 504.640625 231.726562 497.804688 231.78125 489.402344 C 231.84375 481 234.898438 474.207031 238.617188 474.234375 C 242.328125 474.261719 245.296875 481.089844 245.234375 489.492188 "/><path style=" stroke:none;fill-rule:nonzero;fill:#dd2529;fill-opacity:1;" d="M 325.207031 550.066406 C 323.417969 563.089844 316.835938 572.933594 310.523438 572.0625 C 304.21875 571.1875 300.5625 559.921875 302.363281 546.90625 C 304.164062 533.882812 310.746094 524.03125 317.050781 524.902344 C 323.363281 525.777344 327.019531 537.042969 325.207031 550.066406 "/><path style=" stroke:none;fill-rule:nonzero;fill:#f4d1b1;fill-opacity:1;" d="M 320.554688 542.636719 C 320.5 551.039062 317.4375 557.832031 313.726562 557.804688 C 310.007812 557.777344 307.046875 550.949219 307.109375 542.539062 C 307.164062 534.136719 310.226562 527.34375 313.933594 527.371094 C 317.652344 527.398438 320.617188 534.234375 320.554688 542.636719 "/><path style=" stroke:none;fill-rule:nonzero;fill:#dd2529;fill-opacity:1;" d="M 422.765625 361.628906 C 420.964844 374.652344 414.390625 384.496094 408.082031 383.621094 C 401.769531 382.746094 398.113281 371.488281 399.921875 358.46875 C 401.722656 345.445312 408.296875 335.589844 414.609375 336.464844 C 420.921875 337.339844 424.566406 348.605469 422.765625 361.628906 "/><path style=" stroke:none;fill-rule:nonzero;fill:#f4d1b1;fill-opacity:1;" d="M 418.109375 354.199219 C 418.046875 362.601562 414.996094 369.390625 411.277344 369.363281 C 407.566406 369.335938 404.605469 362.511719 404.660156 354.097656 C 404.722656 345.695312 407.773438 338.90625 411.492188 338.933594 C 415.203125 338.960938 418.164062 345.796875 418.109375 354.199219 "/><path style=" stroke:none;fill-rule:nonzero;fill:#dd2529;fill-opacity:1;" d="M 533.191406 374.507812 C 532.949219 387.648438 527.601562 398.210938 521.226562 398.09375 C 514.859375 397.988281 509.890625 387.234375 510.121094 374.09375 C 510.355469 360.945312 515.714844 350.378906 522.082031 350.496094 C 528.445312 350.613281 533.425781 361.359375 533.191406 374.507812 "/><path style=" stroke:none;fill-rule:nonzero;fill:#f4d1b1;fill-opacity:1;" d="M 527.671875 367.679688 C 528.617188 376.027344 526.394531 383.144531 522.703125 383.558594 C 519.011719 383.972656 515.253906 377.542969 514.308594 369.195312 C 513.363281 360.84375 515.597656 353.738281 519.28125 353.316406 C 522.972656 352.902344 526.734375 359.332031 527.671875 367.679688 "/><path style=" stroke:none;fill-rule:nonzero;fill:#dd2529;fill-opacity:1;" d="M 667.484375 338.273438 C 670.214844 351.136719 667.367188 362.636719 661.136719 363.953125 C 654.90625 365.277344 647.648438 355.917969 644.921875 343.066406 C 642.195312 330.203125 645.039062 318.703125 651.269531 317.390625 C 657.5 316.066406 664.757812 325.414062 667.484375 338.273438 "/><path style=" stroke:none;fill-rule:nonzero;fill:#f4d1b1;fill-opacity:1;" d="M 660.578125 332.871094 C 663.378906 340.796875 662.8125 348.21875 659.308594 349.460938 C 655.808594 350.695312 650.695312 345.273438 647.902344 337.347656 C 645.101562 329.421875 645.667969 322 649.171875 320.765625 C 652.675781 319.523438 657.78125 324.945312 660.578125 332.871094 "/><path style=" stroke:none;fill-rule:nonzero;fill:#dd2529;fill-opacity:1;" d="M 710.199219 462.023438 C 709.074219 475.117188 703.015625 485.292969 696.667969 484.746094 C 690.328125 484.203125 686.097656 473.144531 687.222656 460.039062 C 688.347656 446.945312 694.398438 436.769531 700.746094 437.316406 C 707.09375 437.859375 711.328125 448.917969 710.199219 462.023438 "/><path style=" stroke:none;fill-rule:nonzero;fill:#f4d1b1;fill-opacity:1;" d="M 705.160156 454.835938 C 705.535156 463.238281 702.835938 470.171875 699.125 470.34375 C 695.417969 470.503906 692.101562 463.839844 691.722656 455.445312 C 691.347656 447.042969 694.054688 440.109375 697.757812 439.9375 C 701.476562 439.777344 704.78125 446.441406 705.160156 454.835938 "/><path style=" stroke:none;fill-rule:nonzero;fill:#dd2529;fill-opacity:1;" d="M 673.277344 541.347656 C 672.148438 554.453125 666.097656 564.621094 659.75 564.082031 C 653.402344 563.53125 649.171875 552.472656 650.296875 539.378906 C 651.421875 526.28125 657.480469 516.105469 663.820312 516.644531 C 670.167969 517.195312 674.402344 528.253906 673.277344 541.347656 "/><path style=" stroke:none;fill-rule:nonzero;fill:#f4d1b1;fill-opacity:1;" d="M 668.242188 534.171875 C 668.621094 542.566406 665.917969 549.507812 662.210938 549.679688 C 658.492188 549.84375 655.1875 543.167969 654.808594 534.773438 C 654.429688 526.382812 657.132812 519.4375 660.839844 519.273438 C 664.550781 519.105469 667.863281 525.777344 668.242188 534.171875 "/><path style=" stroke:none;fill-rule:nonzero;fill:#dd2529;fill-opacity:1;" d="M 496.824219 554.128906 C 495.699219 567.234375 489.648438 577.410156 483.300781 576.863281 C 476.953125 576.3125 472.71875 565.253906 473.847656 552.15625 C 474.972656 539.0625 481.03125 528.886719 487.371094 529.425781 C 493.71875 529.972656 497.949219 541.035156 496.824219 554.128906 "/><path style=" stroke:none;fill-rule:nonzero;fill:#f4d1b1;fill-opacity:1;" d="M 491.789062 546.953125 C 492.167969 555.355469 489.46875 562.289062 485.757812 562.460938 C 482.039062 562.621094 478.734375 555.949219 478.355469 547.554688 C 477.980469 539.160156 480.679688 532.21875 484.390625 532.054688 C 488.097656 531.882812 491.414062 538.558594 491.789062 546.953125 "/><path style=" stroke:none;fill-rule:nonzero;fill:#dd2529;fill-opacity:1;" d="M 408.601562 580.832031 C 407.476562 593.9375 401.417969 604.105469 395.070312 603.566406 C 388.730469 603.015625 384.5 591.957031 385.617188 578.859375 C 386.742188 565.765625 392.800781 555.589844 399.148438 556.136719 C 405.496094 556.679688 409.726562 567.738281 408.601562 580.832031 "/><path style=" stroke:none;fill-rule:nonzero;fill:#f4d1b1;fill-opacity:1;" d="M 403.5625 573.65625 C 403.9375 582.050781 401.238281 588.992188 397.527344 589.164062 C 393.820312 589.328125 390.503906 582.652344 390.125 574.257812 C 389.75 565.863281 392.449219 558.921875 396.160156 558.757812 C 399.878906 558.585938 403.183594 565.261719 403.5625 573.65625 "/><path style=" stroke:none;fill-rule:nonzero;fill:#dd2529;fill-opacity:1;" d="M 353.722656 643.894531 C 355.859375 656.875 352.488281 668.222656 346.207031 669.257812 C 339.921875 670.292969 333.09375 660.621094 330.960938 647.640625 C 328.828125 634.671875 332.1875 623.316406 338.472656 622.28125 C 344.765625 621.253906 351.589844 630.925781 353.722656 643.894531 "/><path style=" stroke:none;fill-rule:nonzero;fill:#f4d1b1;fill-opacity:1;" d="M 347.070312 638.175781 C 349.5 646.226562 348.589844 653.621094 345.035156 654.695312 C 341.488281 655.765625 336.625 650.117188 334.195312 642.078125 C 331.761719 634.035156 332.671875 626.640625 336.230469 625.566406 C 339.785156 624.488281 344.636719 630.132812 347.070312 638.175781 "/><path style=" stroke:none;fill-rule:nonzero;fill:#dd2529;fill-opacity:1;" d="M 275.523438 592.75 C 277.65625 605.726562 274.300781 617.074219 268.015625 618.109375 C 261.730469 619.144531 254.90625 609.472656 252.769531 596.496094 C 250.636719 583.527344 253.996094 572.167969 260.28125 571.140625 C 266.566406 570.097656 273.390625 579.78125 275.523438 592.75 "/><path style=" stroke:none;fill-rule:nonzero;fill:#f4d1b1;fill-opacity:1;" d="M 268.878906 587.039062 C 271.308594 595.082031 270.402344 602.464844 266.84375 603.546875 C 263.289062 604.617188 258.433594 598.972656 256.003906 590.929688 C 253.570312 582.886719 254.480469 575.492188 258.039062 574.410156 C 261.59375 573.339844 266.449219 578.988281 268.878906 587.039062 "/><path style=" stroke:none;fill-rule:nonzero;fill:#dd2529;fill-opacity:1;" d="M 469.488281 658.449219 C 471.621094 671.417969 468.253906 682.777344 461.96875 683.8125 C 455.683594 684.847656 448.859375 675.164062 446.726562 662.195312 C 444.59375 649.226562 447.960938 637.871094 454.246094 636.835938 C 460.527344 635.800781 467.355469 645.480469 469.488281 658.449219 "/><path style=" stroke:none;fill-rule:nonzero;fill:#f4d1b1;fill-opacity:1;" d="M 462.835938 652.730469 C 465.273438 660.773438 464.363281 668.167969 460.808594 669.25 C 457.25 670.320312 452.398438 664.671875 449.96875 656.628906 C 447.535156 648.589844 448.445312 641.195312 451.992188 640.113281 C 455.550781 639.042969 460.402344 644.6875 462.835938 652.730469 "/><path style=" stroke:none;fill-rule:nonzero;fill:#dd2529;fill-opacity:1;" d="M 596.058594 622.695312 C 595.507812 635.824219 589.90625 646.253906 583.542969 645.996094 C 577.175781 645.722656 572.464844 634.863281 573.015625 621.722656 C 573.566406 608.589844 579.175781 598.160156 585.539062 598.421875 C 591.90625 598.691406 596.617188 609.5625 596.058594 622.695312 "/><path style=" stroke:none;fill-rule:nonzero;fill:#f4d1b1;fill-opacity:1;" d="M 590.71875 615.742188 C 591.464844 624.109375 589.0625 631.160156 585.359375 631.492188 C 581.667969 631.816406 578.066406 625.296875 577.320312 616.929688 C 576.582031 608.5625 578.976562 601.503906 582.675781 601.179688 C 586.378906 600.84375 589.96875 607.367188 590.71875 615.742188 "/><path style=" stroke:none;fill-rule:nonzero;fill:#dd2529;fill-opacity:1;" d="M 545.058594 731.851562 C 544.507812 744.984375 538.898438 755.414062 532.542969 755.152344 C 526.175781 754.878906 521.46875 744.019531 522.015625 730.878906 C 522.566406 717.746094 528.175781 707.316406 534.542969 707.578125 C 540.90625 707.851562 545.617188 718.710938 545.058594 731.851562 "/><path style=" stroke:none;fill-rule:nonzero;fill:#f4d1b1;fill-opacity:1;" d="M 539.71875 724.898438 C 540.457031 733.265625 538.0625 740.316406 534.363281 740.652344 C 530.671875 740.976562 527.058594 734.453125 526.320312 726.085938 C 525.574219 717.71875 527.96875 710.667969 531.667969 710.335938 C 535.371094 710.011719 538.972656 716.523438 539.71875 724.898438 "/><path style=" stroke:none;fill-rule:nonzero;fill:#dd2529;fill-opacity:1;" d="M 427.539062 740.46875 C 428.671875 753.566406 424.441406 764.625 418.09375 765.175781 C 411.746094 765.714844 405.6875 755.546875 404.558594 742.441406 C 403.433594 729.347656 407.667969 718.289062 414.003906 717.738281 C 420.351562 717.1875 426.414062 727.367188 427.539062 740.46875 "/><path style=" stroke:none;fill-rule:nonzero;fill:#f4d1b1;fill-opacity:1;" d="M 421.351562 734.257812 C 423.152344 742.460938 421.6875 749.757812 418.058594 750.558594 C 414.429688 751.359375 410.027344 745.351562 408.214844 737.148438 C 406.414062 728.933594 407.890625 721.636719 411.519531 720.835938 C 415.148438 720.035156 419.550781 726.042969 421.351562 734.257812 "/><path style=" stroke:none;fill-rule:nonzero;fill:#4fa036;fill-opacity:1;" d="M 520.992188 287.398438 C 508.1875 269.90625 484.082031 236.269531 454.777344 245.015625 C 454.777344 245.015625 387.9375 294.863281 356.53125 319.453125 C 356.46875 319.503906 356.433594 319.53125 356.371094 319.585938 C 372.777344 307.273438 388.480469 296.546875 397.898438 292.785156 C 424.792969 282.011719 454.730469 260.488281 454.730469 260.488281 C 454.730469 260.488281 494.734375 282.011719 527.015625 306.230469 C 540.089844 316.039062 555.78125 325.835938 570.214844 335.105469 L 570.226562 335.113281 C 570.226562 335.113281 533.804688 304.886719 520.992188 287.398438 "/><path style=" stroke:none;fill-rule:nonzero;fill:#4fa036;fill-opacity:1;" d="M 561.984375 241.65625 L 599.640625 283.929688 C 581.9375 258.460938 561.984375 241.65625 561.984375 241.65625 "/><path style=" stroke:none;fill-rule:nonzero;fill:#4fa036;fill-opacity:1;" d="M 740.714844 321.855469 C 740.714844 321.855469 740.632812 321.515625 740.597656 321.332031 C 722.375 314.914062 699.972656 303.402344 693.121094 292.785156 C 683 277.078125 662.859375 263.179688 629.914062 249.722656 C 596.957031 236.269531 561.984375 241.65625 561.984375 241.65625 C 561.984375 241.65625 656.140625 260.488281 685.726562 292.785156 C 715.316406 325.070312 740.714844 321.855469 740.714844 321.855469 "/><path style=" stroke:none;fill-rule:nonzero;fill:#4fa036;fill-opacity:1;" d="M 357.542969 241.65625 C 357.542969 241.65625 278.1875 192.550781 190.761719 236.269531 C 190.761719 236.269531 298.367188 214.742188 357.542969 241.65625 "/></g></svg>