<svg xmlns="http://www.w3.org/2000/svg" xmlns:xlink="http://www.w3.org/1999/xlink" width="1200" zoomAndPan="magnify" viewBox="0 0 900 899.99999" height="1200" preserveAspectRatio="xMidYMid meet" version="1.2"><defs><clipPath id="efba89b419"><path d="M 102.082031 718.660156 L 231.695312 718.660156 L 231.695312 824.203125 L 102.082031 824.203125 Z M 102.082031 718.660156 "/></clipPath><clipPath id="a7d94bb7cc"><path d="M 161.101562 395 L 814.222656 395 L 814.222656 797 L 161.101562 797 Z M 161.101562 395 "/></clipPath></defs><g id="4e31438b89"><path style=" stroke:none;fill-rule:nonzero;fill:#80a10a;fill-opacity:1;" d="M 395.109375 359.707031 L 450.6875 318.453125 C 450.6875 318.453125 485.539062 75.78125 319.636719 108.667969 C 319.636719 108.667969 404.859375 101.523438 408.847656 202.136719 C 412.832031 302.746094 360.820312 359.859375 360.820312 359.859375 L 395.109375 359.707031 "/><path style=" stroke:none;fill-rule:nonzero;fill:#80a10a;fill-opacity:1;" d="M 525.824219 583.183594 L 460.410156 621.804688 C 487.414062 671.613281 452.09375 743.28125 452.09375 743.28125 C 595.246094 670.273438 525.824219 583.183594 525.824219 583.183594 "/><path style=" stroke:none;fill-rule:nonzero;fill:#fbc831;fill-opacity:1;" d="M 152.996094 590.289062 C 152.996094 590.289062 299.300781 423.679688 319.710938 401.761719 C 340.121094 379.847656 369.503906 372.535156 369.503906 372.535156 C 369.503906 372.535156 372.539062 353.34375 382.617188 339.839844 C 392.699219 326.332031 409.25 340.265625 409.25 340.265625 C 409.25 340.265625 414.007812 310.3125 430.917969 301.605469 C 447.832031 292.898438 461.042969 299.585938 461.042969 299.585938 C 461.042969 299.585938 464.417969 278.5 479.226562 270.5 C 494.03125 262.5 505.101562 269.636719 505.101562 269.636719 C 505.101562 269.636719 517.074219 246.953125 532.019531 239.835938 C 546.96875 232.726562 565.890625 236.980469 565.890625 236.980469 C 565.890625 236.980469 569.402344 220.394531 584.949219 213.5625 C 600.492188 206.726562 616.464844 216.972656 616.464844 216.972656 C 616.464844 216.972656 637.097656 189.433594 651.777344 187.710938 C 666.449219 185.992188 670.867188 193.054688 670.867188 193.054688 C 670.867188 193.054688 686.402344 179.027344 696.210938 178.0625 C 706.023438 177.09375 719.875 187.90625 719.875 187.90625 C 719.875 187.90625 730.820312 176.417969 746.09375 178.550781 C 761.371094 180.683594 765.542969 193.3125 765.542969 193.3125 C 765.542969 193.3125 781.839844 191.339844 789.085938 202.386719 C 796.335938 213.433594 785.730469 223.566406 785.730469 223.566406 C 785.730469 223.566406 795.617188 233.789062 794.488281 247.902344 C 793.355469 262.023438 776.734375 269.023438 776.734375 269.023438 C 776.734375 269.023438 780.65625 294.292969 772.984375 305.5 C 765.316406 316.707031 750.472656 317.347656 750.472656 317.347656 C 750.472656 317.347656 756.863281 340.699219 746.769531 350.558594 C 736.679688 360.421875 721.421875 365.550781 721.421875 365.550781 C 721.421875 365.550781 726.558594 380.792969 716.464844 390.660156 C 706.375 400.523438 695.566406 402.195312 695.566406 402.195312 C 695.566406 402.195312 699.191406 411.292969 692.367188 424.394531 C 685.542969 437.492188 668.5 441.792969 668.5 441.792969 C 668.5 441.792969 666.730469 455.34375 655.929688 464.210938 C 645.132812 473.074219 627.710938 471.347656 627.710938 471.347656 C 627.710938 471.347656 629.898438 492.585938 606.796875 507.78125 C 583.699219 522.976562 482.789062 596.699219 482.789062 596.699219 L 271.574219 740.625 C 271.574219 740.625 186.386719 712.34375 185.511719 710.265625 C 184.636719 708.1875 152.996094 590.289062 152.996094 590.289062 "/><g clip-rule="nonzero" clip-path="url(#efba89b419)"><path style=" stroke:none;fill-rule:nonzero;fill:#80a10a;fill-opacity:1;" d="M 130.390625 718.808594 C 130.390625 718.808594 121.503906 764.992188 105.628906 769.667969 C 89.746094 774.339844 130.898438 832.683594 156.542969 823.175781 C 182.1875 813.671875 231.222656 784.496094 231.222656 784.496094 L 130.390625 718.808594 "/></g><path style=" stroke:none;fill-rule:nonzero;fill:#ffe9a1;fill-opacity:1;" d="M 271.375 662.921875 C 264.09375 667.789062 262.660156 674.21875 262.730469 678.757812 C 262.875 686.988281 268.167969 695.953125 275.601562 700.558594 C 289.097656 708.917969 302.683594 707.9375 311.949219 697.945312 C 321.511719 687.621094 318.359375 676.253906 312.21875 669.066406 C 303.40625 658.742188 286.09375 653.089844 271.375 662.921875 Z M 293.550781 708.367188 C 287.445312 708.367188 280.945312 706.378906 274.480469 702.375 C 266.460938 697.402344 260.75 687.710938 260.601562 678.792969 C 260.511719 673.726562 262.109375 666.550781 270.191406 661.144531 C 285.941406 650.621094 304.433594 656.660156 313.839844 667.679688 C 320.578125 675.574219 324.027344 688.042969 313.515625 699.390625 C 307.992188 705.355469 301.070312 708.367188 293.550781 708.367188 "/><path style=" stroke:none;fill-rule:nonzero;fill:#f9dc3d;fill-opacity:1;" d="M 396.226562 345.699219 C 378.773438 351.898438 383.84375 375.28125 393.53125 387.792969 C 403.21875 400.304688 417.078125 410.328125 427.867188 399.433594 C 438.660156 388.539062 413.679688 339.503906 396.226562 345.699219 "/><path style=" stroke:none;fill-rule:nonzero;fill:#f9dc3d;fill-opacity:1;" d="M 581.195312 381.945312 C 569.160156 372.824219 555.480469 386.738281 551.277344 398.933594 C 547.078125 411.132812 546.441406 425.058594 558.695312 427.539062 C 570.949219 430.019531 593.222656 391.070312 581.195312 381.945312 "/><path style=" stroke:none;fill-rule:nonzero;fill:#f9dc3d;fill-opacity:1;" d="M 718.019531 351.136719 C 724.410156 359.714844 736.472656 352.933594 741.734375 345.457031 C 747 337.976562 750.175781 328.617188 742.320312 324.511719 C 734.464844 320.414062 711.621094 342.554688 718.019531 351.136719 "/><path style=" stroke:none;fill-rule:nonzero;fill:#f9dc3d;fill-opacity:1;" d="M 745.308594 305.347656 C 752.050781 314.964844 763.136719 308.558594 767.667969 300.929688 C 772.191406 293.304688 774.589844 283.515625 766.761719 278.582031 C 758.9375 273.648438 738.574219 295.722656 745.308594 305.347656 "/><path style=" stroke:none;fill-rule:nonzero;fill:#f9dc3d;fill-opacity:1;" d="M 616.109375 415.832031 C 611.730469 402.242188 597.472656 405.746094 590.066406 413.011719 C 582.664062 420.273438 576.925781 430.804688 583.988281 439.328125 C 591.046875 447.851562 620.488281 429.421875 616.109375 415.832031 "/><path style=" stroke:none;fill-rule:nonzero;fill:#f9dc3d;fill-opacity:1;" d="M 657.730469 454.558594 C 662.976562 438.226562 646.546875 431.621094 634.191406 433.496094 C 621.835938 435.371094 608.824219 441.605469 609.757812 454.882812 C 610.695312 468.160156 652.476562 470.886719 657.730469 454.558594 "/><path style=" stroke:none;fill-rule:nonzero;fill:#f9dc3d;fill-opacity:1;" d="M 437.3125 311.304688 C 419.734375 317.152344 421.625 341.578125 431.3125 354.089844 C 441.003906 366.605469 456.027344 374.878906 466.730469 363.910156 C 486.015625 344.140625 466.347656 301.644531 437.3125 311.304688 "/><path style=" stroke:none;fill-rule:nonzero;fill:#f9dc3d;fill-opacity:1;" d="M 484.238281 283.449219 C 467.9375 289.101562 469.953125 313.511719 479.113281 326.101562 C 488.269531 338.695312 502.347656 347.125 512.203125 336.277344 C 529.949219 316.75 511.179688 274.113281 484.238281 283.449219 "/><path style=" stroke:none;fill-rule:nonzero;fill:#f9dc3d;fill-opacity:1;" d="M 532.628906 254.414062 C 512.507812 260.660156 514.132812 285.125 524.890625 297.476562 C 535.648438 309.820312 552.566406 317.804688 564.988281 306.5625 C 587.355469 286.320312 565.878906 244.097656 532.628906 254.414062 "/><path style=" stroke:none;fill-rule:nonzero;fill:#f9dc3d;fill-opacity:1;" d="M 572.074219 317.980469 C 555.175781 328.011719 561.335938 347.476562 573.382812 354.851562 C 585.429688 362.21875 602.183594 364.53125 611.191406 352.34375 C 627.429688 330.390625 600.003906 301.40625 572.074219 317.980469 "/><path style=" stroke:none;fill-rule:nonzero;fill:#f9dc3d;fill-opacity:1;" d="M 612.25 374.273438 C 601.621094 390.753906 614.089844 403.578125 627.058594 403.648438 C 640.03125 403.726562 655.117188 397.367188 658.242188 383.007812 C 663.867188 357.148438 629.808594 347.042969 612.25 374.273438 "/><path style=" stroke:none;fill-rule:nonzero;fill:#f9dc3d;fill-opacity:1;" d="M 649.796875 407.347656 C 640.476562 421.8125 651.410156 433.058594 662.792969 433.128906 C 674.175781 433.195312 687.410156 427.613281 690.148438 415.015625 C 695.089844 392.324219 665.203125 383.457031 649.796875 407.347656 "/><path style=" stroke:none;fill-rule:nonzero;fill:#f9dc3d;fill-opacity:1;" d="M 683.839844 371.785156 C 676.050781 383.78125 684.878906 392.917969 694.191406 392.84375 C 703.503906 392.777344 714.394531 388.042969 716.777344 377.644531 C 721.070312 358.925781 696.710938 351.957031 683.839844 371.785156 "/><path style=" stroke:none;fill-rule:nonzero;fill:#f9dc3d;fill-opacity:1;" d="M 653.484375 336.71875 C 646.046875 349.003906 657.660156 360.425781 668.550781 361.648438 C 679.445312 362.875 691.527344 359.121094 692.863281 347.863281 C 695.261719 327.59375 665.769531 316.414062 653.484375 336.71875 "/><path style=" stroke:none;fill-rule:nonzero;fill:#f9dc3d;fill-opacity:1;" d="M 615.386719 293.746094 C 608.351562 306.367188 623.160156 320.410156 635.867188 323.121094 C 648.570312 325.832031 662.027344 323.203125 662.15625 310.957031 C 662.386719 288.90625 627.003906 272.898438 615.386719 293.746094 "/><path style=" stroke:none;fill-rule:nonzero;fill:#f9dc3d;fill-opacity:1;" d="M 581.125 225.84375 C 567.40625 237.695312 579.125 261.441406 593.125 270.613281 C 607.117188 279.789062 624.277344 282.910156 629.609375 268.289062 C 639.210938 241.953125 603.800781 206.257812 581.125 225.84375 "/><path style=" stroke:none;fill-rule:nonzero;fill:#f9dc3d;fill-opacity:1;" d="M 663.132812 257.734375 C 646.921875 269.78125 654.109375 286.214844 666.46875 290.703125 C 678.828125 295.191406 695.566406 294.285156 703.832031 281.707031 C 718.71875 259.039062 689.914062 237.832031 663.132812 257.734375 "/><path style=" stroke:none;fill-rule:nonzero;fill:#f9dc3d;fill-opacity:1;" d="M 694.457031 302.171875 C 680.675781 312.421875 686.785156 326.394531 697.296875 330.210938 C 707.808594 334.027344 722.042969 333.261719 729.070312 322.5625 C 741.730469 303.285156 717.230469 285.246094 694.457031 302.171875 "/><path style=" stroke:none;fill-rule:nonzero;fill:#f9dc3d;fill-opacity:1;" d="M 722.683594 264.527344 C 716.738281 278.164062 727.359375 286.035156 736.902344 284.378906 C 746.449219 282.722656 756.816406 276.011719 757.488281 264.941406 C 758.695312 245.007812 732.507812 241.996094 722.683594 264.527344 "/><path style=" stroke:none;fill-rule:nonzero;fill:#f9dc3d;fill-opacity:1;" d="M 754.5 216.414062 C 750.1875 227.554688 758.972656 233.515625 766.578125 231.867188 C 774.1875 230.21875 782.28125 224.484375 782.449219 215.578125 C 782.746094 199.53125 761.628906 197.996094 754.5 216.414062 "/><path style=" stroke:none;fill-rule:nonzero;fill:#f9dc3d;fill-opacity:1;" d="M 762.242188 245.921875 C 757.988281 256.902344 766.644531 262.777344 774.140625 261.152344 C 781.632812 259.523438 789.609375 253.875 789.773438 245.101562 C 790.070312 229.296875 769.261719 227.78125 762.242188 245.921875 "/><path style=" stroke:none;fill-rule:nonzero;fill:#f9dc3d;fill-opacity:1;" d="M 570.648438 487.824219 C 564.363281 504.046875 577.160156 512.730469 588.238281 510.328125 C 599.3125 507.925781 611.101562 499.578125 611.34375 486.609375 C 611.785156 463.242188 581.027344 461.007812 570.648438 487.824219 "/><path style=" stroke:none;fill-rule:nonzero;fill:#f9dc3d;fill-opacity:1;" d="M 534.363281 456.375 C 529.210938 471.171875 544.484375 480.9375 556.5625 479.90625 C 568.644531 478.882812 580.84375 472.246094 579.632812 459.871094 C 577.445312 437.582031 542.875 431.925781 534.363281 456.375 "/><path style=" stroke:none;fill-rule:nonzero;fill:#f9dc3d;fill-opacity:1;" d="M 461.035156 537.261719 C 454.015625 555.640625 469.09375 565.773438 481.960938 563.246094 C 494.824219 560.714844 508.414062 551.421875 508.453125 536.640625 C 508.53125 510.023438 472.632812 506.898438 461.035156 537.261719 "/><path style=" stroke:none;fill-rule:nonzero;fill:#f9dc3d;fill-opacity:1;" d="M 420.417969 502.152344 C 413.617188 520.640625 430.394531 531.660156 444.234375 529.636719 C 458.066406 527.613281 472.386719 518.699219 471.785156 503.582031 C 470.699219 476.359375 431.660156 471.597656 420.417969 502.152344 "/><path style=" stroke:none;fill-rule:nonzero;fill:#f9dc3d;fill-opacity:1;" d="M 369.542969 548.003906 C 361.417969 569.023438 378.0625 580.304688 392.449219 577.21875 C 406.839844 574.132812 422.140625 563.339844 422.425781 546.527344 C 422.941406 516.242188 382.972656 513.269531 369.542969 548.003906 "/><path style=" stroke:none;fill-rule:nonzero;fill:#f9dc3d;fill-opacity:1;" d="M 414.238281 580.011719 C 406.113281 601.035156 422.761719 612.320312 437.148438 609.234375 C 451.539062 606.148438 466.839844 595.347656 467.125 578.535156 C 467.640625 548.253906 427.667969 545.28125 414.238281 580.011719 "/><path style=" stroke:none;fill-rule:nonzero;fill:#f9dc3d;fill-opacity:1;" d="M 471.328125 374.554688 C 458.613281 383.90625 467.292969 405.824219 478.898438 415.058594 C 490.507812 424.292969 505.253906 428.441406 510.839844 415.960938 C 520.902344 393.492188 492.34375 359.101562 471.328125 374.554688 "/><path style=" stroke:none;fill-rule:nonzero;fill:#f9dc3d;fill-opacity:1;" d="M 430.445312 409.960938 C 411.328125 422.648438 423.097656 443.761719 436.292969 452.722656 C 449.488281 461.6875 456.90625 463.898438 468.90625 453.703125 C 490.613281 435.261719 461.773438 389.171875 430.445312 409.960938 "/><path style=" stroke:none;fill-rule:nonzero;fill:#f9dc3d;fill-opacity:1;" d="M 473.492188 458.574219 C 455.363281 469.636719 463.667969 483.734375 474.429688 488.90625 C 485.191406 494.082031 491.527344 494.949219 503.128906 486.390625 C 524.113281 470.917969 503.207031 440.460938 473.492188 458.574219 "/><path style=" stroke:none;fill-rule:nonzero;fill:#f9dc3d;fill-opacity:1;" d="M 368.894531 603.101562 C 350.761719 614.160156 359.066406 628.257812 369.832031 633.429688 C 380.59375 638.601562 386.925781 639.472656 398.527344 630.917969 C 419.515625 615.441406 398.609375 584.984375 368.894531 603.101562 "/><path style=" stroke:none;fill-rule:nonzero;fill:#f9dc3d;fill-opacity:1;" d="M 288.097656 605.699219 C 269.960938 616.757812 278.265625 630.855469 289.03125 636.027344 C 299.792969 641.203125 306.128906 642.070312 317.726562 633.515625 C 338.714844 618.039062 317.808594 587.582031 288.097656 605.699219 "/><path style=" stroke:none;fill-rule:nonzero;fill:#f9dc3d;fill-opacity:1;" d="M 332.003906 477.796875 C 310.761719 491.828125 323.648438 514.882812 338.1875 524.621094 C 352.730469 534.355469 360.925781 536.730469 374.269531 525.476562 C 398.410156 505.125 366.800781 454.808594 332.003906 477.796875 "/><path style=" stroke:none;fill-rule:nonzero;fill:#f9dc3d;fill-opacity:1;" d="M 338.535156 387.191406 C 317.296875 401.222656 330.179688 424.285156 344.722656 434.015625 C 359.265625 443.753906 367.460938 446.125 380.804688 434.875 C 404.945312 414.519531 373.339844 364.207031 338.535156 387.191406 "/><path style=" stroke:none;fill-rule:nonzero;fill:#f9dc3d;fill-opacity:1;" d="M 511.875 490.074219 C 493.742188 501.128906 502.042969 515.226562 512.8125 520.402344 C 523.574219 525.574219 529.910156 526.441406 541.507812 517.886719 C 562.496094 502.414062 541.589844 471.953125 511.875 490.074219 "/><path style=" stroke:none;fill-rule:nonzero;fill:#f9dc3d;fill-opacity:1;" d="M 382.410156 444.078125 C 366.277344 454.859375 374.007812 475.664062 386.667969 483.507812 C 399.332031 491.355469 413.925781 491.964844 424.359375 480.707031 C 445.636719 457.75 409.074219 426.265625 382.410156 444.078125 "/><path style=" stroke:none;fill-rule:nonzero;fill:#f9dc3d;fill-opacity:1;" d="M 320.535156 561.101562 C 304.402344 571.886719 312.132812 592.6875 324.792969 600.535156 C 337.453125 608.378906 352.050781 608.992188 362.484375 597.734375 C 383.761719 574.777344 347.195312 543.292969 320.535156 561.101562 "/><path style=" stroke:none;fill-rule:nonzero;fill:#f9dc3d;fill-opacity:1;" d="M 330.277344 638.757812 C 314.136719 649.539062 321.871094 670.339844 334.535156 678.183594 C 347.195312 686.035156 361.792969 686.644531 372.226562 675.386719 C 393.503906 652.425781 356.9375 620.941406 330.277344 638.757812 "/><path style=" stroke:none;fill-rule:nonzero;fill:#f9dc3d;fill-opacity:1;" d="M 506.023438 435.816406 C 500.34375 450.34375 511.484375 457.945312 521.21875 455.695312 C 530.957031 453.445312 541.382812 445.886719 541.730469 434.324219 C 542.347656 413.503906 515.394531 411.816406 506.023438 435.816406 "/><path style=" stroke:none;fill-rule:nonzero;fill:#f9dc3d;fill-opacity:1;" d="M 705.441406 232.390625 C 699.492188 246.027344 710.113281 253.894531 719.65625 252.242188 C 729.203125 250.585938 739.574219 243.871094 740.242188 232.808594 C 741.449219 212.867188 715.261719 209.859375 705.441406 232.390625 "/><path style=" stroke:none;fill-rule:nonzero;fill:#f9dc3d;fill-opacity:1;" d="M 688.269531 187.59375 C 674.296875 192.710938 675.9375 205.824219 683.726562 211.578125 C 691.515625 217.335938 703.53125 220.199219 712.003906 213.039062 C 727.261719 200.144531 711.355469 179.136719 688.269531 187.59375 "/><path style=" stroke:none;fill-rule:nonzero;fill:#f9dc3d;fill-opacity:1;" d="M 736.015625 189.046875 C 725.921875 192.742188 727.105469 202.210938 732.734375 206.371094 C 738.355469 210.527344 747.035156 212.589844 753.15625 207.421875 C 764.175781 198.109375 752.6875 182.9375 736.015625 189.046875 "/><path style=" stroke:none;fill-rule:nonzero;fill:#f9dc3d;fill-opacity:1;" d="M 635.371094 207.527344 C 622.609375 220.164062 630.023438 237.289062 642.300781 243.546875 C 654.578125 249.804688 667.65625 247.917969 674.09375 235.253906 C 685.6875 212.445312 664.890625 178.304688 635.371094 207.527344 "/><path style=" stroke:none;fill-rule:nonzero;fill:#f9dc3d;fill-opacity:1;" d="M 547.835938 348.472656 C 533.609375 337.621094 518.152344 350.285156 515.324219 363.488281 C 512.5 376.695312 515.660156 392.0625 529.351562 395.277344 C 554.015625 401.058594 571.34375 366.402344 547.835938 348.472656 "/><g clip-rule="nonzero" clip-path="url(#a7d94bb7cc)"><path style=" stroke:none;fill-rule:nonzero;fill:#a6bc29;fill-opacity:1;" d="M 174.960938 739.007812 L 161.648438 784.769531 C 161.648438 784.769531 193.039062 815.863281 289.707031 775.429688 C 386.367188 735.003906 470.007812 653.445312 522.757812 608.207031 C 575.511719 562.96875 601.503906 547.101562 690.699219 515.574219 C 779.886719 484.050781 814.234375 395.554688 814.234375 395.554688 C 814.234375 395.554688 774.027344 439.371094 683.648438 456.089844 C 588.890625 473.613281 527.523438 489.089844 443.535156 561.296875 C 359.550781 633.507812 267.59375 755.070312 174.960938 739.007812 "/></g><path style=" stroke:none;fill-rule:nonzero;fill:#80a10a;fill-opacity:1;" d="M 543.398438 590.96875 C 511.804688 592.292969 449.542969 598.257812 378.734375 623.089844 C 324.753906 675.617188 268.449219 728.683594 211.539062 738.597656 C 210.625 738.757812 209.714844 738.925781 208.800781 739.070312 C 208.507812 739.117188 208.214844 739.160156 207.917969 739.203125 C 197.28125 740.808594 186.621094 740.890625 175.953125 739.15625 L 162.730469 784.601562 C 162.730469 784.601562 180.179688 801.851562 229.058594 793.921875 C 245.566406 791.140625 265.605469 785.511719 289.707031 775.429688 C 312.753906 765.792969 335.050781 753.796875 356.378906 740.53125 C 312.398438 757.988281 263.867188 773.613281 259.339844 759.671875 C 250.90625 733.707031 368.296875 647.085938 453.941406 639.0625 C 467.941406 637.753906 480.488281 636.523438 491.757812 635.378906 C 502.996094 625.46875 513.375 616.253906 522.757812 608.207031 C 530.078125 601.929688 536.871094 596.238281 543.398438 590.96875 "/><path style=" stroke:none;fill-rule:nonzero;fill:#a6bc29;fill-opacity:1;" d="M 162.730469 784.601562 C 162.730469 784.601562 85.945312 721.273438 110.3125 617.925781 C 134.675781 514.578125 314.28125 427.324219 351.878906 316.507812 C 389.476562 205.691406 393.28125 116.078125 319.636719 108.667969 C 319.636719 108.667969 388.941406 86.5 414.496094 163.644531 C 433.234375 220.210938 410.40625 269.261719 376.3125 366.980469 C 342.21875 464.707031 309.007812 785.714844 162.730469 784.601562 "/><path style=" stroke:none;fill-rule:nonzero;fill:#d3de3e;fill-opacity:1;" d="M 198.210938 755.496094 C 197.949219 755.496094 197.683594 755.394531 197.46875 755.207031 C 197.050781 754.8125 197.003906 754.171875 197.351562 753.726562 L 197.386719 753.683594 C 205.984375 742.796875 214.546875 731.9375 221.894531 720.214844 C 223.835938 717.359375 225.597656 714.390625 227.414062 711.457031 C 229.191406 708.503906 231.097656 705.625 232.769531 702.605469 C 236.148438 696.589844 239.570312 690.605469 242.601562 684.410156 C 248.863281 672.128906 254.460938 659.519531 259.515625 646.703125 C 264.601562 633.898438 269.101562 620.855469 273.054688 607.648438 C 281.015625 581.246094 286.894531 554.222656 291.175781 526.925781 C 293.347656 513.28125 295.042969 499.554688 296.382812 485.78125 C 297.796875 472.011719 298.640625 458.15625 298.980469 444.332031 L 298.980469 444.285156 C 298.996094 443.6875 299.484375 443.21875 300.074219 443.21875 C 300.085938 443.21875 300.09375 443.21875 300.101562 443.21875 C 300.667969 443.230469 301.125 443.679688 301.164062 444.234375 C 303.109375 472.152344 301.710938 500.164062 298.292969 527.929688 C 294.714844 555.664062 289.140625 583.226562 280.804688 610 C 278.824219 616.726562 276.484375 623.335938 274.230469 629.972656 C 271.804688 636.550781 269.355469 643.121094 266.597656 649.570312 C 264.007812 656.089844 260.964844 662.417969 258.085938 668.808594 C 254.875 675.050781 251.851562 681.375 248.339844 687.453125 C 241.617188 699.75 234.121094 711.632812 225.90625 722.976562 L 219.617188 731.386719 C 217.4375 734.121094 215.183594 736.800781 212.976562 739.507812 L 209.644531 743.5625 L 206.121094 747.449219 L 199.015625 755.144531 C 198.796875 755.375 198.503906 755.496094 198.210938 755.496094 "/><path style=" stroke:none;fill-rule:nonzero;fill:#d3de3e;fill-opacity:1;" d="M 172.109375 729.476562 C 171.800781 729.476562 171.496094 729.347656 171.277344 729.097656 C 170.921875 728.6875 170.925781 728.082031 171.265625 727.675781 L 171.273438 727.667969 C 178.078125 719.550781 183.949219 710.820312 189.199219 701.742188 C 194.4375 692.667969 199.066406 683.230469 203.132812 673.542969 C 211.398438 654.226562 217.949219 634.117188 223.238281 613.65625 C 228.585938 593.203125 232.773438 572.414062 236.222656 551.484375 C 239.667969 530.5625 242.507812 509.472656 244.398438 488.320312 L 244.398438 488.300781 C 244.445312 487.734375 244.925781 487.304688 245.484375 487.304688 C 245.519531 487.304688 245.554688 487.308594 245.585938 487.308594 C 246.152344 487.359375 246.578125 487.839844 246.578125 488.402344 C 246.574219 499.109375 245.957031 509.761719 245.222656 520.421875 C 244.507812 531.085938 243.398438 541.71875 242.097656 552.335938 C 240.753906 562.945312 239.128906 573.523438 237.277344 584.070312 C 235.324219 594.597656 233.09375 605.085938 230.582031 615.515625 C 225.339844 636.304688 219 656.953125 209.9375 676.570312 C 205.460938 686.386719 200.210938 695.890625 194.09375 704.824219 C 187.980469 713.746094 180.988281 722.144531 172.824219 729.210938 C 172.617188 729.386719 172.363281 729.476562 172.109375 729.476562 "/><path style=" stroke:none;fill-rule:nonzero;fill:#d3de3e;fill-opacity:1;" d="M 152.320312 700.53125 C 151.980469 700.53125 151.648438 700.375 151.433594 700.082031 C 151.101562 699.632812 151.167969 699.015625 151.5625 698.644531 L 151.582031 698.621094 C 156.464844 693.984375 160.941406 689.011719 164.820312 683.589844 C 168.691406 678.167969 171.988281 672.359375 174.890625 666.378906 C 180.632812 654.355469 184.542969 641.484375 187.257812 628.363281 C 190.023438 615.238281 191.375 601.8125 192.199219 588.355469 C 192.578125 581.617188 192.640625 574.863281 192.601562 568.101562 C 192.59375 561.34375 192.316406 554.554688 191.835938 547.835938 L 191.835938 547.796875 C 191.796875 547.195312 192.25 546.671875 192.851562 546.628906 C 192.875 546.625 192.902344 546.625 192.925781 546.625 C 193.460938 546.625 193.917969 547.015625 194.007812 547.535156 C 196.316406 561.085938 197.117188 574.777344 196.992188 588.503906 C 196.949219 595.363281 196.597656 602.230469 195.910156 609.074219 C 195.285156 615.925781 194.269531 622.746094 192.898438 629.511719 C 190.246094 643.039062 185.957031 656.371094 179.53125 668.710938 C 176.242188 674.828125 172.5 680.730469 168.0625 686.09375 C 163.546875 691.378906 158.542969 696.242188 152.964844 700.320312 C 152.765625 700.460938 152.539062 700.53125 152.320312 700.53125 "/><path style=" stroke:none;fill-rule:nonzero;fill:#d3de3e;fill-opacity:1;" d="M 133.730469 681.402344 C 133.40625 681.402344 133.085938 681.257812 132.867188 680.980469 C 132.511719 680.519531 132.585938 679.855469 133.015625 679.476562 C 135.050781 677.695312 136.746094 675.53125 138.210938 673.226562 C 139.703125 670.933594 140.96875 668.472656 142.089844 665.945312 C 144.3125 660.867188 145.992188 655.523438 147.355469 650.097656 C 148.761719 644.675781 149.792969 639.148438 150.691406 633.601562 C 151.554688 628.046875 152.300781 622.441406 152.78125 616.859375 L 152.78125 616.835938 C 152.832031 616.265625 153.308594 615.835938 153.871094 615.835938 C 153.902344 615.835938 153.933594 615.835938 153.964844 615.839844 C 154.542969 615.890625 154.976562 616.382812 154.964844 616.957031 C 154.828125 622.6875 154.355469 628.359375 153.609375 634.023438 C 152.882812 639.6875 151.800781 645.308594 150.449219 650.878906 C 149.03125 656.433594 147.25 661.925781 144.8125 667.1875 C 142.300781 672.375 139.132812 677.492188 134.40625 681.171875 C 134.207031 681.324219 133.964844 681.402344 133.730469 681.402344 "/><path style=" stroke:none;fill-rule:nonzero;fill:#d3de3e;fill-opacity:1;" d="M 504.507812 541.078125 C 504.113281 541.078125 503.734375 540.863281 503.542969 540.496094 C 503.273438 539.988281 503.445312 539.363281 503.917969 539.0625 C 521.605469 527.765625 540.046875 517.710938 559.265625 509.148438 C 568.855469 504.839844 578.644531 500.917969 588.699219 497.628906 C 593.675781 495.847656 598.832031 494.558594 603.9375 493.132812 C 609.132812 491.980469 614.304688 490.71875 619.644531 490.054688 L 623.617188 489.453125 L 627.425781 488.9375 C 629.960938 488.5625 632.515625 488.34375 635.035156 487.820312 L 642.632812 486.421875 L 650.179688 484.71875 C 660.242188 482.386719 670.222656 479.582031 680.132812 476.480469 C 690.027344 473.351562 699.875 469.992188 709.640625 466.394531 C 719.441406 462.898438 729.132812 459.03125 738.773438 455.101562 L 738.800781 455.089844 C 738.933594 455.035156 739.074219 455.011719 739.214844 455.011719 C 739.644531 455.011719 740.050781 455.261719 740.226562 455.6875 C 740.441406 456.214844 740.214844 456.816406 739.71875 457.074219 C 721.09375 466.738281 701.8125 475.058594 681.964844 482.003906 C 672.054688 485.527344 661.9375 488.476562 651.707031 491.101562 L 643.988281 492.902344 L 636.179688 494.394531 C 633.59375 494.953125 630.933594 495.210938 628.304688 495.617188 L 620.574219 496.722656 C 615.53125 497.3125 610.535156 498.496094 605.527344 499.570312 C 600.566406 500.925781 595.578125 502.15625 590.671875 503.773438 C 580.800781 506.773438 571.117188 510.496094 561.503906 514.378906 C 551.890625 518.28125 542.394531 522.523438 532.988281 526.980469 C 523.554688 531.363281 514.246094 536.085938 505.046875 540.9375 L 505.019531 540.949219 C 504.855469 541.035156 504.679688 541.078125 504.507812 541.078125 "/><path style=" stroke:none;fill-rule:nonzero;fill:#ffffff;fill-opacity:1;" d="M 561.1875 294.613281 C 553.042969 298.675781 553.351562 270.976562 556.648438 271.589844 C 559.941406 272.199219 569.324219 290.550781 561.1875 294.613281 "/><path style=" stroke:none;fill-rule:nonzero;fill:#ffffff;fill-opacity:1;" d="M 697.976562 280.929688 C 689.105469 285.351562 689.441406 255.183594 693.035156 255.851562 C 696.625 256.515625 706.839844 276.503906 697.976562 280.929688 "/><path style=" stroke:none;fill-rule:nonzero;fill:#ffffff;fill-opacity:1;" d="M 620.710938 266.28125 C 612.574219 270.339844 612.878906 242.644531 616.175781 243.253906 C 619.472656 243.863281 628.851562 262.21875 620.710938 266.28125 "/><path style=" stroke:none;fill-rule:nonzero;fill:#ffffff;fill-opacity:1;" d="M 710.128906 207.691406 C 701.855469 210.859375 703.527344 191.976562 706.765625 192.230469 C 710.011719 192.484375 718.414062 204.519531 710.128906 207.691406 "/><path style=" stroke:none;fill-rule:nonzero;fill:#ffffff;fill-opacity:1;" d="M 776.246094 220.652344 C 768.996094 223.429688 770.460938 206.890625 773.304688 207.109375 C 776.144531 207.332031 783.503906 217.878906 776.246094 220.652344 "/><path style=" stroke:none;fill-rule:nonzero;fill:#ffffff;fill-opacity:1;" d="M 733.949219 235.023438 C 726.695312 237.800781 728.164062 221.257812 731 221.480469 C 733.84375 221.699219 741.203125 232.246094 733.949219 235.023438 "/><path style=" stroke:none;fill-rule:nonzero;fill:#ffffff;fill-opacity:1;" d="M 682.714844 355.027344 C 674.472656 358.457031 675.753906 337.011719 679.007812 337.363281 C 682.265625 337.71875 690.949219 351.597656 682.714844 355.027344 "/><path style=" stroke:none;fill-rule:nonzero;fill:#ffffff;fill-opacity:1;" d="M 750.914062 271.34375 C 742.671875 274.777344 743.949219 253.328125 747.207031 253.6875 C 750.46875 254.039062 759.152344 267.914062 750.914062 271.34375 "/><path style=" stroke:none;fill-rule:nonzero;fill:#ffffff;fill-opacity:1;" d="M 605.890625 349.980469 C 596.1875 354.816406 596.550781 321.804688 600.484375 322.53125 C 604.410156 323.261719 615.589844 345.136719 605.890625 349.980469 "/><path style=" stroke:none;fill-rule:nonzero;fill:#ffffff;fill-opacity:1;" d="M 503.40625 412.234375 C 493.125 417.367188 493.511719 382.378906 497.679688 383.152344 C 501.839844 383.921875 513.683594 407.105469 503.40625 412.234375 "/><path style=" stroke:none;fill-rule:nonzero;fill:#ffffff;fill-opacity:1;" d="M 508.949219 302.984375 C 514.816406 302.25 516.25 322.878906 511.027344 323.011719 C 505.808594 323.148438 503.085938 303.714844 508.949219 302.984375 "/><path style=" stroke:none;fill-rule:nonzero;fill:#ffffff;fill-opacity:1;" d="M 548.0625 358.0625 C 554.984375 357.273438 556.453125 377.894531 550.300781 378.082031 C 544.144531 378.277344 541.136719 358.859375 548.0625 358.0625 "/><path style=" stroke:none;fill-rule:nonzero;fill:#ffffff;fill-opacity:1;" d="M 461.929688 325.242188 C 471.039062 324.195312 472.96875 351.320312 464.875 351.574219 C 456.78125 351.828125 452.824219 326.28125 461.929688 325.242188 "/><path style=" stroke:none;fill-rule:nonzero;fill:#ffffff;fill-opacity:1;" d="M 574.214844 387.296875 C 577.90625 386.871094 578.695312 397.878906 575.40625 397.984375 C 572.121094 398.085938 570.515625 387.71875 574.214844 387.296875 "/><path style=" stroke:none;fill-rule:nonzero;fill:#ffffff;fill-opacity:1;" d="M 532.929688 428.90625 C 536.496094 428.496094 537.25 439.125 534.082031 439.222656 C 530.90625 439.320312 529.363281 429.3125 532.929688 428.90625 "/><path style=" stroke:none;fill-rule:nonzero;fill:#ffffff;fill-opacity:1;" d="M 604.324219 238.941406 C 607.890625 238.53125 608.652344 249.160156 605.476562 249.257812 C 602.308594 249.359375 600.757812 239.347656 604.324219 238.941406 "/></g></svg>