<svg xmlns="http://www.w3.org/2000/svg" xmlns:xlink="http://www.w3.org/1999/xlink" width="1200" zoomAndPan="magnify" viewBox="0 0 900 899.99999" height="1200" preserveAspectRatio="xMidYMid meet" version="1.2"><defs><clipPath id="d1f0b8e2a8"><path d="M 119 33 L 780.960938 33 L 780.960938 852 L 119 852 Z M 119 33 "/></clipPath></defs><g id="7fc8806bd2"><g clip-rule="nonzero" clip-path="url(#d1f0b8e2a8)"><path style=" stroke:none;fill-rule:nonzero;fill:#000000;fill-opacity:1;" d="M 780.859375 718.441406 C 780.894531 728.898438 779.078125 738.355469 774.863281 747.644531 C 766.160156 766.769531 757.457031 785.898438 748.722656 805.023438 C 747.523438 807.628906 745.949219 810.0625 744.679688 812.667969 C 741.527344 819.214844 736.390625 822.503906 729.125 823.222656 C 712.816406 824.867188 696.511719 826.890625 680.203125 828.671875 C 656.460938 831.277344 632.71875 833.917969 608.941406 836.28125 C 586.328125 838.542969 563.683594 840.839844 541.003906 842.453125 C 507.976562 844.78125 474.914062 846.839844 441.855469 848.484375 C 395.535156 850.78125 349.179688 852.082031 302.792969 850.542969 C 278.328125 849.71875 253.832031 849.101562 229.40625 847.660156 C 213.0625 846.703125 196.757812 844.40625 180.449219 842.761719 C 176.132812 842.316406 172.945312 840.328125 170.648438 836.589844 C 156.636719 813.453125 141.871094 790.765625 130.085938 766.292969 C 125.015625 755.769531 122.035156 745.347656 121.625 733.421875 C 118.78125 649.859375 118.847656 566.292969 120.492188 482.730469 C 122 405.816406 124.261719 328.902344 127.585938 252.019531 C 130.15625 192.722656 134.917969 133.5625 138.652344 74.335938 C 139.097656 67.445312 139.097656 60.523438 139.574219 53.597656 C 140.226562 44.480469 142.144531 42.835938 151.15625 42.183594 C 264.421875 34.128906 377.890625 32.65625 491.394531 33.101562 C 571.769531 33.410156 652.109375 34.472656 732.484375 35.363281 C 743.71875 35.5 754.921875 36.394531 766.125 37.042969 C 771.882812 37.386719 773.082031 38.210938 773.59375 44.277344 C 774.863281 59.769531 776.269531 75.296875 776.609375 90.824219 C 777.914062 150.152344 779.109375 209.519531 779.832031 268.882812 C 780.308594 309.5 779.933594 350.152344 779.933594 390.769531 C 780.171875 390.769531 780.414062 390.769531 780.652344 390.769531 C 780.617188 499.96875 780.480469 609.207031 780.859375 718.441406 Z M 780.859375 718.441406 "/></g><path style=" stroke:none;fill-rule:nonzero;fill:#f9b7b2;fill-opacity:1;" d="M 179.144531 374.453125 C 181.648438 374.214844 183.050781 374.007812 184.457031 373.9375 C 231.050781 371.78125 277.609375 369.242188 324.238281 367.597656 C 371.140625 365.953125 418.078125 364.617188 465.011719 364.203125 C 539.015625 363.519531 613.050781 363.828125 687.089844 363.484375 C 698.566406 363.449219 710.078125 362.320312 721.554688 361.804688 C 725.253906 361.632812 728.953125 361.769531 732.960938 361.769531 C 736.148438 368.351562 737.3125 375.070312 737.382812 381.960938 C 737.757812 409.3125 738.375 436.699219 738.238281 464.050781 C 738.035156 500.929688 737.210938 537.808594 736.59375 574.691406 C 736.492188 580.414062 735.976562 586.140625 735.53125 593.917969 C 732.722656 590.285156 731.148438 588.058594 729.398438 586.003906 C 726.078125 582.09375 724.601562 582.027344 720.183594 585.96875 C 711.171875 594.023438 702.367188 602.351562 693.253906 610.304688 C 669.617188 630.972656 645.734375 651.332031 619.183594 668.296875 C 591.367188 686.121094 591.367188 685.882812 558.339844 688.726562 C 532.539062 690.988281 506.84375 694.175781 481.082031 696.78125 C 460.183594 698.871094 439.25 700.929688 418.316406 702.539062 C 388.476562 704.871094 358.636719 707.441406 328.726562 708.675781 C 283.84375 710.523438 238.929688 711.382812 194.015625 712.480469 C 187.984375 712.617188 181.957031 711.863281 175.925781 711.347656 C 169.074219 710.765625 167.496094 708.742188 167.804688 702.128906 C 168.113281 695.511719 168.457031 688.898438 168.390625 682.246094 C 167.464844 599.507812 171.199219 516.902344 174.007812 434.230469 C 174.554688 418.703125 175.789062 403.175781 176.917969 387.648438 C 177.226562 383.5 178.324219 379.320312 179.144531 374.453125 Z M 179.144531 374.453125 "/><path style=" stroke:none;fill-rule:nonzero;fill:#ebebeb;fill-opacity:1;" d="M 306.800781 754.707031 C 252.1875 759.058594 197.476562 758.75 142.761719 756.421875 C 140.054688 756.316406 137.316406 756.421875 133.71875 756.421875 C 135.292969 759.640625 136.253906 762.007812 137.519531 764.167969 C 150.503906 786.238281 163.625 808.246094 176.441406 830.421875 C 178.667969 834.292969 181.957031 835.253906 185.722656 835.632812 C 205.492188 837.449219 225.261719 840.191406 245.0625 840.703125 C 292.546875 841.972656 340.101562 842.863281 387.585938 842.65625 C 420.679688 842.519531 453.808594 840.703125 486.871094 838.886719 C 515.035156 837.34375 543.160156 834.910156 571.253906 832.511719 C 597.910156 830.214844 624.5625 827.542969 651.183594 824.835938 C 675.816406 822.332031 700.382812 819.382812 725.015625 817.121094 C 730.769531 816.609375 734.503906 815.066406 737.039062 809.546875 C 748.207031 785.246094 759.753906 761.082031 771.09375 736.816406 C 771.78125 735.339844 771.949219 733.625 772.5 731.5 C 770.511719 731.5 769.140625 731.433594 767.769531 731.5 C 753.109375 732.257812 738.445312 732.90625 723.78125 733.765625 C 701.921875 735.03125 680.097656 736.335938 658.242188 737.808594 C 628.949219 739.796875 599.65625 741.851562 570.363281 744.046875 C 544.257812 746 518.152344 748.367188 492.011719 750.214844 C 468.472656 751.894531 444.902344 753.265625 421.332031 754.433594 C 408.691406 755.050781 396.011719 754.945312 383.335938 755.117188 C 381.246094 755.152344 379.191406 754.742188 377.101562 754.570312 C 377.066406 754.191406 377.066406 753.847656 377.035156 753.472656 L 315.089844 754.019531 C 312.351562 754.226562 309.574219 754.464844 306.800781 754.707031 Z M 179.898438 794.261719 C 232.832031 794.601562 285.765625 795.289062 338.558594 791.105469 C 339.484375 791.039062 340.476562 791.828125 343.320312 792.957031 C 339.691406 794.191406 337.769531 795.1875 335.785156 795.425781 C 328.351562 796.25 320.914062 797.3125 313.445312 797.34375 C 271.203125 797.515625 228.960938 797.449219 186.71875 797.378906 C 184.386719 797.378906 182.023438 796.761719 179.695312 796.453125 C 179.761719 795.699219 179.832031 794.980469 179.898438 794.261719 Z M 266.269531 810.78125 C 259.863281 814.757812 253.183594 812.941406 247.015625 813.695312 C 240.199219 814.550781 233.242188 814.621094 226.355469 814.65625 C 219.746094 814.6875 213.132812 814.347656 206.554688 813.933594 C 200.183594 813.558594 193.84375 812.90625 187.507812 812.390625 C 187.609375 811.707031 187.675781 811.054688 187.78125 810.371094 C 213.03125 809.957031 238.28125 809.511719 263.527344 809.136719 C 264.179688 809.101562 264.867188 809.925781 266.269531 810.78125 Z M 463.710938 828.808594 C 427.738281 829.734375 391.800781 831.65625 355.828125 831.242188 C 307.792969 830.695312 259.761719 828.398438 211.726562 826.71875 C 203.09375 826.410156 194.496094 825.589844 185.894531 824.867188 C 182.640625 824.59375 179.421875 823.910156 176.164062 823.394531 C 176.234375 822.675781 176.335938 821.957031 176.40625 821.234375 C 272.09375 825.761719 367.78125 828.261719 463.539062 825.453125 C 464.738281 825.417969 465.9375 826.066406 467.207031 827.917969 C 466.042969 828.226562 464.875 828.777344 463.710938 828.808594 Z M 691.917969 810.917969 C 627.921875 817.292969 563.886719 823.429688 499.546875 825.65625 C 508.351562 822.296875 695.515625 806.1875 704.355469 807.558594 C 700.347656 810.953125 695.824219 810.507812 691.917969 810.917969 Z M 732.378906 789.976562 C 667.527344 796.351562 602.738281 803.480469 537.714844 807.664062 C 460.867188 812.597656 383.886719 814.484375 306.867188 814.242188 C 306.800781 813.488281 306.730469 812.769531 306.628906 812.015625 C 308.375 811.808594 310.125 811.5 311.835938 811.433594 C 371.722656 809.648438 431.644531 808.585938 491.496094 805.84375 C 534.90625 803.859375 578.242188 799.847656 621.546875 796.386719 C 655.398438 793.679688 689.210938 790.386719 723.0625 787.441406 C 726.144531 787.164062 729.261719 787.40625 732.347656 787.40625 C 732.414062 788.296875 732.414062 789.121094 732.378906 789.976562 Z M 358.292969 789.257812 C 360.863281 789.121094 363.433594 788.84375 366.035156 788.8125 C 407.800781 788.363281 449.5625 787.988281 491.324219 787.507812 C 530.792969 787.0625 570.160156 784.699219 609.453125 780.960938 C 637.515625 778.289062 665.605469 775.648438 693.699219 773.007812 C 695.277344 772.871094 696.886719 772.976562 698.496094 772.976562 C 667.558594 787.164062 393.171875 799.8125 358.292969 789.257812 Z M 470.769531 768.449219 C 476.695312 767.972656 482.625 767.421875 488.585938 767.046875 C 527.882812 764.507812 567.210938 762.109375 606.507812 759.4375 C 638.917969 757.242188 671.292969 754.605469 703.703125 752.410156 C 711 751.929688 718.367188 752.511719 725.800781 752.582031 C 725.632812 753.953125 725.632812 754.261719 725.5625 754.535156 C 725.460938 754.773438 725.253906 755.117188 725.082031 755.152344 C 641.625 760.257812 558.40625 769.617188 474.675781 770.816406 C 473.304688 770.851562 471.933594 770.507812 470.5625 770.335938 C 470.667969 769.683594 470.734375 769.066406 470.769531 768.449219 Z M 432.601562 771.707031 C 426.472656 774.105469 420.132812 774.859375 413.691406 775.03125 C 397.589844 775.441406 381.488281 776.058594 365.386719 776.300781 C 307.28125 777.121094 249.175781 777.84375 191.035156 778.597656 C 188.121094 778.628906 185.210938 778.355469 182.367188 777.671875 C 188.875 774.65625 415.953125 769.035156 432.601562 771.707031 Z M 768.320312 634.054688 C 688.082031 677.894531 604.898438 709.121094 515.890625 724.542969 C 598.527344 700.550781 666.976562 654.863281 723.507812 589.121094 C 734.195312 608.519531 747.558594 624.320312 768.320312 634.054688 Z M 768.320312 634.054688 "/><path style=" stroke:none;fill-rule:nonzero;fill:#f05161;fill-opacity:1;" d="M 143.070312 141.722656 C 145.160156 111.285156 147.214844 81.429688 149.304688 50.617188 C 157.21875 50.035156 164.894531 49.347656 172.535156 48.9375 C 323.277344 40.335938 474.160156 40.675781 625.042969 43.386719 C 663.929688 44.070312 702.78125 44.753906 741.664062 45.542969 C 749.097656 45.679688 756.566406 46.367188 764.960938 46.882812 C 767.769531 74.882812 768.183594 102.613281 769.484375 131.609375 C 765.234375 131.609375 761.878906 131.609375 758.554688 131.609375 C 677.050781 131.542969 595.546875 131.128906 514.074219 131.507812 C 459.359375 131.746094 404.648438 132.398438 349.96875 134.148438 C 298.199219 135.792969 246.46875 139.355469 194.699219 141.617188 C 177.84375 142.371094 160.921875 141.722656 143.070312 141.722656 Z M 680.203125 297.402344 C 669.546875 296.957031 658.890625 296.648438 648.304688 295.722656 C 645.1875 295.449219 641.042969 294.144531 639.433594 291.847656 C 636.074219 287.085938 641.96875 275.121094 647.722656 273.921875 C 652.453125 272.929688 657.28125 272.347656 662.59375 271.523438 C 662.902344 267.617188 663.207031 264.050781 663.449219 260.726562 C 662.214844 260.210938 661.703125 259.800781 661.1875 259.800781 C 657.144531 259.765625 653.136719 259.800781 649.09375 259.800781 C 640.835938 259.765625 639.363281 258.15625 640.1875 250.238281 C 640.871094 243.621094 642.515625 241.945312 649.4375 241.292969 C 657.453125 240.539062 665.503906 239.921875 673.519531 239.269531 C 682.601562 238.550781 691.714844 237.898438 701.066406 237.179688 C 701.648438 229.125 702.195312 221.515625 702.78125 213.324219 C 670.300781 212.878906 639.125 213.253906 608.5625 213.90625 C 607.742188 250.648438 606.953125 286.160156 606.164062 321.941406 C 637.375 324.957031 668.210938 324.273438 698.941406 321.839844 C 698.941406 313.785156 698.941406 306.585938 698.941406 297.914062 C 692.160156 297.675781 686.199219 297.640625 680.203125 297.402344 Z M 461.863281 220.28125 C 462.273438 227 462.648438 232.929688 463.09375 239.578125 C 466.796875 239.816406 469.878906 240.160156 472.960938 240.125 C 479.574219 240.023438 486.1875 239.542969 492.832031 239.542969 C 501.671875 239.511719 503.144531 240.742188 503.28125 249.3125 C 503.453125 262.269531 503.078125 275.226562 503.144531 288.214844 C 503.214844 299.9375 503.554688 311.660156 503.796875 324.101562 C 512.054688 323.175781 519.316406 322.320312 526.851562 321.460938 C 527.296875 318.445312 527.847656 315.910156 527.984375 313.375 C 529.011719 294.96875 529.902344 276.5625 531.03125 258.191406 C 531.308594 253.941406 532.4375 249.757812 533.089844 245.507812 C 533.707031 241.496094 536.207031 239.542969 540.007812 238.925781 C 543.125 238.414062 546.246094 237.863281 549.363281 237.523438 C 554.742188 236.90625 560.121094 236.390625 566.011719 235.773438 C 566.390625 228.472656 566.765625 221.722656 567.175781 214.144531 C 531.546875 216.238281 496.976562 218.257812 461.863281 220.28125 Z M 355.277344 221.308594 C 347.671875 222.234375 347.671875 222.40625 346.128906 229.945312 C 340.101562 259.871094 333.113281 289.550781 323.65625 318.582031 C 323.3125 319.613281 323.277344 320.707031 322.902344 322.9375 C 333.832031 324.480469 344.316406 323.828125 354.523438 323.691406 C 356.441406 316.355469 357.917969 309.601562 360.109375 303.089844 C 360.929688 300.65625 363.054688 297.332031 365.144531 296.886719 C 373.539062 295.070312 382.136719 294.078125 390.667969 293.046875 C 395.054688 292.535156 397.726562 294.933594 398.6875 299.183594 C 399.300781 301.996094 399.886719 304.804688 400.5 307.617188 C 401.359375 311.421875 402.25 315.226562 403.207031 319.199219 C 411.875 318.652344 419.824219 319.507812 428.183594 317.179688 C 417.835938 283.863281 414.789062 249.484375 403.378906 215.722656 C 386.660156 217.675781 370.96875 219.390625 355.277344 221.308594 Z M 370.796875 272.003906 C 364.253906 271.761719 362.234375 269.707031 364.253906 263.433594 C 366.722656 255.824219 369.90625 248.386719 373.574219 241.257812 C 376.175781 236.183594 380.972656 236.183594 383.578125 241.1875 C 387.414062 248.558594 390.464844 256.339844 393.683594 264.015625 C 395.292969 267.855469 393.273438 270.324219 389.675781 271.007812 C 385.496094 271.832031 381.144531 271.933594 376.894531 272.347656 C 376.894531 272.242188 376.863281 272.140625 376.863281 272.003906 C 374.804688 272.003906 372.785156 272.070312 370.796875 272.003906 Z M 271.957031 309.125 C 273.636719 308.027344 275.246094 306.792969 276.789062 305.523438 C 299.570312 286.808594 298.851562 257.640625 275.074219 240.195312 C 262.535156 231.007812 248.316406 225.664062 232.96875 223.707031 C 224.234375 222.613281 215.394531 222.988281 205.59375 224.121094 C 206.28125 257.847656 206.964844 290.546875 207.617188 323.109375 C 226.289062 325.574219 257.398438 318.722656 271.957031 309.125 Z M 229.0625 254.832031 C 229.542969 249.964844 232.96875 246.8125 238.554688 246.570312 C 251.09375 245.988281 262.535156 249.140625 270.859375 259.320312 C 278.191406 268.300781 277.746094 278.378906 269.113281 286.191406 C 257.226562 296.957031 243.246094 302.714844 225.125 300.964844 C 226.460938 284.992188 227.589844 269.914062 229.0625 254.832031 Z M 229.0625 254.832031 "/><path style=" stroke:none;fill-rule:nonzero;fill:#ffffff;fill-opacity:1;" d="M 377 752.648438 C 377 752.925781 377.035156 753.199219 377.035156 753.4375 L 315.089844 753.988281 C 347.878906 751.277344 380.628906 747.886719 413.417969 744.972656 C 430.890625 743.429688 448.464844 742.605469 465.90625 740.722656 C 520.445312 734.828125 573.617188 722.554688 625.558594 705.042969 C 675.851562 688.074219 724.292969 666.960938 769.964844 639.675781 C 770.613281 639.300781 771.503906 639.300781 773.320312 638.890625 C 773.320312 667.476562 773.320312 695.546875 773.320312 724.304688 C 772.121094 724.441406 770.238281 724.679688 768.320312 724.785156 C 742.453125 726.257812 716.585938 727.59375 690.71875 729.238281 C 668.894531 730.609375 647.074219 732.222656 625.25 733.867188 C 598.835938 735.855469 572.453125 737.980469 546.039062 740.105469 C 523.085938 741.957031 500.164062 744.21875 477.175781 745.792969 C 446.445312 747.921875 415.679688 749.597656 384.949219 751.519531 C 382.273438 751.722656 379.671875 752.273438 377 752.648438 Z M 760.4375 138.5 C 682.085938 138.671875 603.734375 138.429688 525.378906 139.152344 C 454.53125 139.800781 383.679688 141.308594 312.828125 142.714844 C 259.28125 143.777344 205.835938 148.78125 152.21875 147.652344 C 149.167969 147.582031 146.121094 148.132812 142.488281 148.441406 C 129.777344 348.335938 125.667969 547.542969 130.152344 747.75 C 135.257812 748.367188 139.746094 749.289062 144.269531 749.359375 C 163.558594 749.632812 182.878906 749.53125 202.167969 749.769531 C 242.800781 750.285156 283.398438 748.8125 323.894531 745.589844 C 365.761719 742.265625 407.558594 737.808594 448.945312 730.371094 C 488.378906 723.277344 527.023438 713.335938 563.992188 697.601562 C 566.972656 696.335938 569.917969 694.894531 572.863281 693.523438 C 569.507812 692.425781 566.628906 692.152344 563.820312 692.460938 C 531.785156 695.992188 499.789062 699.867188 467.71875 703.15625 C 438.222656 706.171875 408.691406 708.878906 379.125 711.140625 C 355.3125 712.957031 331.398438 713.851562 307.554688 715.289062 C 266.714844 717.722656 225.808594 718.578125 184.902344 717.894531 C 181.441406 717.824219 177.980469 717.585938 174.554688 717.140625 C 166.296875 716.042969 163.316406 712.308594 163.523438 703.738281 C 163.796875 692.804688 164.105469 681.835938 164.175781 670.902344 C 164.277344 653.046875 163.796875 635.152344 164.3125 617.296875 C 166.230469 549.019531 168.355469 480.777344 170.546875 412.5 C 170.855469 402.421875 171.609375 392.34375 172.945312 382.371094 C 174.417969 371.265625 175.753906 370.648438 186.71875 370.339844 C 204.292969 369.859375 221.835938 369.277344 239.375 368.421875 C 279.082031 366.464844 318.722656 363.691406 358.429688 362.421875 C 401.324219 361.050781 444.25 361.152344 487.179688 360.332031 C 568.34375 358.824219 649.574219 362.902344 730.667969 356.5625 C 737.074219 356.046875 739.230469 357.417969 740.363281 363.792969 C 742.007812 373.117188 743.753906 382.609375 743.6875 392.003906 C 743.378906 455.410156 742.589844 518.789062 741.9375 582.199219 C 741.90625 584.769531 742.042969 587.511719 741.320312 589.945312 C 738.582031 598.921875 742.007812 605.609375 748.722656 611.058594 C 754.273438 615.582031 760.0625 619.832031 765.957031 623.945312 C 767.703125 625.179688 770.03125 625.523438 773.253906 626.722656 C 770.957031 463.671875 773.117188 301.582031 769.585938 138.566406 C 766.058594 138.5 763.25 138.5 760.4375 138.5 Z M 659.441406 251.847656 C 668.347656 252.328125 669.136719 253.324219 669.238281 262.0625 C 669.511719 282.113281 669.71875 278.242188 652.039062 280.433594 C 645.460938 281.257812 645.359375 281.324219 647.792969 289.414062 C 651.011719 289.140625 654.402344 288.59375 657.761719 288.625 C 671.261719 288.730469 684.757812 288.660156 698.1875 289.347656 C 704.800781 289.6875 707.027344 292.054688 707.128906 298.566406 C 707.300781 306.585938 706.410156 314.640625 705.863281 322.664062 C 705.589844 326.636719 703.085938 328.902344 699.421875 329.792969 C 697.195312 330.339844 694.898438 330.75 692.636719 330.75 C 667.046875 330.75 641.417969 331.195312 615.863281 330.375 C 602.121094 329.929688 596.746094 330.476562 598.183594 310.425781 C 600.339844 279.988281 601.816406 249.519531 600.683594 218.980469 C 600.375 210.410156 600.753906 209.964844 609.078125 207.839844 C 612.402344 206.980469 615.859375 206.398438 619.253906 206.296875 C 641.386719 205.714844 663.550781 205.164062 685.683594 204.925781 C 691.097656 204.855469 696.578125 205.644531 701.957031 206.570312 C 707.4375 207.53125 709.1875 209.792969 709.289062 215.484375 C 709.425781 222.679688 709.359375 229.878906 709.082031 237.078125 C 708.808594 244.582031 707.300781 245.886719 699.660156 246.160156 C 683.558594 246.777344 667.457031 247.289062 651.390625 248.011719 C 649.230469 248.113281 645.703125 246.84375 646.042969 251.882812 C 650.53125 251.78125 655.019531 251.609375 659.441406 251.847656 Z M 474.640625 247.875 C 472.070312 248.011719 469.46875 248.078125 466.898438 247.839844 C 457.714844 247.015625 456.242188 245.335938 456.207031 236.015625 C 456.175781 230.5625 456.207031 225.078125 456.003906 219.628906 C 455.832031 215.378906 457.921875 213.21875 461.929688 212.601562 C 463.644531 212.328125 465.320312 212.019531 467.035156 211.953125 C 496.328125 210.476562 525.585938 208.96875 554.878906 207.632812 C 559.160156 207.429688 563.476562 208.042969 567.792969 208.042969 C 572.25 208.042969 574.167969 210.476562 573.996094 214.488281 C 573.6875 222.507812 573.070312 230.496094 572.523438 238.515625 C 572.214844 242.835938 569.644531 244.136719 565.566406 244.34375 C 557.3125 244.789062 549.054688 245.644531 540.421875 246.398438 C 540.179688 249.074219 539.871094 250.992188 539.871094 252.910156 C 539.769531 275.363281 538.707031 297.742188 535.042969 319.953125 C 533.875 327.015625 533.535156 327.734375 526.75 328.796875 C 520.515625 329.792969 514.210938 330.511719 507.90625 330.855469 C 501.570312 331.195312 498.964844 329.277344 497.457031 323.074219 C 496.363281 318.652344 495.539062 313.992188 495.609375 309.433594 C 495.847656 291.609375 496.5 273.785156 496.976562 255.960938 C 497.046875 253.117188 496.976562 250.308594 496.976562 246.46875 C 488.894531 246.980469 481.765625 247.460938 474.640625 247.875 Z M 373.195312 301.410156 C 369.90625 301.582031 367.886719 302.886719 366.996094 306.210938 C 365.554688 311.761719 363.535156 317.210938 362.371094 322.800781 C 361.375 327.5625 358.636719 329.964844 354.183594 330.132812 C 344.417969 330.476562 334.621094 330.785156 324.890625 330.441406 C 319.785156 330.273438 315.535156 327.460938 317.042969 320.675781 C 317.523438 318.445312 317.316406 316.046875 317.898438 313.855469 C 325.199219 285.164062 332.53125 256.476562 339.929688 227.789062 C 343.082031 215.550781 343.972656 214.832031 356.683594 213.152344 C 366.378906 211.882812 376.039062 210.546875 385.769531 209.554688 C 389.742188 209.140625 393.820312 209.585938 397.828125 209.449219 C 405.949219 209.246094 410.746094 213.082031 412.664062 220.933594 C 415.4375 232.378906 418.589844 243.726562 421.195312 255.207031 C 425.511719 274.265625 429.554688 293.425781 433.632812 312.515625 C 435.550781 321.429688 433.152344 324.753906 424.003906 325.4375 C 417.425781 325.953125 410.78125 326.160156 404.167969 325.988281 C 397.796875 325.816406 396.871094 324.890625 395.601562 318.617188 C 394.402344 312.757812 393.617188 306.828125 392.484375 300.074219 C 385.222656 300.589844 379.226562 301.101562 373.195312 301.410156 Z M 237.527344 216.578125 C 254.003906 219.457031 269.113281 225.421875 282.199219 235.875 C 306.25 255.070312 307.964844 285.882812 286.175781 307.582031 C 281.960938 311.796875 277.027344 315.671875 271.75 318.414062 C 254.417969 327.53125 235.675781 331.574219 216.148438 332.15625 C 214.125 332.226562 212.105469 332.121094 210.117188 331.8125 C 203.78125 330.820312 202.339844 329.347656 201.65625 323.003906 C 201.175781 318.414062 200.832031 313.820312 200.59375 309.226562 C 199.121094 281.019531 198.402344 252.773438 200.800781 224.566406 C 200.96875 222.578125 201.3125 220.625 201.65625 218.292969 C 213.613281 215.070312 225.433594 214.453125 237.527344 216.578125 Z M 386.558594 264.90625 C 380.769531 264.90625 376.074219 264.90625 370.320312 264.90625 C 373.058594 258.808594 375.421875 253.460938 378.164062 247.359375 C 382.890625 252.773438 384.125 258.667969 386.558594 264.90625 Z M 236.429688 253.253906 C 246.503906 252.15625 255.203125 254.28125 262.605469 260.347656 C 271.101562 267.339844 271.167969 275.808594 262.777344 282.835938 C 254.246094 289.929688 244.105469 293.289062 232.285156 294.863281 C 233.65625 280.8125 234.992188 267.546875 236.429688 253.253906 Z M 236.429688 253.253906 "/></g></svg>