<svg xmlns="http://www.w3.org/2000/svg" xmlns:xlink="http://www.w3.org/1999/xlink" width="1200" zoomAndPan="magnify" viewBox="0 0 900 899.99999" height="1200" preserveAspectRatio="xMidYMid meet" version="1.2"><g id="7de4028df8"><path style=" stroke:none;fill-rule:nonzero;fill:#abd9f4;fill-opacity:1;" d="M 886.710938 532.167969 C 884.652344 469.789062 836.53125 419.816406 776.066406 413.71875 C 769.667969 349.761719 714.648438 300.839844 649.429688 302.988281 C 634.890625 303.46875 621.039062 306.460938 608.246094 311.5 C 582.199219 246.46875 517.539062 201.523438 443.4375 203.953125 C 369.421875 206.390625 307.917969 255.382812 286.140625 321.855469 C 272.339844 317.847656 257.695312 315.875 242.558594 316.378906 C 171.058594 318.734375 113.949219 374.488281 108.214844 444.046875 C 107.890625 444.054688 107.574219 444.046875 107.25 444.054688 C 53.390625 445.832031 11.183594 490.898438 12.949219 544.714844 C 14.726562 598.53125 59.820312 640.722656 113.667969 638.949219 C 127.355469 638.496094 140.277344 635.246094 151.925781 629.769531 C 169.796875 659.816406 203.054688 679.484375 240.472656 678.25 C 267.5 677.363281 291.636719 665.730469 308.933594 647.605469 C 332.265625 678.554688 369.773438 698.078125 411.46875 696.707031 C 454.582031 695.28125 491.773438 671.878906 512.675781 637.636719 C 535.785156 670.429688 574.425781 691.339844 617.546875 689.925781 C 653.921875 688.722656 686.085938 671.878906 707.804688 646.070312 C 725.714844 655.171875 746.105469 660.015625 767.601562 659.304688 C 835.625 657.070312 888.945312 600.140625 886.710938 532.167969 "/><path style=" stroke:none;fill-rule:nonzero;fill:#cbd5e1;fill-opacity:1;" d="M 170.632812 580.074219 C 170.742188 579.578125 170.804688 579.101562 170.804688 578.617188 C 170.71875 579.101562 170.699219 579.578125 170.632812 580.074219 "/><path style=" stroke:none;fill-rule:nonzero;fill:#88c7ee;fill-opacity:1;" d="M 773.371094 604.78125 C 754.886719 605.429688 709.261719 595.808594 709.261719 595.808594 C 709.261719 595.808594 679.539062 626.8125 656.710938 636.097656 C 612.660156 654.019531 552.066406 639.109375 525.910156 599.410156 C 503.722656 631.886719 464.851562 652.304688 425.5 652.132812 C 386.140625 651.964844 347.449219 631.210938 325.542969 598.539062 C 307.261719 611.375 288.71875 624.363281 267.742188 632.058594 C 246.773438 639.75 222.722656 641.660156 202.429688 632.328125 C 182.578125 623.195312 167.839844 601.617188 170.632812 580.074219 C 167.296875 594.929688 114.480469 609.457031 103.769531 611.390625 C 80.617188 615.585938 60.226562 612.160156 38.527344 607.324219 C 57.097656 627.578125 84.046875 639.929688 113.667969 638.949219 C 127.355469 638.496094 140.277344 635.246094 151.925781 629.769531 C 169.796875 659.816406 203.054688 679.484375 240.472656 678.25 C 267.5 677.363281 291.636719 665.730469 308.933594 647.605469 C 332.265625 678.554688 369.773438 698.078125 411.46875 696.707031 C 454.582031 695.28125 491.773438 671.878906 512.675781 637.636719 C 535.785156 670.429688 574.425781 691.339844 617.546875 689.925781 C 653.921875 688.722656 686.085938 671.878906 707.804688 646.070312 C 725.714844 655.171875 746.105469 660.015625 767.601562 659.304688 C 834.601562 657.105469 887.308594 601.832031 886.734375 535.195312 C 881.675781 544.40625 875.582031 553.054688 868.488281 560.824219 C 844.320312 587.316406 809.222656 603.535156 773.371094 604.78125 "/></g></svg>