<svg xmlns="http://www.w3.org/2000/svg" xmlns:xlink="http://www.w3.org/1999/xlink" width="1200" zoomAndPan="magnify" viewBox="0 0 900 899.99999" height="1200" preserveAspectRatio="xMidYMid meet" version="1.2"><g id="b0d46664c9"><path style=" stroke:none;fill-rule:nonzero;fill:#f5e9db;fill-opacity:1;" d="M 124.257812 263.757812 C 136.597656 213.273438 192.285156 206.039062 192.285156 206.039062 C 192.285156 206.039062 187.738281 174.90625 246.464844 142.925781 C 305.1875 110.945312 355.226562 165.453125 355.226562 165.453125 C 355.226562 165.453125 389.527344 141.976562 427.15625 151.941406 C 429.839844 152.621094 432.464844 153.476562 435.039062 154.5 C 437.609375 155.527344 440.105469 156.714844 442.519531 158.0625 C 444.9375 159.414062 447.257812 160.917969 449.476562 162.570312 C 451.699219 164.222656 453.804688 166.011719 455.789062 167.941406 C 457.777344 169.867188 459.632812 171.917969 461.351562 174.085938 C 463.074219 176.257812 464.644531 178.527344 466.066406 180.902344 C 467.492188 183.277344 468.753906 185.734375 469.859375 188.273438 C 470.960938 190.8125 471.894531 193.414062 472.660156 196.074219 C 472.660156 196.074219 527.484375 171.597656 581.863281 178.300781 C 636.246094 185.007812 653.8125 244.183594 653.8125 244.183594 C 675.25 238.328125 719.242188 226.410156 759.042969 263.265625 C 798.84375 300.117188 771.601562 343.050781 771.601562 343.050781 C 771.601562 343.050781 821.011719 374.691406 830.109375 425.839844 C 839.207031 476.984375 788.132812 512.992188 788.132812 512.992188 C 830.175781 599.023438 723.144531 646.042969 723.144531 646.042969 C 723.144531 646.042969 718.054688 775.246094 683.699219 779.539062 C 661.175781 782.355469 657.273438 665.992188 657.273438 665.992188 C 652.503906 683.101562 621.308594 688.058594 621.308594 688.058594 C 621.308594 688.058594 603.570312 779.082031 582.085938 783.121094 C 551.53125 788.976562 550.226562 684.085938 550.226562 684.085938 C 510.578125 684.953125 493.46875 644.652344 493.46875 644.652344 C 491.296875 676.074219 454.890625 680.625 454.890625 680.625 C 454.890625 680.625 452.511719 771.847656 422.386719 775.972656 C 392.261719 780.097656 384.691406 685.394531 384.691406 685.394531 C 384.691406 685.394531 384.910156 682.574219 373.421875 672.816406 C 361.929688 663.054688 342.664062 661.542969 342.664062 661.542969 C 342.664062 661.542969 336.011719 770.015625 292.816406 770.761719 C 268.121094 771.203125 267.476562 671.949219 267.476562 671.949219 C 187.296875 672.167969 182.613281 621.464844 180.152344 593.0625 C 177.6875 564.664062 160.648438 555.71875 160.648438 555.71875 C 60.761719 502.839844 119.914062 403.140625 119.914062 403.140625 C 107.355469 403.804688 96.304688 392.957031 94.351562 377.136719 C 92.402344 361.316406 109.949219 350.707031 120.355469 348.53125 C 130.757812 346.359375 142.878906 339.007812 142.878906 339.007812 C 142.878906 339.007812 111.902344 314.257812 124.257812 263.757812 Z M 124.257812 263.757812 "/><path style=" stroke:none;fill-rule:nonzero;fill:#d1a588;fill-opacity:1;" d="M 456.042969 363.011719 C 443.058594 359.617188 411.558594 331.234375 411.558594 331.234375 C 411.558594 331.234375 381.804688 355.78125 346.261719 337.007812 C 310.722656 318.230469 308.140625 293.667969 308.140625 293.667969 C 308.140625 293.667969 287.332031 319.46875 260.753906 284.417969 C 260.753906 284.417969 235.617188 345.101562 183.324219 302.902344 L 161.378906 321.984375 C 159.125 325.628906 156.429688 328.914062 153.292969 331.832031 C 150.152344 334.75 146.679688 337.199219 142.878906 339.179688 C 142.878906 339.179688 130.757812 346.546875 120.355469 348.703125 C 109.949219 350.859375 92.402344 361.484375 94.351562 377.304688 C 95.644531 387.78125 100.921875 395.980469 107.929688 400.257812 L 119.8125 403.3125 C 119.8125 403.3125 138.480469 403.464844 144.523438 393.636719 C 144.523438 400.988281 146.511719 479.445312 200.398438 510.886719 C 224.160156 524.773438 252.8125 526.351562 267.015625 527.132812 C 284.144531 528.066406 305.136719 529.21875 329.410156 519.035156 C 340.542969 514.367188 366.988281 501.191406 383.246094 473.285156 C 401.613281 441.796875 402.800781 398.832031 402.800781 398.832031 C 402.800781 398.832031 425.035156 427.164062 457.691406 411.546875 C 490.347656 395.929688 469.046875 366.476562 456.042969 363.011719 Z M 623.003906 687.839844 L 621.953125 688.042969 L 623.003906 687.71875 Z M 456.671875 680.503906 L 456.671875 680.351562 L 456.347656 680.574219 Z M 683.699219 779.503906 C 689.320312 778.808594 694.15625 774.753906 698.296875 768.503906 C 688.699219 767.914062 679.316406 766.15625 670.15625 763.226562 C 673.6875 773.597656 678.066406 780.21875 683.699219 779.503906 Z M 593.539062 773.105469 C 587.898438 772.675781 582.367188 771.644531 576.945312 770.015625 C 571.523438 768.386719 566.339844 766.195312 561.394531 763.445312 C 566.0625 776.3125 572.679688 784.988281 582.085938 783.1875 C 586.054688 782.441406 589.910156 778.707031 593.539062 773.121094 Z M 316.289062 757.0625 C 309.800781 757.890625 303.300781 758 296.785156 757.394531 C 290.273438 756.789062 283.902344 755.488281 277.675781 753.480469 C 281.292969 763.886719 286.164062 770.949219 292.816406 770.832031 C 302.304688 770.695312 310.027344 765.332031 316.289062 757.082031 Z M 422.386719 776.109375 C 429.175781 775.195312 434.472656 769.914062 438.714844 762.292969 C 426.832031 764.011719 414.953125 764.011719 403.070312 762.292969 C 408.09375 771.355469 414.460938 777.144531 422.386719 776.109375 Z M 422.386719 776.109375 "/><path style=" stroke:none;fill-rule:nonzero;fill:#3d1810;fill-opacity:1;" d="M 216.84375 388.441406 C 216.84375 396.097656 212.449219 402.3125 207.019531 402.3125 C 201.585938 402.3125 197.191406 396.097656 197.191406 388.441406 C 197.191406 380.785156 201.605469 374.574219 207.019531 374.574219 C 212.433594 374.574219 216.84375 380.769531 216.84375 388.441406 Z M 333.515625 375.488281 C 328.101562 375.488281 323.707031 381.703125 323.707031 389.359375 C 323.707031 397.015625 328.101562 403.226562 333.515625 403.226562 C 338.929688 403.226562 343.34375 397.015625 343.34375 389.359375 C 343.34375 381.703125 338.980469 375.488281 333.515625 375.488281 Z M 308.226562 468.515625 C 307.988281 468.277344 307.714844 468.09375 307.402344 467.964844 C 307.089844 467.835938 306.765625 467.769531 306.429688 467.769531 C 306.089844 467.769531 305.765625 467.835938 305.453125 467.964844 C 305.144531 468.09375 304.867188 468.277344 304.628906 468.515625 C 295.480469 477.835938 281.511719 480.125 272.109375 473.8125 C 264.488281 468.71875 262.707031 459.839844 262.300781 456.039062 C 264.722656 455.921875 267.0625 455.414062 269.316406 454.515625 C 271.566406 453.617188 273.613281 452.375 275.453125 450.792969 L 275.570312 450.691406 C 276.054688 450.21875 276.457031 449.6875 276.789062 449.101562 C 277.117188 448.511719 277.359375 447.890625 277.507812 447.234375 C 277.660156 446.574219 277.714844 445.910156 277.675781 445.238281 C 277.632812 444.566406 277.5 443.910156 277.273438 443.277344 C 277.042969 442.640625 276.730469 442.050781 276.335938 441.507812 C 275.9375 440.960938 275.472656 440.484375 274.9375 440.074219 C 274.402344 439.664062 273.820312 439.335938 273.195312 439.089844 C 272.566406 438.847656 271.914062 438.695312 271.242188 438.636719 C 267.453125 438.304688 263.65625 438.171875 259.855469 438.230469 C 256 438.277344 252.160156 438.519531 248.332031 438.960938 C 248.066406 438.988281 247.800781 439.035156 247.542969 439.09375 C 247.28125 439.15625 247.027344 439.234375 246.777344 439.328125 C 246.527344 439.421875 246.285156 439.53125 246.050781 439.65625 C 245.8125 439.78125 245.585938 439.921875 245.367188 440.074219 C 245.148438 440.226562 244.941406 440.394531 244.746094 440.574219 C 244.546875 440.753906 244.363281 440.945312 244.191406 441.148438 C 244.019531 441.351562 243.859375 441.566406 243.714844 441.789062 C 243.570312 442.015625 243.4375 442.246094 243.320312 442.488281 C 243.207031 442.726562 243.105469 442.972656 243.019531 443.226562 C 242.9375 443.480469 242.867188 443.738281 242.816406 444 C 242.765625 444.261719 242.730469 444.527344 242.710938 444.792969 C 242.691406 445.058594 242.691406 445.324219 242.707031 445.589844 C 242.722656 445.859375 242.753906 446.121094 242.804688 446.382812 C 242.855469 446.648438 242.917969 446.90625 243 447.160156 C 243.082031 447.414062 243.179688 447.660156 243.292969 447.902344 C 243.40625 448.144531 243.535156 448.378906 243.679688 448.601562 C 246.378906 452.695312 251.503906 455.15625 257.105469 455.851562 C 257.34375 464.050781 253.269531 471.707031 246.71875 475.136719 C 237.535156 479.972656 225.144531 476 219.085938 466.292969 C 218.90625 466.003906 218.679688 465.761719 218.40625 465.566406 C 218.128906 465.371094 217.828125 465.234375 217.5 465.160156 C 217.167969 465.082031 216.839844 465.074219 216.503906 465.128906 C 216.171875 465.183594 215.863281 465.300781 215.574219 465.480469 C 215.289062 465.660156 215.046875 465.886719 214.851562 466.160156 C 214.652344 466.433594 214.515625 466.738281 214.441406 467.066406 C 214.363281 467.394531 214.351562 467.726562 214.410156 468.058594 C 214.464844 468.394531 214.578125 468.703125 214.757812 468.992188 C 222.328125 481.109375 237.417969 485.777344 249.09375 479.652344 C 251.617188 478.292969 253.828125 476.546875 255.734375 474.40625 C 257.640625 472.269531 259.121094 469.871094 260.175781 467.207031 C 261.164062 469.386719 262.425781 471.390625 263.964844 473.222656 C 265.503906 475.054688 267.261719 476.640625 269.242188 477.988281 C 271.46875 479.46875 273.867188 480.585938 276.433594 481.34375 C 279 482.101562 281.621094 482.464844 284.296875 482.433594 C 286.539062 482.40625 288.757812 482.15625 290.949219 481.6875 C 293.144531 481.21875 295.269531 480.539062 297.328125 479.652344 C 299.386719 478.765625 301.339844 477.683594 303.1875 476.40625 C 305.03125 475.132812 306.734375 473.691406 308.296875 472.078125 C 308.535156 471.839844 308.71875 471.558594 308.84375 471.246094 C 308.972656 470.929688 309.035156 470.605469 309.03125 470.265625 C 309.027344 469.925781 308.960938 469.597656 308.828125 469.289062 C 308.691406 468.976562 308.503906 468.699219 308.261719 468.464844 Z M 308.226562 468.515625 "/><path style=" stroke:none;fill-rule:nonzero;fill:#ddbc9b;fill-opacity:1;" d="M 344.363281 661.203125 L 344.363281 661.816406 C 343.292969 661.679688 342.664062 661.628906 342.664062 661.628906 C 342.664062 661.628906 338.609375 727.714844 316.289062 757.082031 C 309.800781 757.90625 303.300781 758.015625 296.785156 757.414062 C 290.273438 756.808594 283.902344 755.503906 277.675781 753.5 C 268.96875 728.460938 267.679688 684.101562 267.492188 674.085938 C 278.277344 673.597656 288.726562 671.472656 298.839844 667.703125 C 325.726562 658.164062 344.363281 661.203125 344.363281 661.203125 Z M 142.878906 339.179688 C 142.878906 339.179688 130.757812 346.546875 120.355469 348.703125 C 109.949219 350.859375 92.402344 361.484375 94.351562 377.304688 C 95.644531 387.78125 100.921875 395.980469 107.929688 400.257812 L 119.8125 403.3125 C 119.8125 403.3125 138.480469 403.464844 144.523438 393.636719 C 146.34375 371.105469 150.582031 349.035156 157.238281 327.433594 C 153.277344 332.359375 148.492188 336.273438 142.878906 339.179688 Z M 691.492188 776.109375 C 690.402344 776.96875 689.226562 777.679688 687.960938 778.25 C 689.226562 777.679688 690.402344 776.96875 691.492188 776.109375 Z M 551.921875 683.695312 C 551.921875 683.695312 551.277344 686.566406 550.445312 691.335938 C 551.058594 706.273438 553.296875 741.140625 561.394531 763.429688 C 566.339844 766.179688 571.527344 768.367188 576.945312 769.996094 C 582.367188 771.625 587.898438 772.65625 593.539062 773.089844 C 609.207031 748.984375 620.832031 690.433594 621.292969 688.109375 C 615.570312 689.539062 609.773438 690.519531 603.902344 691.054688 C 598.03125 691.589844 592.152344 691.671875 586.269531 691.300781 C 580.382812 690.929688 574.5625 690.109375 568.804688 688.839844 C 563.046875 687.570312 557.417969 685.867188 551.921875 683.730469 Z M 561.445312 763.582031 L 561.445312 763.429688 Z M 714.046875 596.59375 Z M 675.585938 640.511719 C 675.585938 640.511719 666.625 659.863281 658.972656 665.5 C 658.972656 665.5 658.378906 667.5 657.476562 670.964844 C 658.242188 686.9375 661.261719 737.015625 670.171875 763.207031 C 679.328125 766.140625 688.703125 767.898438 698.296875 768.488281 C 719.445312 736.691406 723.078125 647.367188 723.144531 646.027344 C 716.933594 647.65625 694.75 652.085938 675.585938 640.542969 Z M 698.296875 768.488281 L 698.128906 768.742188 Z M 670.460938 764.039062 C 670.359375 763.769531 670.273438 763.480469 670.171875 763.210938 Z M 456.042969 363.011719 C 445.25 360.125 421.707031 340.113281 414.035156 333.40625 L 410.117188 332.320312 C 404.066406 336.542969 397.5 339.671875 390.410156 341.707031 C 394.210938 350.769531 397.160156 360.101562 399.261719 369.699219 C 401.359375 379.300781 402.574219 389.007812 402.902344 398.832031 C 402.902344 398.832031 425.136719 427.164062 457.792969 411.546875 C 490.449219 395.929688 469.046875 366.476562 456.042969 363.011719 Z M 386.457031 685.035156 C 386.457031 685.035156 385.996094 687.90625 385.488281 692.660156 C 387.183594 707.683594 392.140625 742.667969 403.070312 762.257812 C 414.953125 763.976562 426.832031 763.976562 438.714844 762.257812 C 452.546875 737.371094 454.667969 687.378906 454.871094 681.335938 C 448.371094 684.984375 423.59375 696.613281 386.386719 685.035156 Z M 169.015625 256.660156 L 154.625 275.0625 C 153.839844 275.910156 153.425781 276.914062 153.382812 278.066406 C 153.394531 279.234375 153.808594 280.234375 154.625 281.070312 C 156.152344 282.464844 159.171875 282.9375 160.632812 281.070312 L 175.007812 262.585938 C 175.800781 261.746094 176.210938 260.75 176.246094 259.597656 C 176.226562 258.453125 175.8125 257.476562 175.007812 256.660156 C 173.496094 255.203125 170.476562 254.726562 169.015625 256.660156 Z M 237.738281 237.714844 C 236.394531 239.394531 234.9375 240.972656 233.378906 242.453125 C 232.578125 243.214844 231.679688 243.945312 230.917969 244.640625 C 230.695312 244.828125 230.476562 245.015625 230.238281 245.1875 C 230.164062 245.261719 230.085938 245.328125 230 245.390625 L 229.59375 245.695312 L 228.894531 246.1875 C 227.152344 247.445312 225.332031 248.578125 223.429688 249.582031 C 222.515625 250.058594 221.582031 250.5 220.628906 250.941406 L 219.832031 251.261719 L 218.136719 251.855469 C 217.867188 251.933594 217.605469 252.03125 217.355469 252.160156 C 217.105469 252.285156 216.871094 252.433594 216.652344 252.605469 C 216.433594 252.777344 216.230469 252.972656 216.046875 253.183594 C 215.867188 253.394531 215.707031 253.625 215.570312 253.867188 C 215.429688 254.109375 215.320312 254.367188 215.230469 254.632812 C 215.144531 254.898438 215.085938 255.167969 215.050781 255.445312 C 215.015625 255.722656 215.011719 256.003906 215.03125 256.28125 C 215.054688 256.558594 215.101562 256.835938 215.175781 257.105469 C 215.253906 257.375 215.351562 257.632812 215.480469 257.882812 C 215.605469 258.132812 215.753906 258.367188 215.929688 258.585938 C 216.101562 258.808594 216.292969 259.007812 216.507812 259.191406 C 216.71875 259.371094 216.945312 259.53125 217.191406 259.667969 C 217.433594 259.804688 217.6875 259.917969 217.953125 260.003906 C 218.21875 260.089844 218.492188 260.152344 218.769531 260.183594 C 219.046875 260.21875 219.324219 260.222656 219.605469 260.203125 C 219.882812 260.179688 220.15625 260.132812 220.425781 260.054688 C 225 258.488281 229.269531 256.320312 233.234375 253.550781 C 237.199219 250.78125 240.703125 247.515625 243.746094 243.761719 C 244.132812 243.355469 244.429688 242.890625 244.636719 242.371094 C 244.84375 241.855469 244.945312 241.3125 244.945312 240.753906 C 244.945312 240.195312 244.84375 239.65625 244.636719 239.136719 C 244.429688 238.617188 244.132812 238.15625 243.746094 237.75 C 242.203125 236.289062 239.214844 235.867188 237.738281 237.714844 Z M 234.34375 225.339844 C 234.816406 225.046875 235.21875 224.671875 235.550781 224.222656 C 235.878906 223.773438 236.117188 223.28125 236.257812 222.738281 C 236.394531 222.199219 236.433594 221.652344 236.363281 221.097656 C 236.292969 220.546875 236.125 220.023438 235.855469 219.535156 C 235.683594 219.144531 235.855469 219.367188 235.855469 219.535156 L 235.820312 219.316406 C 235.683594 218.941406 235.566406 218.550781 235.449219 218.160156 L 235.191406 217.089844 C 235.191406 216.9375 235.191406 216.785156 235.191406 216.617188 C 235.191406 215.902344 235.074219 215.15625 235.089844 214.441406 C 235.089844 214.070312 235.089844 213.714844 235.089844 213.355469 C 235.082031 213.230469 235.082031 213.109375 235.089844 212.984375 C 235.226562 212.269531 235.378906 211.574219 235.582031 210.878906 C 235.703125 210.488281 235.820312 210.097656 235.972656 209.707031 L 235.972656 209.46875 C 236.335938 208.757812 236.75 208.078125 237.214844 207.433594 L 237.519531 206.992188 L 237.757812 206.703125 L 238.214844 206.191406 C 238.417969 205.996094 238.597656 205.78125 238.757812 205.550781 C 238.917969 205.320312 239.050781 205.074219 239.164062 204.8125 C 239.273438 204.554688 239.359375 204.289062 239.414062 204.011719 C 239.472656 203.734375 239.503906 203.457031 239.503906 203.175781 C 239.507812 202.894531 239.480469 202.613281 239.429688 202.339844 C 239.375 202.0625 239.292969 201.792969 239.1875 201.53125 C 239.078125 201.273438 238.949219 201.023438 238.792969 200.789062 C 238.636719 200.554688 238.457031 200.339844 238.257812 200.140625 C 238.058594 199.941406 237.839844 199.761719 237.605469 199.609375 C 237.371094 199.453125 237.125 199.320312 236.863281 199.214844 C 236.601562 199.109375 236.332031 199.027344 236.058594 198.976562 C 235.78125 198.921875 235.5 198.898438 235.21875 198.902344 C 234.9375 198.902344 234.660156 198.933594 234.382812 198.992188 C 234.109375 199.050781 233.839844 199.136719 233.582031 199.246094 C 233.324219 199.359375 233.078125 199.496094 232.847656 199.65625 C 232.613281 199.816406 232.402344 199.996094 232.207031 200.199219 C 230.800781 201.703125 229.644531 203.378906 228.734375 205.222656 C 227.824219 207.066406 227.199219 209.003906 226.859375 211.03125 C 226.496094 213.207031 226.457031 215.386719 226.746094 217.574219 C 227.035156 219.761719 227.640625 221.859375 228.558594 223.863281 C 228.699219 224.105469 228.863281 224.332031 229.050781 224.539062 C 229.238281 224.746094 229.445312 224.933594 229.667969 225.101562 C 229.890625 225.269531 230.128906 225.414062 230.382812 225.535156 C 230.636719 225.65625 230.898438 225.75 231.167969 225.820312 C 231.441406 225.886719 231.714844 225.929688 231.996094 225.941406 C 232.273438 225.957031 232.554688 225.945312 232.828125 225.902344 C 233.105469 225.863281 233.378906 225.792969 233.640625 225.699219 C 233.902344 225.605469 234.15625 225.484375 234.394531 225.339844 Z M 277.878906 206.667969 C 278.25 207.316406 278.761719 207.824219 279.40625 208.195312 L 280.410156 208.621094 C 281.160156 208.828125 281.914062 208.828125 282.667969 208.621094 L 287.011719 207.753906 C 287.554688 207.621094 288.035156 207.363281 288.453125 206.992188 C 288.917969 206.6875 289.28125 206.292969 289.539062 205.800781 C 289.847656 205.320312 290.015625 204.792969 290.050781 204.222656 C 290.207031 203.65625 290.207031 203.09375 290.050781 202.527344 L 289.625 201.507812 C 289.253906 200.859375 288.746094 200.351562 288.097656 199.980469 L 287.097656 199.554688 C 286.34375 199.347656 285.589844 199.347656 284.839844 199.554688 L 280.492188 200.421875 C 279.949219 200.554688 279.46875 200.808594 279.050781 201.183594 C 278.585938 201.488281 278.222656 201.882812 277.964844 202.375 C 277.65625 202.855469 277.488281 203.382812 277.457031 203.953125 C 277.296875 204.519531 277.296875 205.085938 277.457031 205.648438 Z M 293.394531 175.449219 C 295.078125 175.761719 296.777344 175.855469 298.484375 175.738281 C 300.191406 175.597656 301.855469 175.253906 303.476562 174.703125 C 304.5625 174.367188 305.414062 173.714844 306.019531 172.75 C 306.601562 171.714844 306.746094 170.625 306.445312 169.476562 C 306.132812 168.371094 305.480469 167.527344 304.492188 166.945312 C 303.460938 166.335938 302.371094 166.195312 301.21875 166.523438 C 300.34375 166.824219 299.449219 167.054688 298.535156 167.21875 C 297.449219 167.328125 296.363281 167.328125 295.277344 167.21875 C 294.265625 167.082031 293.300781 167.246094 292.390625 167.710938 C 291.40625 168.300781 290.757812 169.152344 290.441406 170.257812 C 290.128906 171.402344 290.269531 172.488281 290.863281 173.515625 C 291.140625 174.007812 291.503906 174.425781 291.949219 174.765625 C 292.398438 175.109375 292.898438 175.347656 293.445312 175.484375 Z M 363.523438 207.804688 L 400.863281 217.652344 C 406.160156 219.027344 408.402344 210.863281 403.121094 209.453125 L 365.78125 199.625 C 360.539062 198.265625 358.28125 206.449219 363.574219 207.839844 Z M 365.222656 248.921875 L 365.984375 249.53125 C 366.578125 250.023438 367.175781 250.515625 367.683594 251.023438 C 368.855469 252.042969 369.972656 253.113281 371.078125 254.214844 C 371.277344 254.417969 371.492188 254.601562 371.726562 254.761719 C 371.960938 254.917969 372.207031 255.054688 372.46875 255.167969 C 372.730469 255.277344 373 255.363281 373.277344 255.421875 C 373.554688 255.476562 373.832031 255.507812 374.117188 255.511719 C 374.398438 255.515625 374.679688 255.488281 374.960938 255.4375 C 375.238281 255.382812 375.507812 255.304688 375.769531 255.199219 C 376.035156 255.09375 376.285156 254.960938 376.519531 254.808594 C 376.757812 254.652344 376.976562 254.476562 377.179688 254.277344 C 377.382812 254.078125 377.5625 253.863281 377.722656 253.628906 C 377.882812 253.394531 378.019531 253.148438 378.128906 252.886719 C 378.242188 252.625 378.324219 252.355469 378.382812 252.078125 C 378.441406 251.800781 378.472656 251.519531 378.472656 251.238281 C 378.476562 250.953125 378.453125 250.671875 378.398438 250.394531 C 378.347656 250.117188 378.265625 249.84375 378.160156 249.582031 C 378.054688 249.320312 377.925781 249.070312 377.769531 248.832031 C 377.613281 248.59375 377.4375 248.375 377.238281 248.171875 C 372.601562 243.480469 367.386719 239.558594 361.589844 236.410156 C 361.347656 236.269531 361.09375 236.152344 360.828125 236.058594 C 360.5625 235.96875 360.292969 235.902344 360.011719 235.867188 C 359.734375 235.828125 359.457031 235.816406 359.175781 235.832031 C 358.894531 235.851562 358.621094 235.894531 358.347656 235.964844 C 358.078125 236.039062 357.816406 236.136719 357.5625 236.257812 C 357.308594 236.378906 357.074219 236.527344 356.847656 236.695312 C 356.625 236.867188 356.421875 237.058594 356.234375 237.265625 C 356.046875 237.476562 355.882812 237.703125 355.742188 237.945312 C 355.601562 238.1875 355.484375 238.441406 355.394531 238.707031 C 355.300781 238.972656 355.238281 239.246094 355.199219 239.523438 C 355.160156 239.800781 355.152344 240.082031 355.167969 240.359375 C 355.183594 240.640625 355.230469 240.917969 355.300781 241.1875 C 355.371094 241.460938 355.46875 241.722656 355.589844 241.972656 C 355.714844 242.226562 355.859375 242.464844 356.03125 242.6875 C 356.199219 242.910156 356.390625 243.117188 356.601562 243.300781 C 356.808594 243.488281 357.035156 243.652344 357.277344 243.792969 C 359.96875 245.253906 362.542969 246.894531 365 248.714844 Z M 392.921875 311.355469 C 392.292969 309.386719 389.902344 307.484375 387.710938 308.386719 C 385.996094 309.09375 384.238281 309.660156 382.433594 310.082031 C 381.53125 310.304688 380.617188 310.457031 379.699219 310.609375 L 379.070312 310.609375 L 377.679688 310.726562 C 375.828125 310.84375 373.976562 310.816406 372.128906 310.644531 L 371.230469 310.542969 L 370.128906 310.355469 C 369.210938 310.183594 368.3125 309.964844 367.429688 309.726562 C 367.160156 309.652344 366.886719 309.605469 366.609375 309.582031 C 366.332031 309.5625 366.050781 309.570312 365.777344 309.601562 C 365.5 309.636719 365.226562 309.699219 364.964844 309.785156 C 364.699219 309.871094 364.445312 309.984375 364.203125 310.121094 C 363.960938 310.261719 363.730469 310.421875 363.519531 310.601562 C 363.308594 310.785156 363.117188 310.984375 362.945312 311.207031 C 362.777344 311.425781 362.628906 311.660156 362.5 311.910156 C 362.375 312.160156 362.277344 312.417969 362.203125 312.6875 C 362.128906 312.957031 362.082031 313.230469 362.0625 313.507812 C 362.039062 313.785156 362.046875 314.0625 362.082031 314.339844 C 362.117188 314.617188 362.179688 314.886719 362.265625 315.152344 C 362.355469 315.417969 362.464844 315.671875 362.605469 315.914062 C 362.742188 316.15625 362.902344 316.382812 363.085938 316.59375 C 363.265625 316.804688 363.46875 316.996094 363.6875 317.167969 C 363.910156 317.335938 364.144531 317.484375 364.394531 317.609375 C 364.644531 317.734375 364.902344 317.835938 365.171875 317.910156 C 369.273438 319.019531 373.445312 319.449219 377.683594 319.207031 C 381.925781 318.964844 386.023438 318.054688 389.96875 316.484375 C 390.496094 316.328125 390.976562 316.082031 391.414062 315.746094 C 391.847656 315.410156 392.207031 315.003906 392.492188 314.535156 C 392.773438 314.0625 392.960938 313.554688 393.054688 313.011719 C 393.144531 312.46875 393.136719 311.929688 393.023438 311.390625 Z M 463.953125 243.082031 C 463.5625 243.484375 463.265625 243.945312 463.054688 244.464844 C 462.84375 244.984375 462.742188 245.523438 462.742188 246.085938 C 462.742188 246.644531 462.84375 247.1875 463.054688 247.707031 C 463.265625 248.226562 463.5625 248.6875 463.953125 249.089844 L 464.667969 249.871094 C 464.769531 249.972656 464.851562 250.089844 464.953125 250.210938 C 465.3125 250.738281 465.703125 251.230469 466.023438 251.773438 C 466.398438 252.371094 466.734375 252.988281 467.042969 253.621094 C 467.097656 253.761719 467.160156 253.898438 467.230469 254.03125 C 467.332031 254.335938 467.464844 254.625 467.570312 254.929688 C 467.789062 255.589844 467.992188 256.269531 468.164062 256.964844 C 468.164062 257.304688 468.316406 257.644531 468.382812 258.003906 C 468.375 258.148438 468.375 258.296875 468.382812 258.445312 C 468.382812 258.613281 468.382812 259.089844 468.46875 259.222656 L 468.46875 260.277344 C 468.46875 261.023438 468.46875 261.769531 468.382812 262.519531 C 468.382812 262.796875 468.414062 263.070312 468.46875 263.34375 C 468.523438 263.617188 468.605469 263.882812 468.710938 264.140625 C 468.816406 264.394531 468.949219 264.640625 469.101562 264.871094 C 469.257812 265.101562 469.433594 265.316406 469.632812 265.511719 C 469.828125 265.710938 470.042969 265.886719 470.273438 266.042969 C 470.503906 266.195312 470.75 266.328125 471.003906 266.433594 C 471.261719 266.542969 471.527344 266.621094 471.800781 266.675781 C 472.074219 266.730469 472.347656 266.761719 472.625 266.761719 C 473.183594 266.75 473.722656 266.632812 474.234375 266.414062 C 474.75 266.191406 475.203125 265.886719 475.597656 265.488281 C 475.992188 265.09375 476.300781 264.640625 476.519531 264.125 C 476.742188 263.613281 476.855469 263.078125 476.871094 262.519531 C 477.003906 260.746094 476.949219 258.980469 476.714844 257.21875 C 476.476562 255.457031 476.058594 253.738281 475.464844 252.066406 C 474.867188 250.390625 474.105469 248.796875 473.175781 247.285156 C 472.246094 245.769531 471.167969 244.371094 469.945312 243.082031 C 469.746094 242.886719 469.53125 242.710938 469.300781 242.558594 C 469.070312 242.40625 468.824219 242.273438 468.566406 242.167969 C 468.3125 242.0625 468.046875 241.984375 467.773438 241.929688 C 467.5 241.875 467.226562 241.847656 466.949219 241.847656 C 466.671875 241.847656 466.394531 241.875 466.125 241.929688 C 465.851562 241.984375 465.585938 242.0625 465.328125 242.167969 C 465.074219 242.273438 464.828125 242.40625 464.597656 242.558594 C 464.363281 242.710938 464.152344 242.886719 463.953125 243.082031 Z M 514.039062 209.128906 C 517.398438 208.457031 520.789062 208.027344 524.210938 207.839844 C 527.628906 207.652344 531.046875 207.707031 534.457031 208.007812 C 537.871094 208.308594 541.246094 208.847656 544.578125 209.632812 C 547.914062 210.414062 551.175781 211.429688 554.367188 212.679688 C 554.636719 212.75 554.910156 212.796875 555.1875 212.8125 C 555.464844 212.832031 555.742188 212.824219 556.015625 212.789062 C 556.292969 212.753906 556.5625 212.691406 556.824219 212.605469 C 557.089844 212.515625 557.34375 212.402344 557.585938 212.265625 C 557.824219 212.128906 558.050781 211.96875 558.261719 211.785156 C 558.472656 211.601562 558.664062 211.402344 558.835938 211.183594 C 559.003906 210.964844 559.152344 210.730469 559.277344 210.480469 C 559.402344 210.234375 559.503906 209.976562 559.578125 209.707031 C 559.714844 209.167969 559.746094 208.617188 559.671875 208.066406 C 559.597656 207.511719 559.421875 206.992188 559.148438 206.507812 C 558.875 206.023438 558.515625 205.605469 558.082031 205.257812 C 557.644531 204.910156 557.160156 204.65625 556.625 204.496094 C 553.066406 203.136719 549.425781 202.035156 545.707031 201.195312 C 541.992188 200.355469 538.234375 199.785156 534.433594 199.484375 C 530.636719 199.183594 526.835938 199.152344 523.03125 199.394531 C 519.226562 199.636719 515.460938 200.148438 511.730469 200.929688 C 511.464844 201.007812 511.207031 201.109375 510.960938 201.234375 C 510.714844 201.363281 510.484375 201.511719 510.265625 201.683594 C 510.046875 201.855469 509.847656 202.046875 509.667969 202.253906 C 509.484375 202.464844 509.328125 202.691406 509.191406 202.933594 C 509.054688 203.175781 508.941406 203.425781 508.855469 203.691406 C 508.765625 203.953125 508.703125 204.222656 508.667969 204.496094 C 508.632812 204.773438 508.625 205.046875 508.644531 205.324219 C 508.664062 205.601562 508.707031 205.875 508.777344 206.140625 C 508.855469 206.410156 508.957031 206.671875 509.085938 206.917969 C 509.214844 207.167969 509.363281 207.402344 509.539062 207.625 C 509.710938 207.84375 509.902344 208.042969 510.117188 208.226562 C 510.328125 208.410156 510.558594 208.570312 510.800781 208.707031 C 511.042969 208.847656 511.296875 208.960938 511.5625 209.050781 C 511.828125 209.136719 512.101562 209.199219 512.378906 209.238281 C 512.65625 209.273438 512.933594 209.28125 513.214844 209.265625 C 513.492188 209.246094 513.769531 209.203125 514.039062 209.128906 Z M 583.816406 263.453125 C 585.792969 264.449219 587.886719 265.015625 590.09375 265.148438 C 590.515625 265.148438 590.925781 265.089844 591.328125 264.96875 C 591.730469 264.847656 592.105469 264.667969 592.457031 264.4375 C 592.804688 264.203125 593.113281 263.925781 593.382812 263.597656 C 593.648438 263.273438 593.863281 262.917969 594.023438 262.53125 C 594.183594 262.140625 594.285156 261.738281 594.324219 261.320312 C 594.367188 260.902344 594.347656 260.488281 594.265625 260.074219 C 594.183594 259.664062 594.042969 259.273438 593.84375 258.902344 C 593.644531 258.53125 593.398438 258.195312 593.097656 257.902344 L 592.234375 257.238281 C 591.574219 256.847656 590.863281 256.65625 590.09375 256.660156 C 589.320312 256.523438 588.5625 256.320312 587.820312 256.050781 C 587.191406 255.75 586.59375 255.398438 586.023438 254.996094 L 585.308594 254.371094 C 584.476562 253.5625 583.480469 253.148438 582.320312 253.128906 C 582.042969 253.128906 581.765625 253.15625 581.492188 253.210938 C 581.21875 253.261719 580.953125 253.34375 580.695312 253.449219 C 580.4375 253.554688 580.191406 253.683594 579.960938 253.839844 C 579.726562 253.996094 579.511719 254.171875 579.316406 254.367188 C 579.117188 254.566406 578.941406 254.78125 578.789062 255.011719 C 578.632812 255.246094 578.503906 255.488281 578.398438 255.746094 C 578.289062 256.003906 578.210938 256.269531 578.15625 256.546875 C 578.105469 256.820312 578.078125 257.09375 578.078125 257.375 C 578.09375 258.539062 578.507812 259.542969 579.316406 260.378906 C 580.632812 261.671875 582.132812 262.695312 583.816406 263.453125 Z M 523.613281 332.101562 C 522.820312 329.671875 522.214844 327.199219 521.796875 324.683594 C 521.722656 324.414062 521.621094 324.15625 521.496094 323.90625 C 521.371094 323.660156 521.222656 323.425781 521.050781 323.207031 C 520.882812 322.988281 520.691406 322.785156 520.480469 322.605469 C 520.269531 322.421875 520.042969 322.261719 519.800781 322.125 C 519.5625 321.984375 519.308594 321.875 519.042969 321.785156 C 518.78125 321.695312 518.511719 321.636719 518.234375 321.597656 C 517.960938 321.5625 517.683594 321.554688 517.40625 321.574219 C 517.128906 321.59375 516.855469 321.640625 516.585938 321.710938 C 516.050781 321.875 515.566406 322.132812 515.128906 322.480469 C 514.695312 322.832031 514.339844 323.25 514.0625 323.734375 C 513.785156 324.222656 513.609375 324.742188 513.53125 325.292969 C 513.453125 325.847656 513.484375 326.398438 513.617188 326.941406 C 514.085938 329.667969 514.765625 332.34375 515.65625 334.964844 C 516.546875 337.585938 517.636719 340.121094 518.925781 342.570312 C 520.214844 345.023438 521.6875 347.355469 523.34375 349.574219 C 525.003906 351.792969 526.824219 353.867188 528.804688 355.796875 C 529 356 529.214844 356.183594 529.445312 356.34375 C 529.679688 356.503906 529.921875 356.640625 530.183594 356.75 C 530.441406 356.863281 530.707031 356.949219 530.984375 357.003906 C 531.257812 357.0625 531.539062 357.09375 531.820312 357.097656 C 532.101562 357.101562 532.378906 357.074219 532.65625 357.023438 C 532.933594 356.96875 533.203125 356.890625 533.464844 356.785156 C 533.726562 356.675781 533.972656 356.546875 534.207031 356.390625 C 534.441406 356.234375 534.660156 356.058594 534.859375 355.859375 C 535.058594 355.660156 535.234375 355.441406 535.390625 355.207031 C 535.546875 354.972656 535.679688 354.726562 535.789062 354.464844 C 535.894531 354.207031 535.976562 353.9375 536.027344 353.660156 C 536.082031 353.382812 536.109375 353.105469 536.105469 352.824219 C 536.105469 352.542969 536.074219 352.261719 536.015625 351.988281 C 535.957031 351.710938 535.875 351.445312 535.765625 351.183594 C 535.652344 350.925781 535.519531 350.679688 535.359375 350.449219 C 535.199219 350.214844 535.015625 350 534.816406 349.804688 C 531.292969 346.457031 528.433594 342.617188 526.242188 338.277344 C 525.175781 336.300781 524.296875 334.242188 523.613281 332.101562 Z M 563.90625 340.011719 C 564.492188 340.996094 565.335938 341.644531 566.433594 341.964844 C 567 342.109375 567.566406 342.109375 568.132812 341.964844 C 568.703125 341.925781 569.226562 341.757812 569.710938 341.453125 C 570.695312 340.859375 571.347656 340.011719 571.664062 338.90625 C 571.953125 337.765625 571.8125 336.679688 571.238281 335.648438 C 570.066406 333.628906 568.914062 331.609375 567.757812 329.570312 C 567.167969 328.59375 566.324219 327.941406 565.230469 327.617188 C 564.664062 327.472656 564.097656 327.472656 563.53125 327.617188 C 562.960938 327.644531 562.433594 327.816406 561.953125 328.128906 C 560.964844 328.710938 560.316406 329.554688 560.003906 330.65625 C 559.707031 331.808594 559.855469 332.902344 560.445312 333.933594 Z M 601.382812 377.867188 C 607.164062 377.527344 612.859375 376.640625 618.472656 375.214844 C 624.082031 373.785156 629.511719 371.839844 634.75 369.378906 C 634.992188 369.238281 635.214844 369.074219 635.421875 368.890625 C 635.628906 368.703125 635.820312 368.5 635.988281 368.277344 C 636.15625 368.054688 636.300781 367.820312 636.421875 367.570312 C 636.542969 367.320312 636.640625 367.058594 636.710938 366.789062 C 636.78125 366.519531 636.824219 366.246094 636.84375 365.96875 C 636.859375 365.691406 636.851562 365.414062 636.8125 365.140625 C 636.777344 364.863281 636.710938 364.59375 636.621094 364.328125 C 636.53125 364.066406 636.417969 363.8125 636.277344 363.574219 C 635.988281 363.09375 635.617188 362.6875 635.167969 362.355469 C 634.71875 362.019531 634.226562 361.78125 633.683594 361.640625 C 633.144531 361.496094 632.59375 361.460938 632.039062 361.53125 C 631.484375 361.601562 630.960938 361.773438 630.472656 362.042969 C 621.242188 366.339844 611.546875 368.78125 601.382812 369.378906 C 601.105469 369.378906 600.828125 369.40625 600.554688 369.460938 C 600.28125 369.515625 600.015625 369.59375 599.757812 369.703125 C 599.5 369.808594 599.257812 369.9375 599.023438 370.09375 C 598.792969 370.25 598.578125 370.425781 598.382812 370.621094 C 598.183594 370.816406 598.007812 371.03125 597.855469 371.265625 C 597.699219 371.496094 597.570312 371.742188 597.460938 372 C 597.355469 372.253906 597.273438 372.519531 597.21875 372.792969 C 597.167969 373.066406 597.140625 373.34375 597.140625 373.621094 C 597.140625 373.902344 597.167969 374.175781 597.21875 374.449219 C 597.273438 374.722656 597.355469 374.988281 597.460938 375.246094 C 597.570312 375.503906 597.699219 375.75 597.855469 375.980469 C 598.007812 376.210938 598.183594 376.425781 598.382812 376.621094 C 598.578125 376.820312 598.792969 376.996094 599.023438 377.152344 C 599.257812 377.304688 599.5 377.4375 599.757812 377.542969 C 600.015625 377.648438 600.28125 377.730469 600.554688 377.785156 C 600.828125 377.839844 601.105469 377.867188 601.382812 377.867188 Z M 664.488281 335.070312 C 665.027344 335.210938 665.574219 335.242188 666.128906 335.171875 C 666.683594 335.097656 667.203125 334.921875 667.6875 334.648438 C 668.175781 334.371094 668.59375 334.015625 668.9375 333.578125 C 669.285156 333.140625 669.539062 332.652344 669.699219 332.117188 L 672.921875 322.492188 C 672.996094 322.222656 673.042969 321.949219 673.0625 321.671875 C 673.082031 321.394531 673.074219 321.117188 673.042969 320.839844 C 673.007812 320.566406 672.945312 320.296875 672.859375 320.03125 C 672.769531 319.765625 672.65625 319.511719 672.519531 319.273438 C 672.382812 319.03125 672.222656 318.804688 672.039062 318.59375 C 671.859375 318.382812 671.65625 318.191406 671.4375 318.019531 C 671.21875 317.847656 670.984375 317.699219 670.734375 317.574219 C 670.488281 317.449219 670.226562 317.351562 669.960938 317.277344 C 669.691406 317.203125 669.417969 317.15625 669.140625 317.136719 C 668.863281 317.117188 668.585938 317.121094 668.308594 317.15625 C 668.035156 317.191406 667.761719 317.25 667.5 317.339844 C 667.234375 317.425781 666.980469 317.539062 666.738281 317.675781 C 666.496094 317.8125 666.269531 317.972656 666.058594 318.15625 C 665.847656 318.335938 665.65625 318.539062 665.484375 318.757812 C 665.316406 318.976562 665.167969 319.210938 665.042969 319.457031 C 664.917969 319.707031 664.816406 319.964844 664.742188 320.234375 C 663.609375 323.4375 662.535156 326.644531 661.515625 329.859375 C 661.441406 330.128906 661.394531 330.402344 661.375 330.679688 C 661.355469 330.957031 661.359375 331.234375 661.394531 331.511719 C 661.429688 331.789062 661.492188 332.058594 661.578125 332.324219 C 661.667969 332.589844 661.78125 332.839844 661.917969 333.082031 C 662.054688 333.324219 662.214844 333.550781 662.398438 333.761719 C 662.582031 333.972656 662.785156 334.164062 663.003906 334.332031 C 663.222656 334.503906 663.460938 334.652344 663.710938 334.777344 C 663.957031 334.898438 664.21875 335 664.488281 335.070312 Z M 732.378906 314.226562 C 732.578125 314.421875 732.792969 314.597656 733.023438 314.75 C 733.253906 314.90625 733.5 315.035156 733.757812 315.144531 C 734.015625 315.25 734.28125 315.328125 734.554688 315.382812 C 734.828125 315.4375 735.105469 315.464844 735.382812 315.464844 C 735.660156 315.464844 735.9375 315.4375 736.210938 315.382812 C 736.484375 315.328125 736.75 315.25 737.007812 315.144531 C 737.265625 315.035156 737.511719 314.90625 737.742188 314.75 C 737.972656 314.597656 738.1875 314.421875 738.386719 314.226562 C 739.214844 313.394531 739.625 312.390625 739.625 311.21875 C 739.570312 310.070312 739.15625 309.070312 738.386719 308.214844 L 738.234375 308.027344 C 736.574219 305.777344 735.1875 303.367188 734.074219 300.796875 C 733.667969 299.796875 733.296875 298.792969 732.972656 297.777344 C 732.898438 297.507812 732.800781 297.246094 732.675781 297 C 732.550781 296.75 732.402344 296.515625 732.230469 296.292969 C 732.058594 296.074219 731.867188 295.871094 731.65625 295.691406 C 731.445312 295.507812 731.21875 295.347656 730.976562 295.210938 C 730.734375 295.070312 730.480469 294.957031 730.21875 294.871094 C 729.953125 294.785156 729.679688 294.722656 729.40625 294.6875 C 729.128906 294.652344 728.851562 294.644531 728.574219 294.667969 C 728.292969 294.6875 728.019531 294.734375 727.753906 294.808594 C 727.484375 294.882812 727.222656 294.980469 726.976562 295.105469 C 726.726562 295.234375 726.492188 295.382812 726.269531 295.550781 C 726.050781 295.722656 725.851562 295.914062 725.667969 296.125 C 725.484375 296.335938 725.328125 296.5625 725.1875 296.808594 C 725.050781 297.050781 724.9375 297.304688 724.851562 297.566406 C 724.765625 297.832031 724.703125 298.105469 724.667969 298.378906 C 724.636719 298.65625 724.628906 298.933594 724.648438 299.214844 C 724.667969 299.492188 724.71875 299.765625 724.792969 300.035156 C 726.40625 305.253906 728.9375 309.984375 732.378906 314.226562 Z M 699.042969 283.023438 C 699.609375 283.179688 700.175781 283.179688 700.742188 283.023438 C 701.3125 283.003906 701.839844 282.839844 702.320312 282.53125 C 703.296875 281.933594 703.949219 281.085938 704.273438 279.984375 C 704.574219 278.832031 704.429688 277.742188 703.832031 276.710938 C 703.230469 275.746094 702.386719 275.101562 701.300781 274.773438 L 700.453125 274.453125 C 699.421875 273.988281 698.449219 273.421875 697.535156 272.753906 L 697.109375 272.414062 C 696.273438 271.601562 695.269531 271.183594 694.105469 271.160156 C 692.933594 271.171875 691.933594 271.589844 691.101562 272.414062 C 690.273438 273.238281 689.859375 274.234375 689.863281 275.402344 C 689.863281 276.574219 690.273438 277.574219 691.101562 278.40625 C 693.414062 280.519531 696.0625 282.058594 699.042969 283.023438 Z M 507.640625 417.214844 C 508.097656 418.0625 507.320312 419.457031 506.945312 420.253906 C 506.097656 422.085938 505.09375 423.851562 504.128906 425.617188 C 502.160156 429.226562 500.089844 432.78125 497.914062 436.277344 C 493.640625 443.203125 489.003906 449.875 484 456.292969 C 483.617188 456.699219 483.324219 457.160156 483.121094 457.679688 C 482.914062 458.195312 482.8125 458.730469 482.8125 459.289062 C 482.8125 459.84375 482.914062 460.382812 483.121094 460.898438 C 483.324219 461.417969 483.617188 461.878906 484 462.285156 C 484.195312 462.480469 484.410156 462.65625 484.644531 462.808594 C 484.875 462.960938 485.121094 463.09375 485.378906 463.199219 C 485.636719 463.304688 485.902344 463.382812 486.175781 463.4375 C 486.449219 463.492188 486.722656 463.519531 487.003906 463.519531 C 487.28125 463.519531 487.554688 463.492188 487.828125 463.4375 C 488.101562 463.382812 488.367188 463.304688 488.625 463.199219 C 488.882812 463.09375 489.128906 462.960938 489.359375 462.808594 C 489.59375 462.65625 489.808594 462.480469 490.007812 462.285156 C 495.964844 454.691406 501.449219 446.769531 506.453125 438.519531 C 508.847656 434.5625 511.121094 430.523438 513.242188 426.433594 C 515.363281 422.339844 517.46875 417.503906 514.941406 412.851562 C 512.410156 408.199219 505.027344 412.410156 507.640625 417.214844 Z M 466.738281 448.738281 C 465.710938 448.148438 464.621094 448.003906 463.476562 448.3125 C 462.394531 448.65625 461.546875 449.308594 460.933594 450.265625 L 460.523438 450.84375 C 459.503906 452.085938 458.375 453.21875 457.128906 454.238281 C 456.535156 454.664062 455.957031 455.085938 455.332031 455.460938 C 454.351562 456.050781 453.703125 456.894531 453.378906 457.988281 C 453.078125 459.144531 453.222656 460.234375 453.820312 461.265625 C 454.398438 462.257812 455.242188 462.902344 456.347656 463.203125 C 457.5 463.5 458.589844 463.359375 459.625 462.777344 C 463.125 460.65625 466.007812 457.894531 468.28125 454.492188 C 468.875 453.464844 469.015625 452.378906 468.707031 451.234375 C 468.375 450.148438 467.71875 449.316406 466.738281 448.738281 Z M 458.046875 523.429688 C 454.441406 523.90625 450.835938 523.921875 447.230469 523.480469 C 443.621094 523.035156 440.128906 522.148438 436.746094 520.816406 C 429.703125 518.082031 423.4375 513.855469 415.53125 515.621094 C 410.199219 516.808594 412.457031 524.992188 417.785156 523.804688 C 420.925781 523.109375 424.167969 524.414062 427.003906 525.707031 C 430.363281 527.355469 433.816406 528.785156 437.355469 530 C 441.070312 531.132812 444.863281 531.84375 448.734375 532.128906 C 452.609375 532.414062 456.464844 532.269531 460.304688 531.699219 C 460.570312 531.621094 460.828125 531.519531 461.078125 531.394531 C 461.324219 531.265625 461.558594 531.117188 461.777344 530.945312 C 461.996094 530.773438 462.195312 530.582031 462.378906 530.371094 C 462.558594 530.160156 462.71875 529.933594 462.855469 529.691406 C 462.996094 529.449219 463.105469 529.195312 463.195312 528.929688 C 463.285156 528.667969 463.347656 528.398438 463.382812 528.121094 C 463.417969 527.84375 463.425781 527.566406 463.410156 527.289062 C 463.390625 527.011719 463.34375 526.738281 463.273438 526.46875 C 463.203125 526.195312 463.105469 525.933594 462.980469 525.679688 C 462.859375 525.429688 462.710938 525.1875 462.542969 524.964844 C 462.371094 524.738281 462.183594 524.535156 461.972656 524.347656 C 461.761719 524.160156 461.535156 523.992188 461.292969 523.847656 C 461.050781 523.707031 460.796875 523.585938 460.535156 523.492188 C 460.269531 523.398438 459.996094 523.328125 459.71875 523.289062 C 459.441406 523.246094 459.160156 523.230469 458.878906 523.242188 C 458.597656 523.257812 458.320312 523.296875 458.046875 523.363281 Z M 532.726562 502.566406 C 531.558594 502.570312 530.554688 502.984375 529.722656 503.808594 C 529.554688 503.984375 529.375 504.148438 529.179688 504.300781 C 528.910156 504.46875 528.636719 504.640625 528.363281 504.773438 C 527.988281 504.90625 527.601562 505.015625 527.210938 505.097656 L 526.242188 505.097656 C 525.921875 505.097656 525.597656 504.976562 525.277344 504.875 C 524.125 504.566406 523.035156 504.707031 522 505.300781 C 521.640625 505.511719 521.316406 505.769531 521.03125 506.074219 C 520.75 506.382812 520.515625 506.722656 520.332031 507.097656 C 520.144531 507.472656 520.019531 507.867188 519.953125 508.277344 C 519.886719 508.691406 519.878906 509.105469 519.933594 509.519531 C 519.988281 509.933594 520.101562 510.328125 520.273438 510.710938 C 520.445312 511.089844 520.667969 511.4375 520.941406 511.753906 C 521.214844 512.070312 521.53125 512.335938 521.882812 512.558594 C 522.238281 512.78125 522.617188 512.949219 523.019531 513.058594 C 524.125 513.398438 525.257812 513.582031 526.414062 513.609375 C 527.570312 513.640625 528.710938 513.511719 529.832031 513.222656 C 530.953125 512.9375 532.011719 512.503906 533.015625 511.925781 C 534.019531 511.347656 534.921875 510.644531 535.730469 509.816406 C 536.539062 508.976562 536.953125 507.976562 536.96875 506.8125 C 536.964844 505.644531 536.550781 504.640625 535.730469 503.808594 C 534.910156 502.957031 533.910156 502.519531 532.726562 502.5 Z M 579.128906 503.367188 C 583.875 502.113281 588.386719 500.292969 592.671875 497.898438 C 596.953125 495.503906 600.871094 492.613281 604.421875 489.226562 C 604.636719 489.03125 604.828125 488.820312 605 488.589844 C 605.171875 488.355469 605.320312 488.109375 605.441406 487.847656 C 605.5625 487.585938 605.65625 487.316406 605.722656 487.035156 C 605.789062 486.753906 605.824219 486.46875 605.835938 486.179688 C 605.84375 485.890625 605.820312 485.605469 605.769531 485.320312 C 605.71875 485.035156 605.640625 484.761719 605.535156 484.492188 C 605.429688 484.222656 605.296875 483.96875 605.136719 483.726562 C 604.976562 483.488281 604.796875 483.265625 604.59375 483.058594 C 604.390625 482.855469 604.167969 482.675781 603.925781 482.515625 C 603.683594 482.355469 603.429688 482.222656 603.160156 482.117188 C 602.894531 482.011719 602.617188 481.933594 602.332031 481.882812 C 602.046875 481.832031 601.761719 481.8125 601.472656 481.820312 C 601.183594 481.828125 600.902344 481.863281 600.621094 481.929688 C 600.339844 481.996094 600.066406 482.089844 599.804688 482.210938 C 599.542969 482.332031 599.296875 482.480469 599.066406 482.652344 C 598.832031 482.824219 598.621094 483.015625 598.429688 483.234375 C 597.613281 483.996094 596.730469 484.742188 595.949219 485.457031 L 594.730469 486.457031 L 594.082031 486.933594 C 592.292969 488.261719 590.421875 489.460938 588.464844 490.53125 C 587.550781 491.042969 586.632812 491.535156 585.683594 491.992188 L 584.257812 492.652344 L 583.78125 492.859375 L 583.273438 493.0625 C 581.207031 493.886719 579.097656 494.578125 576.941406 495.132812 C 576.671875 495.207031 576.414062 495.304688 576.164062 495.429688 C 575.914062 495.554688 575.679688 495.703125 575.460938 495.875 C 575.238281 496.046875 575.039062 496.238281 574.855469 496.449219 C 574.671875 496.660156 574.511719 496.886719 574.375 497.128906 C 574.238281 497.371094 574.125 497.625 574.035156 497.886719 C 573.949219 498.152344 573.886719 498.425781 573.851562 498.699219 C 573.816406 498.976562 573.8125 499.253906 573.832031 499.535156 C 573.851562 499.8125 573.898438 500.085938 573.972656 500.355469 C 574.046875 500.625 574.148438 500.882812 574.273438 501.132812 C 574.398438 501.378906 574.546875 501.617188 574.71875 501.835938 C 574.886719 502.054688 575.078125 502.257812 575.292969 502.4375 C 575.503906 502.621094 575.730469 502.78125 575.972656 502.917969 C 576.214844 503.054688 576.46875 503.167969 576.734375 503.253906 C 577 503.34375 577.269531 503.402344 577.546875 503.4375 C 577.824219 503.472656 578.101562 503.476562 578.378906 503.457031 C 578.65625 503.4375 578.929688 503.390625 579.199219 503.316406 Z M 702.914062 467.394531 C 703.074219 467.929688 703.328125 468.417969 703.675781 468.855469 C 704.027344 469.292969 704.445312 469.648438 704.933594 469.925781 C 705.417969 470.199219 705.941406 470.375 706.496094 470.449219 C 707.050781 470.519531 707.597656 470.488281 708.140625 470.347656 C 708.40625 470.273438 708.664062 470.171875 708.910156 470.042969 C 709.160156 469.917969 709.390625 469.769531 709.609375 469.597656 C 709.828125 469.425781 710.027344 469.234375 710.207031 469.023438 C 710.386719 468.8125 710.546875 468.585938 710.683594 468.347656 C 710.820312 468.105469 710.929688 467.851562 711.019531 467.589844 C 711.105469 467.324219 711.167969 467.058594 711.203125 466.78125 C 711.238281 466.507812 711.246094 466.230469 711.230469 465.953125 C 711.210938 465.675781 711.164062 465.40625 711.09375 465.136719 C 707.25 453.742188 701.734375 443.222656 694.546875 433.578125 C 694.25 433.105469 693.875 432.703125 693.425781 432.371094 C 692.972656 432.042969 692.476562 431.804688 691.9375 431.664062 C 691.398438 431.519531 690.847656 431.484375 690.292969 431.550781 C 689.738281 431.617188 689.214844 431.785156 688.722656 432.050781 C 688.484375 432.195312 688.261719 432.355469 688.054688 432.542969 C 687.847656 432.730469 687.660156 432.933594 687.492188 433.15625 C 687.324219 433.378906 687.183594 433.613281 687.0625 433.863281 C 686.941406 434.113281 686.84375 434.375 686.773438 434.644531 C 686.703125 434.914062 686.660156 435.1875 686.644531 435.464844 C 686.628906 435.742188 686.636719 436.019531 686.675781 436.292969 C 686.714844 436.570312 686.777344 436.839844 686.867188 437.101562 C 686.957031 437.363281 687.074219 437.617188 687.214844 437.855469 C 694 446.851562 699.234375 456.675781 702.914062 467.328125 Z M 728.882812 409.507812 C 729.652344 411.410156 730.304688 413.351562 730.835938 415.332031 C 730.910156 415.597656 731.011719 415.855469 731.136719 416.101562 C 731.265625 416.347656 731.414062 416.582031 731.585938 416.796875 C 731.757812 417.015625 731.949219 417.214844 732.160156 417.394531 C 732.367188 417.578125 732.59375 417.734375 732.835938 417.871094 C 733.078125 418.007812 733.328125 418.121094 733.59375 418.207031 C 733.855469 418.296875 734.125 418.359375 734.398438 418.394531 C 734.675781 418.429688 734.949219 418.4375 735.226562 418.417969 C 735.503906 418.402344 735.777344 418.355469 736.042969 418.285156 C 736.582031 418.125 737.066406 417.875 737.507812 417.527344 C 737.945312 417.179688 738.300781 416.761719 738.578125 416.277344 C 738.855469 415.792969 739.03125 415.269531 739.105469 414.71875 C 739.183594 414.164062 739.152344 413.613281 739.015625 413.074219 C 737.605469 407.769531 735.421875 402.804688 732.464844 398.1875 C 732.324219 397.945312 732.160156 397.71875 731.972656 397.511719 C 731.789062 397.304688 731.585938 397.113281 731.363281 396.945312 C 731.140625 396.777344 730.902344 396.632812 730.652344 396.511719 C 730.402344 396.386719 730.140625 396.292969 729.871094 396.222656 C 729.601562 396.152344 729.328125 396.109375 729.050781 396.089844 C 728.769531 396.074219 728.492188 396.085938 728.214844 396.125 C 727.941406 396.160156 727.671875 396.226562 727.40625 396.316406 C 727.144531 396.410156 726.890625 396.523438 726.648438 396.667969 C 726.410156 396.808594 726.183594 396.96875 725.976562 397.15625 C 725.769531 397.339844 725.578125 397.542969 725.410156 397.765625 C 725.242188 397.988281 725.097656 398.226562 724.976562 398.476562 C 724.851562 398.726562 724.757812 398.988281 724.6875 399.257812 C 724.617188 399.527344 724.574219 399.804688 724.554688 400.082031 C 724.539062 400.359375 724.550781 400.636719 724.589844 400.914062 C 724.625 401.191406 724.691406 401.460938 724.78125 401.722656 C 724.875 401.988281 724.988281 402.238281 725.132812 402.480469 C 726.570312 404.699219 727.820312 407.019531 728.882812 409.441406 Z M 798.574219 456.972656 C 798.03125 456.835938 797.484375 456.808594 796.929688 456.882812 C 796.375 456.960938 795.859375 457.136719 795.371094 457.414062 C 794.886719 457.691406 794.472656 458.046875 794.125 458.484375 C 793.777344 458.921875 793.523438 459.40625 793.363281 459.941406 C 793.175781 460.46875 792.972656 460.976562 792.769531 461.488281 C 792.648438 461.726562 792.546875 461.980469 792.429688 462.234375 C 791.96875 463.234375 791.460938 464.21875 790.917969 465.1875 C 790.375 466.15625 789.78125 467.089844 789.21875 468.003906 C 788.914062 468.464844 788.59375 468.921875 788.269531 469.363281 L 788.117188 469.550781 L 787.609375 470.195312 C 786.199219 471.910156 784.660156 473.5 782.992188 474.964844 C 782.566406 475.339844 782.160156 475.695312 781.71875 476.035156 L 781.464844 476.253906 L 781.003906 476.59375 C 780.066406 477.273438 779.097656 477.917969 778.101562 478.53125 C 777.847656 478.664062 777.605469 478.820312 777.382812 479 C 777.15625 479.179688 776.953125 479.382812 776.769531 479.605469 C 776.585938 479.828125 776.425781 480.066406 776.292969 480.320312 C 776.15625 480.574219 776.050781 480.839844 775.96875 481.117188 C 775.890625 481.394531 775.835938 481.675781 775.8125 481.964844 C 775.789062 482.25 775.796875 482.539062 775.832031 482.824219 C 775.867188 483.109375 775.929688 483.390625 776.023438 483.664062 C 776.117188 483.9375 776.234375 484.199219 776.378906 484.445312 C 776.527344 484.695312 776.695312 484.925781 776.886719 485.140625 C 777.082031 485.355469 777.292969 485.550781 777.523438 485.71875 C 777.757812 485.890625 778.003906 486.039062 778.265625 486.160156 C 778.527344 486.277344 778.796875 486.371094 779.078125 486.4375 C 779.359375 486.503906 779.644531 486.539062 779.933594 486.546875 C 780.222656 486.554688 780.507812 486.535156 780.789062 486.484375 C 781.074219 486.429688 781.351562 486.351562 781.617188 486.246094 C 781.886719 486.140625 782.140625 486.003906 782.378906 485.847656 C 784.597656 484.484375 786.6875 482.941406 788.644531 481.222656 C 790.601562 479.503906 792.402344 477.632812 794.042969 475.609375 C 795.683594 473.585938 797.140625 471.4375 798.417969 469.167969 C 799.695312 466.898438 800.769531 464.535156 801.644531 462.082031 C 801.769531 461.539062 801.789062 460.992188 801.699219 460.445312 C 801.613281 459.894531 801.425781 459.382812 801.140625 458.90625 C 800.851562 458.429688 800.488281 458.023438 800.042969 457.691406 C 799.601562 457.355469 799.109375 457.117188 798.574219 456.972656 Z M 642.421875 441.355469 C 641.273438 441.054688 640.183594 441.195312 639.148438 441.777344 L 638.839844 441.949219 L 638.195312 442.117188 L 637.464844 442.117188 L 636.855469 441.964844 L 636.429688 441.746094 C 636.191406 441.605469 635.9375 441.492188 635.675781 441.402344 C 635.410156 441.3125 635.140625 441.246094 634.867188 441.210938 C 634.589844 441.171875 634.3125 441.164062 634.035156 441.179688 C 633.757812 441.199219 633.484375 441.242188 633.214844 441.3125 C 632.945312 441.382812 632.683594 441.480469 632.433594 441.601562 C 632.183594 441.722656 631.949219 441.867188 631.726562 442.035156 C 631.503906 442.203125 631.300781 442.390625 631.117188 442.601562 C 630.929688 442.808594 630.769531 443.03125 630.625 443.273438 C 630.035156 444.300781 629.894531 445.386719 630.203125 446.53125 C 630.535156 447.625 631.1875 448.472656 632.152344 449.078125 C 632.441406 449.246094 632.734375 449.402344 633.035156 449.535156 C 633.613281 449.8125 634.207031 450.042969 634.820312 450.230469 C 635.304688 450.359375 635.796875 450.445312 636.296875 450.488281 C 636.789062 450.570312 637.289062 450.621094 637.789062 450.640625 C 638.101562 450.664062 638.410156 450.664062 638.722656 450.640625 C 639.402344 450.539062 640.070312 450.386719 640.726562 450.179688 C 641.6875 449.917969 642.597656 449.53125 643.457031 449.027344 C 644.4375 448.4375 645.085938 447.59375 645.410156 446.496094 C 645.714844 445.34375 645.566406 444.253906 644.96875 443.222656 C 644.378906 442.246094 643.527344 441.617188 642.421875 441.335938 Z M 750.0625 581.0625 C 745.46875 586.203125 740.332031 590.730469 734.652344 594.644531 C 731.832031 596.570312 728.914062 598.335938 725.894531 599.9375 C 724.300781 600.789062 722.6875 601.636719 721.039062 602.332031 L 719.445312 603.027344 L 719.257812 603.027344 C 715.949219 600.738281 710.570312 604.523438 713.148438 608.597656 C 716.117188 613.28125 721.246094 611.449219 725.316406 609.597656 C 729.164062 607.84375 732.871094 605.828125 736.433594 603.554688 C 743.730469 598.910156 750.269531 593.378906 756.054688 586.953125 C 756.445312 586.550781 756.742188 586.085938 756.953125 585.566406 C 757.164062 585.046875 757.269531 584.507812 757.269531 583.949219 C 757.269531 583.386719 757.164062 582.847656 756.953125 582.328125 C 756.742188 581.808594 756.445312 581.347656 756.054688 580.945312 C 755.855469 580.75 755.636719 580.578125 755.402344 580.429688 C 755.167969 580.277344 754.921875 580.152344 754.660156 580.050781 C 754.402344 579.945312 754.132812 579.871094 753.859375 579.820312 C 753.585938 579.773438 753.308594 579.75 753.03125 579.753906 C 752.75 579.757812 752.476562 579.789062 752.203125 579.851562 C 751.929688 579.910156 751.667969 579.992188 751.410156 580.105469 C 751.15625 580.214844 750.914062 580.347656 750.683594 580.507812 C 750.453125 580.667969 750.242188 580.84375 750.046875 581.046875 Z M 705.390625 540.03125 C 702.902344 539.5 700.492188 539.746094 698.160156 540.78125 C 697.082031 541.261719 696.175781 541.96875 695.441406 542.894531 C 694.707031 543.820312 694.226562 544.863281 694.003906 546.023438 C 693.722656 547.171875 693.863281 548.265625 694.425781 549.300781 C 695.011719 550.285156 695.855469 550.9375 696.957031 551.253906 C 698.976562 551.710938 701.828125 550.625 702.183594 548.28125 L 703.441406 548.28125 C 703.710938 548.28125 703.964844 548.453125 704.21875 548.539062 L 704.660156 548.773438 C 705.085938 549.011719 705.511719 549.265625 705.917969 549.539062 C 706.679688 550.046875 707.445312 550.589844 708.226562 551.101562 C 710.289062 552.472656 712.554688 553.304688 715.015625 553.597656 C 716.191406 553.605469 717.191406 553.191406 718.019531 552.355469 C 718.214844 552.160156 718.390625 551.945312 718.546875 551.714844 C 718.699219 551.484375 718.828125 551.238281 718.9375 550.980469 C 719.042969 550.726562 719.121094 550.460938 719.175781 550.1875 C 719.230469 549.914062 719.257812 549.640625 719.257812 549.359375 C 719.257812 549.082031 719.230469 548.808594 719.175781 548.535156 C 719.121094 548.261719 719.042969 547.996094 718.9375 547.738281 C 718.828125 547.484375 718.699219 547.238281 718.546875 547.007812 C 718.390625 546.777344 718.214844 546.5625 718.019531 546.363281 C 717.164062 545.601562 716.160156 545.179688 715.015625 545.109375 C 716.269531 545.277344 715.421875 545.109375 715.132812 545.109375 L 714.421875 544.886719 L 713.757812 544.546875 C 712.84375 544.039062 711.976562 543.425781 711.09375 542.851562 C 709.390625 541.5 707.484375 540.554688 705.375 540.015625 Z M 584.496094 583.847656 C 584.019531 584.140625 583.613281 584.507812 583.28125 584.957031 C 582.945312 585.40625 582.710938 585.902344 582.566406 586.441406 C 582.425781 586.984375 582.386719 587.53125 582.457031 588.085938 C 582.527344 588.640625 582.695312 589.164062 582.964844 589.652344 C 583.109375 589.890625 583.273438 590.113281 583.460938 590.320312 C 583.644531 590.527344 583.847656 590.710938 584.070312 590.878906 C 584.292969 591.046875 584.53125 591.191406 584.78125 591.3125 C 585.03125 591.433594 585.289062 591.527344 585.558594 591.597656 C 585.828125 591.667969 586.097656 591.714844 586.375 591.730469 C 586.652344 591.75 586.929688 591.738281 587.207031 591.703125 C 587.480469 591.667969 587.75 591.605469 588.015625 591.519531 C 588.277344 591.429688 588.53125 591.316406 588.769531 591.179688 C 590.414062 590.089844 592.113281 589.097656 593.863281 588.191406 C 594.78125 587.714844 595.730469 587.273438 596.679688 586.835938 L 596.882812 586.75 L 597.121094 586.664062 L 598.582031 586.085938 C 600.421875 585.417969 602.296875 584.851562 604.199219 584.390625 C 605.082031 584.1875 605.980469 583.980469 606.882812 583.8125 L 608.425781 583.558594 L 609.242188 583.558594 C 609.796875 583.542969 610.332031 583.425781 610.847656 583.203125 C 611.359375 582.984375 611.8125 582.675781 612.207031 582.28125 C 612.601562 581.886719 612.910156 581.433594 613.128906 580.921875 C 613.351562 580.40625 613.46875 579.871094 613.484375 579.3125 C 613.382812 577.242188 611.601562 574.796875 609.242188 575.070312 C 604.828125 575.539062 600.527344 576.511719 596.34375 577.992188 C 592.160156 579.472656 588.203125 581.417969 584.476562 583.828125 Z M 595.324219 653.003906 C 600.753906 652.699219 600.789062 644.195312 595.324219 644.515625 C 579.367188 645.398438 561.769531 646.316406 548.003906 636.757812 C 547.761719 636.621094 547.507812 636.507812 547.246094 636.417969 C 546.980469 636.328125 546.710938 636.265625 546.4375 636.230469 C 546.160156 636.191406 545.882812 636.183594 545.605469 636.199219 C 545.328125 636.21875 545.054688 636.261719 544.789062 636.332031 C 544.519531 636.402344 544.257812 636.5 544.007812 636.621094 C 543.757812 636.742188 543.523438 636.886719 543.300781 637.054688 C 543.078125 637.222656 542.875 637.410156 542.6875 637.617188 C 542.503906 637.824219 542.339844 638.046875 542.199219 638.285156 C 541.925781 638.773438 541.753906 639.296875 541.683594 639.851562 C 541.613281 640.40625 541.648438 640.957031 541.792969 641.496094 C 541.933594 642.039062 542.171875 642.535156 542.507812 642.980469 C 542.839844 643.429688 543.246094 643.800781 543.726562 644.09375 C 558.695312 654.480469 577.925781 653.886719 595.304688 652.988281 Z M 528.195312 613.144531 C 527.390625 612.035156 526.710938 610.851562 526.160156 609.597656 C 525.894531 609.113281 525.53125 608.71875 525.074219 608.410156 C 524.65625 608.035156 524.171875 607.78125 523.628906 607.644531 C 523.359375 607.570312 523.085938 607.523438 522.808594 607.503906 C 522.53125 607.480469 522.25 607.488281 521.972656 607.523438 C 521.699219 607.558594 521.425781 607.617188 521.160156 607.707031 C 520.894531 607.792969 520.640625 607.90625 520.398438 608.046875 C 520.15625 608.183594 519.929688 608.34375 519.71875 608.527344 C 519.507812 608.710938 519.316406 608.910156 519.144531 609.132812 C 518.972656 609.351562 518.824219 609.585938 518.699219 609.835938 C 518.574219 610.085938 518.476562 610.347656 518.402344 610.617188 L 518.25 611.738281 C 518.25 612.5 518.445312 613.214844 518.828125 613.875 C 519.410156 615.246094 520.152344 616.523438 521.050781 617.710938 C 522.109375 619.171875 523.328125 620.492188 524.699219 621.667969 C 525.078125 622.085938 525.535156 622.378906 526.074219 622.550781 C 526.601562 622.84375 527.167969 622.960938 527.769531 622.90625 C 528.9375 622.894531 529.941406 622.484375 530.773438 621.667969 C 531.597656 620.835938 532.011719 619.832031 532.015625 618.664062 C 532.023438 617.492188 531.609375 616.496094 530.773438 615.675781 C 529.832031 614.914062 528.972656 614.074219 528.195312 613.144531 Z M 446.25 644.789062 C 446.808594 644.773438 447.34375 644.660156 447.859375 644.4375 C 448.371094 644.21875 448.828125 643.910156 449.222656 643.515625 C 449.617188 643.121094 449.925781 642.667969 450.144531 642.152344 C 450.363281 641.640625 450.480469 641.101562 450.492188 640.542969 C 450.492188 640.265625 450.460938 639.992188 450.402344 639.71875 C 450.347656 639.449219 450.265625 639.183594 450.15625 638.929688 C 450.050781 638.671875 449.917969 638.429688 449.761719 638.199219 C 449.609375 637.96875 449.433594 637.753906 449.234375 637.558594 C 449.039062 637.363281 448.828125 637.1875 448.597656 637.03125 C 448.367188 636.875 448.121094 636.746094 447.867188 636.636719 C 447.609375 636.527344 447.347656 636.445312 447.074219 636.390625 C 446.804688 636.332031 446.527344 636.304688 446.25 636.300781 C 434.859375 637.160156 423.46875 637.121094 412.085938 636.179688 C 403.785156 635.484375 394.738281 633.925781 388.710938 627.695312 C 384.910156 623.753906 378.917969 629.746094 382.703125 633.6875 C 389.902344 641.15625 400.1875 643.515625 410.132812 644.515625 C 422.164062 645.667969 434.203125 645.777344 446.25 644.839844 Z M 234.414062 612.3125 C 233.976562 611.703125 233.597656 611.054688 233.277344 610.378906 C 233 609.632812 232.789062 608.871094 232.648438 608.085938 C 232.34375 606.980469 231.699219 606.128906 230.710938 605.539062 C 229.675781 604.957031 228.585938 604.816406 227.4375 605.117188 C 226.328125 605.429688 225.480469 606.078125 224.890625 607.070312 L 224.464844 608.085938 C 224.257812 608.839844 224.257812 609.59375 224.464844 610.34375 C 224.597656 611.109375 224.792969 611.855469 225.058594 612.585938 C 225.429688 613.644531 225.886719 614.664062 226.433594 615.640625 C 226.980469 616.558594 227.597656 617.421875 228.285156 618.238281 C 228.792969 618.859375 229.359375 619.425781 229.984375 619.9375 C 230.367188 620.34375 230.828125 620.636719 231.359375 620.820312 C 231.886719 621.101562 232.453125 621.222656 233.054688 621.175781 C 233.332031 621.175781 233.609375 621.148438 233.882812 621.097656 C 234.15625 621.042969 234.421875 620.964844 234.679688 620.855469 C 234.9375 620.75 235.183594 620.621094 235.417969 620.464844 C 235.648438 620.3125 235.863281 620.132812 236.058594 619.9375 C 236.257812 619.738281 236.433594 619.523438 236.589844 619.292969 C 236.742188 619.0625 236.875 618.816406 236.980469 618.558594 C 237.085938 618.300781 237.164062 618.035156 237.21875 617.761719 C 237.273438 617.488281 237.300781 617.210938 237.296875 616.929688 C 237.304688 615.761719 236.890625 614.765625 236.058594 613.945312 C 235.457031 613.457031 234.90625 612.914062 234.414062 612.3125 Z M 271.566406 640.613281 C 272.554688 640.03125 273.207031 639.1875 273.519531 638.082031 C 273.976562 636.0625 272.890625 633.226562 270.546875 632.871094 C 268.917969 632.621094 267.3125 632.269531 265.726562 631.820312 C 264.945312 631.597656 264.164062 631.34375 263.386719 631.070312 L 262.230469 630.648438 L 261.910156 630.511719 C 260.472656 629.894531 259.074219 629.199219 257.714844 628.421875 C 257.019531 628 256.324219 627.558594 255.644531 627.101562 L 254.644531 626.386719 L 254.289062 626.132812 C 253.460938 625.394531 252.492188 625.007812 251.386719 624.976562 C 250.222656 624.984375 249.226562 625.398438 248.398438 626.21875 C 246.988281 627.746094 246.53125 630.75 248.398438 632.210938 C 251.285156 634.554688 254.421875 636.492188 257.816406 638.019531 C 261.207031 639.542969 264.738281 640.605469 268.410156 641.207031 C 269.535156 641.390625 270.585938 641.195312 271.566406 640.613281 Z M 322.109375 603.164062 C 322.1875 603.234375 322.261719 603.308594 322.332031 603.386719 C 322.621094 603.828125 322.875 604.285156 323.148438 604.742188 C 323.671875 605.636719 324.265625 606.476562 324.929688 607.273438 C 325.660156 608.195312 326.554688 608.910156 327.621094 609.414062 C 328.6875 609.914062 329.808594 610.152344 330.988281 610.125 C 332.152344 610.089844 333.152344 609.671875 333.992188 608.867188 C 334.1875 608.671875 334.363281 608.457031 334.519531 608.226562 C 334.671875 607.996094 334.800781 607.75 334.910156 607.492188 C 335.015625 607.234375 335.09375 606.972656 335.148438 606.699219 C 335.203125 606.425781 335.230469 606.148438 335.230469 605.871094 C 335.230469 605.59375 335.203125 605.320312 335.148438 605.046875 C 335.09375 604.773438 335.015625 604.507812 334.910156 604.25 C 334.800781 603.992188 334.671875 603.75 334.519531 603.519531 C 334.363281 603.285156 334.1875 603.074219 333.992188 602.875 C 333.25 602.152344 332.359375 601.742188 331.328125 601.652344 L 331.105469 601.433594 C 330.195312 599.6875 329.066406 598.09375 327.710938 596.664062 C 326.570312 595.59375 325.242188 594.875 323.722656 594.507812 C 322.652344 594.25 321.589844 594.273438 320.53125 594.578125 C 319.472656 594.878906 318.558594 595.421875 317.78125 596.203125 C 317.589844 596.402344 317.417969 596.617188 317.265625 596.851562 C 317.113281 597.082031 316.984375 597.328125 316.882812 597.582031 C 316.777344 597.839844 316.699219 598.105469 316.644531 598.375 C 316.59375 598.648438 316.566406 598.921875 316.566406 599.199219 C 316.566406 599.476562 316.59375 599.753906 316.644531 600.023438 C 316.699219 600.296875 316.777344 600.5625 316.882812 600.816406 C 316.984375 601.074219 317.113281 601.320312 317.265625 601.550781 C 317.417969 601.78125 317.589844 602 317.78125 602.195312 C 318.363281 602.738281 319.042969 603.09375 319.816406 603.265625 C 320.589844 603.441406 321.355469 603.40625 322.109375 603.164062 Z M 221.089844 560.386719 C 219.675781 560.183594 218.289062 559.859375 216.929688 559.417969 L 215.859375 559.046875 L 215.132812 558.757812 L 214.671875 558.554688 L 213.65625 558.042969 C 212.433594 557.378906 211.261719 556.632812 210.140625 555.804688 L 209.902344 555.632812 L 209.054688 554.886719 C 208.496094 554.375 207.953125 553.851562 207.359375 553.289062 C 207.160156 553.097656 206.945312 552.921875 206.710938 552.769531 C 206.480469 552.617188 206.234375 552.488281 205.976562 552.382812 C 205.71875 552.277344 205.453125 552.199219 205.179688 552.144531 C 204.90625 552.089844 204.632812 552.0625 204.355469 552.0625 C 204.074219 552.0625 203.800781 552.089844 203.527344 552.144531 C 203.253906 552.199219 202.988281 552.277344 202.730469 552.382812 C 202.472656 552.488281 202.230469 552.617188 201.996094 552.769531 C 201.765625 552.921875 201.546875 553.097656 201.347656 553.289062 C 200.960938 553.695312 200.664062 554.15625 200.457031 554.675781 C 200.246094 555.195312 200.144531 555.734375 200.144531 556.296875 C 200.144531 556.855469 200.246094 557.394531 200.457031 557.914062 C 200.664062 558.433594 200.960938 558.894531 201.347656 559.300781 C 203.65625 561.761719 206.300781 563.789062 209.28125 565.375 C 212.257812 566.964844 215.414062 568.027344 218.746094 568.566406 C 219.894531 568.851562 220.984375 568.710938 222.023438 568.144531 C 223.039062 567.574219 223.71875 566.730469 224.058594 565.613281 C 224.515625 563.59375 223.449219 560.742188 221.089844 560.386719 Z M 131.914062 485.695312 C 131.773438 485.453125 131.609375 485.230469 131.421875 485.023438 C 131.238281 484.816406 131.035156 484.628906 130.8125 484.460938 C 130.589844 484.296875 130.351562 484.152344 130.101562 484.027344 C 129.851562 483.90625 129.59375 483.8125 129.324219 483.742188 C 129.054688 483.671875 128.78125 483.625 128.503906 483.609375 C 128.226562 483.589844 127.949219 483.601562 127.675781 483.636719 C 127.398438 483.671875 127.128906 483.734375 126.867188 483.824219 C 126.601562 483.914062 126.351562 484.027344 126.109375 484.167969 C 125.632812 484.460938 125.226562 484.828125 124.894531 485.277344 C 124.5625 485.726562 124.324219 486.222656 124.183594 486.761719 C 124.039062 487.304688 124.003906 487.851562 124.070312 488.40625 C 124.140625 488.960938 124.3125 489.484375 124.582031 489.972656 L 130.421875 501.363281 C 130.5625 501.601562 130.726562 501.824219 130.910156 502.03125 C 131.097656 502.238281 131.300781 502.425781 131.523438 502.59375 C 131.746094 502.761719 131.980469 502.90625 132.230469 503.027344 C 132.480469 503.148438 132.742188 503.246094 133.007812 503.316406 C 133.277344 503.386719 133.550781 503.429688 133.828125 503.449219 C 134.105469 503.464844 134.382812 503.457031 134.660156 503.417969 C 134.933594 503.382812 135.203125 503.320312 135.46875 503.230469 C 135.730469 503.140625 135.984375 503.027344 136.226562 502.890625 C 136.699219 502.597656 137.105469 502.226562 137.4375 501.777344 C 137.773438 501.328125 138.007812 500.835938 138.152344 500.292969 C 138.292969 499.753906 138.332031 499.207031 138.261719 498.652344 C 138.191406 498.097656 138.023438 497.574219 137.753906 497.085938 C 135.800781 493.230469 133.847656 489.445312 131.914062 485.644531 Z M 131.914062 485.695312 "/><path style=" stroke:none;fill-rule:nonzero;fill:#f7c9bf;fill-opacity:1;" d="M 152.128906 347.410156 C 152.128906 347.410156 146.644531 368.207031 146.359375 384.382812 C 146.359375 384.382812 126.992188 390.171875 121.507812 376.882812 C 116.027344 363.589844 137.394531 367.628906 152.128906 347.410156 Z M 401.730469 388.730469 C 401.730469 388.730469 446.945312 401.734375 440.769531 381.789062 C 434.589844 361.839844 394.261719 353.046875 394.261719 353.046875 C 401.152344 361.992188 401.730469 388.730469 401.730469 388.730469 Z M 189.6875 431.78125 C 181.390625 431.78125 174.667969 436.871094 174.667969 443.050781 C 174.667969 449.230469 181.457031 454.324219 189.6875 454.324219 C 197.921875 454.324219 204.710938 449.230469 204.710938 443.050781 C 204.710938 436.871094 197.988281 431.78125 189.6875 431.78125 Z M 356.957031 429.472656 C 348.65625 429.472656 341.933594 434.5625 341.933594 440.742188 C 341.933594 446.921875 348.722656 451.996094 356.957031 451.996094 C 365.1875 451.996094 371.976562 446.90625 371.976562 440.742188 C 371.976562 434.582031 365.257812 429.472656 356.957031 429.472656 Z M 356.957031 429.472656 "/></g></svg>