<svg xmlns="http://www.w3.org/2000/svg" xmlns:xlink="http://www.w3.org/1999/xlink" width="1200" zoomAndPan="magnify" viewBox="0 0 900 899.99999" height="1200" preserveAspectRatio="xMidYMid meet" version="1.2"><defs><clipPath id="3eb2b3cad4"><path d="M 53.195312 66 L 846.617188 66 L 846.617188 857.695312 L 53.195312 857.695312 Z M 53.195312 66 "/></clipPath><clipPath id="aa0d6d0096"><path d="M 96 66 L 104 66 L 104 857.695312 L 96 857.695312 Z M 96 66 "/></clipPath><clipPath id="fef3251427"><path d="M 846.269531 382.636719 L 846.023438 382.636719 L 846.023438 857.695312 L 53.703125 857.695312 L 53.703125 382.636719 L 53.59375 382.636719 L 160.214844 196.046875 L 450.109375 66.519531 L 739.507812 196.046875 L 846.269531 382.636719 "/></clipPath><clipPath id="166453e4be"><path d="M 166 66 L 174 66 L 174 857.695312 L 166 857.695312 Z M 166 66 "/></clipPath><clipPath id="5c9248d8b6"><path d="M 846.269531 382.636719 L 846.023438 382.636719 L 846.023438 857.695312 L 53.703125 857.695312 L 53.703125 382.636719 L 53.59375 382.636719 L 160.214844 196.046875 L 450.109375 66.519531 L 739.507812 196.046875 L 846.269531 382.636719 "/></clipPath><clipPath id="a1fb2e0bb8"><path d="M 236 66 L 244 66 L 244 857.695312 L 236 857.695312 Z M 236 66 "/></clipPath><clipPath id="5dbb8aae1c"><path d="M 846.269531 382.636719 L 846.023438 382.636719 L 846.023438 857.695312 L 53.703125 857.695312 L 53.703125 382.636719 L 53.59375 382.636719 L 160.214844 196.046875 L 450.109375 66.519531 L 739.507812 196.046875 L 846.269531 382.636719 "/></clipPath><clipPath id="5854bb5f26"><path d="M 306.390625 66 L 314 66 L 314 857.695312 L 306.390625 857.695312 Z M 306.390625 66 "/></clipPath><clipPath id="a21f155324"><path d="M 846.269531 382.636719 L 846.023438 382.636719 L 846.023438 857.695312 L 53.703125 857.695312 L 53.703125 382.636719 L 53.59375 382.636719 L 160.214844 196.046875 L 450.109375 66.519531 L 739.507812 196.046875 L 846.269531 382.636719 "/></clipPath><clipPath id="e7b9c83d66"><path d="M 376.238281 66 L 383.878906 66 L 383.878906 857.695312 L 376.238281 857.695312 Z M 376.238281 66 "/></clipPath><clipPath id="31c33d26ce"><path d="M 846.269531 382.636719 L 846.023438 382.636719 L 846.023438 857.695312 L 53.703125 857.695312 L 53.703125 382.636719 L 53.59375 382.636719 L 160.214844 196.046875 L 450.109375 66.519531 L 739.507812 196.046875 L 846.269531 382.636719 "/></clipPath><clipPath id="8157cd3132"><path d="M 446.085938 66 L 453.726562 66 L 453.726562 857.695312 L 446.085938 857.695312 Z M 446.085938 66 "/></clipPath><clipPath id="c431934d65"><path d="M 846.269531 382.636719 L 846.023438 382.636719 L 846.023438 857.695312 L 53.703125 857.695312 L 53.703125 382.636719 L 53.59375 382.636719 L 160.214844 196.046875 L 450.109375 66.519531 L 739.507812 196.046875 L 846.269531 382.636719 "/></clipPath><clipPath id="327a13a589"><path d="M 516 66 L 523.574219 66 L 523.574219 857.695312 L 516 857.695312 Z M 516 66 "/></clipPath><clipPath id="73c1d5ccff"><path d="M 846.269531 382.636719 L 846.023438 382.636719 L 846.023438 857.695312 L 53.703125 857.695312 L 53.703125 382.636719 L 53.59375 382.636719 L 160.214844 196.046875 L 450.109375 66.519531 L 739.507812 196.046875 L 846.269531 382.636719 "/></clipPath><clipPath id="ec8ec4158c"><path d="M 586 66 L 593.421875 66 L 593.421875 857.695312 L 586 857.695312 Z M 586 66 "/></clipPath><clipPath id="8454e459da"><path d="M 846.269531 382.636719 L 846.023438 382.636719 L 846.023438 857.695312 L 53.703125 857.695312 L 53.703125 382.636719 L 53.59375 382.636719 L 160.214844 196.046875 L 450.109375 66.519531 L 739.507812 196.046875 L 846.269531 382.636719 "/></clipPath><clipPath id="f4272d4c14"><path d="M 656 66 L 664 66 L 664 857.695312 L 656 857.695312 Z M 656 66 "/></clipPath><clipPath id="b243277948"><path d="M 846.269531 382.636719 L 846.023438 382.636719 L 846.023438 857.695312 L 53.703125 857.695312 L 53.703125 382.636719 L 53.59375 382.636719 L 160.214844 196.046875 L 450.109375 66.519531 L 739.507812 196.046875 L 846.269531 382.636719 "/></clipPath><clipPath id="749c9441cd"><path d="M 726 66 L 734 66 L 734 857.695312 L 726 857.695312 Z M 726 66 "/></clipPath><clipPath id="f0ee419f90"><path d="M 846.269531 382.636719 L 846.023438 382.636719 L 846.023438 857.695312 L 53.703125 857.695312 L 53.703125 382.636719 L 53.59375 382.636719 L 160.214844 196.046875 L 450.109375 66.519531 L 739.507812 196.046875 L 846.269531 382.636719 "/></clipPath><clipPath id="bf2d9d3341"><path d="M 796 66 L 804 66 L 804 857.695312 L 796 857.695312 Z M 796 66 "/></clipPath><clipPath id="c60425ed94"><path d="M 846.269531 382.636719 L 846.023438 382.636719 L 846.023438 857.695312 L 53.703125 857.695312 L 53.703125 382.636719 L 53.59375 382.636719 L 160.214844 196.046875 L 450.109375 66.519531 L 739.507812 196.046875 L 846.269531 382.636719 "/></clipPath><clipPath id="504d40490f"><path d="M 4.085938 42.613281 L 895.78125 42.613281 L 895.78125 509.953125 L 4.085938 509.953125 Z M 4.085938 42.613281 "/></clipPath><clipPath id="e314ad2d64"><path d="M 449.359375 497 L 686 497 L 686 857.695312 L 449.359375 857.695312 Z M 449.359375 497 "/></clipPath><clipPath id="37f3d6e62f"><path d="M 214 497 L 450 497 L 450 857.695312 L 214 857.695312 Z M 214 497 "/></clipPath><clipPath id="d3e04bd613"><path d="M 449.359375 499.035156 L 454.816406 499.035156 L 454.816406 857.695312 L 449.359375 857.695312 Z M 449.359375 499.035156 "/></clipPath></defs><g id="e691f0f201"><g clip-rule="nonzero" clip-path="url(#3eb2b3cad4)"><path style=" stroke:none;fill-rule:nonzero;fill:#ea1c24;fill-opacity:1;" d="M 846.269531 382.636719 L 846.023438 382.636719 L 846.023438 857.695312 L 53.703125 857.695312 L 53.703125 382.636719 L 53.59375 382.636719 L 160.214844 196.046875 L 450.109375 66.519531 L 739.507812 196.046875 L 846.269531 382.636719 "/></g><g clip-rule="nonzero" clip-path="url(#aa0d6d0096)"><g clip-rule="nonzero" clip-path="url(#fef3251427)"><path style=" stroke:none;fill-rule:nonzero;fill:#ce0f1d;fill-opacity:1;" d="M 96.667969 865.046875 L 103.824219 865.046875 L 103.824219 51.117188 L 96.667969 51.117188 Z M 96.667969 865.046875 "/></g></g><g clip-rule="nonzero" clip-path="url(#166453e4be)"><g clip-rule="nonzero" clip-path="url(#5c9248d8b6)"><path style=" stroke:none;fill-rule:nonzero;fill:#ce0f1d;fill-opacity:1;" d="M 166.605469 865.046875 L 173.761719 865.046875 L 173.761719 51.117188 L 166.605469 51.117188 Z M 166.605469 865.046875 "/></g></g><g clip-rule="nonzero" clip-path="url(#a1fb2e0bb8)"><g clip-rule="nonzero" clip-path="url(#5dbb8aae1c)"><path style=" stroke:none;fill-rule:nonzero;fill:#ce0f1d;fill-opacity:1;" d="M 236.542969 865.046875 L 243.699219 865.046875 L 243.699219 51.117188 L 236.542969 51.117188 Z M 236.542969 865.046875 "/></g></g><g clip-rule="nonzero" clip-path="url(#5854bb5f26)"><g clip-rule="nonzero" clip-path="url(#a21f155324)"><path style=" stroke:none;fill-rule:nonzero;fill:#ce0f1d;fill-opacity:1;" d="M 306.476562 865.046875 L 313.636719 865.046875 L 313.636719 51.117188 L 306.476562 51.117188 Z M 306.476562 865.046875 "/></g></g><g clip-rule="nonzero" clip-path="url(#e7b9c83d66)"><g clip-rule="nonzero" clip-path="url(#31c33d26ce)"><path style=" stroke:none;fill-rule:nonzero;fill:#ce0f1d;fill-opacity:1;" d="M 376.414062 865.046875 L 383.578125 865.046875 L 383.578125 51.117188 L 376.414062 51.117188 Z M 376.414062 865.046875 "/></g></g><g clip-rule="nonzero" clip-path="url(#8157cd3132)"><g clip-rule="nonzero" clip-path="url(#c431934d65)"><path style=" stroke:none;fill-rule:nonzero;fill:#ce0f1d;fill-opacity:1;" d="M 446.355469 865.046875 L 453.511719 865.046875 L 453.511719 51.117188 L 446.355469 51.117188 Z M 446.355469 865.046875 "/></g></g><g clip-rule="nonzero" clip-path="url(#327a13a589)"><g clip-rule="nonzero" clip-path="url(#73c1d5ccff)"><path style=" stroke:none;fill-rule:nonzero;fill:#ce0f1d;fill-opacity:1;" d="M 516.292969 865.046875 L 523.449219 865.046875 L 523.449219 51.117188 L 516.292969 51.117188 Z M 516.292969 865.046875 "/></g></g><g clip-rule="nonzero" clip-path="url(#ec8ec4158c)"><g clip-rule="nonzero" clip-path="url(#8454e459da)"><path style=" stroke:none;fill-rule:nonzero;fill:#ce0f1d;fill-opacity:1;" d="M 586.226562 865.046875 L 593.386719 865.046875 L 593.386719 51.117188 L 586.226562 51.117188 Z M 586.226562 865.046875 "/></g></g><g clip-rule="nonzero" clip-path="url(#f4272d4c14)"><g clip-rule="nonzero" clip-path="url(#b243277948)"><path style=" stroke:none;fill-rule:nonzero;fill:#ce0f1d;fill-opacity:1;" d="M 656.164062 865.046875 L 663.324219 865.046875 L 663.324219 51.117188 L 656.164062 51.117188 Z M 656.164062 865.046875 "/></g></g><g clip-rule="nonzero" clip-path="url(#749c9441cd)"><g clip-rule="nonzero" clip-path="url(#f0ee419f90)"><path style=" stroke:none;fill-rule:nonzero;fill:#ce0f1d;fill-opacity:1;" d="M 726.101562 865.046875 L 733.257812 865.046875 L 733.257812 51.117188 L 726.101562 51.117188 Z M 726.101562 865.046875 "/></g></g><g clip-rule="nonzero" clip-path="url(#bf2d9d3341)"><g clip-rule="nonzero" clip-path="url(#c60425ed94)"><path style=" stroke:none;fill-rule:nonzero;fill:#ce0f1d;fill-opacity:1;" d="M 796.042969 865.046875 L 803.199219 865.046875 L 803.199219 51.117188 L 796.042969 51.117188 Z M 796.042969 865.046875 "/></g></g><path style=" stroke:none;fill-rule:nonzero;fill:#f5ebd1;fill-opacity:1;" d="M 46.617188 485.871094 L 853.25 485.871094 L 853.25 432.527344 L 46.617188 432.527344 Z M 46.617188 485.871094 "/><path style=" stroke:none;fill-rule:nonzero;fill:#bb161d;fill-opacity:1;" d="M 53.703125 522.3125 L 53.703125 485.871094 L 71.25 485.871094 L 53.703125 522.3125 "/><path style=" stroke:none;fill-rule:nonzero;fill:#bb161d;fill-opacity:1;" d="M 846.023438 522.023438 L 828.597656 485.871094 L 846.023438 485.871094 L 846.023438 522.023438 M 845.136719 432.527344 L 803.199219 432.527344 L 803.199219 347.6875 L 845.136719 432.527344 M 96.667969 432.527344 L 54.726562 432.527344 L 96.667969 347.574219 L 96.667969 432.527344 M 796.042969 418.320312 L 733.257812 288.066406 L 733.257812 215.621094 L 739.507812 218.859375 L 796.042969 333.210938 L 796.042969 418.320312 M 103.824219 418.214844 L 103.824219 333.074219 L 160.214844 218.859375 L 166.605469 215.554688 L 166.605469 287.816406 L 103.824219 418.214844 M 726.101562 273.214844 L 718.886719 258.246094 L 663.324219 229.035156 L 663.324219 179.394531 L 726.101562 211.914062 L 726.101562 273.214844 M 173.761719 272.949219 L 173.761719 211.851562 L 236.542969 179.386719 L 236.542969 229.019531 L 180.839844 258.25 L 173.761719 272.949219 M 656.164062 225.273438 L 593.386719 192.269531 L 593.386719 143.164062 L 656.164062 175.6875 L 656.164062 225.273438 M 243.699219 225.261719 L 243.699219 175.6875 L 306.476562 143.222656 L 306.476562 192.316406 L 243.699219 225.261719 M 313.636719 188.558594 L 313.636719 139.519531 L 376.414062 107.054688 L 376.414062 155.613281 L 313.636719 188.558594 M 586.226562 188.507812 L 523.449219 155.507812 L 523.449219 106.933594 L 586.226562 139.457031 L 586.226562 188.507812 M 383.578125 151.855469 L 383.578125 103.355469 L 446.355469 70.886719 L 446.355469 118.910156 L 383.578125 151.855469 M 516.292969 151.746094 L 453.511719 118.738281 L 453.511719 70.703125 L 516.292969 103.226562 L 516.292969 151.746094 "/><path style=" stroke:none;fill-rule:nonzero;fill:#a50c17;fill-opacity:1;" d="M 96.9375 432.527344 L 96.667969 432.527344 L 96.667969 347.574219 L 103.824219 333.074219 L 103.824219 418.214844 L 96.9375 432.527344 "/><path style=" stroke:none;fill-rule:nonzero;fill:#a50c17;fill-opacity:1;" d="M 166.605469 287.816406 L 166.605469 215.554688 L 173.761719 211.851562 L 173.761719 272.949219 L 166.605469 287.816406 "/><path style=" stroke:none;fill-rule:nonzero;fill:#a50c17;fill-opacity:1;" d="M 236.542969 229.019531 L 236.542969 179.386719 L 243.699219 175.6875 L 243.699219 225.261719 L 236.542969 229.019531 "/><path style=" stroke:none;fill-rule:nonzero;fill:#a50c17;fill-opacity:1;" d="M 306.476562 192.316406 L 306.476562 143.222656 L 313.636719 139.519531 L 313.636719 188.558594 L 306.476562 192.316406 "/><path style=" stroke:none;fill-rule:nonzero;fill:#a50c17;fill-opacity:1;" d="M 376.414062 155.613281 L 376.414062 107.054688 L 383.578125 103.355469 L 383.578125 151.855469 L 376.414062 155.613281 "/><path style=" stroke:none;fill-rule:nonzero;fill:#a50c17;fill-opacity:1;" d="M 446.355469 118.910156 L 446.355469 70.886719 L 450.109375 68.941406 L 453.511719 70.703125 L 453.511719 118.738281 L 450.097656 116.945312 L 446.355469 118.910156 "/><path style=" stroke:none;fill-rule:nonzero;fill:#a50c17;fill-opacity:1;" d="M 523.449219 155.507812 L 516.292969 151.746094 L 516.292969 103.226562 L 523.449219 106.933594 L 523.449219 155.507812 "/><path style=" stroke:none;fill-rule:nonzero;fill:#a50c17;fill-opacity:1;" d="M 593.386719 192.269531 L 586.226562 188.507812 L 586.226562 139.457031 L 593.386719 143.164062 L 593.386719 192.269531 "/><path style=" stroke:none;fill-rule:nonzero;fill:#a50c17;fill-opacity:1;" d="M 663.324219 229.035156 L 656.164062 225.273438 L 656.164062 175.6875 L 663.324219 179.394531 L 663.324219 229.035156 "/><path style=" stroke:none;fill-rule:nonzero;fill:#a50c17;fill-opacity:1;" d="M 733.257812 288.066406 L 726.101562 273.214844 L 726.101562 211.914062 L 733.257812 215.621094 L 733.257812 288.066406 "/><path style=" stroke:none;fill-rule:nonzero;fill:#a50c17;fill-opacity:1;" d="M 803.199219 432.527344 L 802.882812 432.527344 L 796.042969 418.320312 L 796.042969 333.210938 L 803.199219 347.6875 L 803.199219 432.527344 "/><path style=" stroke:none;fill-rule:nonzero;fill:#c4bca7;fill-opacity:1;" d="M 846.023438 485.871094 L 828.597656 485.871094 L 802.882812 432.527344 L 845.136719 432.527344 L 846.269531 434.816406 L 846.023438 434.816406 L 846.023438 485.871094 M 71.25 485.871094 L 53.703125 485.871094 L 53.703125 434.816406 L 53.59375 434.816406 L 54.726562 432.527344 L 96.9375 432.527344 L 71.25 485.871094 "/><g clip-rule="nonzero" clip-path="url(#504d40490f)"><path style=" stroke:none;fill-rule:nonzero;fill:#d5863c;fill-opacity:1;" d="M 855.082031 509.511719 L 722.871094 239.199219 L 450.101562 97.902344 L 176.859375 239.203125 L 44.792969 509.503906 L 4.085938 484.011719 L 139.859375 206.109375 C 142.269531 201.175781 146.019531 197.246094 150.550781 194.902344 L 440.445312 44.988281 C 446.589844 41.8125 453.648438 41.816406 459.789062 44.996094 L 749.191406 194.910156 C 753.714844 197.25 757.453125 201.175781 759.859375 206.101562 L 895.78125 483.996094 L 855.082031 509.511719 "/></g><g clip-rule="nonzero" clip-path="url(#e314ad2d64)"><path style=" stroke:none;fill-rule:nonzero;fill:#f5ebd1;fill-opacity:1;" d="M 685.410156 857.695312 L 449.933594 857.695312 L 449.933594 497.855469 L 685.410156 497.855469 L 685.410156 857.695312 "/></g><path style=" stroke:none;fill-rule:nonzero;fill:#603912;fill-opacity:1;" d="M 485.722656 821.890625 L 485.722656 533.664062 L 649.621094 533.664062 L 649.621094 821.890625 L 485.722656 821.890625 "/><g clip-rule="nonzero" clip-path="url(#37f3d6e62f)"><path style=" stroke:none;fill-rule:nonzero;fill:#f5ebd1;fill-opacity:1;" d="M 414.148438 821.890625 L 250.242188 821.890625 L 250.242188 533.664062 L 414.148438 533.664062 Z M 214.457031 497.855469 L 214.457031 857.695312 L 449.933594 857.695312 L 449.933594 497.855469 L 214.457031 497.855469 "/></g><path style=" stroke:none;fill-rule:nonzero;fill:#603912;fill-opacity:1;" d="M 250.121094 821.890625 L 250.121094 533.664062 L 414.023438 533.664062 L 414.023438 821.890625 L 250.121094 821.890625 "/><path style=" stroke:none;fill-rule:nonzero;fill:#f5ebd1;fill-opacity:1;" d="M 398.59375 830.742188 L 234.691406 542.515625 L 265.792969 524.808594 L 429.699219 813.035156 L 398.59375 830.742188 "/><path style=" stroke:none;fill-rule:nonzero;fill:#f5ebd1;fill-opacity:1;" d="M 265.792969 830.742188 L 234.691406 813.035156 L 398.59375 524.808594 L 429.699219 542.515625 L 265.792969 830.742188 "/><path style=" stroke:none;fill-rule:nonzero;fill:#603912;fill-opacity:1;" d="M 328.617188 386.96875 L 218.035156 386.96875 L 218.035156 284.28125 L 328.617188 284.28125 L 328.617188 386.96875 "/><path style=" stroke:none;fill-rule:nonzero;fill:#f5ebd1;fill-opacity:1;" d="M 226.984375 378.015625 L 319.667969 378.015625 L 319.667969 293.234375 L 226.984375 293.234375 Z M 337.566406 395.917969 L 209.089844 395.917969 L 209.089844 275.332031 L 337.566406 275.332031 L 337.566406 395.917969 "/><path style=" stroke:none;fill-rule:nonzero;fill:#603912;fill-opacity:1;" d="M 218.035156 284.28125 L 328.617188 386.96875 "/><path style=" stroke:none;fill-rule:nonzero;fill:#f5ebd1;fill-opacity:1;" d="M 322.527344 393.527344 L 211.953125 290.84375 L 224.121094 277.71875 L 334.703125 380.402344 L 322.527344 393.527344 "/><path style=" stroke:none;fill-rule:nonzero;fill:#603912;fill-opacity:1;" d="M 328.617188 284.28125 L 218.035156 386.96875 "/><path style=" stroke:none;fill-rule:nonzero;fill:#f5ebd1;fill-opacity:1;" d="M 224.121094 393.527344 L 211.953125 380.402344 L 322.527344 277.71875 L 334.703125 290.84375 L 224.121094 393.527344 "/><path style=" stroke:none;fill-rule:nonzero;fill:#603912;fill-opacity:1;" d="M 681.832031 386.96875 L 571.246094 386.96875 L 571.246094 284.28125 L 681.832031 284.28125 L 681.832031 386.96875 "/><path style=" stroke:none;fill-rule:nonzero;fill:#f5ebd1;fill-opacity:1;" d="M 580.195312 378.015625 L 672.882812 378.015625 L 672.882812 293.234375 L 580.195312 293.234375 Z M 690.777344 395.917969 L 562.304688 395.917969 L 562.304688 275.332031 L 690.777344 275.332031 L 690.777344 395.917969 "/><path style=" stroke:none;fill-rule:nonzero;fill:#603912;fill-opacity:1;" d="M 571.246094 284.28125 L 681.832031 386.96875 "/><path style=" stroke:none;fill-rule:nonzero;fill:#f5ebd1;fill-opacity:1;" d="M 675.746094 393.527344 L 565.164062 290.84375 L 577.335938 277.71875 L 687.917969 380.402344 L 675.746094 393.527344 "/><path style=" stroke:none;fill-rule:nonzero;fill:#603912;fill-opacity:1;" d="M 681.832031 284.28125 L 571.246094 386.96875 "/><path style=" stroke:none;fill-rule:nonzero;fill:#f5ebd1;fill-opacity:1;" d="M 577.335938 393.527344 L 565.164062 380.402344 L 675.746094 277.71875 L 687.917969 290.84375 L 577.335938 393.527344 "/><path style=" stroke:none;fill-rule:nonzero;fill:#603912;fill-opacity:1;" d="M 505.222656 295.28125 L 394.644531 295.28125 L 394.644531 192.597656 L 505.222656 192.597656 L 505.222656 295.28125 "/><path style=" stroke:none;fill-rule:nonzero;fill:#f5ebd1;fill-opacity:1;" d="M 403.585938 286.328125 L 496.277344 286.328125 L 496.277344 201.550781 L 403.585938 201.550781 Z M 514.167969 304.234375 L 385.695312 304.234375 L 385.695312 183.644531 L 514.167969 183.644531 L 514.167969 304.234375 "/><path style=" stroke:none;fill-rule:nonzero;fill:#d3c6a9;fill-opacity:1;" d="M 107.535156 445.414062 C 124.113281 444.371094 140.695312 443.851562 157.269531 443.449219 C 173.847656 443.082031 190.425781 442.910156 207.007812 442.90625 C 223.585938 442.902344 240.164062 443.078125 256.746094 443.445312 C 273.324219 443.828125 289.898438 444.371094 306.476562 445.414062 C 289.898438 446.457031 273.324219 446.996094 256.746094 447.386719 C 240.164062 447.753906 223.585938 447.921875 207.007812 447.917969 C 190.425781 447.917969 173.847656 447.742188 157.269531 447.378906 C 140.695312 446.976562 124.113281 446.460938 107.535156 445.414062 "/><path style=" stroke:none;fill-rule:nonzero;fill:#d3c6a9;fill-opacity:1;" d="M 476.851562 838.738281 C 489.289062 838.066406 501.722656 837.730469 514.160156 837.46875 C 526.59375 837.234375 539.03125 837.125 551.464844 837.125 C 563.902344 837.117188 576.335938 837.230469 588.773438 837.464844 C 601.207031 837.714844 613.648438 838.066406 626.085938 838.738281 C 613.648438 839.414062 601.207031 839.761719 588.773438 840.011719 C 576.335938 840.25 563.902344 840.359375 551.464844 840.355469 C 539.03125 840.355469 526.59375 840.246094 514.160156 840.007812 C 501.722656 839.75 489.289062 839.414062 476.851562 838.738281 "/><path style=" stroke:none;fill-rule:nonzero;fill:#d3c6a9;fill-opacity:1;" d="M 256.175781 537.152344 C 263.5 547.703125 270.40625 558.492188 277.21875 569.34375 C 284.007812 580.207031 290.640625 591.160156 297.140625 602.191406 C 303.644531 613.21875 310.003906 624.335938 316.214844 635.539062 C 322.410156 646.753906 328.480469 658.039062 334.152344 669.5625 C 326.828125 659.007812 319.90625 648.226562 313.105469 637.375 C 306.316406 626.511719 299.683594 615.558594 293.191406 604.519531 C 286.691406 593.484375 280.332031 582.375 274.125 571.167969 C 267.9375 559.945312 261.851562 548.671875 256.175781 537.152344 "/><path style=" stroke:none;fill-rule:nonzero;fill:#d3c6a9;fill-opacity:1;" d="M 226.8125 612.449219 C 227.769531 625.253906 228.246094 638.0625 228.613281 650.867188 C 228.949219 663.675781 229.101562 676.480469 229.105469 689.289062 C 229.109375 702.09375 228.953125 714.902344 228.617188 727.707031 C 228.261719 740.515625 227.769531 753.324219 226.8125 766.128906 C 225.859375 753.324219 225.363281 740.515625 225.007812 727.707031 C 224.671875 714.902344 224.515625 702.09375 224.519531 689.289062 C 224.523438 676.480469 224.679688 663.675781 225.015625 650.867188 C 225.378906 638.0625 225.859375 625.253906 226.8125 612.449219 "/><path style=" stroke:none;fill-rule:nonzero;fill:#d3c6a9;fill-opacity:1;" d="M 429.726562 535.46875 C 430.679688 552.730469 431.15625 569.988281 431.519531 587.25 C 431.859375 604.511719 432.015625 621.773438 432.019531 639.035156 C 432.023438 656.292969 431.863281 673.554688 431.527344 690.816406 C 431.175781 708.070312 430.679688 725.332031 429.726562 742.59375 C 428.769531 725.332031 428.273438 708.070312 427.921875 690.816406 C 427.585938 673.554688 427.425781 656.292969 427.429688 639.035156 C 427.429688 621.773438 427.589844 604.511719 427.925781 587.25 C 428.292969 569.988281 428.769531 552.730469 429.726562 535.46875 "/><g clip-rule="nonzero" clip-path="url(#d3e04bd613)"><path style=" stroke:none;fill-rule:nonzero;fill:#d3c6a9;fill-opacity:1;" d="M 452.269531 499.660156 C 453.222656 529.484375 453.699219 559.308594 454.066406 589.128906 C 454.402344 618.949219 454.5625 648.773438 454.5625 678.59375 C 454.566406 708.417969 454.40625 738.242188 454.070312 768.0625 C 453.71875 797.882812 453.222656 827.707031 452.269531 857.527344 C 451.3125 827.707031 450.820312 797.882812 450.464844 768.0625 C 450.128906 738.242188 449.96875 708.417969 449.972656 678.59375 C 449.980469 648.773438 450.136719 618.949219 450.46875 589.128906 C 450.835938 559.308594 451.3125 529.484375 452.269531 499.660156 "/></g><path style=" stroke:none;fill-rule:nonzero;fill:#d3c6a9;fill-opacity:1;" d="M 234.6875 526.515625 C 235.640625 539.324219 236.121094 552.128906 236.484375 564.9375 C 236.824219 577.742188 236.976562 590.550781 236.980469 603.355469 C 236.984375 616.164062 236.828125 628.96875 236.488281 641.777344 C 236.136719 654.582031 235.640625 667.390625 234.6875 680.195312 C 233.730469 667.390625 233.238281 654.582031 232.882812 641.777344 C 232.546875 628.96875 232.390625 616.164062 232.394531 603.355469 C 232.394531 590.550781 232.550781 577.742188 232.886719 564.9375 C 233.253906 552.128906 233.730469 539.324219 234.6875 526.515625 "/><path style=" stroke:none;fill-rule:nonzero;fill:#d3c6a9;fill-opacity:1;" d="M 665.199219 526.515625 C 666.152344 535.898438 666.628906 545.28125 666.996094 554.667969 C 667.335938 564.050781 667.492188 573.433594 667.492188 582.816406 C 667.496094 592.199219 667.339844 601.585938 667.007812 610.96875 C 666.648438 620.351562 666.152344 629.734375 665.199219 639.121094 C 664.242188 629.734375 663.75 620.351562 663.394531 610.96875 C 663.058594 601.585938 662.902344 592.199219 662.910156 582.816406 C 662.910156 573.433594 663.066406 564.050781 663.402344 554.667969 C 663.769531 545.28125 664.242188 535.898438 665.199219 526.515625 "/><path style=" stroke:none;fill-rule:nonzero;fill:#d3c6a9;fill-opacity:1;" d="M 674.148438 613.164062 C 675.101562 622.546875 675.578125 631.933594 675.945312 641.316406 C 676.28125 650.699219 676.4375 660.082031 676.441406 669.46875 C 676.445312 678.851562 676.285156 688.234375 675.949219 697.617188 C 675.597656 707 675.101562 716.382812 674.148438 725.765625 C 673.191406 716.382812 672.695312 707 672.34375 697.617188 C 672.007812 688.234375 671.847656 678.851562 671.851562 669.46875 C 671.851562 660.082031 672.011719 650.699219 672.347656 641.316406 C 672.714844 631.933594 673.191406 622.546875 674.148438 613.164062 "/><path style=" stroke:none;fill-rule:nonzero;fill:#d3c6a9;fill-opacity:1;" d="M 551.289062 453.648438 C 554.53125 453.195312 557.777344 452.789062 561.023438 452.421875 C 564.273438 452.070312 567.527344 451.75 570.777344 451.441406 C 574.03125 451.164062 577.289062 450.894531 580.546875 450.652344 L 585.429688 450.324219 C 587.0625 450.226562 588.691406 450.109375 590.320312 450.023438 C 603.363281 449.296875 616.425781 448.945312 629.480469 448.941406 C 642.542969 448.9375 655.601562 449.289062 668.644531 450.011719 L 673.53125 450.320312 L 678.421875 450.644531 C 681.675781 450.886719 684.933594 451.15625 688.1875 451.4375 C 691.4375 451.746094 694.695312 452.066406 697.9375 452.417969 C 701.1875 452.785156 704.4375 453.195312 707.675781 453.648438 C 704.40625 453.816406 701.140625 453.9375 697.875 454.015625 C 694.609375 454.121094 691.347656 454.1875 688.085938 454.25 C 684.824219 454.316406 681.570312 454.375 678.308594 454.410156 L 673.421875 454.476562 L 668.535156 454.515625 C 655.511719 454.632812 642.496094 454.675781 629.480469 454.671875 C 616.464844 454.667969 603.453125 454.625 590.425781 454.507812 C 588.800781 454.507812 587.171875 454.484375 585.542969 454.464844 L 580.65625 454.398438 C 577.398438 454.367188 574.136719 454.3125 570.875 454.246094 C 567.617188 454.183594 564.355469 454.117188 561.089844 454.007812 C 557.828125 453.933594 554.558594 453.8125 551.289062 453.648438 "/><path style=" stroke:none;fill-rule:nonzero;fill:#d3c6a9;fill-opacity:1;" d="M 512.636719 519.785156 C 515.074219 519.480469 517.507812 519.203125 519.945312 518.957031 C 522.382812 518.71875 524.828125 518.503906 527.269531 518.296875 C 529.707031 518.109375 532.15625 517.929688 534.597656 517.765625 L 538.269531 517.546875 C 539.492188 517.476562 540.710938 517.402344 541.933594 517.339844 C 551.726562 516.851562 561.527344 516.617188 571.328125 516.613281 C 581.128906 516.613281 590.933594 516.847656 600.722656 517.335938 L 604.394531 517.542969 L 608.058594 517.757812 C 610.507812 517.925781 612.949219 518.105469 615.390625 518.292969 C 617.832031 518.5 620.273438 518.714844 622.710938 518.957031 C 625.152344 519.203125 627.585938 519.476562 630.019531 519.785156 C 627.5625 519.894531 625.113281 519.976562 622.664062 520.03125 C 620.214844 520.105469 617.761719 520.152344 615.316406 520.191406 C 612.867188 520.238281 610.421875 520.277344 607.980469 520.296875 L 604.308594 520.339844 L 600.640625 520.371094 C 590.867188 520.445312 581.101562 520.476562 571.328125 520.472656 C 561.5625 520.472656 551.789062 520.441406 542.015625 520.363281 C 540.792969 520.363281 539.574219 520.34375 538.347656 520.335938 L 534.683594 520.289062 C 532.234375 520.265625 529.789062 520.234375 527.339844 520.1875 C 524.894531 520.148438 522.449219 520.101562 519.996094 520.027344 C 517.546875 519.976562 515.09375 519.894531 512.636719 519.785156 "/><path style=" stroke:none;fill-rule:nonzero;fill:#d3c6a9;fill-opacity:1;" d="M 239.941406 466.183594 C 272.5 467.195312 305.03125 468.183594 337.566406 468.835938 C 370.097656 469.492188 402.628906 469.808594 435.160156 469.8125 C 467.691406 469.800781 500.222656 469.488281 532.753906 468.832031 C 565.289062 468.175781 597.820312 467.183594 630.378906 466.183594 C 597.949219 469.265625 565.429688 471.347656 532.878906 472.738281 C 500.328125 474.125 467.742188 474.835938 435.160156 474.824219 C 402.578125 474.828125 369.992188 474.121094 337.445312 472.730469 C 304.894531 471.339844 272.371094 469.261719 239.941406 466.183594 "/><path style=" stroke:none;fill-rule:nonzero;fill:#bc6c2b;fill-opacity:1;" d="M 80.875 358.585938 C 86.207031 346.609375 91.753906 334.734375 97.28125 322.851562 L 105.671875 305.074219 C 108.46875 299.148438 111.324219 293.25 114.148438 287.34375 L 118.394531 278.480469 L 122.675781 269.636719 L 131.289062 251.972656 L 139.964844 234.335938 L 148.699219 216.730469 L 149.042969 216.035156 L 149.722656 215.660156 L 166.550781 206.363281 L 183.40625 197.125 L 200.296875 187.945312 C 205.921875 184.882812 211.578125 181.863281 217.226562 178.839844 L 225.699219 174.300781 C 228.523438 172.785156 231.347656 171.277344 234.183594 169.78125 L 251.1875 160.8125 C 262.558594 154.894531 273.925781 148.960938 285.390625 143.21875 C 274.453125 149.917969 263.410156 156.425781 252.371094 162.941406 L 235.761719 172.628906 C 232.996094 174.25 230.21875 175.84375 227.4375 177.4375 L 219.105469 182.230469 C 213.550781 185.421875 208 188.621094 202.421875 191.785156 L 185.699219 201.257812 L 168.941406 210.675781 L 152.152344 220.035156 L 153.179688 218.964844 L 144.398438 236.546875 L 135.554688 254.09375 L 126.644531 271.613281 L 122.175781 280.363281 L 117.664062 289.09375 C 114.648438 294.910156 111.664062 300.742188 108.625 306.546875 L 99.5 323.953125 C 93.347656 335.527344 87.214844 347.109375 80.875 358.585938 "/><path style=" stroke:none;fill-rule:nonzero;fill:#bc6c2b;fill-opacity:1;" d="M 193.246094 209.636719 C 207.238281 200.734375 221.480469 192.300781 235.78125 183.960938 C 250.101562 175.652344 264.515625 167.519531 279.011719 159.527344 C 293.503906 151.539062 308.082031 143.703125 322.753906 136.039062 C 337.4375 128.390625 352.195312 120.882812 367.191406 113.808594 C 353.199219 122.710938 338.960938 131.167969 324.65625 139.496094 C 310.335938 147.800781 295.921875 155.9375 281.421875 163.917969 C 266.929688 171.902344 252.347656 179.738281 237.675781 187.402344 C 222.988281 195.039062 208.242188 202.566406 193.246094 209.636719 "/><path style=" stroke:none;fill-rule:nonzero;fill:#bc6c2b;fill-opacity:1;" d="M 606.582031 139.460938 C 618.796875 144.503906 630.855469 149.875 642.886719 155.300781 C 654.898438 160.757812 666.847656 166.347656 678.753906 172.035156 C 690.660156 177.710938 702.511719 183.507812 714.324219 189.382812 C 726.132812 195.265625 737.894531 201.242188 749.589844 207.347656 L 750.121094 207.625 L 750.359375 208.066406 C 752 211.15625 753.617188 214.257812 755.238281 217.355469 C 756.855469 220.453125 758.460938 223.5625 760.046875 226.683594 C 761.644531 229.796875 763.242188 232.910156 764.792969 236.042969 C 766.367188 239.171875 767.914062 242.308594 769.433594 245.472656 C 767.511719 242.535156 765.628906 239.589844 763.765625 236.628906 C 761.882812 233.675781 760.042969 230.699219 758.199219 227.726562 C 756.347656 224.757812 754.523438 221.773438 752.699219 218.785156 C 750.886719 215.796875 749.066406 212.8125 747.277344 209.808594 L 748.039062 210.53125 C 736.035156 205.058594 724.085938 199.457031 712.191406 193.753906 C 700.296875 188.050781 688.441406 182.265625 676.640625 176.367188 C 664.839844 170.46875 653.082031 164.480469 641.394531 158.359375 C 629.71875 152.203125 618.070312 146 606.582031 139.460938 "/><path style=" stroke:none;fill-rule:nonzero;fill:#bc6c2b;fill-opacity:1;" d="M 803.199219 378.015625 C 806.066406 382.253906 808.765625 386.578125 811.4375 390.921875 C 814.097656 395.273438 816.6875 399.652344 819.242188 404.058594 C 824.335938 412.875 829.257812 421.78125 834.03125 430.769531 C 838.800781 439.753906 843.417969 448.824219 847.863281 457.984375 C 850.082031 462.570312 852.261719 467.171875 854.367188 471.8125 C 856.46875 476.457031 858.535156 481.125 860.433594 485.871094 C 857.566406 481.636719 854.859375 477.3125 852.191406 472.96875 C 849.53125 468.621094 846.941406 464.238281 844.386719 459.832031 C 839.292969 451.015625 834.371094 442.109375 829.605469 433.117188 C 824.839844 424.132812 820.21875 415.0625 815.773438 405.902344 C 813.558594 401.316406 811.378906 396.714844 809.269531 392.074219 C 807.167969 387.429688 805.105469 382.761719 803.199219 378.015625 "/><path style=" stroke:none;fill-rule:nonzero;fill:#bc6c2b;fill-opacity:1;" d="M 471.308594 96.136719 C 481.96875 100.6875 492.398438 105.679688 502.757812 110.800781 C 513.101562 115.945312 523.355469 121.261719 533.53125 126.71875 C 543.703125 132.183594 553.796875 137.800781 563.796875 143.589844 C 573.789062 149.398438 583.703125 155.335938 593.386719 161.726562 C 582.71875 157.179688 572.289062 152.1875 561.933594 147.0625 C 551.585938 141.921875 541.332031 136.609375 531.160156 131.140625 C 520.988281 125.671875 510.898438 120.054688 500.898438 114.261719 C 490.90625 108.457031 480.988281 102.515625 471.308594 96.136719 "/><path style=" stroke:none;fill-rule:nonzero;fill:#bc6c2b;fill-opacity:1;" d="M 42.582031 499.660156 C 44.117188 494.535156 46.054688 489.605469 48.097656 484.726562 C 50.15625 479.859375 52.367188 475.0625 54.703125 470.332031 C 57.042969 465.601562 59.515625 460.9375 62.136719 456.347656 C 64.78125 451.765625 67.527344 447.238281 70.675781 442.90625 C 69.140625 448.039062 67.207031 452.96875 65.164062 457.84375 C 63.105469 462.714844 60.894531 467.507812 58.550781 472.238281 C 56.207031 476.964844 53.734375 481.632812 51.113281 486.222656 C 48.46875 490.800781 45.726562 495.332031 42.582031 499.660156 "/></g></svg>