<svg xmlns="http://www.w3.org/2000/svg" xmlns:xlink="http://www.w3.org/1999/xlink" width="1200" zoomAndPan="magnify" viewBox="0 0 900 899.99999" height="1200" preserveAspectRatio="xMidYMid meet" version="1.2"><g id="ac30b5b66f"><path style=" stroke:none;fill-rule:nonzero;fill:#000000;fill-opacity:1;" d="M 520.164062 200.589844 C 623.050781 200.589844 725.945312 200.566406 828.839844 200.519531 C 837.730469 200.519531 846.238281 200.953125 854.109375 205.8125 C 863.902344 211.886719 870.109375 224.21875 868.136719 235.433594 C 861.050781 275.542969 853.699219 315.601562 846.636719 355.738281 C 837.8125 405.566406 829.042969 455.410156 820.332031 505.261719 C 819.621094 509.269531 818.574219 513.214844 817.601562 517.171875 C 813.460938 533.933594 804.363281 542.222656 787.375 543.640625 C 754.25 546.347656 721.085938 548.523438 687.972656 551.28125 C 652.574219 554.226562 617.207031 557.609375 581.808594 560.734375 C 566.71875 562.066406 551.621094 563.296875 536.515625 564.429688 C 500.417969 567.113281 464.40625 569.578125 428.367188 572.355469 C 383.628906 575.796875 338.902344 579.367188 294.179688 583.0625 C 283.15625 583.953125 272.160156 585.734375 261.136719 585.890625 C 245.421875 586.109375 234.378906 577.46875 231.1875 561.902344 C 226.039062 536.855469 221.816406 511.601562 217.242188 486.4375 C 206.925781 429.789062 196.628906 373.132812 186.355469 316.46875 C 181.6875 290.734375 176.96875 264.992188 172.421875 239.234375 C 168.679688 218.035156 182.550781 201.386719 204.5 200.734375 C 213.847656 200.472656 223.210938 200.675781 232.558594 200.675781 Z M 392.992188 347.460938 L 363.257812 347.460938 C 362.667969 347.460938 362.054688 347.460938 361.515625 347.460938 C 346.738281 347.386719 345.246094 345.59375 346.484375 362.304688 C 347.941406 382.023438 349.300781 401.742188 350.9375 421.433594 C 351.660156 430 353.609375 431.492188 361.949219 430.949219 C 375.875 430.054688 389.785156 429.09375 403.6875 428.074219 C 412.941406 427.378906 422.171875 426.308594 431.4375 425.742188 C 437.453125 425.382812 441.710938 424.453125 439.246094 416.632812 C 438.234375 413.433594 438.882812 409.691406 438.824219 406.191406 C 438.558594 389.351562 438.152344 372.398438 438.125 355.496094 C 438.125 349.421875 435.550781 347.304688 429.703125 347.410156 C 417.476562 347.617188 405.253906 347.460938 392.992188 347.460938 Z M 523.414062 238.96875 C 509.445312 238.96875 495.460938 239.125 481.492188 238.898438 C 475.632812 238.8125 472.925781 240.820312 473.261719 246.96875 C 474.308594 266.6875 475.125 286.417969 476.054688 306.148438 C 476.257812 310.441406 478.664062 312.164062 482.828125 312.164062 C 489.820312 312.101562 496.808594 312.164062 503.789062 312.164062 C 523.039062 312.164062 542.292969 312.089844 561.449219 312.164062 C 566.898438 312.164062 570.726562 310.394531 570.859375 304.488281 C 571.304688 284.683594 571.59375 264.894531 571.84375 245.105469 C 571.84375 240.90625 569.703125 238.871094 565.347656 238.898438 C 551.378906 239.027344 537.394531 238.96875 523.414062 238.96875 Z M 662.921875 238.96875 C 648.9375 238.96875 634.96875 239.089844 620.988281 238.96875 C 614.800781 238.898438 610.757812 240.859375 610.652344 247.691406 C 610.351562 266.941406 610.121094 286.117188 609.761719 305.328125 C 609.664062 310.683594 612.445312 312.257812 617.328125 312.246094 C 644.125 312.175781 670.910156 312.246094 697.707031 312.246094 C 701.652344 312.246094 704.503906 310.800781 704.832031 306.4375 C 706.296875 286.753906 707.644531 267.058594 709.1875 247.378906 C 709.644531 241.507812 707.464844 238.859375 701.351562 238.957031 C 688.550781 239.136719 675.734375 238.980469 662.921875 238.96875 Z M 386.578125 238.96875 C 372.597656 238.96875 358.613281 238.800781 344.632812 239.027344 C 336.210938 239.160156 335.679688 239.472656 336.210938 248.207031 C 337.316406 266.769531 339.039062 285.296875 340.410156 303.835938 C 340.914062 310.671875 344.96875 312.257812 351.09375 312.257812 C 376.144531 312.089844 401.210938 312.03125 426.261719 312.320312 C 432.976562 312.402344 435.769531 310.175781 435.597656 303.367188 C 435.117188 284.734375 434.710938 266.074219 434.816406 247.449219 C 434.816406 240.027344 431.125 238.835938 425.046875 238.933594 C 412.21875 239.089844 399.40625 238.957031 386.578125 238.96875 Z M 523.980469 347.472656 C 511.140625 347.472656 498.289062 347.59375 485.476562 347.410156 C 480.046875 347.339844 476.488281 348.410156 476.824219 354.992188 C 477.882812 375.921875 478.699219 396.878906 479.640625 417.824219 C 479.832031 421.953125 481.78125 424.179688 486.246094 423.925781 C 507.183594 422.722656 528.128906 421.6875 549.066406 420.425781 C 553.109375 420.171875 557.082031 418.933594 561.101562 418.558594 C 566.417969 418.078125 567.695312 414.949219 567.730469 410.234375 C 567.898438 392.1875 567.945312 374.035156 568.597656 355.953125 C 568.875 348.457031 565.203125 347.253906 559.042969 347.375 C 547.347656 347.617188 535.664062 347.449219 523.980469 347.472656 Z M 655.269531 347.472656 C 641.839844 347.472656 628.421875 347.53125 614.996094 347.472656 C 610.277344 347.472656 607.222656 348.675781 607.171875 354.246094 C 607.003906 372.917969 606.632812 391.539062 606.332031 410.257812 C 606.246094 415.550781 608.738281 417.222656 613.984375 416.863281 C 632.03125 415.660156 650.023438 414.902344 668.035156 413.734375 C 674.976562 413.289062 681.871094 412.003906 688.816406 411.496094 C 693.183594 411.171875 694.925781 408.753906 695.515625 404.941406 C 696.226562 400.359375 697.058594 395.785156 697.476562 391.179688 C 698.5625 379.59375 699.308594 367.984375 700.460938 356.421875 C 701.21875 348.808594 700.558594 347.675781 692.039062 347.519531 C 679.789062 347.265625 667.566406 347.433594 655.269531 347.433594 Z M 269.898438 347.472656 C 261.703125 347.472656 253.519531 347.351562 245.339844 347.472656 C 233.4375 347.6875 232.765625 347.867188 234.425781 359.164062 C 237.820312 382.191406 241.921875 405.097656 245.941406 428.015625 C 246.664062 432.179688 248.695312 435.859375 253.929688 435.667969 C 270.269531 435.101562 286.648438 434.957031 302.9375 433.707031 C 311.566406 433.042969 312.566406 431.300781 312.046875 422.324219 C 310.785156 401.957031 309.0625 381.613281 307.441406 361.269531 C 307.308594 359.550781 306.238281 357.914062 306.128906 356.207031 C 305.695312 349.914062 303.070312 346.882812 296.1875 347.316406 C 287.453125 347.855469 278.65625 347.449219 269.898438 347.433594 Z M 442.433594 498.082031 L 441.496094 498.082031 C 441.496094 488.15625 441.605469 478.21875 441.496094 468.292969 C 441.410156 462.386719 438.332031 460.183594 432.351562 461.074219 C 425.445312 462.039062 418.453125 462.386719 411.484375 462.867188 C 395.84375 463.949219 380.105469 465.152344 364.402344 465.886719 C 358.167969 466.175781 356.351562 469.039062 356.808594 474.71875 C 358.363281 493.882812 359.757812 513.058594 361.238281 532.234375 C 361.707031 538.25 366.148438 537.925781 370.25 537.660156 C 391.777344 536.265625 413.277344 534.605469 434.804688 533.390625 C 441.0625 533.042969 442.636719 529.914062 442.53125 524.414062 C 442.300781 515.609375 442.433594 506.839844 442.433594 498.082031 Z M 254.265625 238.980469 C 243.210938 238.980469 232.164062 239.171875 221.117188 238.910156 C 214.882812 238.765625 212.695312 241.316406 213.777344 247.328125 C 217.253906 266.097656 220.875 284.851562 224.015625 303.679688 C 225.113281 310.285156 228.589844 312.292969 234.726562 312.246094 C 254.507812 312.101562 274.277344 312.054688 294.046875 312.246094 C 300.425781 312.304688 302.0625 309.226562 301.605469 303.632812 C 300.101562 285.128906 298.59375 266.625 297.308594 248.125 C 296.863281 241.675781 293.988281 238.777344 287.417969 238.921875 C 276.371094 239.148438 265.3125 238.980469 254.265625 238.980469 Z M 565.046875 490.238281 C 565.046875 479.351562 565.15625 469.402344 565.046875 459.476562 C 565.046875 455.359375 563.167969 453.675781 558.40625 454.039062 C 542.125 455.242188 525.785156 455.699219 509.480469 456.71875 C 501.949219 457.203125 494.476562 458.597656 486.941406 459.054688 C 481.503906 459.378906 480.191406 462.132812 480.289062 466.96875 C 480.660156 483.332031 480.734375 499.707031 481.105469 516.066406 C 481.179688 518.929688 481.492188 522.152344 482.886719 524.488281 C 484.089844 526.460938 487.039062 528.699219 489.121094 528.601562 C 503.667969 527.941406 518.238281 527.050781 532.726562 525.535156 C 542.96875 524.453125 553.097656 522.285156 563.277344 520.601562 C 563.855469 510.148438 564.480469 499.707031 565.046875 490.238281 Z M 603.550781 486.339844 L 603.082031 486.339844 C 603.082031 493.917969 602.996094 501.511719 603.082031 509.089844 C 603.226562 519.207031 603.324219 519.664062 612.503906 518.929688 C 635.113281 517.101562 657.675781 514.78125 680.257812 512.699219 C 684.132812 512.347656 686.746094 511.085938 687.082031 506.574219 C 688.285156 490.332031 689.957031 474.09375 690.859375 457.863281 C 691.449219 447.503906 690.042969 446.625 680.296875 447.554688 C 674.507812 448.09375 668.707031 448.5625 662.894531 448.757812 C 650.648438 449.238281 638.351562 448.949219 626.160156 450.03125 C 603.875 452.015625 603.898438 452.328125 603.550781 474.09375 C 603.503906 478.132812 603.5625 482.214844 603.5625 486.304688 Z M 789.457031 238.980469 C 780.105469 238.980469 770.769531 238.859375 761.417969 238.980469 C 751.109375 239.136719 750.335938 239.148438 749.085938 248.976562 C 746.753906 267.433594 745.476562 286.007812 743.648438 304.535156 C 743.167969 309.550781 745.054688 312.175781 750.421875 312.148438 C 769.109375 312.078125 787.796875 312.003906 806.480469 312.222656 C 812.90625 312.292969 815.914062 309.683594 816.972656 303.320312 C 820.089844 284.40625 823.59375 265.554688 827.058594 246.703125 C 827.984375 241.617188 826.566406 238.882812 821.042969 238.933594 C 810.476562 239.054688 799.925781 238.980469 789.457031 238.980469 Z M 321.976562 531.320312 C 320.699219 514.480469 319.472656 497.636719 318.089844 480.792969 C 317.894531 478.507812 316.644531 476.304688 316.402344 474.019531 C 315.851562 468.859375 313.203125 467.199219 308.136719 467.597656 C 293.613281 468.726562 279.054688 469.519531 264.519531 470.484375 C 255.457031 471.085938 254.304688 472.167969 255.796875 481.058594 C 259.09375 500.558594 262.796875 520 266.25 539.476562 C 267.09375 544.289062 269.523438 546.828125 274.519531 546.445312 C 286.71875 545.503906 298.921875 544.496094 311.121094 543.566406 C 322.539062 542.691406 322.539062 542.726562 321.976562 531.371094 Z M 775.136719 347.449219 C 765.789062 347.449219 756.4375 347.554688 747.101562 347.449219 C 741.949219 347.363281 739.988281 349.746094 739.605469 354.738281 C 738.402344 370.378906 736.835938 386.015625 735.476562 401.730469 C 734.875 408.527344 736.332031 410.148438 742.695312 409.65625 C 751.984375 408.972656 761.238281 407.972656 770.527344 407.359375 C 777.519531 406.914062 784.617188 407.359375 791.511719 406.386719 C 794.304688 405.976562 798.433594 403.0625 798.9375 400.660156 C 802.078125 385.871094 804.339844 370.90625 806.914062 356 C 807.902344 350.238281 806 347.207031 799.695312 347.386719 C 791.5 347.628906 783.320312 347.449219 775.136719 347.449219 Z M 737.621094 508.777344 C 750.195312 507.574219 761.769531 506.371094 773.367188 505.433594 C 778.074219 505.035156 781.019531 503.027344 781.792969 498.214844 C 784.714844 481.023438 787.710938 463.84375 790.359375 446.613281 C 790.574219 445.253906 788.347656 442.164062 787.363281 442.210938 C 769.914062 443.011719 752.484375 444.035156 735.066406 445.28125 C 730.664062 445.605469 730.171875 449.382812 729.871094 453.085938 C 728.773438 467.007812 727.464844 480.914062 726.34375 494.84375 C 726.105469 497.746094 725.441406 500.859375 726.34375 503.507812 C 727.042969 505.613281 729.507812 507.632812 731.675781 508.570312 C 733.648438 509.484375 736.273438 508.777344 737.621094 508.777344 Z M 737.621094 508.777344 "/><path style=" stroke:none;fill-rule:nonzero;fill:#000000;fill-opacity:1;" d="M 534.230469 698.664062 C 444.746094 698.664062 355.246094 698.472656 265.769531 698.832031 C 247.722656 698.90625 232.824219 693.648438 220.359375 680.546875 C 202.851562 662.152344 201.539062 632.980469 214.007812 610.46875 C 218.53125 602.300781 223.632812 594.421875 227.613281 586.011719 C 228.582031 583.972656 229.238281 581.835938 229.589844 579.601562 C 229.9375 577.371094 229.960938 575.136719 229.660156 572.898438 C 217.761719 505.875 205.378906 438.925781 193.476562 371.917969 C 182.433594 310.03125 171.820312 248.085938 160.929688 186.167969 C 157.320312 165.523438 153.542969 144.914062 150.183594 124.234375 C 148.898438 116.367188 145.371094 112.203125 137.058594 110.84375 C 114.0625 107.089844 91.199219 102.519531 68.339844 98.296875 C 61.46875 97.03125 54.523438 96.117188 47.714844 94.613281 C 36.886719 92.207031 30.121094 83.210938 31.230469 73.210938 C 32.433594 62.757812 42.058594 54.9375 53.863281 56.371094 C 68.300781 58.1875 82.585938 61.085938 96.917969 63.683594 C 122.113281 68.246094 147.261719 73.082031 172.503906 77.421875 C 178.605469 78.46875 181.542969 80.886719 182.566406 87.203125 C 185.378906 104.417969 188.929688 121.515625 192.058594 138.683594 C 201.3125 189.644531 210.683594 240.582031 219.660156 291.589844 C 230.863281 355.21875 241.609375 418.933594 252.75 482.574219 C 258.164062 513.503906 264.015625 544.375 269.753906 575.207031 C 271.269531 583.351562 271.078125 590.609375 266.023438 598.066406 C 259.226562 608.207031 254.699219 619.867188 247.972656 630.078125 C 239.960938 642.277344 247.203125 661.574219 265.792969 659.914062 C 269.847656 659.554688 273.976562 659.914062 278.066406 659.914062 L 800.960938 659.914062 C 805.628906 659.914062 810.378906 659.542969 814.964844 660.203125 C 815.582031 660.289062 816.195312 660.40625 816.800781 660.550781 C 817.40625 660.695312 818.003906 660.867188 818.59375 661.070312 C 819.183594 661.273438 819.761719 661.503906 820.328125 661.761719 C 820.898438 662.023438 821.449219 662.304688 821.988281 662.617188 C 822.53125 662.929688 823.054688 663.265625 823.5625 663.628906 C 824.066406 663.992188 824.558594 664.378906 825.027344 664.785156 C 825.496094 665.195312 825.945312 665.625 826.375 666.078125 C 826.804688 666.53125 827.210938 667.003906 827.59375 667.496094 C 827.976562 667.988281 828.332031 668.496094 828.667969 669.023438 C 829 669.550781 829.308594 670.089844 829.589844 670.644531 C 829.871094 671.203125 830.128906 671.769531 830.355469 672.351562 C 830.582031 672.929688 830.78125 673.519531 830.949219 674.121094 C 831.121094 674.71875 831.261719 675.328125 831.371094 675.941406 C 831.484375 676.554688 831.566406 677.171875 831.617188 677.792969 C 831.667969 678.414062 831.691406 679.035156 831.683594 679.65625 C 831.675781 680.28125 831.636719 680.902344 831.570312 681.523438 C 830.621094 692.074219 824.410156 697.945312 813.207031 698.582031 C 808.550781 698.859375 803.859375 698.675781 799.179688 698.675781 Z M 534.230469 698.664062 "/><path style=" stroke:none;fill-rule:nonzero;fill:#000000;fill-opacity:1;" d="M 687.347656 779.980469 C 684.941406 749.902344 713.820312 714.691406 751.035156 715.28125 C 786.472656 715.832031 815.855469 740.6875 816.359375 778.4375 C 816.855469 814.0625 792.296875 844.234375 751.78125 844.234375 C 709.679688 844.222656 685.902344 809.164062 687.347656 779.980469 Z M 752.324219 750.433594 C 734.839844 750.433594 722.035156 762.992188 722.324219 779.96875 C 722.601562 796.246094 736.429688 809.527344 753.128906 809.550781 C 766.785156 809.550781 781.875 793.585938 781.753906 779.222656 C 781.574219 763.871094 767.894531 750.480469 752.273438 750.433594 Z M 752.324219 750.433594 "/><path style=" stroke:none;fill-rule:nonzero;fill:#000000;fill-opacity:1;" d="M 389.71875 780.171875 C 389.574219 815.421875 360.9375 844.957031 327.066406 844.789062 C 290.113281 844.605469 262.785156 816.058594 261.738281 779.003906 C 260.777344 744.597656 291.820312 714.703125 326.320312 714.964844 C 359.421875 715.265625 392.789062 745.65625 389.71875 780.171875 Z M 354.714844 781.773438 C 355.460938 764.929688 344.367188 751.480469 328.929688 750.492188 C 311.289062 749.421875 298.101562 760.863281 297.019531 777.453125 C 295.898438 794.511719 307.308594 808.046875 324.695312 808.960938 C 325.636719 809.023438 326.578125 809.042969 327.519531 809.011719 C 328.460938 808.980469 329.402344 808.90625 330.335938 808.78125 C 331.269531 808.65625 332.195312 808.484375 333.113281 808.265625 C 334.03125 808.046875 334.9375 807.785156 335.828125 807.476562 C 336.71875 807.167969 337.59375 806.816406 338.449219 806.417969 C 339.304688 806.019531 340.136719 805.582031 340.949219 805.101562 C 341.757812 804.621094 342.542969 804.101562 343.304688 803.542969 C 344.0625 802.980469 344.792969 802.386719 345.492188 801.753906 C 346.191406 801.117188 346.855469 800.453125 347.488281 799.753906 C 348.117188 799.050781 348.714844 798.324219 349.273438 797.5625 C 349.832031 796.804688 350.351562 796.015625 350.828125 795.203125 C 351.308594 794.394531 351.746094 793.558594 352.140625 792.703125 C 352.535156 791.847656 352.886719 790.972656 353.195312 790.082031 C 353.5 789.191406 353.765625 788.285156 353.980469 787.367188 C 354.195312 786.449219 354.367188 785.523438 354.488281 784.589844 C 354.613281 783.652344 354.6875 782.714844 354.714844 781.773438 Z M 354.714844 781.773438 "/></g></svg>