<svg xmlns="http://www.w3.org/2000/svg" xmlns:xlink="http://www.w3.org/1999/xlink" width="1200" zoomAndPan="magnify" viewBox="0 0 900 899.99999" height="1200" preserveAspectRatio="xMidYMid meet" version="1.2"><defs><clipPath id="033c4f76a7"><path d="M 114 183 L 785.851562 183 L 785.851562 823 L 114 823 Z M 114 183 "/></clipPath><clipPath id="3e4ed23465"><path d="M 380 77.023438 L 616 77.023438 L 616 233 L 380 233 Z M 380 77.023438 "/></clipPath></defs><g id="d335ac6950"><g clip-rule="nonzero" clip-path="url(#033c4f76a7)"><path style=" stroke:none;fill-rule:nonzero;fill:#fd0000;fill-opacity:1;" d="M 355.011719 225.210938 C 335.800781 225.308594 316.632812 226.085938 297.523438 228.21875 C 282.632812 229.886719 267.886719 232.222656 253.375 235.941406 C 197.667969 250.242188 158.214844 284.007812 133.910156 335.910156 C 124.449219 356.125 122.117188 378.085938 118.636719 399.742188 C 116.511719 412.957031 115.707031 426.335938 115.21875 439.695312 C 114.632812 455.949219 113.925781 472.214844 114.921875 488.511719 C 115.800781 503.121094 117.453125 517.640625 119.886719 532.074219 C 123.53125 553.652344 130.507812 574.253906 139.074219 594.296875 C 151.304688 622.917969 166.890625 649.726562 184.058594 675.628906 C 196.695312 694.675781 210.503906 712.828125 226.027344 729.625 C 238.636719 743.257812 252.277344 755.832031 266.082031 768.207031 C 276.183594 777.273438 286.542969 786.042969 298.089844 793.308594 C 310.703125 801.238281 323.953125 807.8125 338.105469 812.566406 C 338.3125 812.761719 338.542969 812.925781 338.796875 813.054688 C 350.511719 817.273438 361.851562 822.648438 374.765625 822.824219 C 380.972656 822.914062 387.117188 823.273438 393.269531 822.164062 C 404.070312 820.210938 414.296875 816.414062 424.558594 812.703125 C 436.460938 808.394531 448.261719 803.882812 460.808594 801.539062 C 464.167969 800.914062 467.527344 800.367188 470.890625 799.90625 C 478.699219 798.816406 486.507812 798.125 494.390625 797.675781 C 498.523438 797.441406 502.710938 796.804688 506.785156 797.230469 C 513.285156 797.898438 519.691406 799.460938 526.175781 800.351562 C 533.453125 801.328125 540.632812 802.910156 547.945312 803.648438 C 553.929688 804.25 559.90625 804.625 565.90625 804.933594 C 575.554688 805.464844 585.230469 806.207031 594.816406 804.746094 C 613.113281 801.96875 629.242188 794.339844 642.449219 781.300781 C 650.160156 773.6875 657.242188 765.425781 664.507812 757.371094 C 671.441406 749.691406 678.59375 742.171875 684.484375 733.644531 C 697.007812 715.503906 708.839844 696.917969 719.621094 677.664062 C 729.914062 659.304688 739.777344 640.78125 747.003906 620.941406 C 750.507812 611.324219 752.703125 601.28125 756.570312 591.816406 C 764.375 572.652344 771.453125 553.230469 775.878906 532.96875 C 778.953125 518.894531 781.535156 504.761719 782.890625 490.40625 C 783.90625 479.726562 784.84375 469.046875 785.28125 458.324219 C 785.769531 446.773438 784.277344 435.269531 784.722656 423.730469 C 784.886719 420.953125 784.800781 418.1875 784.46875 415.425781 C 783.003906 404.957031 781.34375 394.519531 779.332031 384.132812 C 775.304688 362.816406 769.652344 341.9375 762.386719 321.5 C 758.75 311.378906 753.523438 301.960938 749.511719 292.035156 C 743.074219 276.148438 733.707031 262.4375 721.738281 250.429688 C 710.953125 239.597656 699.929688 228.996094 688.207031 219.171875 C 673.648438 206.960938 657.414062 197.789062 639.046875 192.761719 C 618.003906 187 596.628906 183.222656 574.722656 183.128906 "/></g><path style=" stroke:none;fill-rule:nonzero;fill:#d10001;fill-opacity:1;" d="M 355.011719 225.109375 C 354.746094 226.691406 361.914062 240.320312 360.867188 240.675781 C 354.523438 242.875 344.464844 245.632812 339.0625 249.617188 C 334.382812 253.074219 329.988281 257.03125 329.445312 263.484375 C 329.308594 265.128906 328.382812 265.203125 327.203125 264.714844 C 326.289062 264.339844 325.417969 263.882812 324.589844 263.34375 C 321.488281 261.273438 318.425781 259.132812 315.316406 257.058594 C 314.1875 256.292969 313.140625 255.933594 311.949219 257.226562 C 310.757812 258.523438 311.164062 259.546875 311.914062 260.648438 C 314.242188 264.066406 316.832031 267.1875 320.277344 269.675781 C 324.710938 272.875 329.613281 275.128906 334.429688 277.492188 C 349.496094 284.871094 365.722656 287.558594 382.253906 288.652344 C 393.019531 289.367188 403.316406 286.863281 413.488281 283.625 L 416.117188 282.773438 C 417.582031 282.285156 419.046875 281.792969 420.484375 281.304688 L 422.300781 280.679688 C 423.726562 280.191406 425.152344 279.703125 426.574219 279.175781 L 429.183594 278.253906 L 431.621094 277.382812 C 439.488281 274.585938 447.371094 271.828125 455.445312 269.636719 C 470.460938 265.570312 485.660156 262.683594 501.25 262.671875 C 511.964844 262.746094 522.589844 263.769531 533.121094 265.742188 C 540.828125 267.128906 548.773438 267.867188 556.058594 270.691406 C 570.210938 276.1875 582.777344 284.53125 593.882812 294.863281 C 603.984375 304.265625 612.621094 315.03125 620.914062 326.03125 C 633.601562 342.871094 645.394531 360.304688 653.289062 380.058594 C 657.78125 391.316406 662.019531 402.703125 664.300781 414.59375 C 667.640625 432.015625 669.253906 449.707031 670.910156 467.34375 C 671.820312 477.113281 672.5 486.9375 672.640625 496.746094 C 672.789062 506.691406 672.933594 516.632812 672.316406 526.609375 C 671.613281 537.972656 670.175781 549.242188 668.003906 560.421875 C 665.25 574.527344 661.511719 588.378906 656.292969 601.769531 C 653.621094 608.648438 650.136719 615.195312 647.308594 622.015625 C 639.277344 641.382812 633.058594 661.429688 624.984375 680.792969 C 621.644531 688.855469 617.585938 696.539062 612.808594 703.84375 C 608.03125 711.148438 602.617188 717.941406 596.566406 724.230469 C 587.011719 734.171875 577.046875 743.6875 566.273438 752.335938 C 558.492188 758.566406 550.679688 764.652344 541.535156 768.773438 C 535.324219 771.578125 529.042969 773.542969 521.96875 773.488281 C 508.578125 773.378906 495.167969 772.671875 481.785156 773.914062 C 477.101562 774.351562 472.492188 775.175781 467.949219 776.390625 L 467.460938 776.519531 C 466.972656 776.664062 466.429688 776.808594 465.921875 776.960938 L 465.113281 777.199219 L 463.820312 777.601562 C 463.113281 777.828125 462.410156 778.089844 461.707031 778.308594 C 461.332031 778.433594 460.949219 778.570312 460.578125 778.714844 L 459.554688 779.09375 L 458.511719 779.5 C 458.164062 779.632812 457.816406 779.773438 457.476562 779.914062 C 456.796875 780.1875 456.121094 780.476562 455.449219 780.769531 C 453.5 781.628906 451.574219 782.558594 449.671875 783.558594 C 449.464844 783.660156 449.253906 783.777344 449.039062 783.890625 L 448.339844 784.265625 C 448.027344 784.441406 447.707031 784.613281 447.363281 784.792969 C 446.367188 785.351562 445.371094 785.929688 444.378906 786.53125 C 429.578125 795.503906 415.199219 805.191406 398.578125 810.75 C 386.066406 814.929688 373.425781 816.550781 360.335938 814.421875 C 352.917969 813.214844 345.472656 812.015625 337.910156 812.511719 L 337.984375 812.511719 C 338.191406 812.707031 338.421875 812.871094 338.675781 813 C 350.390625 817.21875 361.730469 822.59375 374.640625 822.769531 C 377.25 822.808594 379.84375 822.890625 382.449219 822.894531 C 385.882812 822.933594 389.289062 822.671875 392.675781 822.109375 C 403.472656 820.15625 413.703125 816.359375 423.964844 812.648438 C 435.867188 808.339844 447.667969 803.828125 460.214844 801.484375 C 463.570312 800.859375 466.933594 800.316406 470.296875 799.851562 C 478.105469 798.761719 485.914062 798.070312 493.792969 797.621094 C 496.984375 797.441406 500.199219 797.023438 503.378906 797.039062 C 504.480469 797.023438 505.578125 797.070312 506.675781 797.175781 C 513.175781 797.84375 519.585938 799.40625 526.070312 800.296875 C 533.347656 801.273438 540.523438 802.855469 547.839844 803.59375 C 553.824219 804.195312 559.800781 804.570312 565.796875 804.878906 C 571.167969 805.171875 576.503906 805.53125 581.847656 805.542969 C 585.992188 805.570312 590.117188 805.285156 594.21875 804.691406 C 612.519531 801.914062 628.648438 794.285156 641.855469 781.25 C 649.5625 773.632812 656.644531 765.371094 663.910156 757.316406 C 670.847656 749.636719 678 742.117188 683.890625 733.589844 C 696.414062 715.449219 708.246094 696.863281 719.027344 677.613281 C 729.316406 659.253906 739.179688 640.726562 746.410156 620.886719 C 749.914062 611.269531 752.109375 601.226562 755.972656 591.761719 C 763.78125 572.597656 770.855469 553.179688 775.285156 532.914062 C 778.359375 518.84375 780.9375 504.707031 782.296875 490.351562 C 783.3125 479.671875 784.246094 468.996094 784.6875 458.269531 C 785.175781 446.71875 783.683594 435.214844 784.125 423.675781 C 784.289062 420.898438 784.207031 418.132812 783.871094 415.371094 C 782.40625 404.90625 780.75 394.46875 778.738281 384.078125 C 774.707031 362.761719 769.058594 341.882812 761.789062 321.445312 C 758.15625 311.324219 752.929688 301.90625 748.917969 291.984375 C 742.480469 276.09375 733.109375 262.386719 721.144531 250.375 C 710.359375 239.542969 699.335938 228.945312 687.613281 219.117188 C 673.050781 206.90625 656.820312 197.734375 638.453125 192.707031 C 617.554688 186.984375 596.328125 183.226562 574.582031 183.085938 L 397.4375 217.007812 "/><path style=" stroke:none;fill-rule:nonzero;fill:#feaf91;fill-opacity:1;" d="M 224.589844 329.226562 C 223.464844 354.621094 218.960938 379.351562 208.089844 402.636719 C 205.199219 408.835938 201.507812 414.546875 196.378906 419.207031 C 193.042969 422.25 189.289062 424.578125 184.667969 424.941406 C 177 425.539062 171.925781 421.648438 168.601562 415.171875 C 165.542969 409.179688 164.636719 402.625 164.347656 396.007812 C 163.859375 384.644531 166.15625 373.644531 169.054688 362.769531 C 173.074219 347.710938 178.878906 333.429688 188.46875 321.003906 C 192.007812 316.421875 196.1875 312.324219 200.179688 308.105469 C 203.984375 304.089844 208.539062 301.527344 214.191406 303.25 C 220.097656 305.046875 222.28125 310.058594 223.414062 315.601562 C 224.335938 320.039062 224.304688 324.59375 224.589844 329.226562 Z M 224.589844 329.226562 "/><path style=" stroke:none;fill-rule:nonzero;fill:#feaf90;fill-opacity:1;" d="M 164.199219 465.066406 C 164.109375 461.375 164.488281 457.78125 166.078125 454.386719 C 169.792969 446.464844 178.4375 444.941406 184.492188 451.242188 C 189.03125 455.964844 190.835938 462.042969 192.394531 468.175781 C 194.15625 475.128906 194.832031 482.175781 192.667969 489.175781 C 191.175781 493.976562 188.761719 498.339844 183.167969 498.945312 C 177.445312 499.550781 173.378906 496.3125 171.316406 491.347656 C 167.808594 482.914062 164.199219 474.445312 164.199219 465.066406 Z M 164.199219 465.066406 "/><path style=" stroke:none;fill-rule:nonzero;fill:#8d4314;fill-opacity:1;" d="M 390.40625 158.066406 C 387.78125 147.488281 384.632812 137.066406 380.96875 126.804688 C 376.726562 114.914062 371.855469 103.363281 363.019531 93.957031 C 354.882812 85.308594 350.679688 84.652344 340.351562 90.535156 C 340.269531 90.589844 340.191406 90.652344 340.117188 90.71875 C 321.683594 100.3125 305.121094 112.023438 294.855469 130.839844 C 292.449219 133.769531 295.015625 134.910156 296.804688 136.324219 C 297.546875 137.105469 298.269531 137.914062 299.03125 138.660156 C 313.78125 152.914062 326.382812 168.871094 336.835938 186.523438 C 344.15625 198.933594 349.597656 212.175781 354.515625 225.660156 C 356.703125 230.046875 358.433594 234.605469 359.71875 239.335938 C 363.390625 248.480469 364.957031 258.117188 366.097656 267.800781 C 366.632812 272.339844 367.5625 276.105469 372.640625 277.300781 C 373.675781 277.601562 374.6875 277.960938 375.683594 278.375 L 375.863281 278.253906 L 375.683594 278.375 L 377.40625 278.785156 C 385.941406 280.90625 393.9375 280.539062 400.671875 273.902344 C 402.625 271.949219 403.664062 269.722656 403.257812 267.011719 C 402.34375 260.890625 401.816406 254.738281 401.679688 248.554688 C 401.582031 242.644531 401.183594 236.757812 400.480469 230.890625 "/><path style=" stroke:none;fill-rule:nonzero;fill:#8e4416;fill-opacity:1;" d="M 340.117188 90.25 C 345.898438 93.074219 346.386719 99.726562 341.347656 105.296875 C 335.523438 111.722656 328.371094 116.375 321.03125 120.773438 C 315.417969 124.058594 309.5625 126.828125 303.460938 129.078125 C 300.601562 130.160156 297.835938 130.714844 294.84375 130.355469 C 305.121094 111.554688 321.683594 99.84375 340.117188 90.25 Z M 340.117188 90.25 "/><path style=" stroke:none;fill-rule:nonzero;fill:#6c280b;fill-opacity:1;" d="M 400.6875 273.460938 C 402.3125 271.867188 403.285156 270.042969 403.355469 267.96875 C 403.347656 267.664062 403.320312 267.359375 403.273438 267.058594 C 402.351562 260.925781 401.820312 254.753906 401.679688 248.554688 C 401.582031 242.644531 401.183594 236.757812 400.480469 230.890625 L 390.40625 158.070312 C 387.78125 147.492188 384.632812 137.074219 380.96875 126.8125 C 376.726562 114.917969 371.855469 103.367188 363.019531 93.960938 C 354.925781 85.359375 350.726562 84.679688 340.515625 90.445312 C 345.917969 93.375 346.265625 99.84375 341.347656 105.28125 C 335.523438 111.710938 328.371094 116.359375 321.03125 120.757812 C 315.417969 124.046875 309.5625 126.8125 303.460938 129.0625 C 300.78125 130.171875 297.996094 130.609375 295.109375 130.367188 L 294.84375 130.832031 C 294.335938 131.367188 294.011719 132 293.867188 132.726562 C 294.035156 134.050781 295.585938 134.875 296.796875 135.828125 C 299.855469 135.800781 303 136.226562 305.957031 135.671875 C 316.929688 133.605469 326.941406 129.054688 336.125 122.761719 C 342.078125 118.675781 349.632812 118.785156 354.179688 124.257812 C 360.277344 131.445312 365.121094 139.398438 368.707031 148.117188 C 372.164062 156.707031 374.136719 165.746094 376.167969 174.753906 C 377.785156 181.902344 381.703125 200.34375 383.273438 207.476562 C 383.273438 207.347656 385.320312 226.785156 385.421875 226.707031 C 385.535156 227.316406 385.609375 227.933594 385.648438 228.554688 C 386.070312 237.832031 386.464844 247.0625 386.28125 256.332031 C 386.28125 257.117188 386.382812 257.902344 386.445312 258.683594 C 387.339844 270.144531 387.019531 273.871094 376.398438 277.410156 C 376.136719 277.535156 375.886719 277.683594 375.65625 277.863281 L 377.378906 278.273438 C 385.953125 280.441406 393.953125 280.074219 400.6875 273.460938 Z M 400.6875 273.460938 "/><g clip-rule="nonzero" clip-path="url(#3e4ed23465)"><path style=" stroke:none;fill-rule:nonzero;fill:#1ad319;fill-opacity:1;" d="M 611.210938 78.789062 C 610.234375 78.683594 609.257812 78.644531 608.285156 78.574219 C 600.71875 78.117188 593.15625 77.375 585.585938 77.261719 C 571.292969 77.046875 556.988281 77.109375 542.691406 77.226562 C 535.394531 77.292969 528.148438 77.933594 520.949219 79.152344 C 505.0625 81.84375 489.648438 86.324219 474.589844 91.988281 C 439.304688 105.253906 409.984375 125.933594 391.089844 159.511719 C 390.863281 160.292969 390.632812 161.074219 390.410156 161.855469 C 390.457031 162.097656 390.4375 162.332031 390.339844 162.558594 C 390.246094 162.789062 390.09375 162.96875 389.886719 163.105469 C 385.734375 171.179688 383.578125 179.851562 382.164062 188.757812 C 381.765625 191.257812 381.34375 193.757812 380.933594 196.257812 C 380.648438 201.253906 380.273438 206.242188 380.328125 211.257812 C 380.363281 214.222656 380.980469 217.117188 381.027344 220.050781 C 381.070312 222.824219 383.410156 223.53125 385.121094 224.824219 C 390.292969 226.539062 395.167969 229.085938 400.480469 230.394531 C 411.144531 232.644531 421.953125 233.265625 432.796875 232.890625 C 451.589844 232.234375 470.375 231.566406 488.96875 228.304688 C 511.710938 224.308594 532.824219 216.257812 552.109375 203.519531 C 560.582031 197.925781 567.414062 190.519531 574.246094 183.128906 C 574.839844 182.347656 575.4375 181.566406 576.035156 180.796875 C 583.546875 171.191406 591.390625 161.824219 597.625 151.316406 C 606.296875 136.707031 610.933594 120.695312 613.613281 104.039062 C 614.671875 97.449219 615.734375 90.855469 615.921875 84.152344 C 616.023438 80.421875 614.835938 79.175781 611.210938 78.789062 Z M 387.804688 173.542969 C 387.683594 174.03125 387.566406 174.484375 387.449219 174.953125 C 387.574219 174.503906 387.707031 174.03125 387.8125 173.5625 Z M 387.804688 173.542969 "/></g><path style=" stroke:none;fill-rule:nonzero;fill:#009f02;fill-opacity:1;" d="M 574.246094 183.136719 C 567.414062 190.523438 560.582031 197.929688 552.109375 203.527344 C 532.824219 216.265625 511.710938 224.3125 488.96875 228.308594 C 470.375 231.570312 451.589844 232.242188 432.796875 232.894531 C 421.945312 233.269531 411.144531 232.652344 400.480469 230.398438 C 395.167969 229.089844 390.292969 226.546875 385.121094 224.832031 C 383.410156 223.535156 381.070312 222.828125 381.027344 220.054688 C 380.980469 217.125 380.363281 214.21875 380.328125 211.261719 C 380.273438 206.246094 380.648438 201.261719 380.933594 196.261719 C 381.34375 193.761719 381.765625 191.261719 382.164062 188.761719 C 383.578125 179.859375 385.734375 171.179688 389.886719 163.109375 C 389.222656 169.578125 386.960938 175.703125 385.90625 182.097656 C 384.492188 190.078125 384.402344 198.070312 385.628906 206.074219 C 385.816406 207.546875 386.222656 208.957031 386.835938 210.304688 C 388.300781 213.285156 388.546875 213.347656 390.859375 210.925781 C 400.882812 200.425781 412.222656 191.453125 423.671875 182.617188 C 441.363281 168.976562 459.960938 156.648438 478.851562 144.746094 C 496.59375 133.566406 514.742188 123.089844 533.386719 113.488281 C 547.226562 106.363281 561.214844 99.550781 575.351562 93.046875 C 586.246094 88.023438 597.222656 83.203125 608.285156 78.585938 C 609.257812 78.652344 610.234375 78.691406 611.210938 78.800781 C 614.828125 79.183594 616.015625 80.429688 615.910156 84.171875 C 615.726562 90.863281 614.660156 97.46875 613.601562 104.058594 C 610.925781 120.714844 606.28125 136.726562 597.617188 151.335938 C 591.378906 161.84375 583.539062 171.210938 576.027344 180.816406 C 575.4375 181.570312 574.839844 182.351562 574.246094 183.136719 Z M 574.246094 183.136719 "/></g></svg>