<svg xmlns="http://www.w3.org/2000/svg" xmlns:xlink="http://www.w3.org/1999/xlink" width="1200" zoomAndPan="magnify" viewBox="0 0 900 899.99999" height="1200" preserveAspectRatio="xMidYMid meet" version="1.2"><defs><clipPath id="7de4f662d8"><path d="M 448 52.238281 L 636 52.238281 L 636 369 L 448 369 Z M 448 52.238281 "/></clipPath><clipPath id="1ea6264917"><path d="M 447 52.238281 L 636 52.238281 L 636 369 L 447 369 Z M 447 52.238281 "/></clipPath><clipPath id="1d22ac41d3"><path d="M 264.058594 52.238281 L 449 52.238281 L 449 369 L 264.058594 369 Z M 264.058594 52.238281 "/></clipPath><clipPath id="6cf6cddb02"><path d="M 264.058594 52.238281 L 450 52.238281 L 450 369 L 264.058594 369 Z M 264.058594 52.238281 "/></clipPath><clipPath id="9cbfc6e384"><path d="M 434 363 L 543 363 L 543 847.988281 L 434 847.988281 Z M 434 363 "/></clipPath><clipPath id="16104a3e07"><path d="M 434 363 L 544 363 L 544 847.988281 L 434 847.988281 Z M 434 363 "/></clipPath></defs><g id="301942cfd1"><g clip-rule="nonzero" clip-path="url(#7de4f662d8)"><path style=" stroke:none;fill-rule:evenodd;fill:#498a0c;fill-opacity:1;" d="M 469.535156 74.8125 C 470.566406 77.6875 471.167969 81.746094 471.867188 84.71875 C 471.867188 84.71875 479.726562 80.863281 483.328125 79.863281 C 485.542969 79.246094 488.605469 78.679688 490.902344 78.695312 C 492.734375 78.710938 495.285156 78.859375 496.925781 79.667969 C 498.886719 80.632812 501.285156 82.722656 502.171875 84.71875 C 503.472656 87.648438 502.402344 92.207031 502.171875 95.402344 C 501.886719 99.339844 501.109375 104.570312 500.226562 108.417969 C 498.617188 115.460938 495.0625 124.464844 492.84375 131.339844 C 492.847656 131.339844 498.8125 130.296875 501.394531 130.371094 C 503.816406 130.441406 507.085938 130.886719 509.359375 131.730469 C 510.875 132.292969 513.164062 133.074219 514.019531 134.449219 C 515.902344 137.46875 514.746094 142.867188 513.828125 146.300781 C 511.867188 153.632812 504.78125 161.527344 500.695312 167.925781 C 498.613281 171.1875 495.6875 175.441406 493.539062 178.664062 C 493.539062 178.664062 502.09375 180.128906 505.171875 182.0625 C 507.226562 183.355469 509.46875 185.882812 510.71875 187.96875 C 511.449219 189.191406 512.40625 191.015625 512.328125 192.441406 C 512.183594 195.082031 509.730469 198.109375 508.03125 200.136719 C 505.742188 202.875 501.53125 205.34375 498.730469 207.5625 C 494.289062 211.078125 487.84375 215.175781 483.871094 219.21875 C 479.308594 223.867188 474.222656 231.023438 470.839844 236.59375 C 468.152344 241.023438 465.058594 247.261719 463.296875 252.136719 C 461.859375 256.128906 460.527344 261.664062 459.867188 265.855469 C 458.460938 274.800781 458.746094 286.957031 458.269531 296.003906 C 458.269531 296 466.097656 286.828125 469.703125 283.125 C 472.984375 279.757812 477.585938 275.492188 481.136719 272.414062 C 483.179688 270.640625 486.25 268.679688 488.140625 266.746094 C 490.863281 263.96875 494.117188 259.832031 495.996094 256.425781 C 498.496094 251.894531 499.984375 245.023438 501.890625 240.214844 C 503.691406 235.675781 505.914062 229.511719 508.316406 225.261719 C 510.53125 221.339844 513.726562 216.089844 517.054688 213.050781 C 518.40625 211.8125 520.519531 210.484375 522.210938 209.785156 C 523.667969 209.183594 525.78125 208.324219 527.332031 208.613281 C 529.03125 208.925781 530.84375 210.664062 532.082031 211.867188 C 533.453125 213.203125 534.933594 215.34375 535.816406 217.046875 C 536.824219 218.984375 537.875 221.769531 538.164062 223.929688 C 540.355469 222.746094 541.890625 220.445312 543.398438 219.125 C 545.660156 217.144531 548.839844 214.65625 551.429688 213.128906 C 553.40625 211.960938 556.175781 210.5625 558.386719 209.9375 C 560.527344 209.332031 563.527344 208.902344 565.75 209.039062 C 567.539062 209.148438 569.976562 209.585938 571.558594 210.429688 C 573.367188 211.394531 575.316406 213.457031 576.550781 215.09375 C 577.648438 216.546875 578.496094 218.871094 579.332031 220.492188 C 579.335938 220.492188 584.925781 216.941406 587.574219 215.984375 C 590.871094 214.789062 595.550781 213.84375 599.058594 213.8125 C 600.566406 213.800781 602.609375 214.039062 604.035156 214.539062 C 606.113281 215.265625 608.867188 216.683594 610.3125 218.347656 C 611.535156 219.761719 612.453125 222.21875 612.816406 224.050781 C 613.214844 226.0625 612.886719 228.84375 612.644531 230.878906 C 612.546875 231.667969 612.28125 232.695312 612.125 233.472656 C 612.125 233.472656 616.597656 234.777344 618.433594 235.546875 C 621.101562 236.664062 624.691406 238.246094 626.984375 240.015625 C 629.136719 241.679688 631.644531 244.417969 633.09375 246.71875 C 633.984375 248.132812 635.242188 250.175781 635.265625 251.847656 C 635.292969 254.363281 633.292969 257.433594 631.910156 259.535156 C 630.554688 261.597656 628.21875 264.003906 626.292969 265.546875 C 624.34375 267.109375 621.414062 268.785156 619.117188 269.761719 C 617.128906 270.609375 614.269531 271.148438 612.191406 271.742188 C 612.191406 271.742188 616.496094 277.394531 617.589844 280.199219 C 618.4375 282.371094 619.667969 285.597656 619.027344 287.84375 C 618.265625 290.527344 615.089844 293.257812 612.640625 294.589844 C 610.207031 295.917969 606.320312 296.074219 603.554688 296.300781 C 599.789062 296.609375 594.722656 296.335938 590.960938 295.941406 C 586.429688 295.460938 580.511719 293.988281 576.03125 293.152344 C 576.03125 293.152344 576.730469 295.902344 576.839844 297.109375 C 577.011719 299.027344 577.210938 301.6875 576.636719 303.523438 C 576.054688 305.40625 574.738281 307.980469 573.074219 309.039062 C 571.199219 310.234375 567.9375 310.136719 565.722656 309.957031 C 562.15625 309.675781 557.605469 307.867188 554.34375 306.398438 C 550.253906 304.550781 545.414062 300.925781 541.589844 298.582031 C 541.589844 298.582031 540.882812 303.199219 540.09375 305.015625 C 539.234375 307 537.859375 309.777344 536.070312 310.992188 C 534.578125 312.011719 532.007812 312.554688 530.210938 312.371094 C 527.128906 312.058594 523.535156 309.464844 521.015625 307.660156 C 519.097656 306.285156 516.941406 303.953125 515.332031 302.226562 C 512.199219 298.871094 508.542969 293.933594 505.632812 290.382812 C 505.632812 290.382812 502.1875 289.761719 500.695312 289.785156 C 499.304688 289.808594 497.464844 290.128906 496.121094 290.472656 C 493.742188 291.082031 490.53125 292.058594 488.46875 293.390625 C 484.972656 295.648438 481.09375 299.886719 478.851562 303.390625 C 476.085938 307.71875 474.1875 314.457031 472.773438 319.394531 C 471.390625 324.230469 470.136719 330.855469 469.527344 335.851562 C 468.746094 342.238281 468.59375 350.84375 468.570312 357.277344 C 468.554688 360.523438 468.808594 364.847656 468.914062 368.09375 C 468.914062 368.09375 454.953125 368.261719 448.972656 368.332031 C 448.972656 368.300781 448.632812 147.507812 448.488281 52.871094 C 448.488281 52.871094 449.484375 52.851562 449.910156 52.84375 C 452.308594 53.023438 455.335938 54.574219 457.296875 55.96875 C 459.652344 57.640625 462.074219 60.769531 463.707031 63.15625 C 465.914062 66.382812 468.214844 71.132812 469.535156 74.8125 M 538.164062 224.144531 C 538.300781 224.261719 538.550781 223.980469 538.699219 223.878906 C 538.175781 223.996094 538.117188 224.101562 538.164062 224.144531 Z M 538.164062 224.144531 "/></g><g clip-rule="nonzero" clip-path="url(#1ea6264917)"><path style="fill:none;stroke-width:1;stroke-linecap:round;stroke-linejoin:round;stroke:#498a0c;stroke-opacity:1;stroke-miterlimit:4;" d="M 665.674386 48.891447 C 665.093319 46.421051 664.593407 43.048197 663.736414 40.658958 C 662.639205 37.60099 660.727203 33.653551 658.893109 30.972149 C 657.536205 28.98869 655.523571 26.388444 653.566123 24.999049 C 651.936539 23.840138 649.420747 22.551377 647.427591 22.402049 C 647.073757 22.408542 646.24598 22.424773 646.24598 22.424773 C 646.366089 101.071665 646.648507 284.559436 646.648507 284.585406 C 651.618413 284.526974 663.220271 284.387385 663.220271 284.387385 C 663.132624 281.689752 662.921623 278.096153 662.934607 275.39852 C 662.954084 270.051946 663.080685 262.900458 663.729922 257.59284 C 664.236327 253.440887 665.278351 247.935247 666.4275 243.91639 C 667.602618 239.81313 669.180263 234.21335 671.478561 230.616505 C 673.34187 227.704619 676.56533 224.182438 679.470664 222.306106 C 681.184648 221.199135 683.853011 220.387572 685.829936 219.881157 C 686.946623 219.595487 688.475575 219.329295 689.631216 219.309817 C 690.871258 219.29034 693.734392 219.806494 693.734392 219.806494 C 696.152798 222.757334 699.191225 226.860594 701.794664 229.649123 C 703.132091 231.083965 704.923984 233.021976 706.51786 234.164656 C 708.611648 235.664423 711.598137 237.819933 714.159375 238.079633 C 715.652619 238.232207 717.788608 237.780978 719.02865 236.933707 C 720.515401 235.924123 721.658058 233.61604 722.372218 231.966945 C 723.027947 230.457439 723.615506 226.620372 723.615506 226.620372 C 726.793519 228.568121 730.81554 231.580641 734.214294 233.116117 C 736.924857 234.336707 740.70666 235.839721 743.670425 236.073451 C 745.511011 236.222778 748.221573 236.303934 749.779741 235.310582 C 751.162615 234.430848 752.256579 232.29157 752.74026 230.726877 C 753.217449 229.20114 753.051894 226.990444 752.909062 225.396535 C 752.818169 224.393444 752.237102 222.108085 752.237102 222.108085 C 755.960474 222.802782 760.878441 224.026618 764.644013 224.425907 C 767.770088 224.753778 771.980387 224.981016 775.109707 224.724562 C 777.408005 224.536279 780.637957 224.406429 782.660329 223.302704 C 784.695686 222.195733 787.334833 219.926605 787.967838 217.696431 C 788.500212 215.829838 787.477665 213.148435 786.773243 211.343521 C 785.864312 209.012713 782.287018 204.31539 782.287018 204.31539 C 784.013987 203.82196 786.390193 203.373978 788.0425 202.669541 C 789.951256 201.857979 792.385893 200.465338 794.005739 199.166838 C 795.606107 197.884569 797.547324 195.884879 798.67375 194.17086 C 799.822899 192.424377 801.484944 189.872825 801.462221 187.78224 C 801.442744 186.392845 800.397473 184.695057 799.657343 183.519914 C 798.453009 181.607873 796.36896 179.332252 794.580313 177.94935 C 792.674804 176.478799 789.691561 175.164068 787.474418 174.23564 C 785.948712 173.596129 782.231833 172.511882 782.231833 172.511882 C 782.36168 171.865878 782.582421 171.012114 782.663575 170.356372 C 782.864839 168.665076 783.137518 166.353746 782.806407 164.681927 C 782.504512 163.159436 781.741659 161.117545 780.725604 159.942403 C 779.524516 158.5595 777.235957 157.381112 775.508988 156.777309 C 774.324131 156.361789 772.626377 156.163768 771.373351 156.173507 C 768.458278 156.199477 764.569351 156.985069 761.829573 157.978422 C 759.628661 158.773753 754.983373 161.724594 754.980127 161.724594 C 754.285443 160.3774 753.581022 158.445882 752.668844 157.238277 C 751.64305 155.878098 750.023205 154.164078 748.520222 153.362255 C 747.205518 152.661065 745.1799 152.297485 743.693148 152.20659 C 741.84607 152.092971 739.353002 152.450059 737.574093 152.953227 C 735.736754 153.472627 733.43521 154.634785 731.792641 155.605413 C 729.640422 156.874697 726.998029 158.942558 725.118489 160.588407 C 723.865462 161.685639 722.589712 163.59768 721.213331 164.539092 C 721.089976 164.623495 720.88222 164.857225 720.768604 164.759837 C 720.778342 164.63648 720.72965 164.724129 720.768604 164.759837 C 720.528386 162.786118 719.655163 160.471542 718.817648 158.861402 C 718.08401 157.446037 716.853707 155.667092 715.714297 154.556875 C 714.685257 153.55703 713.179028 152.112449 711.766938 151.852749 C 710.478204 151.612526 708.722019 152.326701 707.511192 152.826623 C 706.105595 153.407702 704.34941 154.511427 703.226231 155.540488 C 700.460483 158.06607 697.805105 162.42903 695.964519 165.688265 C 693.968117 169.220184 692.121039 174.342766 690.624548 178.114909 C 689.040411 182.111042 687.803615 187.821195 685.726058 191.586845 C 684.164644 194.417575 681.460574 197.855353 679.197984 200.163437 C 677.626832 201.77033 675.075332 203.399948 673.377578 204.873745 C 670.426798 207.43179 666.602794 210.976694 663.876 213.774962 C 660.879773 216.852406 654.374423 224.474601 654.374423 224.477847 C 654.770457 216.959533 654.533486 206.857203 655.702111 199.423292 C 656.250716 195.940066 657.357665 191.34013 658.55226 188.022463 C 660.016289 183.971143 662.587266 178.786882 664.82064 175.105635 C 667.631834 170.476483 671.858364 164.529354 675.649906 160.666317 C 678.951274 157.306448 684.307476 153.901132 687.998386 150.979507 C 690.325899 149.135638 693.825285 147.084008 695.727548 144.808387 C 697.139638 143.123583 699.178241 140.60774 699.298349 138.413275 C 699.363273 137.228394 698.567958 135.712395 697.960922 134.696319 C 696.922143 132.962822 695.058834 130.862498 693.351342 129.787989 C 690.79335 128.181096 683.684209 126.963752 683.684209 126.963752 C 685.46961 124.285596 687.901001 120.75043 689.631216 118.039812 C 693.026724 112.722455 698.9153 106.161784 700.544884 100.068573 C 701.307737 97.21512 702.268607 92.728803 700.703947 90.219452 C 699.993033 89.076772 698.090769 88.427522 696.83125 87.960062 C 694.941972 87.258872 692.224917 86.8888 690.212283 86.830367 C 688.066556 86.768688 683.109635 87.635437 683.106388 87.635437 C 684.95022 81.922038 687.904247 74.439432 689.241674 68.586444 C 689.975312 65.388888 690.621302 61.04216 690.858274 57.76994 C 691.049798 55.114508 691.939252 51.326134 690.858274 48.891447 C 690.12139 47.232613 688.128234 45.49587 686.49865 44.694046 C 685.135253 44.022072 683.015495 43.898715 681.493036 43.88573 C 679.58428 43.872745 677.039272 44.343451 675.198687 44.856359 C 672.205706 45.687398 665.674386 48.891447 665.674386 48.891447 " transform="matrix(1.203336,0,0,1.203312,-329.162995,25.887104)"/></g><g clip-rule="nonzero" clip-path="url(#1d22ac41d3)"><path style=" stroke:none;fill-rule:evenodd;fill:#75aa00;fill-opacity:1;" d="M 427.796875 74.8125 C 426.78125 77.6875 426.191406 81.746094 425.503906 84.71875 C 425.503906 84.71875 417.777344 80.863281 414.234375 79.863281 C 412.058594 79.246094 409.046875 78.679688 406.785156 78.695312 C 404.984375 78.710938 402.472656 78.863281 400.863281 79.667969 C 398.925781 80.636719 396.578125 82.738281 395.707031 84.71875 C 394.414062 87.652344 395.476562 92.207031 395.707031 95.402344 C 395.988281 99.339844 396.75 104.570312 397.617188 108.417969 C 399.199219 115.457031 402.695312 124.464844 404.875 131.339844 C 404.875 131.339844 399.007812 130.296875 396.46875 130.371094 C 394.085938 130.441406 390.867188 130.886719 388.636719 131.730469 C 387.140625 132.296875 384.894531 133.089844 384.054688 134.449219 C 382.183594 137.476562 383.339844 142.863281 384.246094 146.300781 C 386.171875 153.605469 393.136719 161.527344 397.15625 167.925781 C 399.203125 171.1875 402.082031 175.441406 404.195312 178.664062 C 404.191406 178.664062 395.773438 180.136719 392.753906 182.0625 C 390.722656 183.359375 388.527344 185.890625 387.300781 187.96875 C 386.578125 189.195312 385.640625 191.019531 385.71875 192.441406 C 385.863281 195.070312 388.265625 198.105469 389.941406 200.136719 C 392.191406 202.863281 396.335938 205.34375 399.085938 207.5625 C 403.457031 211.078125 409.800781 215.1875 413.699219 219.21875 C 418.199219 223.875 423.191406 231.03125 426.511719 236.59375 C 429.160156 241.03125 432.199219 247.269531 433.929688 252.136719 C 435.34375 256.132812 436.652344 261.667969 437.300781 265.855469 C 438.683594 274.804688 438.402344 286.957031 438.875 296.003906 C 438.875 296 431.179688 286.828125 427.632812 283.125 C 424.40625 279.761719 419.882812 275.496094 416.386719 272.414062 C 414.382812 270.644531 411.355469 268.671875 409.5 266.746094 C 406.816406 263.960938 403.621094 259.824219 401.777344 256.425781 C 399.3125 251.886719 397.855469 245.027344 395.980469 240.214844 C 394.210938 235.675781 392.03125 229.519531 389.664062 225.261719 C 387.488281 221.347656 384.355469 216.097656 381.074219 213.050781 C 379.746094 211.820312 377.667969 210.488281 376 209.785156 C 374.570312 209.183594 372.492188 208.324219 370.96875 208.613281 C 369.289062 208.925781 367.511719 210.667969 366.296875 211.867188 C 364.941406 213.207031 363.488281 215.351562 362.621094 217.046875 C 361.628906 218.984375 360.597656 221.769531 360.3125 223.929688 C 358.15625 222.742188 356.65625 220.449219 355.167969 219.125 C 352.949219 217.148438 349.824219 214.660156 347.273438 213.128906 C 345.328125 211.964844 342.609375 210.5625 340.433594 209.9375 C 338.328125 209.332031 335.375 208.902344 333.191406 209.039062 C 331.429688 209.148438 329.03125 209.589844 327.476562 210.429688 C 325.691406 211.394531 323.78125 213.460938 322.570312 215.09375 C 321.488281 216.550781 320.65625 218.871094 319.835938 220.492188 C 319.832031 220.492188 314.339844 216.941406 311.730469 215.984375 C 308.492188 214.792969 303.890625 213.84375 300.441406 213.8125 C 298.957031 213.800781 296.945312 214.039062 295.546875 214.539062 C 293.496094 215.269531 290.792969 216.695312 289.375 218.347656 C 288.164062 219.765625 287.269531 222.222656 286.910156 224.050781 C 286.515625 226.0625 286.84375 228.84375 287.082031 230.878906 C 287.175781 231.667969 287.4375 232.695312 287.589844 233.472656 C 287.589844 233.472656 283.191406 234.777344 281.386719 235.546875 C 278.761719 236.664062 275.230469 238.253906 272.980469 240.015625 C 270.859375 241.683594 268.394531 244.425781 266.972656 246.71875 C 266.097656 248.136719 264.859375 250.179688 264.839844 251.847656 C 264.8125 254.355469 266.773438 257.429688 268.136719 259.535156 C 269.464844 261.589844 271.761719 264 273.660156 265.546875 C 275.574219 267.105469 278.453125 268.785156 280.714844 269.761719 C 282.667969 270.609375 285.484375 271.148438 287.527344 271.742188 C 287.523438 271.742188 283.292969 277.402344 282.21875 280.199219 C 281.382812 282.375 280.171875 285.597656 280.804688 287.84375 C 281.554688 290.503906 284.664062 293.253906 287.082031 294.589844 C 289.472656 295.910156 293.296875 296.074219 296.015625 296.300781 C 299.722656 296.609375 304.707031 296.335938 308.402344 295.941406 C 312.859375 295.460938 318.675781 293.988281 323.082031 293.152344 C 323.082031 293.152344 322.394531 295.902344 322.289062 297.109375 C 322.113281 299.027344 321.921875 301.683594 322.484375 303.523438 C 323.058594 305.398438 324.335938 307.980469 325.988281 309.039062 C 327.828125 310.222656 331.039062 310.132812 333.21875 309.957031 C 336.730469 309.675781 341.203125 307.863281 344.40625 306.398438 C 348.4375 304.546875 353.183594 300.925781 356.949219 298.582031 C 356.949219 298.582031 357.640625 303.195312 358.417969 305.015625 C 359.261719 306.996094 360.601562 309.773438 362.371094 310.992188 C 363.835938 312.003906 366.367188 312.554688 368.136719 312.371094 C 371.175781 312.058594 374.703125 309.460938 377.175781 307.660156 C 379.066406 306.285156 381.183594 303.949219 382.765625 302.226562 C 385.851562 298.867188 389.441406 293.933594 392.300781 290.382812 C 392.300781 290.382812 395.691406 289.761719 397.15625 289.785156 C 398.523438 289.808594 400.335938 290.128906 401.65625 290.472656 C 403.996094 291.082031 407.152344 292.0625 409.179688 293.390625 C 412.632812 295.652344 416.433594 299.898438 418.632812 303.390625 C 421.363281 307.730469 423.222656 314.460938 424.609375 319.394531 C 425.972656 324.234375 427.203125 330.855469 427.804688 335.851562 C 428.570312 342.238281 428.722656 350.84375 428.746094 357.277344 C 428.757812 360.523438 428.507812 364.847656 428.40625 368.09375 C 428.410156 368.09375 442.132812 368.261719 448.015625 368.332031 C 448.015625 368.300781 448.347656 147.507812 448.488281 52.871094 C 448.488281 52.871094 447.511719 52.851562 447.09375 52.84375 C 444.726562 53.039062 441.753906 54.582031 439.832031 55.96875 C 437.503906 57.644531 435.128906 60.777344 433.527344 63.15625 C 431.351562 66.386719 429.09375 71.136719 427.796875 74.8125 M 360.3125 224.144531 C 360.179688 224.257812 359.933594 223.980469 359.789062 223.878906 C 360.304688 223.996094 360.363281 224.101562 360.3125 224.144531 Z M 360.3125 224.144531 "/></g><g clip-rule="nonzero" clip-path="url(#6cf6cddb02)"><path style="fill:none;stroke-width:1;stroke-linecap:round;stroke-linejoin:round;stroke:#75aa00;stroke-opacity:1;stroke-miterlimit:4;" d="M 627.14544 48.891447 C 627.716768 46.421051 628.206941 43.048197 629.050949 40.658958 C 630.128682 37.604237 632.004976 33.656797 633.813099 30.972149 C 635.144034 28.995182 637.117714 26.39169 639.052439 24.999049 C 640.649561 23.84663 643.119906 22.564362 645.087093 22.402049 C 645.434435 22.408542 646.24598 22.424773 646.24598 22.424773 C 646.129118 101.071665 645.853192 284.559436 645.853192 284.585406 C 640.964441 284.526974 629.5606 284.387385 629.557354 284.387385 C 629.641754 281.689752 629.84951 278.096153 629.839771 275.39852 C 629.820294 270.051946 629.693693 262.900458 629.057441 257.59284 C 628.557529 253.440887 627.534982 247.938493 626.402064 243.91639 C 625.249669 239.816377 623.704486 234.223088 621.435404 230.616505 C 619.607803 227.714358 616.449267 224.185684 613.579641 222.306106 C 611.894872 221.202381 609.271956 220.387572 607.327492 219.881157 C 606.230282 219.595487 604.724053 219.329295 603.587889 219.309817 C 602.370571 219.29034 599.552884 219.806494 599.552884 219.806494 C 597.176678 222.757334 594.193436 226.857348 591.628951 229.649123 C 590.314247 231.080719 588.554816 233.021976 586.983663 234.164656 C 584.928829 235.661177 581.997526 237.819933 579.471996 238.079633 C 578.001475 238.232207 575.897948 237.774486 574.68063 236.933707 C 573.210109 235.920877 572.096668 233.612793 571.395493 231.966945 C 570.749502 230.454193 570.174928 226.620372 570.174928 226.620372 C 567.045607 228.568121 563.101495 231.577395 559.751434 233.116117 C 557.089564 234.333461 553.372684 235.839721 550.454366 236.073451 C 548.642996 236.219532 545.974633 236.294196 544.445681 235.310582 C 543.072546 234.430848 542.011044 232.285077 541.533855 230.726877 C 541.066405 229.197894 541.225468 226.990444 541.371546 225.396535 C 541.459193 224.393444 542.030521 222.108085 542.030521 222.108085 C 538.368827 222.802782 533.53526 224.026618 529.831365 224.425907 C 526.760476 224.753778 522.618347 224.981016 519.537719 224.724562 C 517.278376 224.536279 514.100362 224.399937 512.113698 223.302704 C 510.104311 222.192487 507.520349 219.907127 506.897082 217.696431 C 506.371201 215.829838 507.377517 213.151682 508.072201 211.343521 C 508.964901 209.019206 512.480517 204.31539 512.483763 204.31539 C 510.78601 203.82196 508.445512 203.373978 506.82242 202.669541 C 504.94288 201.857979 502.550443 200.462092 500.959814 199.166838 C 499.382169 197.881323 497.473413 195.878387 496.369711 194.17086 C 495.236793 192.421131 493.607209 189.866333 493.629932 187.78224 C 493.646163 186.396092 494.675203 184.698303 495.402348 183.519914 C 496.583959 181.614366 498.6323 179.335499 500.394978 177.94935 C 502.264779 176.485291 505.199329 175.164068 507.380764 174.23564 C 508.8805 173.596129 512.535702 172.511882 512.535702 172.511882 C 512.409101 171.865878 512.191607 171.012114 512.113698 170.356372 C 511.915681 168.665076 511.643002 166.353746 511.970866 164.681927 C 512.269515 163.162683 513.012891 161.120791 514.019208 159.942403 C 515.197572 158.569239 517.443931 157.384358 519.148177 156.777309 C 520.31031 156.361789 521.982095 156.163768 523.215644 156.173507 C 526.082024 156.199477 529.906027 156.988316 532.597113 157.978422 C 534.765563 158.773753 539.329697 161.724594 539.332943 161.724594 C 540.014641 160.3774 540.706078 158.449128 541.605271 157.238277 C 542.611588 155.881344 544.198971 154.164078 545.682477 153.362255 C 546.974458 152.664311 548.967614 152.297485 550.431643 152.20659 C 552.246259 152.092971 554.700373 152.450059 556.450066 152.953227 C 558.25819 153.472627 560.517533 154.638031 562.134132 155.605413 C 564.25389 156.877943 566.850836 158.945804 568.694668 160.588407 C 569.931464 161.688885 571.177998 163.594434 572.534903 164.539092 C 572.655012 164.623495 572.859521 164.853979 572.969891 164.759837 C 572.963399 164.63648 573.012092 164.724129 572.969891 164.759837 C 573.206863 162.786118 574.063855 160.471542 574.888385 158.861402 C 575.609038 157.452529 576.816618 155.670338 577.943044 154.556875 C 578.952607 153.560276 580.42962 152.112449 581.825479 151.852749 C 583.09149 151.612526 584.818459 152.326701 586.006562 152.826623 C 587.392682 153.410948 589.119652 154.51792 590.223354 155.540488 C 592.950148 158.072563 595.553586 162.435523 597.36171 165.688265 C 599.328897 169.226677 601.140267 174.342766 602.610788 178.114909 C 604.168956 182.114288 605.379782 187.814703 607.428124 191.586845 C 608.960322 194.411082 611.6157 197.848861 613.845828 200.163437 C 615.387765 201.763838 617.903557 203.403194 619.568848 204.873745 C 622.474182 207.435036 626.233262 210.979941 628.914609 213.774962 C 631.862143 216.852406 638.257124 224.474601 638.257124 224.477847 C 637.864336 216.959533 638.098061 206.86045 636.948912 199.423292 C 636.410046 195.943312 635.322575 191.343376 634.147456 188.022463 C 632.709397 183.977636 630.183867 178.793375 627.982955 175.105635 C 625.223699 170.482976 621.075077 164.535846 617.335474 160.666317 C 614.095784 157.316187 608.823983 153.901132 605.191504 150.979507 C 602.906191 149.135638 599.461991 147.074269 597.592189 144.808387 C 596.199577 143.120337 594.203174 140.598001 594.083066 138.413275 C 594.018142 137.23164 594.797226 135.715641 595.39777 134.696319 C 596.417071 132.969314 598.241426 130.865744 599.929441 129.787989 C 602.438741 128.187588 609.434265 126.963752 609.437511 126.963752 C 607.681326 124.285596 605.288889 120.75043 603.587889 118.039812 C 600.247567 112.722455 594.459623 106.13906 592.859255 100.068573 C 592.10614 97.211874 591.14527 92.735295 592.700192 90.219452 C 593.398121 89.089757 595.264676 88.430768 596.507964 87.960062 C 598.361535 87.258872 601.03639 86.8888 603.016561 86.830367 C 605.12658 86.768688 610.002347 87.635437 610.002347 87.635437 C 608.190977 81.922038 605.285643 74.436186 603.970939 68.586444 C 603.250286 65.388888 602.617281 61.04216 602.383556 57.76994 C 602.192031 55.114508 601.309069 51.32938 602.383556 48.891447 C 603.107454 47.245598 605.05841 45.499116 606.668517 44.694046 C 608.005945 44.025319 610.09324 43.898715 611.589731 43.88573 C 613.469271 43.872745 615.972078 44.343451 617.780202 44.856359 C 620.72449 45.687398 627.14544 48.891447 627.14544 48.891447 " transform="matrix(1.203336,0,0,1.203312,-329.162995,25.887104)"/></g><g clip-rule="nonzero" clip-path="url(#9cbfc6e384)"><path style=" stroke:none;fill-rule:evenodd;fill:#e86201;fill-opacity:1;" d="M 442.890625 846.066406 C 439.808594 844.457031 437.242188 840.242188 434.820312 837.746094 C 434.820312 837.699219 444.808594 506.09375 449.089844 363.957031 C 454.6875 364.003906 462.164062 363.742188 467.75 364.113281 C 473.148438 364.472656 480.339844 365.269531 485.644531 366.335938 C 492.386719 367.683594 501.628906 369.34375 507.699219 372.574219 C 513.015625 375.40625 519.179688 380.894531 523.09375 385.472656 C 527.308594 390.402344 531.613281 398.074219 534.195312 404.023438 C 536.429688 409.160156 538.320312 416.453125 539.4375 421.941406 C 540.320312 426.289062 540.828125 432.199219 541.21875 436.617188 C 541.851562 443.742188 542.507812 453.277344 542.488281 460.433594 C 542.46875 466.5625 541.871094 474.730469 541.324219 480.835938 C 539.847656 497.3125 536.566406 519.136719 534.257812 535.515625 C 531.496094 555.132812 527.730469 581.285156 524.277344 600.792969 C 517.222656 640.625 506.511719 693.515625 497.191406 732.878906 C 491.636719 756.351562 484.445312 787.796875 476.535156 810.589844 C 474.269531 817.125 471.074219 825.851562 467.695312 831.886719 C 466.027344 834.875 463.480469 838.722656 461.144531 841.222656 C 459.464844 843.019531 457.070312 845.457031 454.8125 846.4375 C 453.222656 847.128906 450.832031 847.347656 449.101562 847.308594 C 447.203125 847.269531 444.578125 846.945312 442.890625 846.066406 M 449.089844 363.957031 Z M 449.089844 363.957031 "/></g><g clip-rule="nonzero" clip-path="url(#16104a3e07)"><path style="fill:none;stroke-width:1;stroke-linecap:round;stroke-linejoin:round;stroke:#e86201;stroke-opacity:1;stroke-miterlimit:4;" d="M 634.887586 674.687233 C 636.900219 676.761586 639.032962 680.264289 641.5942 681.601744 C 642.996551 682.332151 645.177986 682.601589 646.755631 682.634052 C 648.19369 682.666514 650.180354 682.484724 651.501551 681.910138 C 653.377844 681.095329 655.367755 679.06967 656.763613 677.576395 C 658.704831 675.498795 660.821342 672.301239 662.207462 669.817858 C 665.015411 664.802402 667.670788 657.55028 669.553574 652.119305 C 676.127095 633.177438 682.103318 607.045128 686.71939 587.538413 C 694.464783 554.825955 703.365817 510.871734 709.228423 477.769726 C 712.098049 461.557955 715.227369 439.824313 717.522421 423.521647 C 719.440915 409.910122 722.167709 391.773325 723.394766 378.080644 C 723.849231 373.006756 724.345897 366.218847 724.362128 361.125482 C 724.378359 355.178352 723.833001 347.254257 723.307119 341.333097 C 722.982501 337.661589 722.560497 332.750013 721.826859 329.136937 C 720.898451 324.575956 719.327299 318.515208 717.470482 314.24639 C 715.324755 309.302351 711.747461 302.926717 708.24483 298.82995 C 704.992154 295.025345 699.869678 290.464364 695.451622 288.110833 C 690.407054 285.426185 682.726585 284.046529 677.123673 282.926573 C 672.715357 282.040346 666.739134 281.378112 662.252909 281.079457 C 657.610867 280.771063 651.397673 280.988562 646.745893 280.949607 C 643.188076 399.070894 634.887586 674.648278 634.887586 674.687233 " transform="matrix(1.203336,0,0,1.203312,-329.162995,25.887104)"/></g><path style=" stroke:none;fill-rule:evenodd;fill:#ff7900;fill-opacity:1;" d="M 452.542969 784.25 C 447.871094 800.550781 440.253906 821.851562 434.988281 837.96875 C 434.988281 837.964844 430.488281 829.671875 428.894531 825.957031 C 425.535156 818.117188 422.148438 807.226562 419.660156 799.070312 C 413.160156 777.742188 406.09375 748.839844 400.972656 727.140625 C 394.144531 698.214844 385.984375 659.414062 380.507812 630.199219 C 374.644531 598.921875 367.847656 557.027344 363.367188 525.523438 C 361.09375 509.535156 357.808594 488.21875 356.777344 472.105469 C 356.023438 460.371094 354.957031 444.574219 356.429688 432.910156 C 357.625 423.460938 360.710938 410.960938 364.425781 402.195312 C 366.429688 397.464844 369.875 391.429688 373.09375 387.421875 C 376.078125 383.707031 380.773438 379.273438 384.710938 376.589844 C 388.074219 374.300781 393.121094 372.128906 396.921875 370.683594 C 400.769531 369.21875 406.101562 367.832031 410.117188 366.941406 C 414.597656 365.949219 420.648438 364.957031 425.210938 364.527344 C 432.386719 363.847656 442.023438 364.125 449.226562 363.957031 C 451.507812 364.605469 454.675781 365.132812 456.835938 366.121094 C 461.929688 368.449219 468.222656 372.800781 472.160156 376.785156 C 477.207031 381.894531 482.222656 390.28125 485.402344 396.71875 C 489.507812 405.023438 493.011719 416.996094 495.265625 425.980469 C 497.582031 435.226562 499.558594 447.828125 500.511719 457.3125 C 502.234375 474.414062 502.585938 497.40625 502.039062 514.585938 C 501.65625 526.660156 500.054688 542.71875 498.5625 554.710938 C 493.421875 596.058594 483.539062 650.800781 475.039062 691.589844 C 469.203125 719.59375 460.417969 756.753906 452.542969 784.25 M 449.226562 363.957031 Z M 449.226562 363.957031 "/><path style="fill:none;stroke-width:1;stroke-linecap:round;stroke-linejoin:round;stroke:#ff7900;stroke-opacity:1;stroke-miterlimit:4;" d="M 635.027172 674.872269 C 639.403027 661.478242 645.733083 643.776443 649.615518 630.229843 C 656.159823 607.379491 663.460489 576.497918 668.310286 553.225554 C 675.373981 519.328214 683.586824 473.835271 687.8588 439.473718 C 689.098842 429.507732 690.429777 416.162399 690.747903 406.128241 C 691.202369 391.851235 690.910212 372.743809 689.478646 358.531728 C 688.686577 350.649834 687.044008 340.177432 685.119022 332.493559 C 683.245974 325.027185 680.334148 315.07743 676.92241 308.175903 C 674.280017 302.826083 670.111918 295.856385 665.917849 291.610291 C 662.645697 288.299116 657.416096 284.682794 653.183073 282.748029 C 651.387934 281.926728 648.75528 281.488484 646.859509 280.949607 C 640.873548 281.089195 632.865214 280.858712 626.901976 281.423559 C 623.110434 281.780647 618.082097 282.605194 614.358725 283.429741 C 611.021649 284.169886 606.590609 285.322305 603.393118 286.539649 C 600.234582 287.740761 596.040514 289.545676 593.24555 291.447978 C 589.973398 293.678152 586.071486 297.362645 583.591402 300.449829 C 580.916547 303.780481 578.053414 308.795936 576.388122 312.727145 C 573.301002 320.011729 570.736517 330.399728 569.743185 338.252406 C 568.519374 347.945708 569.405582 361.073542 570.032096 370.825276 C 570.889088 384.216056 573.619128 401.93084 575.508406 415.21774 C 579.231778 441.398744 584.880137 476.214772 589.752657 502.207494 C 594.303806 526.486195 601.085082 558.731193 606.75941 582.769672 C 611.015156 600.802589 616.887501 624.821591 622.28915 642.546114 C 624.356968 649.324284 627.171409 658.374828 629.963126 664.890051 C 631.287569 667.977234 635.027172 674.869023 635.027172 674.872269 " transform="matrix(1.203336,0,0,1.203312,-329.162995,25.887104)"/><path style=" stroke:none;fill-rule:evenodd;fill:#d44f02;fill-opacity:1;" d="M 478.667969 444.40625 C 482.769531 444.386719 488.25 444.640625 492.339844 444.332031 C 496.738281 444.003906 502.566406 443.078125 506.890625 442.203125 C 512.566406 441.050781 520.070312 439.125 525.558594 437.277344 C 530.347656 435.667969 536.457031 432.78125 541.140625 430.882812 C 541.140625 430.882812 541.785156 437.207031 541.949219 439.921875 C 542.175781 443.667969 542.316406 452.417969 542.316406 452.417969 C 533.386719 452.394531 521.433594 453.25 512.550781 452.34375 C 505.144531 451.589844 495.417969 449.402344 488.222656 447.492188 C 485.3125 446.722656 478.671875 444.40625 478.667969 444.40625 Z M 478.667969 444.40625 "/><path style="fill:none;stroke-width:1;stroke-linecap:round;stroke-linejoin:round;stroke:#d44f02;stroke-opacity:1;stroke-miterlimit:4;" d="M 724.219296 354.464177 C 724.219296 354.464177 724.102434 347.192578 723.914155 344.079424 C 723.777815 341.823281 723.242195 336.567603 723.242195 336.567603 C 719.350022 338.14528 714.272992 340.544259 710.293171 341.881713 C 705.732284 343.41719 699.496367 345.017591 694.779663 345.975234 C 691.186138 346.702394 686.342833 347.471755 682.687631 347.74444 C 679.288877 348.000894 674.734482 347.789888 671.32599 347.806119 C 671.329237 347.806119 676.847748 349.731145 679.266154 350.370656 C 685.245623 351.958072 693.328619 353.775972 699.483382 354.402499 C 706.865202 355.155628 716.798522 354.4447 724.219296 354.464177 M 671.32599 347.806119 L 671.32599 347.806119 " transform="matrix(1.203336,0,0,1.203312,-329.162995,25.887104)"/><path style=" stroke:none;fill-rule:evenodd;fill:#d44f02;fill-opacity:1;" d="M 471.132812 566.707031 C 473.457031 566.644531 476.558594 566.625 478.878906 566.492188 C 484.078125 566.195312 491.027344 565.765625 496.164062 564.914062 C 502.332031 563.894531 510.464844 561.929688 516.394531 559.964844 C 521.15625 558.386719 527.191406 555.445312 531.816406 553.507812 C 531.816406 553.507812 531.394531 557.378906 531.171875 559.035156 C 530.535156 563.800781 528.734375 574.886719 528.734375 574.886719 C 520.707031 574.820312 509.953125 575.566406 501.976562 574.671875 C 495.261719 573.917969 486.433594 571.847656 479.953125 569.9375 C 477.25 569.140625 471.132812 566.707031 471.132812 566.707031 Z M 471.132812 566.707031 "/><path style="fill:none;stroke-width:1;stroke-linecap:round;stroke-linejoin:round;stroke:#d44f02;stroke-opacity:1;stroke-miterlimit:4;" d="M 712.932318 456.240598 C 712.932318 456.240598 714.428808 447.027741 714.957936 443.067317 C 715.142969 441.690907 715.493556 438.473873 715.493556 438.473873 C 711.650076 440.084013 706.634723 442.528439 702.677626 443.839924 C 697.74992 445.472788 690.991367 447.105651 685.865644 447.952922 C 681.596913 448.660605 675.821954 449.017692 671.501284 449.264407 C 669.573052 449.37478 666.995582 449.391011 665.064103 449.442951 C 665.064103 449.442951 670.147626 451.465364 672.393985 452.127599 C 677.779402 453.715016 685.115776 455.435528 690.695964 456.062054 C 697.32467 456.805445 706.261412 456.185412 712.932318 456.240598 M 665.064103 449.442951 L 665.064103 449.442951 " transform="matrix(1.203336,0,0,1.203312,-329.162995,25.887104)"/><path style=" stroke:none;fill-rule:evenodd;fill:#d44f02;fill-opacity:1;" d="M 454.917969 719.203125 C 460.226562 718.988281 467.324219 719.023438 472.609375 718.488281 C 478.238281 717.917969 485.742188 716.863281 491.210938 715.429688 C 494.597656 714.542969 498.914062 712.722656 502.203125 711.527344 C 502.203125 711.527344 498.574219 727.386719 498.574219 727.386719 C 495.15625 727.390625 490.582031 727.714844 487.179688 727.398438 C 481.753906 726.894531 474.628906 725.261719 469.359375 723.886719 C 464.949219 722.738281 454.921875 719.203125 454.917969 719.203125 Z M 454.917969 719.203125 "/><path style="fill:none;stroke-width:1;stroke-linecap:round;stroke-linejoin:round;stroke:#d44f02;stroke-opacity:1;stroke-miterlimit:4;" d="M 687.868539 582.974186 C 687.868539 582.974186 690.884243 569.794412 690.884243 569.794412 C 688.150957 570.787765 684.563925 572.300517 681.749484 573.037416 C 677.204828 574.228789 670.96891 575.105277 666.29116 575.579229 C 661.899075 576.023965 656.00076 575.994749 651.589198 576.173293 C 651.592444 576.173293 659.925396 579.111149 663.590336 580.065546 C 667.969437 581.208226 673.890475 582.565159 678.399423 582.983925 C 681.226849 583.246871 685.028129 582.977432 687.868539 582.974186 M 651.589198 576.173293 L 651.589198 576.173293 " transform="matrix(1.203336,0,0,1.203312,-329.162995,25.887104)"/><path style=" stroke:none;fill-rule:evenodd;fill:#d44f02;fill-opacity:1;" d="M 418.046875 490.394531 C 414.53125 490.074219 409.84375 489.691406 406.335938 489.332031 C 400.046875 488.6875 391.585938 488.226562 385.402344 486.917969 C 379.378906 485.644531 371.582031 482.964844 365.8125 480.816406 C 363.125 479.8125 359.671875 478.144531 357.015625 477.054688 C 357.015625 477.054688 357.398438 482.871094 357.652344 485.355469 C 358.054688 489.242188 359.355469 498.269531 359.355469 498.273438 C 368.0625 498.273438 379.738281 499.3125 388.382812 498.273438 C 393.085938 497.707031 399.199219 495.945312 403.78125 494.722656 C 408.101562 493.570312 418.042969 490.394531 418.046875 490.394531 Z M 418.046875 490.394531 "/><path style="fill:none;stroke-width:1;stroke-linecap:round;stroke-linejoin:round;stroke:#d44f02;stroke-opacity:1;stroke-miterlimit:4;" d="M 572.174576 392.571902 C 572.174576 392.568656 571.093597 385.066573 570.759241 381.836555 C 570.548239 379.77194 570.230113 374.938274 570.230113 374.938274 C 572.437517 375.843978 575.307143 377.230126 577.540517 378.064413 C 582.335129 379.84985 588.814511 382.076777 593.820125 383.135055 C 598.958832 384.222548 605.990065 384.605606 611.21642 385.141237 C 614.131492 385.439892 618.026911 385.758024 620.948476 386.024217 C 620.94523 386.024217 612.683694 388.663418 609.093416 389.621061 C 605.285643 390.637138 600.205367 392.101196 596.296962 392.571902 C 589.113159 393.435405 579.410318 392.571902 572.174576 392.571902 M 620.948476 386.024217 L 620.948476 386.024217 " transform="matrix(1.203336,0,0,1.203312,-329.162995,25.887104)"/><path style=" stroke:none;fill-rule:evenodd;fill:#d44f02;fill-opacity:1;" d="M 436.117188 652.375 C 431.929688 651.949219 426.347656 651.433594 422.167969 650.953125 C 416.695312 650.324219 409.332031 649.804688 403.953125 648.605469 C 397.367188 647.140625 382.566406 641.667969 382.566406 641.667969 C 382.996094 643.683594 383.566406 646.375 383.980469 648.394531 C 384.695312 651.867188 386.304688 659.992188 386.304688 659.992188 C 392.707031 659.777344 401.289062 660.042969 407.652344 659.28125 C 411.738281 658.789062 417.097656 657.535156 421.101562 656.574219 C 425.648438 655.484375 436.117188 652.378906 436.117188 652.375 Z M 436.117188 652.375 "/><path style="fill:none;stroke-width:1;stroke-linecap:round;stroke-linejoin:round;stroke:#d44f02;stroke-opacity:1;stroke-miterlimit:4;" d="M 594.569993 526.96664 C 594.569993 526.96664 593.232566 520.214441 592.638514 517.328525 C 592.294419 515.650214 591.820476 513.413547 591.463396 511.738483 C 591.463396 511.738483 603.763183 516.286478 609.236248 517.503822 C 613.706242 518.500421 619.825297 518.932172 624.373199 519.454818 C 627.846615 519.854107 632.485411 520.282612 635.965319 520.636453 C 635.965319 520.639699 627.265548 523.220468 623.486991 524.126171 C 620.159654 524.924749 615.705891 525.966795 612.310383 526.375823 C 607.022351 527.008841 599.890487 526.788096 594.569993 526.96664 M 635.965319 520.636453 L 635.965319 520.636453 " transform="matrix(1.203336,0,0,1.203312,-329.162995,25.887104)"/></g></svg>