<svg xmlns="http://www.w3.org/2000/svg" xmlns:xlink="http://www.w3.org/1999/xlink" width="1200" zoomAndPan="magnify" viewBox="0 0 900 899.99999" height="1200" preserveAspectRatio="xMidYMid meet" version="1.2"><defs><clipPath id="cf37b7f0b5"><path d="M 334 66.371094 L 711 66.371094 L 711 438 L 334 438 Z M 334 66.371094 "/></clipPath></defs><g id="e0b29fdc55"><path style=" stroke:none;fill-rule:nonzero;fill:#ef302b;fill-opacity:1;" d="M 769.917969 596.414062 C 730.929688 760.578125 574.453125 833.476562 410.203125 794.511719 C 245.960938 755.550781 91.253906 587.171875 160.539062 380.78125 C 229.53125 175.246094 430.277344 235.457031 594.519531 274.421875 C 758.769531 313.390625 808.90625 432.269531 769.917969 596.414062 "/><path style=" stroke:none;fill-rule:nonzero;fill:#cccbcb;fill-opacity:1;" d="M 496.113281 804.808594 L 496.101562 804.808594 L 496.113281 804.808594 M 496.113281 804.808594 C 626.191406 804.800781 737.832031 731.507812 769.917969 596.414062 C 769.933594 596.347656 769.953125 596.285156 769.964844 596.207031 C 769.953125 596.273438 769.933594 596.347656 769.917969 596.414062 C 737.832031 731.527344 626.199219 804.808594 496.113281 804.808594 M 410.886719 794.667969 C 410.875 794.667969 410.867188 794.667969 410.859375 794.667969 C 410.867188 794.667969 410.875 794.667969 410.886719 794.667969 M 410.550781 794.59375 C 410.4375 794.566406 410.316406 794.539062 410.203125 794.511719 C 410.316406 794.539062 410.4375 794.566406 410.550781 794.59375 M 409.96875 794.453125 C 409.957031 794.453125 409.957031 794.453125 409.957031 794.453125 L 409.96875 794.453125 M 409.726562 794.398438 C 409.726562 794.398438 409.714844 794.398438 409.707031 794.386719 C 409.714844 794.398438 409.714844 794.398438 409.726562 794.398438 M 409.480469 794.339844 C 409.480469 794.339844 409.460938 794.332031 409.460938 794.332031 C 409.472656 794.332031 409.472656 794.339844 409.480469 794.339844 M 409.246094 794.285156 C 409.226562 794.277344 409.226562 794.277344 409.210938 794.277344 C 409.21875 794.277344 409.238281 794.277344 409.246094 794.285156 M 409.003906 794.230469 C 408.984375 794.21875 408.984375 794.21875 408.964844 794.21875 C 408.976562 794.21875 408.992188 794.21875 409.003906 794.230469 M 408.761719 794.164062 C 408.75 794.164062 408.730469 794.164062 408.722656 794.152344 C 408.730469 794.152344 408.75 794.164062 408.761719 794.164062 M 408.515625 794.105469 C 408.507812 794.097656 408.496094 794.097656 408.480469 794.097656 C 408.488281 794.097656 408.507812 794.105469 408.515625 794.105469 M 408.273438 794.050781 C 408.261719 794.042969 408.253906 794.042969 408.234375 794.042969 C 408.253906 794.042969 408.261719 794.042969 408.273438 794.050781 M 408.027344 793.984375 C 408.019531 793.984375 408.011719 793.984375 408 793.976562 C 408.011719 793.984375 408.019531 793.984375 408.027344 793.984375 M 407.785156 793.929688 C 407.777344 793.929688 407.765625 793.929688 407.757812 793.921875 C 407.765625 793.929688 407.777344 793.929688 407.785156 793.929688 M 407.542969 793.863281 C 407.53125 793.863281 407.53125 793.863281 407.523438 793.863281 L 407.542969 793.863281 M 769.980469 596.144531 C 769.992188 596.085938 770.011719 596.03125 770.019531 595.972656 C 770.011719 596.03125 769.992188 596.097656 769.980469 596.144531 M 770.039062 595.890625 C 770.058594 595.835938 770.066406 595.796875 770.074219 595.742188 C 770.066406 595.796875 770.058594 595.84375 770.039062 595.890625 M 770.09375 595.65625 C 770.113281 595.601562 770.113281 595.570312 770.121094 595.523438 C 770.113281 595.570312 770.105469 595.609375 770.09375 595.65625 M 770.160156 595.375 C 770.167969 595.347656 770.179688 595.300781 770.1875 595.273438 C 770.179688 595.308594 770.167969 595.335938 770.160156 595.375 M 770.214844 595.160156 C 770.214844 595.132812 770.226562 595.105469 770.234375 595.074219 C 770.226562 595.105469 770.214844 595.132812 770.214844 595.160156 M 770.28125 594.859375 C 770.292969 594.832031 770.292969 594.832031 770.292969 594.8125 C 770.292969 594.832031 770.292969 594.832031 770.28125 594.859375 M 770.328125 594.664062 C 770.339844 594.65625 770.328125 594.671875 770.328125 594.664062 "/><path style=" stroke:none;fill-rule:nonzero;fill:#bf2621;fill-opacity:1;" d="M 496.113281 804.808594 L 496.101562 804.808594 C 468.347656 804.800781 439.730469 801.457031 410.886719 794.667969 C 410.875 794.667969 410.867188 794.667969 410.859375 794.667969 C 410.746094 794.640625 410.660156 794.621094 410.550781 794.59375 C 410.4375 794.566406 410.316406 794.539062 410.203125 794.511719 C 410.128906 794.492188 410.050781 794.472656 409.96875 794.453125 L 409.957031 794.453125 C 409.875 794.433594 409.800781 794.417969 409.726562 794.398438 C 409.714844 794.398438 409.714844 794.398438 409.707031 794.386719 C 409.632812 794.378906 409.566406 794.359375 409.480469 794.339844 C 409.472656 794.339844 409.472656 794.332031 409.460938 794.332031 C 409.386719 794.3125 409.3125 794.292969 409.246094 794.285156 C 409.238281 794.277344 409.21875 794.277344 409.210938 794.277344 C 409.144531 794.257812 409.070312 794.238281 409.003906 794.230469 C 408.992188 794.21875 408.976562 794.21875 408.964844 794.21875 C 408.898438 794.199219 408.824219 794.183594 408.761719 794.164062 C 408.75 794.164062 408.730469 794.152344 408.722656 794.152344 C 408.65625 794.136719 408.582031 794.125 408.515625 794.105469 C 408.507812 794.105469 408.488281 794.097656 408.480469 794.097656 C 408.414062 794.078125 408.339844 794.058594 408.273438 794.050781 C 408.261719 794.042969 408.253906 794.042969 408.234375 794.042969 C 408.167969 794.023438 408.09375 794.003906 408.027344 793.984375 C 408.019531 793.984375 408.011719 793.984375 408 793.976562 C 407.925781 793.96875 407.859375 793.949219 407.785156 793.929688 C 407.777344 793.929688 407.765625 793.929688 407.757812 793.921875 C 407.683594 793.902344 407.617188 793.882812 407.542969 793.863281 L 407.523438 793.863281 C 407.449219 793.84375 407.375 793.828125 407.289062 793.808594 C 325.351562 773.59375 246.15625 721.21875 196.292969 648.132812 C 256.722656 703.992188 337.386719 737.566406 415.617188 743.203125 C 425.058594 743.886719 434.417969 744.214844 443.683594 744.214844 C 599.585938 744.214844 727.417969 648.84375 738.871094 490.007812 C 743.03125 432.332031 737.710938 381.589844 722.132812 339.304688 C 781.980469 397.925781 795.675781 486.355469 770.328125 594.664062 C 770.328125 594.671875 770.339844 594.65625 770.328125 594.664062 C 770.320312 594.710938 770.308594 594.757812 770.292969 594.8125 C 770.292969 594.832031 770.292969 594.832031 770.28125 594.859375 C 770.273438 594.925781 770.253906 595 770.234375 595.074219 C 770.226562 595.105469 770.214844 595.132812 770.214844 595.160156 C 770.207031 595.207031 770.199219 595.234375 770.1875 595.273438 C 770.179688 595.300781 770.167969 595.347656 770.160156 595.375 C 770.152344 595.421875 770.140625 595.476562 770.121094 595.523438 C 770.113281 595.570312 770.113281 595.601562 770.09375 595.65625 C 770.09375 595.683594 770.085938 595.710938 770.074219 595.742188 C 770.066406 595.796875 770.058594 595.835938 770.039062 595.890625 C 770.039062 595.917969 770.027344 595.945312 770.019531 595.972656 C 770.011719 596.03125 769.992188 596.085938 769.980469 596.144531 C 769.972656 596.171875 769.972656 596.179688 769.964844 596.207031 C 769.953125 596.285156 769.933594 596.347656 769.917969 596.414062 C 737.832031 731.507812 626.191406 804.800781 496.113281 804.808594 "/><path style=" stroke:none;fill-rule:nonzero;fill:#f1493a;fill-opacity:1;" d="M 327.675781 482.96875 C 317.753906 524.734375 275.84375 550.566406 234.035156 540.652344 C 192.238281 530.726562 166.402344 488.828125 176.324219 447.050781 C 202.53125 336.730469 238.457031 294.113281 280.265625 304.027344 C 322.0625 313.941406 261.875 423.457031 327.675781 482.96875 "/><path style=" stroke:none;fill-rule:nonzero;fill:#2e5223;fill-opacity:1;" d="M 572.953125 321.265625 C 657.777344 357.542969 600.027344 473.144531 584.65625 500.035156 C 594.640625 412.605469 570.773438 348.304688 476.65625 351.121094 C 413.714844 277.972656 279.421875 384.519531 279.421875 384.519531 C 279.421875 384.519531 350.839844 237.046875 483.839844 287.550781 C 483.839844 287.550781 319.457031 185.683594 251.804688 273.804688 C 298.410156 198.652344 410.566406 169.457031 510.855469 245.640625 C 510.855469 245.640625 693.683594 274.46875 750.890625 200.046875 C 691.960938 325.355469 624.28125 290.320312 615.867188 295.507812 C 615.867188 295.507812 743.867188 328.277344 781 413.722656 C 710.421875 355.0625 572.953125 321.265625 572.953125 321.265625 "/><g clip-rule="nonzero" clip-path="url(#cf37b7f0b5)"><path style=" stroke:none;fill-rule:nonzero;fill:#447a2e;fill-opacity:1;" d="M 412.460938 410.453125 C 412.460938 410.453125 448.300781 330.457031 514.097656 355.261719 C 579.894531 380.082031 534.292969 426.546875 526.277344 437.457031 C 526.277344 437.457031 616.1875 407.074219 595.960938 360.972656 C 575.738281 314.871094 690.546875 394.164062 683.386719 410.742188 C 693.28125 368.957031 623.4375 317.652344 590.941406 307.183594 C 590.941406 307.183594 675.4375 287.632812 710.910156 342.253906 C 687.183594 270.734375 571.738281 254.769531 551.210938 270.976562 C 551.210938 270.976562 593.882812 230.765625 603.472656 131.304688 C 563.007812 186.628906 532.945312 225.597656 496.769531 244.433594 C 496.769531 244.433594 443.0625 154.253906 495.71875 66.429688 C 411.980469 105.558594 428.074219 228.582031 461.621094 250.183594 C 461.621094 250.183594 370.203125 237.804688 334.175781 293.664062 C 395.992188 272.214844 441.039062 280.433594 484.535156 296.257812 C 484.535156 296.257812 398.417969 331.265625 412.460938 410.453125 "/></g><path style=" stroke:none;fill-rule:nonzero;fill:#5dab33;fill-opacity:1;" d="M 545.367188 307.714844 L 536.5625 296.855469 L 705.035156 108.207031 L 739.3125 150.441406 L 545.367188 307.714844 "/></g></svg>